<svg width="189" height="165" viewBox="0 0 189 165" fill="none" xmlns="http://www.w3.org/2000/svg">
<path d="M151.405 153.886C152.09 154.666 152.965 155.313 153.954 155.636C157.454 156.739 160.117 152.992 160.916 151.68C161.106 151.375 161.468 151.204 161.81 151.28C162.951 151.508 163.902 152.536 164.93 153.201C170.256 156.72 177.427 143.633 177.788 143.063C178.644 141.75 177.75 139.962 176.59 138.916C175.734 138.155 174.707 137.584 173.889 136.805C173.242 136.215 173.09 135.283 173.508 134.503C174.688 132.296 180.109 127.94 180.109 124.783C180.109 122.842 169.267 114.986 168.03 117.231C165.253 122.291 157.625 134.788 150.321 141.065C144.158 146.354 146.307 148.161 151.386 153.886H151.405Z" fill="#FFCC00"/>
<path d="M183.057 137.813C184.712 135.644 186.348 133.457 188.003 131.288C188.441 130.698 188.498 129.633 188.307 128.968C188.117 128.302 187.566 127.503 186.919 127.16C186.215 126.799 185.378 126.609 184.598 126.856L183.875 127.16C183.419 127.427 183.057 127.788 182.791 128.245L177.845 134.769C177.408 135.359 177.351 136.424 177.541 137.09C177.731 137.756 178.283 138.555 178.93 138.897C179.633 139.258 180.47 139.449 181.25 139.201L181.973 138.897C182.43 138.631 182.791 138.269 183.057 137.813Z" fill="#FFCC00"/>
<path d="M160.193 163.892C161.334 162.598 162.533 161.343 163.693 160.049C163.959 159.745 164.131 159.403 164.207 159.022C164.359 158.642 164.397 158.261 164.34 157.843C164.321 157.424 164.188 157.044 163.959 156.72C163.807 156.359 163.56 156.055 163.237 155.826C162.609 155.351 161.829 155.046 161.03 155.161L160.25 155.351C159.755 155.541 159.337 155.845 159.014 156.245C157.853 157.538 156.655 158.794 155.514 160.087C155.247 160.392 155.076 160.734 155 161.114C154.848 161.495 154.81 161.875 154.867 162.294C154.886 162.712 155.019 163.093 155.247 163.416C155.399 163.778 155.647 164.082 155.97 164.31C156.598 164.786 157.378 165.09 158.177 164.976L158.957 164.786C159.451 164.596 159.87 164.291 160.193 163.892Z" fill="#FFCC00"/>
<path d="M175.753 160.962C176.647 160.221 177.522 159.46 178.359 158.642C179.025 157.995 179.615 157.291 180.223 156.606C180.49 156.302 180.661 155.941 180.737 155.541C180.889 155.161 180.927 154.761 180.851 154.343C180.756 153.62 180.337 152.802 179.729 152.364C179.082 151.908 178.283 151.604 177.484 151.737C176.685 151.87 176.038 152.231 175.506 152.859C174.897 153.544 174.307 154.267 173.642 154.894L174.193 154.362C173.547 154.989 172.824 155.56 172.139 156.131C171.53 156.644 171.074 157.31 170.96 158.109C170.864 158.832 171.055 159.764 171.53 160.335C172.006 160.905 172.71 161.438 173.508 161.514C174.307 161.59 175.125 161.457 175.734 160.943L175.753 160.962Z" fill="#FFCC00"/>
<path d="M1.62654 70.9698C-1.07458 79.834 1.68356 88.546 7.77058 90.4101C13.8766 92.2743 21.0098 86.5867 23.711 77.7035C26.4121 68.8393 23.6539 60.1273 17.5669 58.2632C11.4608 56.399 4.32765 62.0865 1.62654 70.9698Z" fill="#F7FCF8"/>
<path style="mix-blend-mode:multiply" opacity="0.25" d="M23.6538 74.2795C20.9527 83.1437 13.8195 88.8313 7.71343 86.9862C3.73785 85.7688 1.20795 81.66 0.656313 76.486C0.256852 83.2008 2.97699 88.9454 7.78953 90.4101C13.8956 92.2742 21.0288 86.5867 23.7299 77.7034C24.681 74.6029 24.9473 71.5403 24.6429 68.7822C24.5288 70.5702 24.2245 72.4154 23.6538 74.2986V74.2795Z" fill="url(#paint0_radial_234_67140)"/>
<path style="mix-blend-mode:multiply" opacity="0.25" d="M7.88468 72.206C6.22977 77.6273 7.92272 82.9345 11.632 84.0568C15.3413 85.1791 19.7163 81.7171 21.3522 76.3148C23.0071 70.8936 21.3142 65.5864 17.6049 64.4641C13.8766 63.3228 9.52056 66.8038 7.88468 72.206Z" fill="url(#paint1_radial_234_67140)"/>
<path style="mix-blend-mode:multiply" opacity="0.25" d="M7.88474 72.2061C6.61027 76.3719 7.31412 80.4616 9.40653 82.6491C12.0886 81.698 14.6185 78.8637 15.7789 75.0403C17.0534 70.8745 16.3495 66.7848 14.2571 64.5973C11.575 65.5484 9.04508 68.3827 7.88474 72.2061Z" fill="url(#paint2_radial_234_67140)"/>
<path d="M9.42559 73.9182C18.1947 29.3498 62.649 0.550649 108.739 9.6241C154.81 18.6785 185.055 62.1817 176.286 106.75C167.517 151.318 126.658 171.12 80.5866 162.066C34.5155 153.011 0.675529 118.506 9.44463 73.9372L9.42559 73.9182Z" fill="#F7FCF8"/>
<path style="mix-blend-mode:multiply" opacity="0.25" d="M158.843 39.3172C169.057 56.1136 173.28 76.3719 169.248 96.8585C160.479 141.427 119.619 161.229 73.5483 152.174C50.3606 147.609 30.2735 136.614 17.1674 121.13C29.3604 141.807 52.7383 156.587 80.5864 162.066C126.658 171.12 167.517 151.337 176.286 106.75C181.136 82.0405 174.003 57.6924 158.862 39.3362L158.843 39.3172Z" fill="url(#paint3_radial_234_67140)"/>
<path d="M10.3576 76.6191C17.5669 39.9829 54.108 16.3197 91.9806 23.7763C129.853 31.2329 154.715 66.975 147.506 103.611C140.296 140.247 106.704 156.53 68.85 149.074C30.9773 141.617 3.16726 113.274 10.3766 76.6382L10.3576 76.6191Z" fill="url(#paint4_radial_234_67140)"/>
<path style="mix-blend-mode:multiply" opacity="0.25" d="M9.04507 74.8882C16.4256 37.358 54.4504 13.2382 93.9589 20.9991C133.467 28.7791 159.508 65.4914 152.128 103.022C144.747 140.552 109.785 157.12 70.2766 149.34C30.7681 141.56 1.66456 112.399 9.04507 74.8692V74.8882Z" fill="url(#paint5_radial_234_67140)"/>
<path style="mix-blend-mode:screen" d="M65.6352 103.516C42.029 98.8748 22.3413 86.1111 12.5831 68.2685C11.67 70.9696 10.9091 73.7468 10.3385 76.6192C3.12918 113.255 30.9392 141.617 68.8118 149.055C106.684 156.511 140.277 140.228 147.467 103.592C150.207 89.7062 148.323 75.9344 142.864 63.7984C133.41 96.3639 101.434 110.573 65.6162 103.516H65.6352Z" fill="url(#paint6_radial_234_67140)"/>
<path d="M141.628 61.9723C141.285 63.0756 140.924 64.1408 140.525 65.206C142.294 73.1952 142.427 81.622 140.677 90.1058C133.505 124.573 100.579 139.981 63.5619 133.114C42.79 129.253 25.1376 119.209 14.9038 105.038C23.3305 124.06 43.8362 137.737 68.888 142.378C105.924 149.245 138.832 133.837 146.003 99.3694C148.723 86.3014 146.935 73.3664 141.628 61.9723V61.9723Z" fill="url(#paint7_radial_234_67140)"/>
<path style="mix-blend-mode:screen" d="M45.6053 74.0132C47.7928 60.4506 53.0048 45.8227 63.7141 32.2601C63.7141 32.2601 40.146 36.3689 25.6893 58.7387C31.0725 65.7007 37.8633 70.5702 45.6243 74.0132H45.6053Z" fill="url(#paint8_radial_234_67140)"/>
<path style="mix-blend-mode:screen" d="M44.9393 78.8637C36.5126 75.3066 29.037 70.2658 23.1021 63.0756C11.1944 84.9127 17.4336 102.09 22.4554 108.728C27.7245 115.69 40.9447 123.775 49.5046 125.525C49.5046 125.525 42.029 104.695 44.9393 78.8637V78.8637Z" fill="url(#paint9_radial_234_67140)"/>
<path style="mix-blend-mode:screen" opacity="0.45" d="M55.6867 31.5943C44.5208 34.5427 19.3168 44.3199 25.0804 66.2332C29.2653 82.1735 52.0345 95.3368 94.6246 94.0052C137.196 92.6737 128.693 52.214 108.301 41.5237C87.9098 30.8334 66.4531 28.7411 55.7057 31.5943H55.6867Z" fill="url(#paint10_radial_234_67140)"/>
<path style="mix-blend-mode:screen" d="M42.6569 48.3907C44.3689 49.9695 43.1325 54.1163 39.8988 57.6353C36.665 61.1544 32.6324 62.7331 30.9204 61.1543C29.2084 59.5755 30.4448 55.4288 33.6785 51.9097C36.9123 48.3906 40.9449 46.8119 42.6569 48.3907Z" fill="url(#paint11_radial_234_67140)"/>
<path style="mix-blend-mode:screen" d="M53.0047 40.1732C53.8226 41.3526 52.5102 43.6732 50.0754 45.3471C47.6406 47.021 45.0155 47.4015 44.1975 46.2222C43.3796 45.0428 44.6921 42.7221 47.1269 41.0481C49.5617 39.3742 52.1867 38.9938 53.0047 40.1732Z" fill="url(#paint12_radial_234_67140)"/>
<path style="mix-blend-mode:multiply" opacity="0.25" d="M133.182 110.649C130.481 119.514 133.886 128.416 140.791 130.527C147.696 132.639 155.476 127.141 158.196 118.277C160.897 109.413 157.492 100.511 150.587 98.3992C143.682 96.2878 135.902 101.785 133.182 110.649Z" fill="url(#paint13_radial_234_67140)"/>
<path d="M158.561 117.437C161.266 108.564 158.513 99.8631 152.413 98.004C146.314 96.1449 139.176 101.831 136.472 110.705C133.768 119.578 136.52 128.278 142.62 130.137C148.72 131.997 155.857 126.31 158.561 117.437Z" fill="#F7FCF8"/>
<path style="mix-blend-mode:multiply" opacity="0.25" d="M158.5 114.054C155.799 122.919 148.666 128.606 142.56 126.761C138.584 125.544 136.054 121.435 135.503 116.261C135.103 122.976 137.823 128.72 142.636 130.185C148.742 132.049 155.875 126.361 158.576 117.478C159.527 114.378 159.794 111.315 159.489 108.557C159.375 110.345 159.071 112.19 158.5 114.073V114.054Z" fill="url(#paint14_radial_234_67140)"/>
<path d="M142.731 111.962C141.076 117.383 142.769 122.69 146.478 123.813C150.207 124.954 154.563 121.473 156.198 116.071C157.853 110.649 156.16 105.342 152.451 104.22C148.742 103.098 144.367 106.56 142.731 111.962Z" fill="#F3A400"/>
<g style="mix-blend-mode:multiply" opacity="0.5">
<path d="M142.731 111.962C141.457 116.128 142.161 120.217 144.253 122.405C146.935 121.454 149.465 118.62 150.625 114.796C151.9 110.63 151.196 106.541 149.104 104.353C146.421 105.304 143.892 108.139 142.731 111.962Z" fill="#F3A400"/>
</g>
<path style="mix-blend-mode:multiply" opacity="0.46" d="M160.269 40.5727C160.326 40.3825 160.383 40.1733 160.421 39.945C160.421 39.907 160.421 39.8879 160.421 39.8498C160.459 39.6216 160.478 39.3744 160.478 39.089C160.478 39.051 160.478 38.9939 160.478 38.9559C160.478 38.7276 160.478 38.4803 160.44 38.1949C160.44 38.1379 160.44 38.0809 160.421 38.0238C160.421 37.9667 160.421 37.9096 160.402 37.8526C160.402 37.7384 160.383 37.6434 160.364 37.5292C160.326 37.2629 160.269 36.9776 160.212 36.6923C160.212 36.6542 160.193 36.5971 160.174 36.54C160.022 35.8362 159.813 35.0373 159.527 34.1433C159.318 33.4775 159.071 32.7547 158.766 31.9558C158.614 31.5564 158.443 31.1569 158.253 30.7574C158.177 30.6052 158.101 30.4721 158.006 30.32C157.872 30.0536 157.72 29.7873 157.568 29.5209C157.435 29.2927 157.264 29.0645 157.131 28.8362C156.997 28.646 156.883 28.4558 156.75 28.2465C156.56 27.9612 156.332 27.6758 156.122 27.3905C156.008 27.2383 155.913 27.0862 155.799 26.934C155.533 26.5916 155.247 26.2683 154.962 25.9259C154.867 25.8118 154.791 25.7166 154.696 25.6024C154.372 25.241 154.049 24.8796 153.707 24.5182C153.631 24.4231 153.554 24.3471 153.459 24.252C153.079 23.8525 152.66 23.434 152.242 23.0155C152.185 22.9774 152.147 22.9204 152.109 22.8823C151.652 22.4448 151.196 22.0073 150.701 21.5698C150.682 21.5508 150.663 21.5318 150.625 21.5128C138.28 10.366 115.149 -1.16135 96.2605 0.0940981C76.5537 1.40661 65.7683 7.83605 59.9476 14.6269C59.8525 14.722 59.7764 14.8361 59.6813 14.9312C59.396 15.2545 59.1486 15.597 58.8823 15.9203C58.7302 16.1106 58.597 16.3008 58.4639 16.491C58.2546 16.7763 58.0644 17.0426 57.8742 17.328C57.684 17.5943 57.5128 17.8796 57.3416 18.1459C57.2084 18.3551 57.0753 18.5644 56.9612 18.7736C56.6758 19.2682 56.4095 19.7437 56.1622 20.2382C53.0046 26.4584 58.2166 30.6053 63.3715 31.9749C64.7982 32.3553 66.2248 32.5265 67.4803 32.4504C73.8526 32.127 80.2059 32.9069 86.4261 34.4286C88.4995 34.9422 90.5729 35.5129 92.6082 36.1786C97.611 37.7765 102.5 39.7167 107.274 41.9993C108.872 42.7602 110.451 43.5401 112.011 44.3771C112.752 44.7765 113.513 45.176 114.255 45.5755C116.5 46.7929 118.744 48.0864 120.856 49.5511C124.204 51.8527 128.427 51.263 131.622 48.9424C131.622 48.9424 131.66 48.9233 131.679 48.9043C131.908 48.7521 132.117 48.581 132.326 48.3908C132.364 48.3527 132.421 48.3147 132.459 48.2766C132.687 48.0674 132.935 47.8581 133.144 47.6299C134.533 46.2032 135.94 45.0618 137.443 44.1298C138.451 43.5211 139.478 43.0075 140.581 42.589C141.133 42.3798 141.685 42.1896 142.274 42.0184C143.435 41.676 144.652 41.4288 145.965 41.2576C146.859 41.1244 147.753 41.0292 148.685 40.9722C151.443 40.801 154.277 40.9532 156.921 41.619C156.921 41.619 156.94 41.6189 156.978 41.6379C157.016 41.6379 157.074 41.676 157.131 41.695C157.131 41.695 157.131 41.695 157.15 41.695C157.207 41.714 157.283 41.733 157.378 41.7711C157.378 41.7711 157.397 41.7711 157.416 41.7711C157.511 41.7901 157.606 41.8092 157.701 41.8282C157.701 41.8282 157.72 41.8282 157.739 41.8282C157.853 41.8472 157.968 41.8662 158.082 41.8662C158.196 41.8662 158.329 41.8662 158.462 41.8662C158.462 41.8662 158.462 41.8662 158.481 41.8662C158.595 41.8662 158.728 41.8472 158.843 41.8092C158.843 41.8092 158.881 41.8092 158.9 41.8092C159.014 41.7711 159.128 41.733 159.261 41.676C159.261 41.676 159.299 41.676 159.318 41.6569C159.432 41.5999 159.546 41.5238 159.641 41.4477C159.641 41.4477 159.68 41.4287 159.68 41.4096C159.794 41.3145 159.889 41.2004 159.965 41.0673C159.965 41.0673 159.965 41.0482 159.984 41.0292C160.079 40.896 160.155 40.7248 160.212 40.5536C160.212 40.5536 160.212 40.5537 160.212 40.5347L160.269 40.5727Z" fill="url(#paint15_radial_234_67140)"/>
<path d="M63.2004 29.6351C58.0645 28.4177 52.8905 24.6514 56.0862 18.9068C60.4232 11.0888 71.1516 1.82511 96.2795 0.113141C121.407 -1.59883 153.916 17.4611 158.538 28.9884C163.161 40.5157 156.598 37.8716 156.598 37.8716C153.079 37.0727 149.218 37.1297 145.66 37.6053C140.429 38.3091 136.53 40.0211 132.821 43.5591C129.549 46.6597 124.432 47.8391 120.551 45.4043C117.736 43.6353 114.712 42.1325 111.725 40.7058C105.505 37.7004 99.0377 35.2085 92.3991 33.3063C84.2387 30.9666 75.7929 29.6161 67.3092 30.0727C66.0727 30.1487 64.646 29.9965 63.2194 29.6541L63.2004 29.6351Z" fill="#F7FCF8"/>
<path style="mix-blend-mode:multiply" opacity="0.25" d="M156.959 31.9177C153.44 31.1187 149.579 31.1758 146.022 31.6513C140.791 32.3551 136.891 34.0671 133.182 37.6052C129.91 40.7058 124.793 41.8852 120.913 39.4504C118.098 37.6813 115.073 36.1786 112.087 34.7519C105.867 31.7464 99.3991 29.2547 92.7604 27.3525C84.6 25.0128 76.1544 23.6622 67.6706 24.1187C66.4342 24.1948 65.0075 24.0426 63.5808 23.7002C60.4993 22.9583 57.4178 21.3225 56.1243 18.8687C56.1243 18.8687 56.1243 18.9067 56.1052 18.9067C52.9096 24.6514 58.0835 28.4176 63.2194 29.635C64.6461 29.9774 66.0727 30.1106 67.3092 30.0535C75.7929 29.597 84.2387 30.9476 92.3991 33.2873C99.0377 35.1895 105.505 37.6813 111.725 40.6867C114.712 42.1324 117.736 43.6162 120.552 45.3852C124.432 47.82 129.549 46.6596 132.821 43.54C136.53 40.021 140.429 38.309 145.66 37.5862C149.218 37.1106 153.079 37.0536 156.598 37.8525C156.598 37.8525 162 40.021 159.565 31.8416C158.5 32.5074 156.959 31.8986 156.959 31.8986V31.9177Z" fill="url(#paint16_radial_234_67140)"/>
<path style="mix-blend-mode:multiply" opacity="0.25" d="M132.821 43.559C136.53 40.04 140.429 38.328 145.66 37.6052C149.218 37.1296 153.079 37.0726 156.598 37.8715C156.598 37.8715 162 40.04 159.566 31.8606C158.5 32.5264 156.959 31.9176 156.959 31.9176C153.44 31.1187 149.579 31.1757 146.022 31.6513C140.791 32.3551 136.891 34.0671 133.182 37.6052C131.584 39.1269 129.53 40.1731 127.399 40.5726C127.399 43.0454 126.81 45.0617 126.087 46.6215C128.541 46.3933 130.976 45.29 132.821 43.54V43.559Z" fill="url(#paint17_radial_234_67140)"/>
<path style="mix-blend-mode:multiply" opacity="0.25" d="M135.274 9.68104C129.682 17.3849 97.6301 19.7816 77.7331 16.7762C68.089 15.3115 65.2928 12.2491 65.445 9.03436C60.8417 12.154 57.8933 15.654 56.0862 18.9067C52.8905 24.6514 58.0645 28.4176 63.2004 29.635C64.6271 29.9774 66.0537 30.1106 67.2901 30.0536C75.7739 29.597 84.2196 30.9476 92.38 33.2873C99.0187 35.1895 105.486 37.6813 111.706 40.6867C114.693 42.1324 117.717 43.6162 120.532 45.3852C124.413 47.82 129.53 46.6596 132.802 43.54C136.511 40.021 140.41 38.309 145.641 37.5862C149.199 37.1106 153.06 37.0536 156.579 37.8525C156.579 37.8525 163.142 40.4966 158.519 28.9693C156.218 23.2437 147.011 15.6349 135.255 9.662L135.274 9.68104Z" fill="url(#paint18_radial_234_67140)"/>
<path d="M103.819 100.821C104.457 97.4029 98.4856 93.4211 90.4819 91.9276C82.4783 90.4341 75.473 91.9944 74.8351 95.4128C74.1973 98.8311 80.1684 102.813 88.172 104.306C96.1756 105.8 103.181 104.24 103.819 100.821Z" fill="url(#paint19_radial_234_67140)"/>
<path d="M52.5059 90.3273C53.1438 86.909 47.1727 82.9272 39.1691 81.4337C31.1655 79.9402 24.1601 81.5005 23.5223 84.9189C22.8844 88.3372 28.8555 92.319 36.8591 93.8125C44.8628 95.306 51.8681 93.7456 52.5059 90.3273Z" fill="url(#paint20_radial_234_67140)"/>
<path d="M90.4208 99.921C98.6991 99.921 105.41 93.2101 105.41 84.9317C105.41 76.6534 98.6991 69.9424 90.4208 69.9424C82.1425 69.9424 75.4315 76.6534 75.4315 84.9317C75.4315 93.2101 82.1425 99.921 90.4208 99.921Z" fill="url(#paint21_radial_234_67140)"/>
<path d="M43.2465 87.709C50.4848 87.709 56.3526 81.8411 56.3526 74.6028C56.3526 67.3645 50.4848 61.4967 43.2465 61.4967C36.0082 61.4967 30.1404 67.3645 30.1404 74.6028C30.1404 81.8411 36.0082 87.709 43.2465 87.709Z" fill="url(#paint22_radial_234_67140)"/>
<path style="mix-blend-mode:screen" opacity="0.45" d="M90.4208 92.5596C94.6335 92.5596 98.0486 89.1445 98.0486 84.9318C98.0486 80.7191 94.6335 77.304 90.4208 77.304C86.2081 77.304 82.793 80.7191 82.793 84.9318C82.793 89.1445 86.2081 92.5596 90.4208 92.5596Z" fill="url(#paint23_radial_234_67140)"/>
<path style="mix-blend-mode:screen" opacity="0.45" d="M43.2465 82.0024C47.3332 82.0024 50.6461 78.6895 50.6461 74.6029C50.6461 70.5162 47.3332 67.2033 43.2465 67.2033C39.1599 67.2033 35.847 70.5162 35.847 74.6029C35.847 78.6895 39.1599 82.0024 43.2465 82.0024Z" fill="url(#paint24_radial_234_67140)"/>
<g style="mix-blend-mode:screen">
<path d="M90.4208 92.5596C94.6335 92.5596 98.0486 89.1445 98.0486 84.9318C98.0486 80.7191 94.6335 77.304 90.4208 77.304C86.2081 77.304 82.793 80.7191 82.793 84.9318C82.793 89.1445 86.2081 92.5596 90.4208 92.5596Z" fill="#00FFFF"/>
</g>
<g style="mix-blend-mode:screen">
<path d="M43.2465 82.0024C47.3332 82.0024 50.6461 78.6895 50.6461 74.6029C50.6461 70.5162 47.3332 67.2033 43.2465 67.2033C39.1599 67.2033 35.847 70.5162 35.847 74.6029C35.847 78.6895 39.1599 82.0024 43.2465 82.0024Z" fill="#00FFFF"/>
</g>
<g style="mix-blend-mode:screen">
<path d="M97.9472 99.7255C98.3269 97.6911 94.7752 95.3216 90.0144 94.4332C85.2535 93.5448 81.0863 94.4739 80.7067 96.5084C80.327 98.5429 83.8787 100.912 88.6396 101.801C93.4004 102.689 97.5676 101.76 97.9472 99.7255Z" fill="white"/>
</g>
<path d="M46.6583 89.1385C47.0379 87.104 43.4863 84.7346 38.7254 83.8462C33.9645 82.9578 29.7973 83.8868 29.4176 85.9213C29.038 87.9558 32.5898 90.3252 37.3506 91.2136C42.1115 92.102 46.2787 91.1729 46.6583 89.1385Z" fill="#F493A4"/>
<g style="mix-blend-mode:screen">
<path d="M46.6583 89.1385C47.0379 87.104 43.4863 84.7346 38.7254 83.8462C33.9645 82.9578 29.7973 83.8868 29.4176 85.9213C29.038 87.9558 32.5898 90.3252 37.3506 91.2136C42.1115 92.102 46.2787 91.1729 46.6583 89.1385Z" fill="white"/>
</g>
<path d="M46.271 92.4454C46.9177 89.5921 55.4586 89.7252 62.1923 90.9807C68.9261 92.2361 77.2387 96.3639 76.7441 99.2362C74.9941 109.527 63.8663 112.723 57.1325 111.467C50.3987 110.212 44.3117 100.929 46.252 92.4454H46.271Z" fill="url(#paint25_radial_234_67140)"/>
<g style="mix-blend-mode:screen">
<path d="M51.7493 95.527C52.2058 93.5106 58.2357 93.6058 62.9912 94.4998C67.7467 95.3938 73.6245 98.3042 73.2821 100.34C72.0457 107.606 64.1896 109.869 59.4151 108.975C54.6596 108.081 50.3607 101.519 51.7303 95.527H51.7493Z" fill="#00FFFF"/>
</g>
<defs>
<radialGradient id="paint0_radial_234_67140" cx="0" cy="0" r="1" gradientUnits="userSpaceOnUse" gradientTransform="translate(18.9102 89.8789) rotate(-5.04) scale(0.951095)">
<stop stop-color="#52DFEC"/>
<stop offset="0.94" stop-color="#408BED"/>
</radialGradient>
<radialGradient id="paint1_radial_234_67140" cx="0" cy="0" r="1" gradientUnits="userSpaceOnUse" gradientTransform="translate(14.7983 55.1625) rotate(-5.04001) scale(40.707 40.7071)">
<stop stop-color="#52DFEC"/>
<stop offset="0.94" stop-color="#408BED"/>
</radialGradient>
<radialGradient id="paint2_radial_234_67140" cx="0" cy="0" r="1" gradientUnits="userSpaceOnUse" gradientTransform="translate(11.5136 56.6744) rotate(-5.03998) scale(35.8945 35.8943)">
<stop stop-color="#52DFEC"/>
<stop offset="0.94" stop-color="#408BED"/>
</radialGradient>
<radialGradient id="paint3_radial_234_67140" cx="0" cy="0" r="1" gradientUnits="userSpaceOnUse" gradientTransform="translate(97.4609 104.93) rotate(-5.04) scale(71.5034 71.5034)">
<stop stop-color="#52DFEC"/>
<stop offset="0.94" stop-color="#408BED"/>
</radialGradient>
<radialGradient id="paint4_radial_234_67140" cx="0" cy="0" r="1" gradientUnits="userSpaceOnUse" gradientTransform="translate(38.1393 40.9401) rotate(-5.04) scale(163.855 163.855)">
<stop offset="0.06" stop-color="#000A57"/>
<stop offset="0.96" stop-color="#000328"/>
</radialGradient>
<radialGradient id="paint5_radial_234_67140" cx="0" cy="0" r="1" gradientUnits="userSpaceOnUse" gradientTransform="translate(22.6965 45.6468) rotate(-4.77) scale(170.409 168.77)">
<stop stop-color="#52DFEC"/>
<stop offset="0.94" stop-color="#408BED"/>
</radialGradient>
<radialGradient id="paint6_radial_234_67140" cx="0" cy="0" r="1" gradientUnits="userSpaceOnUse" gradientTransform="translate(125.611 159.525) rotate(-5.04) scale(0.951096)">
<stop offset="0.04" stop-color="#000328"/>
<stop offset="0.94" stop-color="#000A57"/>
</radialGradient>
<radialGradient id="paint7_radial_234_67140" cx="0" cy="0" r="1" gradientUnits="userSpaceOnUse" gradientTransform="translate(74.4523 75.719) rotate(-5.04) scale(193.567 193.567)">
<stop offset="0.06" stop-color="#000A57"/>
<stop offset="0.96" stop-color="#000328"/>
</radialGradient>
<radialGradient id="paint8_radial_234_67140" cx="0" cy="0" r="1" gradientUnits="userSpaceOnUse" gradientTransform="translate(27.306 43.6139) rotate(-0.650001) scale(94.653 94.6531)">
<stop offset="0.04" stop-color="#000328"/>
<stop offset="0.94" stop-color="#000A57"/>
</radialGradient>
<radialGradient id="paint9_radial_234_67140" cx="0" cy="0" r="1" gradientUnits="userSpaceOnUse" gradientTransform="translate(27.3058 43.6139) rotate(-0.65) scale(94.6531 94.6531)">
<stop offset="0.04" stop-color="#000328"/>
<stop offset="0.94" stop-color="#000A57"/>
</radialGradient>
<radialGradient id="paint10_radial_234_67140" cx="0" cy="0" r="1" gradientUnits="userSpaceOnUse" gradientTransform="translate(46.2364 39.8632) rotate(-5.04) scale(100.816 100.816)">
<stop offset="0.04" stop-color="#000328"/>
<stop offset="0.94" stop-color="#000A57"/>
</radialGradient>
<radialGradient id="paint11_radial_234_67140" cx="0" cy="0" r="1" gradientUnits="userSpaceOnUse" gradientTransform="translate(31.3467 55.9107) rotate(-47.3499) scale(15.9593 15.9593)">
<stop offset="0.04" stop-color="#000328"/>
<stop offset="0.94" stop-color="#000A57"/>
</radialGradient>
<radialGradient id="paint12_radial_234_67140" cx="0" cy="0" r="1" gradientUnits="userSpaceOnUse" gradientTransform="translate(45.2298 43.1336) rotate(-34.46) scale(9.83434 9.83433)">
<stop offset="0.04" stop-color="#000328"/>
<stop offset="0.94" stop-color="#000A57"/>
</radialGradient>
<radialGradient id="paint13_radial_234_67140" cx="0" cy="0" r="1" gradientUnits="userSpaceOnUse" gradientTransform="translate(145.628 114.546) rotate(-5.04) scale(15.0464 15.0463)">
<stop stop-color="#52DFEC"/>
<stop offset="0.94" stop-color="#408BED"/>
</radialGradient>
<radialGradient id="paint14_radial_234_67140" cx="0" cy="0" r="1" gradientUnits="userSpaceOnUse" gradientTransform="translate(153.74 129.661) rotate(-5.04002) scale(23.3589 23.359)">
<stop stop-color="#52DFEC"/>
<stop offset="0.94" stop-color="#408BED"/>
</radialGradient>
<radialGradient id="paint15_radial_234_67140" cx="0" cy="0" r="1" gradientUnits="userSpaceOnUse" gradientTransform="translate(78.5819 8.00422) rotate(-5.04) scale(96.6313 96.6313)">
<stop stop-color="#52DFEC"/>
<stop offset="0.94" stop-color="#408BED"/>
</radialGradient>
<radialGradient id="paint16_radial_234_67140" cx="0" cy="0" r="1" gradientUnits="userSpaceOnUse" gradientTransform="translate(107.817 31.377) rotate(-5.04) scale(38.5194 38.5194)">
<stop stop-color="#52DFEC"/>
<stop offset="0.94" stop-color="#408BED"/>
</radialGradient>
<radialGradient id="paint17_radial_234_67140" cx="0" cy="0" r="1" gradientUnits="userSpaceOnUse" gradientTransform="translate(142.883 38.5961) rotate(-5.03999) scale(13.2202 13.2202)">
<stop stop-color="#52DFEC"/>
<stop offset="0.94" stop-color="#408BED"/>
</radialGradient>
<radialGradient id="paint18_radial_234_67140" cx="0" cy="0" r="1" gradientUnits="userSpaceOnUse" gradientTransform="translate(79.0181 12.9497) rotate(-5.03999) scale(92.009 92.0089)">
<stop stop-color="#52DFEC"/>
<stop offset="0.94" stop-color="#408BED"/>
</radialGradient>
<radialGradient id="paint19_radial_234_67140" cx="0" cy="0" r="1" gradientUnits="userSpaceOnUse" gradientTransform="translate(89.3322 98.0882) rotate(11.22) scale(15.7882 7.10468)">
<stop stop-color="#00F1CD"/>
<stop offset="0.12" stop-color="#00ECC9" stop-opacity="0.98"/>
<stop offset="0.25" stop-color="#00DFBE" stop-opacity="0.93"/>
<stop offset="0.38" stop-color="#00CAAC" stop-opacity="0.84"/>
<stop offset="0.52" stop-color="#00AD93" stop-opacity="0.72"/>
<stop offset="0.65" stop-color="#008672" stop-opacity="0.56"/>
<stop offset="0.79" stop-color="#00574A" stop-opacity="0.36"/>
<stop offset="0.92" stop-color="#00211C" stop-opacity="0.14"/>
<stop offset="1" stop-opacity="0"/>
</radialGradient>
<radialGradient id="paint20_radial_234_67140" cx="0" cy="0" r="1" gradientUnits="userSpaceOnUse" gradientTransform="translate(38.0345 87.6147) rotate(11.22) scale(15.7882 7.10468)">
<stop stop-color="#00F1CD"/>
<stop offset="0.12" stop-color="#00ECC9" stop-opacity="0.98"/>
<stop offset="0.25" stop-color="#00DFBE" stop-opacity="0.93"/>
<stop offset="0.38" stop-color="#00CAAC" stop-opacity="0.84"/>
<stop offset="0.52" stop-color="#00AD93" stop-opacity="0.72"/>
<stop offset="0.65" stop-color="#008672" stop-opacity="0.56"/>
<stop offset="0.79" stop-color="#00574A" stop-opacity="0.36"/>
<stop offset="0.92" stop-color="#00211C" stop-opacity="0.14"/>
<stop offset="1" stop-opacity="0"/>
</radialGradient>
<radialGradient id="paint21_radial_234_67140" cx="0" cy="0" r="1" gradientUnits="userSpaceOnUse" gradientTransform="translate(90.4208 84.9317) scale(14.9893)">
<stop stop-color="#00F1CD"/>
<stop offset="0.12" stop-color="#00ECC9" stop-opacity="0.98"/>
<stop offset="0.25" stop-color="#00DFBE" stop-opacity="0.93"/>
<stop offset="0.38" stop-color="#00CAAC" stop-opacity="0.84"/>
<stop offset="0.52" stop-color="#00AD93" stop-opacity="0.72"/>
<stop offset="0.65" stop-color="#008672" stop-opacity="0.56"/>
<stop offset="0.79" stop-color="#00574A" stop-opacity="0.36"/>
<stop offset="0.92" stop-color="#00211C" stop-opacity="0.14"/>
<stop offset="1" stop-opacity="0"/>
</radialGradient>
<radialGradient id="paint22_radial_234_67140" cx="0" cy="0" r="1" gradientUnits="userSpaceOnUse" gradientTransform="translate(43.2465 74.6028) scale(13.1061 13.1061)">
<stop stop-color="#00F1CD"/>
<stop offset="0.12" stop-color="#00ECC9" stop-opacity="0.98"/>
<stop offset="0.25" stop-color="#00DFBE" stop-opacity="0.93"/>
<stop offset="0.38" stop-color="#00CAAC" stop-opacity="0.84"/>
<stop offset="0.52" stop-color="#00AD93" stop-opacity="0.72"/>
<stop offset="0.65" stop-color="#008672" stop-opacity="0.56"/>
<stop offset="0.79" stop-color="#00574A" stop-opacity="0.36"/>
<stop offset="0.92" stop-color="#00211C" stop-opacity="0.14"/>
<stop offset="1" stop-opacity="0"/>
</radialGradient>
<radialGradient id="paint23_radial_234_67140" cx="0" cy="0" r="1" gradientUnits="userSpaceOnUse" gradientTransform="translate(90.4208 84.9318) scale(7.62781)">
<stop offset="0.04" stop-color="#000328"/>
<stop offset="0.94" stop-color="#000A57"/>
</radialGradient>
<radialGradient id="paint24_radial_234_67140" cx="0" cy="0" r="1" gradientUnits="userSpaceOnUse" gradientTransform="translate(43.2466 74.6029) scale(7.39952 7.39955)">
<stop offset="0.04" stop-color="#000328"/>
<stop offset="0.94" stop-color="#000A57"/>
</radialGradient>
<radialGradient id="paint25_radial_234_67140" cx="0" cy="0" r="1" gradientUnits="userSpaceOnUse" gradientTransform="translate(59.6741 107.786) rotate(13.6) scale(17.2909 12.2766)">
<stop stop-color="#00F1CD"/>
<stop offset="0.12" stop-color="#00ECC9" stop-opacity="0.98"/>
<stop offset="0.24" stop-color="#00DFBE" stop-opacity="0.93"/>
<stop offset="0.36" stop-color="#00CAAC" stop-opacity="0.84"/>
<stop offset="0.49" stop-color="#00AD93" stop-opacity="0.72"/>
<stop offset="0.62" stop-color="#008672" stop-opacity="0.56"/>
<stop offset="0.75" stop-color="#00574A" stop-opacity="0.36"/>
<stop offset="0.88" stop-color="#00211C" stop-opacity="0.14"/>
<stop offset="0.95" stop-opacity="0"/>
</radialGradient>
</defs>
</svg>
