<svg width="187" height="160" viewBox="0 0 187 160" fill="none" xmlns="http://www.w3.org/2000/svg">
<path d="M36.9667 147.64C36.2919 148.411 35.4405 149.038 34.4765 149.343C31.0544 150.419 28.4517 146.756 27.6806 145.471C27.5038 145.166 27.1504 145.005 26.797 145.069C25.6884 145.278 24.7566 146.29 23.7605 146.949C18.5551 150.387 11.5504 137.599 11.1808 137.036C10.3454 135.751 11.2129 134 12.3536 132.988C13.1891 132.249 14.1852 131.686 14.9885 130.931C15.615 130.353 15.7596 129.437 15.3579 128.682C14.2173 126.529 8.91553 122.272 8.91553 119.187C8.91553 117.291 19.503 109.612 20.7079 111.813C23.4231 116.745 30.8777 128.971 38.011 135.092C44.0357 140.266 41.9311 142.017 36.9667 147.624V147.64Z" fill="#FFCC00"/>
<path d="M6.03971 131.944C4.43311 129.823 2.81043 127.686 1.20384 125.565C0.770056 125.003 0.721869 123.943 0.914661 123.3C1.10745 122.657 1.63762 121.87 2.2642 121.549C2.95503 121.195 3.7744 121.003 4.5295 121.26L5.23641 121.549C5.68626 121.806 6.02365 122.159 6.29677 122.609C7.90337 124.73 9.52605 126.867 11.1326 128.987C11.5664 129.55 11.6146 130.61 11.4218 131.253C11.229 131.895 10.6989 132.683 10.0723 133.004C9.38145 133.357 8.56208 133.55 7.80698 133.293L7.10007 133.004C6.65022 132.747 6.31283 132.393 6.03971 131.944Z" fill="#FFCC00"/>
<path d="M28.3874 157.408C27.2628 156.139 26.09 154.902 24.9654 153.649C24.7083 153.36 24.5316 153.022 24.4512 152.653C24.3066 152.283 24.2585 151.898 24.3066 151.496C24.3388 151.094 24.4513 150.725 24.6762 150.387C24.8368 150.034 25.0618 149.745 25.3831 149.504C25.9936 149.054 26.7648 148.732 27.5359 148.861L28.3071 149.038C28.7891 149.231 29.1907 149.52 29.5281 149.921C30.6527 151.191 31.8255 152.412 32.9501 153.681C33.2072 153.97 33.3839 154.307 33.4643 154.677C33.6089 155.046 33.6571 155.432 33.6089 155.834C33.5767 156.235 33.4642 156.605 33.2393 156.942C33.0787 157.296 32.8537 157.585 32.5324 157.826C31.9219 158.276 31.1508 158.597 30.3796 158.468L29.6084 158.292C29.1265 158.099 28.7248 157.81 28.3874 157.408Z" fill="#FFCC00"/>
<path d="M13.1568 154.548C12.2732 153.825 11.4217 153.086 10.6023 152.283C9.95967 151.656 9.38129 150.966 8.78685 150.291C8.52979 149.986 8.35307 149.648 8.28881 149.263C8.14421 148.893 8.11207 148.491 8.17633 148.09C8.27273 147.383 8.69048 146.58 9.26886 146.162C9.89543 145.712 10.6827 145.407 11.4699 145.551C12.2571 145.696 12.8837 146.049 13.3978 146.644C13.9922 147.319 14.5706 148.009 15.2132 148.636L14.667 148.106C15.3096 148.716 16.0005 149.279 16.6752 149.841C17.2697 150.339 17.7035 150.998 17.8159 151.785C17.9123 152.492 17.7196 153.392 17.2536 153.97C16.7877 154.548 16.0969 155.046 15.3096 155.111C14.5224 155.175 13.7352 155.046 13.1247 154.548H13.1568Z" fill="#FFCC00"/>
<path d="M186.043 86.6535C187.055 95.6665 182.846 103.523 176.66 104.214C170.475 104.905 164.627 98.1729 163.631 89.1599C162.619 80.1469 166.828 72.2906 173.013 71.5997C179.199 70.9089 185.047 77.6405 186.043 86.6535Z" fill="#F7FCF8"/>
<path style="mix-blend-mode:multiply" opacity="0.25" d="M164.306 85.8823C165.318 94.8953 171.15 101.627 177.335 100.936C181.368 100.486 184.549 96.9839 186.011 92.1159C185.191 98.6387 181.544 103.667 176.66 104.214C170.475 104.904 164.627 98.1728 163.631 89.1598C163.277 86.0269 163.567 83.0225 164.354 80.4199C164.129 82.155 164.097 83.9865 164.322 85.8823H164.306Z" fill="url(#paint0_radial_2_58409)"/>
<path style="mix-blend-mode:multiply" opacity="0.25" d="M179.825 86.7177C180.436 92.2123 177.881 97.016 174.09 97.4337C170.298 97.8515 166.748 93.7386 166.137 88.244C165.527 82.7494 168.081 77.9457 171.873 77.528C175.648 77.1103 179.215 81.2232 179.825 86.7177Z" fill="url(#paint1_radial_2_58409)"/>
<path style="mix-blend-mode:multiply" opacity="0.25" d="M179.826 86.7178C180.292 90.9432 178.894 94.7347 176.5 96.4699C174.09 95.0721 172.178 91.891 171.744 88.0191C171.278 83.7938 172.676 80.0022 175.07 78.2671C177.48 79.6648 179.392 82.8459 179.826 86.7178Z" fill="url(#paint2_radial_2_58409)"/>
<path d="M178.026 88.0834C177.592 43.6931 140.046 8.07488 94.1777 8.52472C48.2933 8.97457 11.454 45.3158 11.8878 89.7061C12.3216 134.096 48.0202 160.428 93.9046 159.995C139.789 159.545 178.476 132.49 178.042 88.0995L178.026 88.0834Z" fill="#F7FCF8"/>
<path style="mix-blend-mode:multiply" opacity="0.25" d="M40.7101 28.0609C27.8895 42.3596 20.1939 61.0605 20.4028 81.4642C20.8366 125.855 56.5351 152.187 102.42 151.753C125.506 151.528 146.778 144.555 162.153 132.04C146.73 149.712 121.634 159.722 93.9046 159.979C48.0202 160.428 12.3216 134.08 11.8878 89.69C11.6468 65.093 22.8769 42.9701 40.7262 28.0609H40.7101Z" fill="url(#paint3_radial_2_58409)"/>
<path d="M35.553 91.4573C35.9225 128.827 66.5282 150.998 105.874 150.628C145.219 150.243 178.396 127.461 178.042 90.0756C177.673 52.7062 145.492 22.711 106.147 23.0966C66.8013 23.4822 35.1995 54.0879 35.5691 91.4573H35.553Z" fill="#FFCC00"/>
<path d="M51.6991 87.7621C51.4581 129.759 71.8458 133.454 98.5635 138.434C125.281 143.415 158.988 131.751 166.651 110.19C173.543 90.7986 168.226 49.4126 120.397 42.6649C93.4867 38.8734 51.8759 56.1121 51.6991 87.746V87.7621Z" fill="white"/>
<path d="M87.7353 101.531C92.4646 101.531 96.2985 99.8979 96.2985 97.8837C96.2985 95.8695 92.4646 94.2367 87.7353 94.2367C83.006 94.2367 79.1721 95.8695 79.1721 97.8837C79.1721 99.8979 83.006 101.531 87.7353 101.531Z" fill="#F493A4"/>
<path d="M147.485 96.9358C147.485 94.9115 143.645 93.2888 138.922 93.2888C134.198 93.2888 130.358 94.9275 130.358 96.9358C130.358 98.9601 134.198 100.583 138.922 100.583C143.645 100.583 147.485 98.944 147.485 96.9358Z" fill="#F493A4"/>
<path d="M124.334 102.093C124.253 100.085 118.437 99.0886 113.714 99.0886C108.991 99.0886 102.821 100.84 102.789 102.848C102.677 110.062 109.826 113.628 114.549 113.628C119.273 113.628 124.591 108.102 124.334 102.093Z" fill="#D6493F"/>
<path d="M86.1285 91.2645C86.482 91.2645 86.8354 91.1842 87.1728 91.0235L96.1698 86.6375C97.439 86.027 98.2423 84.7739 98.2744 83.3601C98.3065 81.9623 97.5835 80.661 96.3465 79.9702L87.703 75.1343C86.5462 74.4916 85.1003 74.8933 84.4416 76.0501C83.7989 77.2068 84.2166 78.6527 85.3573 79.3114L92.2818 83.1834L85.0521 86.7178C83.8632 87.2962 83.3652 88.7261 83.9596 89.915C84.3773 90.7664 85.2288 91.2645 86.1124 91.2645H86.1285Z" fill="#231F20"/>
<path d="M137.652 89.449C141.69 89.449 144.962 86.1762 144.962 82.139C144.962 78.1018 141.69 74.829 137.652 74.829C133.615 74.829 130.342 78.1018 130.342 82.139C130.342 86.1762 133.615 89.449 137.652 89.449Z" fill="#231F20"/>
<path style="mix-blend-mode:multiply" opacity="0.25" d="M173.158 69.8645C161.237 44.7534 138.584 25.4582 107.737 25.1208C77.3082 24.7834 50.0121 38.3431 45.128 66.2497C44.2604 71.2462 48.2448 81.914 51.7793 85.4967C68.0702 101.98 97.9529 104.117 115.899 103.748C157.686 102.928 177.383 78.7651 173.174 69.8645H173.158Z" fill="url(#paint4_radial_2_58409)"/>
<path d="M35.553 91.4573C35.9225 128.827 66.5282 150.998 105.874 150.628C145.219 150.243 178.396 127.461 178.042 90.0756C177.673 52.7062 145.492 22.711 106.147 23.0966C66.8013 23.4822 35.1995 54.0879 35.5691 91.4573H35.553ZM107.737 25.1209C145.332 24.9763 176.291 53.1399 176.66 90.5255C177.03 127.895 145.043 148.99 107.512 149.616C70.5286 150.243 40.4692 129.228 40.0997 91.8429C39.7302 54.4734 71.2034 25.2655 107.737 25.1209Z" fill="#041F8E"/>
<g style="mix-blend-mode:color-burn" opacity="0.42">
<path d="M143.018 32.447C154.971 38.1183 187.585 67.8243 165.88 86.2359C151.485 98.446 126.39 110.206 78.7542 99.7634C31.1025 89.3205 39.3122 46.2959 70.7051 34.9212C95.4788 25.9403 131.515 27.0006 143.018 32.447Z" fill="#00FFFF"/>
</g>
<path style="mix-blend-mode:multiply" opacity="0.25" d="M143.018 32.447C154.971 38.1183 187.585 67.8243 165.88 86.2359C151.485 98.446 126.39 110.206 78.7542 99.7634C31.1025 89.3205 39.3122 46.2959 70.7051 34.9212C95.4788 25.9403 131.515 27.0006 143.018 32.447Z" fill="url(#paint5_radial_2_58409)"/>
<path style="mix-blend-mode:multiply" opacity="0.25" d="M143.018 32.447C154.971 38.1183 187.585 67.8243 165.88 86.2359C151.485 98.446 126.39 110.206 78.7542 99.7634C31.1025 89.3205 39.3122 46.2959 70.7051 34.9212C95.4788 25.9403 131.515 27.0006 143.018 32.447Z" fill="url(#paint6_radial_2_58409)"/>
<path style="mix-blend-mode:multiply" opacity="0.25" d="M52.5829 101.177C53.595 110.19 48.727 118.127 41.7223 118.898C34.7175 119.685 28.2108 113.018 27.2147 104.005C26.2025 94.9917 31.0705 87.0551 38.0753 86.2839C45.0801 85.4967 51.5868 92.1641 52.5829 101.177Z" fill="url(#paint7_radial_2_58409)"/>
<path d="M40.0201 118.216C46.2103 117.524 50.4124 109.664 49.4057 100.661C48.399 91.6576 42.5648 84.9202 36.3745 85.6123C30.1842 86.3045 25.9821 94.1641 26.9888 103.167C27.9955 112.171 33.8298 118.908 40.0201 118.216Z" fill="#F7FCF8"/>
<path style="mix-blend-mode:multiply" opacity="0.25" d="M27.6645 99.908C28.6767 108.921 34.5087 115.653 40.6941 114.962C44.7266 114.512 47.9077 111.01 49.3697 106.142C48.5503 112.664 44.9033 117.693 40.0193 118.239C33.8339 118.93 27.9859 112.198 26.9898 103.185C26.6363 100.053 26.9255 97.0482 27.7127 94.4456C27.4878 96.1807 27.4557 98.0122 27.6806 99.908H27.6645Z" fill="url(#paint8_radial_2_58409)"/>
<path d="M43.1683 100.743C43.7788 106.238 41.2243 111.042 37.4327 111.459C33.6572 111.877 30.0905 107.764 29.48 102.27C28.8695 96.7751 31.424 91.9714 35.2156 91.5537C39.0072 91.136 42.5578 95.2489 43.1683 100.743Z" fill="#F3A400"/>
<g style="mix-blend-mode:multiply" opacity="0.5">
<path d="M43.1684 100.743C43.6343 104.969 42.2366 108.76 39.8427 110.495C37.4328 109.098 35.521 105.917 35.0872 102.045C34.6213 97.8194 36.019 94.0278 38.4128 92.2927C40.8227 93.6904 42.7346 96.8715 43.1684 100.743Z" fill="#F3A400"/>
</g>
<path style="mix-blend-mode:multiply" opacity="0.46" d="M39.1197 29.0249C39.0876 28.8321 39.0715 28.6233 39.0876 28.3983C39.0876 28.3662 39.0876 28.3501 39.0876 28.318C39.0876 28.0931 39.1197 27.8521 39.1679 27.579C39.1679 27.5308 39.1679 27.4986 39.2001 27.4505C39.2483 27.2255 39.2965 26.9845 39.3768 26.7275C39.3768 26.6793 39.4089 26.615 39.425 26.5668C39.425 26.5186 39.4571 26.4704 39.4732 26.4061C39.5053 26.3097 39.5374 26.2134 39.5696 26.1009C39.6499 25.8599 39.7463 25.6029 39.8587 25.3297C39.8748 25.2815 39.8909 25.2333 39.923 25.2012C40.1961 24.5425 40.5335 23.8195 40.9673 23.0162C41.2886 22.4057 41.6581 21.7631 42.0759 21.0562C42.2847 20.7027 42.5257 20.3493 42.7988 19.9958C42.8952 19.8673 43.0077 19.7387 43.1041 19.6263C43.2808 19.4014 43.4576 19.1604 43.6664 18.9355C43.8431 18.7427 44.0359 18.5499 44.2127 18.3571C44.3733 18.1964 44.5179 18.0197 44.6785 17.8591C44.9195 17.6181 45.1766 17.3771 45.4497 17.1522C45.5782 17.0236 45.7068 16.9111 45.8514 16.7826C46.1566 16.5095 46.494 16.2364 46.8314 15.9632C46.9439 15.8829 47.0402 15.7866 47.1366 15.7062C47.5061 15.417 47.8917 15.1278 48.2934 14.8387C48.3898 14.7744 48.4701 14.6941 48.5665 14.6298C49.0164 14.3085 49.4823 13.9871 49.9642 13.6658C50.0124 13.6337 50.0607 13.5855 50.1249 13.5533C50.639 13.216 51.1692 12.8786 51.7154 12.5412C51.7476 12.5252 51.7637 12.5091 51.7958 12.493C65.6447 4.0102 89.9364 -2.91426 107.85 1.66454C126.551 6.4522 135.757 14.5655 140.11 22.1326C140.175 22.2451 140.239 22.3575 140.303 22.47C140.512 22.8395 140.705 23.209 140.882 23.5785C140.994 23.7874 141.09 23.9962 141.187 24.2051C141.331 24.5103 141.476 24.8156 141.605 25.1048C141.733 25.394 141.846 25.6993 141.958 25.9884C142.038 26.2134 142.135 26.4383 142.215 26.6632C142.408 27.1773 142.568 27.7075 142.729 28.2056C144.641 34.7444 138.889 37.7809 133.716 38.1825C132.27 38.295 130.872 38.1825 129.684 37.9094C123.627 36.4634 117.377 36.0779 111.127 36.4152C109.039 36.5277 106.95 36.7205 104.878 36.9776C99.8009 37.6041 94.7401 38.6002 89.7436 39.9337C88.0728 40.3835 86.418 40.8495 84.7792 41.3636C83.992 41.6046 83.1887 41.8616 82.4015 42.1186C80.0237 42.8898 77.646 43.7413 75.3485 44.7535C71.7337 46.3601 67.7654 45.0427 65.1305 42.2472C65.1305 42.2472 65.0984 42.2151 65.0823 42.199C64.9056 42.0062 64.7289 41.7973 64.5522 41.5885C64.52 41.5403 64.4879 41.5082 64.4397 41.46C64.2469 41.219 64.0702 40.9619 63.8935 40.7049C62.817 39.0822 61.6763 37.7327 60.3911 36.5759C59.5396 35.8047 58.6399 35.13 57.6599 34.5355C57.1779 34.2303 56.6638 33.9571 56.1336 33.684C55.0893 33.1538 53.9486 32.6879 52.7276 32.2863C51.8922 32.0132 51.0407 31.7561 50.1731 31.5312C47.5704 30.8725 44.8071 30.503 42.1562 30.6797C42.1562 30.6797 42.1401 30.6797 42.108 30.6797C42.0759 30.6797 42.0116 30.6797 41.9634 30.7118C41.9634 30.7118 41.9473 30.7118 41.9313 30.7118C41.867 30.7118 41.7867 30.7279 41.7064 30.744C41.7064 30.744 41.6742 30.744 41.6582 30.744C41.5618 30.744 41.4653 30.744 41.3689 30.744H41.3368C41.2244 30.744 41.1119 30.7439 40.9995 30.7279C40.887 30.7279 40.7585 30.6958 40.646 30.6636C40.646 30.6636 40.6299 30.6636 40.6138 30.6636C40.5014 30.6315 40.3889 30.5994 40.2604 30.5512C40.2443 30.5512 40.2283 30.5512 40.2122 30.5351C40.0997 30.4869 40.0034 30.4227 39.8909 30.3584C39.8748 30.3584 39.8588 30.3262 39.8427 30.3262C39.7463 30.2459 39.6499 30.1656 39.5696 30.0531C39.5696 30.0531 39.5535 30.021 39.5374 30.0049C39.4571 29.8925 39.3768 29.7639 39.3125 29.6354V29.6033C39.2482 29.4587 39.2 29.282 39.1679 29.1052C39.1679 29.1052 39.1679 29.1052 39.1679 29.0892L39.1197 29.0249Z" fill="url(#paint9_radial_2_58409)"/>
<path d="M134.327 35.9172C139.468 35.6601 145.123 32.9771 143.083 26.8881C140.319 18.5981 131.676 7.76961 107.85 1.6324C84.0241 -4.52086 49.3698 7.97847 42.8791 18.2125C36.3724 28.4465 43.1523 27.097 43.1523 27.097C46.6707 26.9685 50.382 27.7075 53.7076 28.816C58.6077 30.4387 62.0298 32.7843 64.9698 36.833C67.5564 40.3996 72.2638 42.456 76.4249 40.8013C79.4453 39.6124 82.6103 38.7127 85.7432 37.8612C92.2499 36.0939 98.9172 34.8568 105.633 34.2303C113.891 33.443 122.245 33.6519 130.326 35.6119C131.499 35.9011 132.897 36.0136 134.343 35.9493L134.327 35.9172Z" fill="#F7FCF8"/>
<path style="mix-blend-mode:multiply" opacity="0.25" d="M43.8591 21.2971C47.3776 21.1686 51.0888 21.9077 54.4145 23.0162C59.3146 24.6389 62.7366 26.9845 65.6767 31.0331C68.2633 34.5998 72.9707 36.6562 77.1318 35.0014C80.1522 33.8125 83.3171 32.9129 86.45 32.0614C92.9567 30.2941 99.6241 29.057 106.34 28.4304C114.598 27.6432 122.952 27.8521 131.033 29.8121C132.206 30.1013 133.604 30.2138 135.05 30.1495C138.134 30.0049 141.396 28.9606 143.067 26.856C143.067 26.856 143.066 26.8881 143.083 26.9042C145.123 32.9932 139.468 35.6923 134.327 35.9333C132.897 35.9975 131.499 35.885 130.31 35.5958C122.245 33.6358 113.875 33.427 105.617 34.2142C98.9012 34.8568 92.2338 36.0939 85.7271 37.8451C82.5942 38.6966 79.4292 39.5963 76.4088 40.7852C72.2477 42.44 67.5404 40.3835 64.9538 36.8169C62.0137 32.7683 58.5916 30.4226 53.6915 28.8C50.3659 27.6914 46.6707 26.9524 43.1362 27.0809C43.1362 27.0809 37.5613 28.1894 41.3689 20.783C42.2686 21.6185 43.8591 21.2971 43.8591 21.2971Z" fill="url(#paint10_radial_2_58409)"/>
<path style="mix-blend-mode:multiply" opacity="0.25" d="M64.9538 36.8169C62.0137 32.7683 58.5916 30.4226 53.6915 28.8C50.3659 27.6914 46.6707 26.9524 43.1362 27.0809C43.1362 27.0809 37.5613 28.1894 41.3689 20.783C42.2686 21.6185 43.8591 21.2971 43.8591 21.2971C47.3776 21.1686 51.0888 21.9077 54.4145 23.0162C59.3146 24.6389 62.7366 26.9845 65.6767 31.0331C66.9459 32.7843 68.7293 34.166 70.7054 34.9211C70.2555 37.2989 70.4644 39.3392 70.8821 40.978C68.5526 40.3193 66.4157 38.8251 64.9698 36.8169H64.9538Z" fill="url(#paint11_radial_2_58409)"/>
<path style="mix-blend-mode:multiply" opacity="0.25" d="M68.665 3.83344C72.6654 12.2359 102.998 20.2689 122.663 20.9598C132.19 21.2972 135.435 18.8391 135.853 15.7223C139.725 19.5299 141.926 23.4339 143.083 26.8881C145.123 32.9771 139.468 35.6762 134.327 35.9172C132.897 35.9815 131.499 35.869 130.31 35.5798C122.245 33.6198 113.875 33.4109 105.617 34.1981C98.9011 34.8408 92.2337 36.0779 85.727 37.829C82.5942 38.6805 79.4291 39.5802 76.4087 40.7691C72.2476 42.4239 67.5403 40.3674 64.9537 36.8008C62.0137 32.7522 58.5916 30.4066 53.6915 28.7839C50.3658 27.6753 46.6706 26.9363 43.1361 27.0648C43.1361 27.0648 36.3563 28.4144 42.863 18.1803C46.0923 13.0874 56.2942 7.44831 68.665 3.80133V3.83344Z" fill="url(#paint12_radial_2_58409)"/>
<path opacity="0.47" d="M149.155 92.9836C156.771 77.1746 150.987 50.9068 141.862 37.1222C141.862 37.1222 162.988 47.1152 170.812 71.9372C171.921 80.0023 157.365 91.7465 149.155 92.9836Z" fill="#F7FCF8"/>
<g opacity="0.53">
<g style="mix-blend-mode:screen">
<path d="M158.924 61.8154C156.9 62.8597 156.98 67.0851 159.133 71.2301C161.286 75.3751 164.659 77.9135 166.684 76.8692C168.708 75.8249 168.628 71.5996 166.475 67.4546C164.338 63.2935 160.948 60.7711 158.924 61.8154Z" fill="#F7FCF8"/>
</g>
<g style="mix-blend-mode:screen">
<path d="M153.092 50.8102C152.015 51.7099 152.658 54.2323 154.505 56.4333C156.369 58.6344 158.747 59.6947 159.807 58.779C160.884 57.8793 160.241 55.3569 158.393 53.1559C156.53 50.9549 154.152 49.8945 153.092 50.8102Z" fill="#F7FCF8"/>
</g>
</g>
<defs>
<radialGradient id="paint0_radial_2_58409" cx="0" cy="0" r="1" gradientUnits="userSpaceOnUse" gradientTransform="translate(165.977 101.599) rotate(-164.38) scale(22.8297 22.8297)">
<stop stop-color="#52DFEC"/>
<stop offset="0.94" stop-color="#408BED"/>
</radialGradient>
<radialGradient id="paint1_radial_2_58409" cx="0" cy="0" r="1" gradientUnits="userSpaceOnUse" gradientTransform="translate(176.144 68.9917) rotate(-164.38) scale(39.7634 39.7633)">
<stop stop-color="#52DFEC"/>
<stop offset="0.94" stop-color="#408BED"/>
</radialGradient>
<radialGradient id="paint2_radial_2_58409" cx="0" cy="0" r="1" gradientUnits="userSpaceOnUse" gradientTransform="translate(179.031 71.0167) rotate(-164.38) scale(35.072 35.0721)">
<stop stop-color="#52DFEC"/>
<stop offset="0.94" stop-color="#408BED"/>
</radialGradient>
<radialGradient id="paint3_radial_2_58409" cx="0" cy="0" r="1" gradientUnits="userSpaceOnUse" gradientTransform="translate(87.8071 101.948) rotate(-164.38) scale(69.8709 69.8709)">
<stop stop-color="#52DFEC"/>
<stop offset="0.94" stop-color="#408BED"/>
</radialGradient>
<radialGradient id="paint4_radial_2_58409" cx="0" cy="0" r="1" gradientUnits="userSpaceOnUse" gradientTransform="translate(157.69 49.393) rotate(-164.66) scale(127.002 125.781)">
<stop stop-color="#52DFEC"/>
<stop offset="0.94" stop-color="#408BED"/>
</radialGradient>
<radialGradient id="paint5_radial_2_58409" cx="0" cy="0" r="1" gradientUnits="userSpaceOnUse" gradientTransform="translate(109.844 65.5327) rotate(-169.43) scale(52.9856)">
<stop stop-color="#52DFEC"/>
<stop offset="0.94" stop-color="#408BED"/>
</radialGradient>
<radialGradient id="paint6_radial_2_58409" cx="0" cy="0" r="1" gradientUnits="userSpaceOnUse" gradientTransform="translate(109.844 65.5327) rotate(-169.43) scale(52.9856)">
<stop stop-color="#52DFEC"/>
<stop offset="0.94" stop-color="#408BED"/>
</radialGradient>
<radialGradient id="paint7_radial_2_58409" cx="0" cy="0" r="1" gradientUnits="userSpaceOnUse" gradientTransform="translate(39.8288 102.547) rotate(-164.38) scale(14.7004 14.7004)">
<stop stop-color="#52DFEC"/>
<stop offset="0.94" stop-color="#408BED"/>
</radialGradient>
<radialGradient id="paint8_radial_2_58409" cx="0" cy="0" r="1" gradientUnits="userSpaceOnUse" gradientTransform="translate(29.321 115.607) rotate(-164.38) scale(22.8297 22.8297)">
<stop stop-color="#52DFEC"/>
<stop offset="0.94" stop-color="#408BED"/>
</radialGradient>
<radialGradient id="paint9_radial_2_58409" cx="0" cy="0" r="1" gradientUnits="userSpaceOnUse" gradientTransform="translate(123.331 12.2376) rotate(-164.38) scale(94.4197 94.4197)">
<stop stop-color="#52DFEC"/>
<stop offset="0.94" stop-color="#408BED"/>
</radialGradient>
<radialGradient id="paint10_radial_2_58409" cx="0" cy="0" r="1" gradientUnits="userSpaceOnUse" gradientTransform="translate(91.0631 29.4402) rotate(-164.38) scale(37.6426 37.6426)">
<stop stop-color="#52DFEC"/>
<stop offset="0.94" stop-color="#408BED"/>
</radialGradient>
<radialGradient id="paint11_radial_2_58409" cx="0" cy="0" r="1" gradientUnits="userSpaceOnUse" gradientTransform="translate(56.0991 30.0912) rotate(-164.38) scale(12.9171 12.9171)">
<stop stop-color="#52DFEC"/>
<stop offset="0.94" stop-color="#408BED"/>
</radialGradient>
<radialGradient id="paint12_radial_2_58409" cx="0" cy="0" r="1" gradientUnits="userSpaceOnUse" gradientTransform="translate(122.025 16.9103) rotate(-164.38) scale(89.8891 89.889)">
<stop stop-color="#52DFEC"/>
<stop offset="0.94" stop-color="#408BED"/>
</radialGradient>
</defs>
</svg>
