<svg width="284" height="208" viewBox="0 0 284 208" fill="none" xmlns="http://www.w3.org/2000/svg">
<path d="M124.419 206.127L268.676 111.758C270.306 110.69 270.763 108.505 269.701 106.873C268.632 105.242 266.447 104.786 264.815 105.848L120.558 200.216C118.928 201.285 118.471 203.47 119.533 205.102C120.602 206.732 122.787 207.189 124.419 206.127Z" fill="url(#paint0_linear_2_62453)"/>
<path style="mix-blend-mode:screen" d="M109.199 140.672L253.456 46.3032C255.087 45.235 255.544 43.0498 254.481 41.418C253.413 39.7873 251.228 39.3306 249.596 40.3931L105.339 134.761C103.708 135.83 103.251 138.015 104.314 139.647C105.382 141.277 107.567 141.734 109.199 140.672Z" fill="url(#paint1_linear_2_62453)"/>
<path d="M117.81 172.08L262.067 77.7118C263.697 76.6436 264.154 74.4584 263.092 72.8266C262.023 71.1958 259.838 70.7391 258.206 71.8017L113.949 166.17C112.319 167.238 111.862 169.423 112.924 171.055C113.993 172.686 116.178 173.143 117.81 172.08Z" fill="url(#paint2_linear_2_62453)"/>
<path d="M179.177 138.548C177.084 134.896 177.478 130.328 180.167 127.09L204.581 97.6899C211.129 89.8049 223.38 90.2979 229.273 98.6836C234.278 105.807 232.462 115.652 225.245 120.521L193.563 141.891C188.707 145.167 182.091 143.629 179.177 138.548Z" fill="#F7FCF8"/>
<path d="M68.2326 187.048C67.6895 187.978 66.9263 188.81 65.983 189.334C62.637 191.15 59.1845 187.86 58.1115 186.682C57.8576 186.409 57.4557 186.306 57.1221 186.451C56.005 186.91 55.2396 188.144 54.3252 189.025C49.5972 193.661 39.7078 181.752 39.227 181.242C38.0959 180.075 38.6528 178.077 39.6276 176.783C40.3488 175.839 41.282 175.054 41.9608 174.099C42.5028 173.37 42.4735 172.391 41.8932 171.68C40.2561 169.666 33.8746 166.302 33.2505 163.086C32.8669 161.111 42.3549 150.968 44.0576 153.009C47.8858 157.612 58.1236 168.831 66.8025 173.779C74.1236 177.945 72.292 180.21 68.252 187.045L68.2326 187.048Z" fill="#FFCC00"/>
<path d="M32.8237 176.938C30.7099 175.057 28.6116 173.152 26.4978 171.271C25.9357 170.757 25.6671 169.684 25.7292 168.968C25.7913 168.253 26.1951 167.33 26.786 166.854C27.4312 166.347 28.2459 165.987 29.089 166.085L29.8852 166.252C30.4027 166.433 30.8422 166.73 31.2036 167.142L37.5295 172.808C38.0916 173.322 38.3602 174.396 38.2981 175.111C38.236 175.827 37.8322 176.749 37.2413 177.226C36.5961 177.733 35.7814 178.092 34.9384 177.994L34.1421 177.827C33.6246 177.646 33.1851 177.35 32.8237 176.938Z" fill="#FFCC00"/>
<path d="M61.2616 198.974C59.8437 197.883 58.3752 196.841 56.938 195.753C56.6066 195.496 56.3646 195.181 56.2119 194.809C55.9818 194.451 55.8678 194.072 55.8432 193.634C55.7799 193.204 55.8403 192.791 56.0088 192.416C56.0923 192.018 56.284 191.659 56.5681 191.363C57.1133 190.755 57.8474 190.29 58.6835 190.249L59.5152 190.288C60.0565 190.384 60.5428 190.611 60.951 190.954C62.3883 192.042 63.8567 193.084 65.2746 194.175C65.6059 194.432 65.8479 194.747 66.0006 195.12C66.2308 195.477 66.3447 195.857 66.3693 196.294C66.4327 196.724 66.3723 197.138 66.2037 197.512C66.1202 197.91 65.9286 198.269 65.6445 198.566C65.0993 199.174 64.3652 199.638 63.5291 199.68L62.6974 199.64C62.1561 199.544 61.6698 199.317 61.2616 198.974Z" fill="#FFCC00"/>
<path d="M44.8185 199.071C43.7614 198.492 42.72 197.89 41.7061 197.223C40.9003 196.696 40.1606 196.096 39.4054 195.519C39.0741 195.261 38.8284 194.927 38.6719 194.535C38.4418 194.178 38.324 193.779 38.3188 193.338C38.2727 192.583 38.5372 191.667 39.0706 191.101C39.6389 190.509 40.3923 190.041 41.2322 190.018C42.072 189.996 42.8021 190.236 43.4685 190.77C44.2237 191.347 44.967 191.967 45.7691 192.474L45.102 192.041C45.8847 192.552 46.7336 192.99 47.5437 193.436C48.2651 193.839 48.8615 194.427 49.1357 195.218C49.3754 195.935 49.366 196.922 48.9945 197.597C48.6231 198.272 48.0116 198.953 47.2131 199.189C46.4146 199.424 45.5554 199.45 44.834 199.048L44.8185 199.071Z" fill="#FFCC00"/>
<path d="M207.905 90.3297C210.775 99.5211 207.988 108.564 201.677 110.533C195.366 112.502 187.922 106.671 185.053 97.4793C182.183 88.2879 184.97 79.2446 191.281 77.2758C197.592 75.3071 205.036 81.1383 207.905 90.3297Z" fill="#F7FCF8"/>
<path style="mix-blend-mode:multiply" opacity="0.25" d="M185.088 93.9348C187.958 103.126 195.401 108.957 201.712 106.989C205.825 105.708 208.427 101.404 208.953 96.0357C209.42 103 206.639 108.967 201.657 110.537C195.346 112.506 187.903 106.674 185.033 97.4831C184.03 94.281 183.734 91.1022 184.021 88.2325C184.139 90.079 184.492 92.0004 185.088 93.9348Z" fill="url(#paint3_radial_2_62453)"/>
<path style="mix-blend-mode:multiply" opacity="0.25" d="M201.427 91.6475C203.18 97.257 201.477 102.773 197.627 103.963C193.778 105.152 189.228 101.593 187.48 96.0033C185.727 90.3938 187.43 84.8775 191.28 83.688C195.125 82.4792 199.679 86.0575 201.427 91.6475Z" fill="url(#paint4_radial_2_62453)"/>
<path style="mix-blend-mode:multiply" opacity="0.25" d="M201.428 91.6476C202.765 95.9506 202.083 100.203 199.934 102.49C197.134 101.526 194.516 98.5972 193.265 94.6391C191.927 90.3361 192.609 86.0833 194.758 83.7968C197.558 84.7608 200.177 87.6895 201.428 91.6476Z" fill="url(#paint5_radial_2_62453)"/>
<path d="M199.846 93.4418C190.422 47.2727 144.086 17.7357 96.3522 27.4842C48.6179 37.2326 17.5775 82.5533 27.0057 128.742C36.4302 174.911 78.9679 195.135 126.683 185.39C174.417 175.642 209.251 139.615 199.827 93.4456L199.846 93.4418Z" fill="#F7FCF8"/>
<path style="mix-blend-mode:multiply" opacity="0.25" d="M44.5996 58.6752C34.1257 76.1651 29.8892 97.208 34.2308 118.435C43.6552 164.604 86.193 184.828 133.908 175.084C157.92 170.181 178.67 158.616 192.174 142.447C179.672 163.989 155.546 179.486 126.698 185.367C78.9641 195.116 36.4458 174.888 27.0213 128.718C21.7949 103.141 29.0199 77.8195 44.5958 58.6558L44.5996 58.6752Z" fill="url(#paint6_radial_2_62453)"/>
<path d="M198.906 96.2575C191.157 58.3056 153.08 34.0395 113.85 42.0367C74.6234 50.0532 49.1122 87.3059 56.8611 125.258C64.6101 163.21 99.5758 179.839 138.802 171.822C178.029 163.806 206.67 134.186 198.925 96.2537L198.906 96.2575Z" fill="url(#paint7_radial_2_62453)"/>
<path style="mix-blend-mode:multiply" opacity="0.25" d="M200.262 94.4464C192.314 55.5685 152.719 30.8334 111.788 39.1808C70.8608 47.5476 44.1209 85.8227 52.0503 124.704C59.9992 163.582 96.3679 180.501 137.295 172.135C178.223 163.768 208.188 133.309 200.259 94.4271L200.262 94.4464Z" fill="url(#paint8_radial_2_62453)"/>
<path style="mix-blend-mode:screen" d="M141.771 124.574C166.229 119.585 186.563 106.191 196.524 87.6145C197.488 90.4023 198.307 93.2783 198.906 96.2575C206.655 134.209 178.013 163.829 138.783 171.826C99.5565 179.842 64.5907 163.213 56.8418 125.262C53.9087 110.877 55.7581 96.5884 61.3247 83.9504C71.3654 117.659 104.648 132.142 141.752 124.578L141.771 124.574Z" fill="url(#paint9_radial_2_62453)"/>
<path d="M62.6205 82.0305C62.9817 83.1664 63.3778 84.2755 63.7934 85.3807C62.0282 93.6829 61.9324 102.405 63.8213 111.204C71.5134 146.895 105.784 162.634 144.144 155.228C165.668 151.07 183.9 140.516 194.397 125.735C185.798 145.534 164.639 159.852 138.679 164.871C100.319 172.277 66.0682 156.535 58.3567 120.847C55.4266 107.306 57.2015 93.8761 62.6011 82.0343L62.6205 82.0305Z" fill="url(#paint10_radial_2_62453)"/>
<path style="mix-blend-mode:screen" d="M162.316 93.8329C159.949 79.78 154.42 64.6529 143.223 50.6661C143.223 50.6661 167.695 54.7597 182.869 77.8435C177.345 85.1066 170.335 90.2059 162.319 93.8522L162.316 93.8329Z" fill="url(#paint11_radial_2_62453)"/>
<path style="mix-blend-mode:screen" d="M163.046 98.8368C171.762 95.0745 179.481 89.7973 185.584 82.3014C198.106 104.875 191.763 122.729 186.596 129.661C181.192 136.921 167.545 145.419 158.662 147.284C158.662 147.284 166.257 125.63 163.046 98.8368Z" fill="url(#paint12_radial_2_62453)"/>
<path style="mix-blend-mode:screen" opacity="0.45" d="M151.536 49.8966C163.147 52.8685 189.359 62.8152 183.549 85.5905C179.33 102.168 155.801 115.981 111.618 114.93C67.4358 113.879 75.9783 71.8396 97.0315 60.5973C118.104 49.3512 140.345 47.0238 151.516 49.9003L151.536 49.8966Z" fill="url(#paint13_radial_2_62453)"/>
<path style="mix-blend-mode:screen" d="M165.187 67.2062C163.417 68.8563 164.731 73.1436 168.128 76.7656C171.524 80.3875 175.695 81.99 177.465 80.3399C179.235 78.6898 177.92 74.4025 174.524 70.7805C171.127 67.1585 166.957 65.5561 165.187 67.2062Z" fill="url(#paint14_radial_2_62453)"/>
<path style="mix-blend-mode:screen" d="M154.384 58.7707C153.537 60.0003 154.928 62.4036 157.469 64.1013C160.013 65.8184 162.739 66.1938 163.566 64.9679C164.413 63.7382 163.022 61.3349 160.481 59.6372C157.937 57.9201 155.211 57.5448 154.384 58.7707Z" fill="url(#paint15_radial_2_62453)"/>
<path style="mix-blend-mode:multiply" opacity="0.25" d="M71.7498 132.478C74.6194 141.669 71.15 150.926 64.0055 153.157C56.8609 155.388 48.7315 149.75 45.8657 140.578C42.9961 131.386 46.4655 122.13 53.6101 119.899C60.7546 117.668 68.884 123.306 71.7498 132.478Z" fill="url(#paint16_radial_2_62453)"/>
<path d="M45.4634 139.774C42.5914 130.59 45.3812 121.545 51.6944 119.571C58.0077 117.596 65.4538 123.441 68.3257 132.625C71.1977 141.809 68.408 150.854 62.0947 152.828C55.7815 154.803 48.3354 148.958 45.4634 139.774Z" fill="#F7FCF8"/>
<path style="mix-blend-mode:multiply" opacity="0.25" d="M45.5188 136.203C48.3884 145.394 55.8318 151.226 62.1429 149.257C66.2559 147.976 68.8575 143.672 69.3833 138.304C69.8508 145.268 67.0694 151.235 62.0879 152.805C55.7768 154.774 48.3335 148.943 45.4639 139.751C44.4604 136.549 44.165 133.37 44.4522 130.501C44.5694 132.347 44.9222 134.269 45.5188 136.203Z" fill="url(#paint17_radial_2_62453)"/>
<path d="M61.8582 133.916C63.6103 139.525 61.9074 145.041 58.058 146.231C54.2124 147.44 49.6586 143.861 47.9102 138.271C46.158 132.662 47.861 127.146 51.7103 125.956C55.5597 124.767 60.1097 128.326 61.8582 133.916Z" fill="#F3A400"/>
<g style="mix-blend-mode:multiply" opacity="0.5">
<path d="M61.8582 133.916C63.196 138.219 62.514 142.471 60.365 144.758C57.5649 143.794 54.9462 140.865 53.6954 136.907C52.3577 132.604 53.0396 128.351 55.1887 126.065C57.9888 127.029 60.6075 129.958 61.8582 133.916Z" fill="#F3A400"/>
</g>
<path style="mix-blend-mode:multiply" opacity="0.46" d="M43.1256 59.9866C43.0493 59.8004 43.0079 59.5873 42.959 59.3355C42.9515 59.2967 42.9477 59.2774 42.9402 59.2386C42.8951 59.0062 42.885 58.7468 42.8867 58.445C42.8792 58.4062 42.8679 58.3481 42.8798 58.3056C42.8734 58.0657 42.8826 57.8027 42.9075 57.5164C42.8962 57.4583 42.9236 57.3927 42.9317 57.3308C42.9204 57.2727 42.9479 57.207 42.9597 57.1645C42.9797 57.0601 42.9802 56.9596 42.9964 56.8358C43.0444 56.5652 43.0886 56.2753 43.1484 55.9622C43.1409 55.9234 43.1684 55.8578 43.1802 55.8153C43.3392 55.0809 43.5412 54.2578 43.8212 53.3191C44.0264 52.616 44.2822 51.8627 44.5886 51.0595C44.7303 50.6501 44.9106 50.2333 45.1297 49.8089C45.2003 49.6545 45.2902 49.4963 45.3838 49.3576C45.5324 49.0875 45.6578 48.8019 45.8258 48.5281C45.9625 48.3005 46.1343 48.0461 46.2904 47.8148C46.4115 47.6104 46.5326 47.406 46.6731 47.1978C46.876 46.8971 47.0983 46.5926 47.3244 46.3076C47.4336 46.1456 47.5467 46.0031 47.6559 45.8412C47.9288 45.4867 48.2211 45.1285 48.5171 44.7896C48.6145 44.6702 48.6963 44.5739 48.7938 44.4545C49.121 44.0694 49.4714 43.6999 49.818 43.311C49.8998 43.2147 49.9816 43.1185 50.0672 43.0416C50.4681 42.622 50.8847 42.1793 51.3244 41.7523C51.375 41.7023 51.4255 41.6523 51.4568 41.606C51.9121 41.1558 52.4061 40.6982 52.9002 40.2405C52.9196 40.2367 52.9508 40.1904 52.9664 40.1673C65.6787 28.5139 89.5966 16.3939 109.194 17.5342C129.647 18.7297 140.878 25.3332 146.96 32.3332C147.06 32.4344 147.141 32.5393 147.241 32.6405C147.529 32.9865 147.818 33.3326 148.063 33.6668C148.221 33.8573 148.359 34.0516 148.497 34.2459C148.713 34.5257 148.912 34.8287 149.108 35.1123C149.304 35.3959 149.48 35.6832 149.653 35.9511C149.795 36.1648 149.936 36.3785 150.059 36.5959C150.358 37.1007 150.638 37.6091 150.894 38.102C154.213 44.533 148.84 48.8521 143.519 50.3273C142.031 50.7368 140.555 50.9027 139.263 50.8722C132.655 50.5871 126.068 51.4437 119.627 53.0557C117.48 53.5931 115.329 54.2116 113.212 54.9039C108.052 56.589 102.967 58.6614 98.0429 61.0444C96.3898 61.8476 94.7636 62.686 93.1606 63.5398C92.3765 63.9533 91.6156 64.3824 90.8354 64.8152C88.5139 66.1101 86.2038 67.4631 84.0087 68.9947C80.5587 71.4131 76.1659 70.8386 72.8476 68.4477L72.8013 68.4165C72.57 68.2604 72.3543 68.0812 72.1349 67.8826C72.0886 67.8514 72.0424 67.8201 71.9924 67.7695C71.7498 67.5553 71.5072 67.3411 71.2803 67.1037C69.8297 65.6366 68.3736 64.452 66.804 63.5105C65.7588 62.8893 64.6899 62.3532 63.543 61.9326C62.9792 61.7204 62.3804 61.5351 61.7854 61.3692C60.576 61.0412 59.3199 60.7826 57.9587 60.6046C57.0307 60.4832 56.087 60.385 55.1508 60.3255C52.3037 60.1546 49.3655 60.3431 46.6101 61.0589C46.6101 61.0589 46.5907 61.0626 46.552 61.0701C46.5132 61.0777 46.4551 61.089 46.4007 61.1196C46.4007 61.1196 46.4007 61.1196 46.3814 61.1234C46.3039 61.1384 46.2264 61.1534 46.1527 61.1878C46.1527 61.1878 46.1333 61.1915 46.1139 61.1953C46.0171 61.2141 45.9202 61.2329 45.804 61.2555C45.804 61.2555 45.7847 61.2592 45.7653 61.263C45.6491 61.2855 45.5328 61.3081 45.4166 61.3307C45.3004 61.3532 45.1573 61.3409 45.0374 61.344C45.0374 61.344 45.0373 61.344 45.018 61.3478C44.8942 61.3316 44.7511 61.3192 44.6274 61.303C44.6274 61.303 44.5886 61.3105 44.5655 61.2949C44.438 61.2594 44.3105 61.2239 44.1986 61.1652C44.1986 61.1652 44.1561 61.1533 44.133 61.1377C44.0211 61.079 43.9054 61.0009 43.7898 60.9229C43.7898 60.9229 43.7629 60.888 43.7398 60.8724C43.6397 60.7712 43.5166 60.6544 43.4321 60.53C43.4321 60.53 43.4284 60.5106 43.4246 60.4913C43.3364 60.3476 43.2444 60.1845 43.1681 59.9983C43.1681 59.9983 43.1681 59.9984 43.1644 59.9791L43.1256 59.9866Z" fill="url(#paint18_radial_2_62453)"/>
<path d="M143.737 47.9331C149.05 46.6204 154.397 42.6881 151.033 36.7484C146.47 28.6696 135.275 19.1446 109.198 17.5535C83.1211 15.9624 49.5421 35.9879 44.8344 47.9768C40.1267 59.9657 46.9223 57.1792 46.9223 57.1792C50.5762 56.3292 54.5813 56.3557 58.2703 56.8255C63.7111 57.518 67.749 59.2668 71.6291 62.8953C75.0435 66.0917 80.3771 67.2674 84.3813 64.7012C87.2786 62.8524 90.4066 61.2604 93.4916 59.7571C99.9139 56.6009 106.62 53.9726 113.481 51.9373C121.923 49.4543 130.681 47.9753 139.486 48.3967C140.763 48.4503 142.261 48.3001 143.737 47.9331Z" fill="#F7FCF8"/>
<path style="mix-blend-mode:multiply" opacity="0.25" d="M46.5046 50.9892C50.1586 50.1392 54.1636 50.1657 57.8527 50.6355C63.2935 51.328 67.3314 53.0768 71.2116 56.7053C74.6259 59.9017 79.9595 61.0774 83.9637 58.5112C86.861 56.6624 89.9891 55.0704 93.074 53.567C99.4963 50.4109 106.202 47.7826 113.063 45.7472C121.505 43.2642 130.263 41.7853 139.068 42.2067C140.345 42.2603 141.843 42.1101 143.32 41.7431C146.505 40.964 149.684 39.2212 150.999 36.6746C150.999 36.6746 151.007 36.7134 151.01 36.7328C154.374 42.6726 149.027 46.6049 143.714 47.9176C142.238 48.2846 140.759 48.431 139.463 48.3811C130.661 47.9791 121.9 49.4387 113.457 51.9217C106.573 53.9414 99.8909 56.5853 93.4686 59.7415C90.3874 61.2642 87.2556 62.8368 84.3583 64.6856C80.354 67.2518 75.0398 66.0725 71.6061 62.8799C67.726 59.2513 63.6881 57.5026 58.2473 56.81C54.5582 56.3402 50.5532 56.3136 46.8992 57.1636C46.8992 57.1636 41.3138 59.4538 43.7844 50.9543C44.9027 51.6417 46.4853 50.9929 46.4853 50.9929L46.5046 50.9892Z" fill="url(#paint19_radial_2_62453)"/>
<path style="mix-blend-mode:multiply" opacity="0.25" d="M71.6255 62.8761C67.7453 59.2476 63.7075 57.4988 58.2667 56.8063C54.5776 56.3365 50.5726 56.3098 46.9186 57.1598C46.9186 57.1598 41.3332 59.45 43.8038 50.9506C44.9221 51.638 46.5046 50.9892 46.5046 50.9892C50.1586 50.1392 54.1636 50.1657 57.8527 50.6355C63.2935 51.328 67.3314 53.0768 71.2115 56.7053C72.8821 58.2704 75.0199 59.3429 77.2273 59.7385C77.2437 62.3081 77.8703 64.3975 78.6274 66.0193C76.0745 65.8114 73.5424 64.6748 71.6255 62.8761Z" fill="url(#paint20_radial_2_62453)"/>
<path style="mix-blend-mode:multiply" opacity="0.25" d="M68.829 27.7618C74.6931 35.7086 107.952 37.9557 128.562 34.6787C138.566 33.0984 141.44 29.8873 141.239 26.5698C146.038 29.7586 149.133 33.3789 151.033 36.7486C154.397 42.6883 149.05 46.6206 143.737 47.9333C142.261 48.3003 140.782 48.4468 139.486 48.3968C130.684 47.9949 121.923 49.4544 113.48 51.9374C106.596 53.9571 99.9138 56.6011 93.4915 59.7572C90.4103 61.28 87.2786 62.8526 84.3813 64.7014C80.377 67.2676 75.0628 66.0882 71.6291 62.8955C67.7489 59.267 63.7111 57.5182 58.2703 56.8256C54.5812 56.3559 50.5762 56.3293 46.9222 57.1793C46.9222 57.1793 40.1266 59.9658 44.8343 47.977C47.1745 42.0153 56.6655 34.0625 68.8134 27.7849L68.829 27.7618Z" fill="url(#paint21_radial_2_62453)"/>
<path d="M118.357 125.622C110.066 127.231 102.788 125.665 102.101 122.124C101.413 118.583 107.577 114.408 115.868 112.799C124.159 111.189 131.437 112.755 132.124 116.296C132.812 119.837 126.648 124.012 118.357 125.622Z" fill="url(#paint22_radial_2_62453)"/>
<path d="M171.529 114.375C163.238 115.985 155.96 114.419 155.273 110.878C154.585 107.337 160.749 103.162 169.04 101.552C177.331 99.9431 184.609 101.509 185.296 105.05C185.983 108.591 179.82 112.766 171.529 114.375Z" fill="url(#paint23_radial_2_62453)"/>
<path d="M118.896 120.733C110.466 122.37 102.305 116.862 100.669 108.433C99.0327 100.003 104.54 91.8425 112.97 90.2061C121.4 88.5697 129.56 94.0769 131.196 102.507C132.833 110.937 127.325 119.097 118.896 120.733Z" fill="url(#paint24_radial_2_62453)"/>
<path d="M167.368 107.746C159.997 109.177 152.862 104.362 151.431 96.9909C150.001 89.6202 154.816 82.4851 162.187 81.0543C169.557 79.6235 176.692 84.4388 178.123 91.8096C179.554 99.1803 174.739 106.315 167.368 107.746Z" fill="url(#paint25_radial_2_62453)"/>
<path style="mix-blend-mode:screen" opacity="0.45" d="M117.44 113.237C113.151 114.07 108.998 111.267 108.165 106.978C107.332 102.688 110.135 98.5351 114.425 97.7024C118.715 96.8696 122.867 99.6722 123.7 103.962C124.533 108.252 121.73 112.404 117.44 113.237Z" fill="url(#paint26_radial_2_62453)"/>
<path style="mix-blend-mode:screen" opacity="0.45" d="M166.24 101.935C162.078 102.743 158.05 100.024 157.242 95.863C156.434 91.7016 159.153 87.6732 163.315 86.8654C167.476 86.0576 171.504 88.7762 172.312 92.9377C173.12 97.0991 170.401 101.127 166.24 101.935Z" fill="url(#paint27_radial_2_62453)"/>
<g style="mix-blend-mode:screen">
<path d="M117.44 113.237C113.151 114.07 108.998 111.267 108.165 106.978C107.332 102.688 110.135 98.5351 114.425 97.7024C118.715 96.8696 122.867 99.6722 123.7 103.962C124.533 108.252 121.73 112.404 117.44 113.237Z" fill="white"/>
</g>
<g style="mix-blend-mode:screen">
<path d="M166.24 101.935C162.078 102.743 158.05 100.024 157.242 95.863C156.434 91.7016 159.153 87.6732 163.315 86.8654C167.476 86.0576 171.504 88.7762 172.312 92.9377C173.12 97.0991 170.401 101.127 166.24 101.935Z" fill="white"/>
</g>
<g style="mix-blend-mode:screen">
<path d="M117.853 123.026C112.922 123.983 108.592 123.051 108.183 120.944C107.774 118.836 111.44 116.352 116.372 115.394C121.303 114.437 125.633 115.369 126.042 117.477C126.451 119.584 122.785 122.069 117.853 123.026Z" fill="white"/>
</g>
<path d="M171.006 111.683C166.075 112.64 161.745 111.708 161.336 109.6C160.927 107.493 164.593 105.009 169.525 104.051C174.457 103.094 178.786 104.026 179.195 106.134C179.604 108.241 175.938 110.726 171.006 111.683Z" fill="#F493A4"/>
<g style="mix-blend-mode:screen">
<path d="M171.006 111.683C166.075 112.64 161.745 111.708 161.336 109.6C160.927 107.493 164.593 105.009 169.525 104.051C174.457 103.094 178.786 104.026 179.195 106.134C179.604 108.241 175.938 110.726 171.006 111.683Z" fill="white"/>
</g>
<path d="M161.781 112.931C161.09 109.99 152.223 110.183 145.25 111.537C138.277 112.89 129.673 117.234 130.21 120.205C132.1 130.873 143.66 134.096 150.633 132.743C157.606 131.389 163.849 121.715 161.762 112.935L161.781 112.931Z" fill="url(#paint28_radial_2_62453)"/>
<g style="mix-blend-mode:screen">
<path d="M156.102 116.184C155.618 114.107 149.352 114.238 144.432 115.193C139.512 116.148 133.435 119.217 133.802 121.317C135.145 128.855 143.305 131.13 148.244 130.171C153.184 129.212 157.584 122.369 156.117 116.161L156.102 116.184Z" fill="white"/>
</g>
<path d="M74.4116 159.106C76.455 155.218 80.9306 153.278 85.1655 154.444L121.758 164.524C131.511 167.21 136.044 178.431 130.895 187.139C126.43 194.689 116.557 196.97 109.233 192.143L77.5414 171.257C73.5302 168.613 72.1768 163.359 74.4116 159.106Z" fill="#F7FCF8"/>
<defs>
<linearGradient id="paint0_linear_2_62453" x1="270.711" y1="105.348" x2="119.431" y2="204.325" gradientUnits="userSpaceOnUse">
<stop stop-color="#FFFFF3"/>
<stop offset="0.09" stop-color="#F7F5ED" stop-opacity="0.96"/>
<stop offset="0.23" stop-color="#E2DADE" stop-opacity="0.86"/>
<stop offset="0.41" stop-color="#C0B0C6" stop-opacity="0.69"/>
<stop offset="0.63" stop-color="#9174A4" stop-opacity="0.45"/>
<stop offset="0.88" stop-color="#56297A" stop-opacity="0.16"/>
<stop offset="1" stop-color="#370264" stop-opacity="0"/>
</linearGradient>
<linearGradient id="paint1_linear_2_62453" x1="254.939" y1="38.7402" x2="103.659" y2="137.718" gradientUnits="userSpaceOnUse">
<stop stop-color="#00FFEE"/>
<stop offset="0.1" stop-color="#07DADA" stop-opacity="0.86"/>
<stop offset="0.29" stop-color="#1599B6" stop-opacity="0.6"/>
<stop offset="0.47" stop-color="#216399" stop-opacity="0.39"/>
<stop offset="0.63" stop-color="#2A3982" stop-opacity="0.22"/>
<stop offset="0.78" stop-color="#311B71" stop-opacity="0.1"/>
<stop offset="0.91" stop-color="#350867" stop-opacity="0.03"/>
<stop offset="1" stop-color="#370264" stop-opacity="0"/>
</linearGradient>
<linearGradient id="paint2_linear_2_62453" x1="263.828" y1="70.7096" x2="112.549" y2="169.687" gradientUnits="userSpaceOnUse">
<stop stop-color="#FF47F3"/>
<stop offset="0.09" stop-color="#F744ED" stop-opacity="0.96"/>
<stop offset="0.23" stop-color="#E23DDE" stop-opacity="0.86"/>
<stop offset="0.41" stop-color="#C031C6" stop-opacity="0.69"/>
<stop offset="0.63" stop-color="#9121A4" stop-opacity="0.45"/>
<stop offset="0.88" stop-color="#560C7A" stop-opacity="0.16"/>
<stop offset="1" stop-color="#370264" stop-opacity="0"/>
</linearGradient>
<radialGradient id="paint3_radial_2_62453" cx="0" cy="0" r="1" gradientUnits="userSpaceOnUse" gradientTransform="translate(189.969 109.99) rotate(-175.365) scale(0.986579 0.986577)">
<stop stop-color="#52DFEC"/>
<stop offset="0.94" stop-color="#408BED"/>
</radialGradient>
<radialGradient id="paint4_radial_2_62453" cx="0" cy="0" r="1" gradientUnits="userSpaceOnUse" gradientTransform="translate(193.979 73.9492) rotate(-175.365) scale(42.2255 42.2256)">
<stop stop-color="#52DFEC"/>
<stop offset="0.94" stop-color="#408BED"/>
</radialGradient>
<radialGradient id="paint5_radial_2_62453" cx="0" cy="0" r="1" gradientUnits="userSpaceOnUse" gradientTransform="translate(197.399 75.4737) rotate(-175.365) scale(37.2333 37.2334)">
<stop stop-color="#52DFEC"/>
<stop offset="0.94" stop-color="#408BED"/>
</radialGradient>
<radialGradient id="paint6_radial_2_62453" cx="0" cy="0" r="1" gradientUnits="userSpaceOnUse" gradientTransform="translate(108.6 126.179) rotate(-175.365) scale(74.171 74.1709)">
<stop stop-color="#52DFEC"/>
<stop offset="0.94" stop-color="#408BED"/>
</radialGradient>
<radialGradient id="paint7_radial_2_62453" cx="0" cy="0" r="1" gradientUnits="userSpaceOnUse" gradientTransform="translate(169.666 59.348) rotate(-175.365) scale(169.968 169.968)">
<stop offset="0.06" stop-color="#000A57"/>
<stop offset="0.96" stop-color="#000328"/>
</radialGradient>
<radialGradient id="paint8_radial_2_62453" cx="0" cy="0" r="1" gradientUnits="userSpaceOnUse" gradientTransform="translate(182.932 63.0461) rotate(-175.645) scale(176.766 175.067)">
<stop stop-color="#52DFEC"/>
<stop offset="0.94" stop-color="#408BED"/>
</radialGradient>
<radialGradient id="paint9_radial_2_62453" cx="0" cy="0" r="1" gradientUnits="userSpaceOnUse" gradientTransform="translate(79.802 183.016) rotate(-175.365) scale(0.986578)">
<stop offset="0.04" stop-color="#000328"/>
<stop offset="0.94" stop-color="#000A57"/>
</radialGradient>
<radialGradient id="paint10_radial_2_62453" cx="0" cy="0" r="1" gradientUnits="userSpaceOnUse" gradientTransform="translate(132.254 95.6901) rotate(-175.365) scale(200.788 200.788)">
<stop offset="0.06" stop-color="#000A57"/>
<stop offset="0.96" stop-color="#000328"/>
</radialGradient>
<radialGradient id="paint11_radial_2_62453" cx="0" cy="0" r="1" gradientUnits="userSpaceOnUse" gradientTransform="translate(181.15 62.1572) rotate(-179.765) scale(98.1843 98.1843)">
<stop offset="0.04" stop-color="#000328"/>
<stop offset="0.94" stop-color="#000A57"/>
</radialGradient>
<radialGradient id="paint12_radial_2_62453" cx="0" cy="0" r="1" gradientUnits="userSpaceOnUse" gradientTransform="translate(181.15 62.177) rotate(-179.765) scale(98.1843 98.1842)">
<stop offset="0.04" stop-color="#000328"/>
<stop offset="0.94" stop-color="#000A57"/>
</radialGradient>
<radialGradient id="paint13_radial_2_62453" cx="0" cy="0" r="1" gradientUnits="userSpaceOnUse" gradientTransform="translate(161.259 58.2903) rotate(-175.365) scale(104.577 104.577)">
<stop offset="0.04" stop-color="#000328"/>
<stop offset="0.94" stop-color="#000A57"/>
</radialGradient>
<radialGradient id="paint14_radial_2_62453" cx="0" cy="0" r="1" gradientUnits="userSpaceOnUse" gradientTransform="translate(176.992 74.9569) rotate(-133.065) scale(16.5547 16.5547)">
<stop offset="0.04" stop-color="#000328"/>
<stop offset="0.94" stop-color="#000A57"/>
</radialGradient>
<radialGradient id="paint15_radial_2_62453" cx="0" cy="0" r="1" gradientUnits="userSpaceOnUse" gradientTransform="translate(162.537 61.8142) rotate(-145.955) scale(10.2012)">
<stop offset="0.04" stop-color="#000328"/>
<stop offset="0.94" stop-color="#000A57"/>
</radialGradient>
<radialGradient id="paint16_radial_2_62453" cx="0" cy="0" r="1" gradientUnits="userSpaceOnUse" gradientTransform="translate(58.7082 136.507) rotate(-175.365) scale(15.6077 15.6077)">
<stop stop-color="#52DFEC"/>
<stop offset="0.94" stop-color="#408BED"/>
</radialGradient>
<radialGradient id="paint17_radial_2_62453" cx="0" cy="0" r="1" gradientUnits="userSpaceOnUse" gradientTransform="translate(50.4046 152.245) rotate(-175.365) scale(24.2304 24.2303)">
<stop stop-color="#52DFEC"/>
<stop offset="0.94" stop-color="#408BED"/>
</radialGradient>
<radialGradient id="paint18_radial_2_62453" cx="0" cy="0" r="1" gradientUnits="userSpaceOnUse" gradientTransform="translate(127.472 25.5007) rotate(-175.365) scale(100.236 100.236)">
<stop stop-color="#52DFEC"/>
<stop offset="0.94" stop-color="#408BED"/>
</radialGradient>
<radialGradient id="paint19_radial_2_62453" cx="0" cy="0" r="1" gradientUnits="userSpaceOnUse" gradientTransform="translate(97.3206 49.9399) rotate(-175.365) scale(39.9564 39.9564)">
<stop stop-color="#52DFEC"/>
<stop offset="0.94" stop-color="#408BED"/>
</radialGradient>
<radialGradient id="paint20_radial_2_62453" cx="0" cy="0" r="1" gradientUnits="userSpaceOnUse" gradientTransform="translate(60.9984 57.7052) rotate(-175.365) scale(13.7134 13.7135)">
<stop stop-color="#52DFEC"/>
<stop offset="0.94" stop-color="#408BED"/>
</radialGradient>
<radialGradient id="paint21_radial_2_62453" cx="0" cy="0" r="1" gradientUnits="userSpaceOnUse" gradientTransform="translate(127.056 30.6339) rotate(-175.365) scale(95.4416)">
<stop stop-color="#52DFEC"/>
<stop offset="0.94" stop-color="#408BED"/>
</radialGradient>
<radialGradient id="paint22_radial_2_62453" cx="0" cy="0" r="1" gradientUnits="userSpaceOnUse" gradientTransform="translate(117.106 119.199) rotate(168.365) scale(16.3772 7.36973)">
<stop stop-color="#00F1CD"/>
<stop offset="0.12" stop-color="#00ECC9" stop-opacity="0.98"/>
<stop offset="0.25" stop-color="#00DFBE" stop-opacity="0.93"/>
<stop offset="0.38" stop-color="#00CAAC" stop-opacity="0.84"/>
<stop offset="0.52" stop-color="#00AD93" stop-opacity="0.72"/>
<stop offset="0.65" stop-color="#008672" stop-opacity="0.56"/>
<stop offset="0.79" stop-color="#00574A" stop-opacity="0.36"/>
<stop offset="0.92" stop-color="#00211C" stop-opacity="0.14"/>
<stop offset="1" stop-opacity="0"/>
</radialGradient>
<radialGradient id="paint23_radial_2_62453" cx="0" cy="0" r="1" gradientUnits="userSpaceOnUse" gradientTransform="translate(170.258 107.955) rotate(168.365) scale(0.986578 0.44396)">
<stop stop-color="#00F1CD"/>
<stop offset="0.12" stop-color="#00ECC9" stop-opacity="0.98"/>
<stop offset="0.25" stop-color="#00DFBE" stop-opacity="0.93"/>
<stop offset="0.38" stop-color="#00CAAC" stop-opacity="0.84"/>
<stop offset="0.52" stop-color="#00AD93" stop-opacity="0.72"/>
<stop offset="0.65" stop-color="#008672" stop-opacity="0.56"/>
<stop offset="0.79" stop-color="#00574A" stop-opacity="0.36"/>
<stop offset="0.92" stop-color="#00211C" stop-opacity="0.14"/>
<stop offset="1" stop-opacity="0"/>
</radialGradient>
<radialGradient id="paint24_radial_2_62453" cx="0" cy="0" r="1" gradientUnits="userSpaceOnUse" gradientTransform="translate(115.99 105.502) rotate(179.585) scale(15.5485)">
<stop stop-color="#00F1CD"/>
<stop offset="0.12" stop-color="#00ECC9" stop-opacity="0.98"/>
<stop offset="0.25" stop-color="#00DFBE" stop-opacity="0.93"/>
<stop offset="0.38" stop-color="#00CAAC" stop-opacity="0.84"/>
<stop offset="0.52" stop-color="#00AD93" stop-opacity="0.72"/>
<stop offset="0.65" stop-color="#008672" stop-opacity="0.56"/>
<stop offset="0.79" stop-color="#00574A" stop-opacity="0.36"/>
<stop offset="0.92" stop-color="#00211C" stop-opacity="0.14"/>
<stop offset="1" stop-opacity="0"/>
</radialGradient>
<radialGradient id="paint25_radial_2_62453" cx="0" cy="0" r="1" gradientUnits="userSpaceOnUse" gradientTransform="translate(164.825 94.4331) rotate(179.585) scale(13.595 13.595)">
<stop stop-color="#00F1CD"/>
<stop offset="0.12" stop-color="#00ECC9" stop-opacity="0.98"/>
<stop offset="0.25" stop-color="#00DFBE" stop-opacity="0.93"/>
<stop offset="0.38" stop-color="#00CAAC" stop-opacity="0.84"/>
<stop offset="0.52" stop-color="#00AD93" stop-opacity="0.72"/>
<stop offset="0.65" stop-color="#008672" stop-opacity="0.56"/>
<stop offset="0.79" stop-color="#00574A" stop-opacity="0.36"/>
<stop offset="0.92" stop-color="#00211C" stop-opacity="0.14"/>
<stop offset="1" stop-opacity="0"/>
</radialGradient>
<radialGradient id="paint26_radial_2_62453" cx="0" cy="0" r="1" gradientUnits="userSpaceOnUse" gradientTransform="translate(115.99 105.502) rotate(179.585) scale(7.91235 7.91238)">
<stop offset="0.04" stop-color="#000328"/>
<stop offset="0.94" stop-color="#000A57"/>
</radialGradient>
<radialGradient id="paint27_radial_2_62453" cx="0" cy="0" r="1" gradientUnits="userSpaceOnUse" gradientTransform="translate(164.825 94.4332) rotate(179.585) scale(7.67558 7.67555)">
<stop offset="0.04" stop-color="#000328"/>
<stop offset="0.94" stop-color="#000A57"/>
</radialGradient>
<radialGradient id="paint28_radial_2_62453" cx="0" cy="0" r="1" gradientUnits="userSpaceOnUse" gradientTransform="translate(147.793 128.071) rotate(165.985) scale(17.936 12.7346)">
<stop stop-color="#F2058A"/>
<stop offset="0.12" stop-color="#00ECC9" stop-opacity="0.98"/>
<stop offset="0.24" stop-color="#00DFBE" stop-opacity="0.93"/>
<stop offset="0.36" stop-color="#00CAAC" stop-opacity="0.84"/>
<stop offset="0.49" stop-color="#00AD93" stop-opacity="0.72"/>
<stop offset="0.62" stop-color="#008672" stop-opacity="0.56"/>
<stop offset="0.75" stop-color="#00574A" stop-opacity="0.36"/>
<stop offset="0.88" stop-color="#00211C" stop-opacity="0.14"/>
<stop offset="0.95" stop-opacity="0"/>
</radialGradient>
</defs>
</svg>
