<svg width="317" height="273" viewBox="0 0 317 273" fill="none" xmlns="http://www.w3.org/2000/svg">
<g clip-path="url(#clip0_17_2711)">
<path d="M144.051 230.322L311.071 121.063C312.959 119.826 313.488 117.296 312.258 115.407C311.021 113.519 308.491 112.99 306.602 114.22L139.582 223.479C137.694 224.716 137.165 227.246 138.395 229.136C139.632 231.024 142.162 231.552 144.051 230.322V230.322Z" fill="url(#paint0_linear_17_2711)"/>
<path style="mix-blend-mode:screen" d="M126.43 154.539L293.45 45.2795C295.339 44.0427 295.867 41.5128 294.637 39.6234C293.4 37.7354 290.87 37.2066 288.981 38.4369L121.961 147.696C120.073 148.933 119.544 151.463 120.774 153.352C122.011 155.24 124.541 155.769 126.43 154.539V154.539Z" fill="url(#paint1_linear_17_2711)"/>
<path d="M136.4 190.903L303.42 81.6443C305.308 80.4075 305.837 77.8775 304.606 75.9882C303.369 74.1001 300.839 73.5714 298.95 74.8016L131.93 184.061C130.042 185.298 129.513 187.827 130.744 189.717C131.98 191.605 134.51 192.134 136.4 190.903V190.903Z" fill="url(#paint2_linear_17_2711)"/>
<path d="M207.451 152.41C205.027 148.182 205.484 142.893 208.597 139.144L236.863 105.105C244.444 95.9755 258.628 96.5464 265.451 106.255V106.255C271.247 114.503 269.144 125.901 260.788 131.538L224.107 156.281C218.485 160.073 210.825 158.293 207.451 152.41V152.41Z" fill="#F7FCF8"/>
<path d="M78.9991 208.564C78.3702 209.64 77.4867 210.603 76.3945 211.21C72.5205 213.312 68.5232 209.503 67.2809 208.139C66.987 207.824 66.5217 207.704 66.1354 207.872C64.8421 208.403 63.9558 209.831 62.8971 210.851C57.4231 216.219 45.9732 202.431 45.4165 201.841C44.107 200.489 44.7517 198.177 45.8803 196.678C46.7154 195.585 47.7958 194.677 48.5817 193.57C49.2092 192.727 49.1754 191.593 48.5035 190.77C46.6081 188.438 39.2196 184.543 38.4969 180.82C38.0529 178.533 49.038 166.789 51.0094 169.153C55.4417 174.483 67.2949 187.471 77.3433 193.2C85.8197 198.024 83.699 200.647 79.0215 208.559L78.9991 208.564Z" fill="#FFCC00"/>
<path d="M38.0031 196.857C35.5557 194.679 33.1263 192.475 30.6789 190.297C30.0282 189.702 29.7172 188.459 29.7891 187.63C29.861 186.802 30.3284 185.734 31.0126 185.182C31.7597 184.595 32.7029 184.179 33.679 184.292L34.6008 184.486C35.2 184.695 35.7089 185.038 36.1273 185.516L43.4514 192.076C44.1022 192.671 44.4132 193.914 44.3413 194.743C44.2694 195.571 43.8019 196.639 43.1177 197.191C42.3707 197.778 41.4275 198.194 40.4514 198.081L39.5295 197.887C38.9303 197.678 38.4215 197.335 38.0031 196.857Z" fill="#FFCC00"/>
<path d="M70.928 222.371C69.2864 221.107 67.5861 219.902 65.9221 218.642C65.5385 218.344 65.2583 217.98 65.0815 217.549C64.815 217.135 64.6831 216.695 64.6546 216.189C64.5813 215.691 64.6512 215.212 64.8463 214.778C64.943 214.318 65.1649 213.902 65.4939 213.559C66.1252 212.855 66.975 212.317 67.943 212.269L68.9061 212.315C69.5327 212.426 70.0957 212.689 70.5684 213.086C72.2324 214.345 73.9326 215.551 75.5742 216.815C75.9578 217.113 76.238 217.477 76.4148 217.909C76.6813 218.322 76.8132 218.762 76.8417 219.268C76.9151 219.766 76.8451 220.245 76.65 220.679C76.5533 221.14 76.3315 221.555 76.0025 221.898C75.3712 222.602 74.5214 223.14 73.5533 223.188L72.5903 223.142C71.9637 223.031 71.4007 222.768 70.928 222.371Z" fill="#FFCC00"/>
<path d="M51.8903 222.483C50.6665 221.813 49.4607 221.116 48.2868 220.343C47.3538 219.733 46.4975 219.038 45.6231 218.37C45.2395 218.072 44.955 217.685 44.7738 217.232C44.5074 216.818 44.3711 216.356 44.365 215.845C44.3117 214.971 44.6179 213.911 45.2354 213.256C45.8935 212.57 46.7657 212.028 47.7381 212.002C48.7105 211.976 49.5557 212.254 50.3273 212.873C51.2017 213.541 52.0623 214.258 52.9909 214.846L52.2186 214.344C53.1247 214.936 54.1076 215.443 55.0455 215.959C55.8807 216.425 56.5713 217.106 56.8887 218.022C57.1663 218.852 57.1554 219.995 56.7253 220.776C56.2952 221.558 55.5873 222.347 54.6628 222.619C53.7383 222.892 52.7435 222.922 51.9083 222.456L51.8903 222.483Z" fill="#FFCC00"/>
<path d="M240.712 96.5833C244.034 107.225 240.807 117.695 233.5 119.975C226.193 122.254 217.576 115.503 214.253 104.861C210.931 94.2193 214.158 83.749 221.465 81.4696C228.772 79.1901 237.389 85.9415 240.712 96.5833Z" fill="#F7FCF8"/>
<path style="mix-blend-mode:multiply" opacity="0.25" d="M214.295 100.757C217.617 111.399 226.235 118.15 233.542 115.871C238.304 114.388 241.316 109.405 241.925 103.19C242.466 111.253 239.246 118.161 233.478 119.979C226.171 122.258 217.553 115.507 214.231 104.865C213.069 101.158 212.727 97.4776 213.059 94.155C213.195 96.2929 213.604 98.5175 214.295 100.757V100.757Z" fill="url(#paint3_radial_17_2711)"/>
<path style="mix-blend-mode:multiply" opacity="0.25" d="M233.212 98.1089C235.241 104.603 233.269 110.99 228.812 112.367C224.356 113.745 219.088 109.624 217.063 103.152C215.035 96.6574 217.006 90.2706 221.463 88.8935C225.916 87.4939 231.188 91.6368 233.212 98.1089Z" fill="url(#paint4_radial_17_2711)"/>
<path style="mix-blend-mode:multiply" opacity="0.25" d="M233.212 98.1091C234.761 103.091 233.971 108.015 231.483 110.662C228.241 109.546 225.209 106.155 223.761 101.573C222.212 96.5907 223.002 91.6668 225.49 89.0196C228.732 90.1356 231.764 93.5265 233.212 98.1091Z" fill="url(#paint5_radial_17_2711)"/>
<path d="M231.381 100.186C220.469 46.7321 166.822 12.5344 111.556 23.821C56.2895 35.1077 20.351 87.5798 31.267 141.056C42.1786 194.511 91.4285 217.926 146.673 206.644C201.939 195.357 242.27 153.645 231.358 100.191L231.381 100.186Z" fill="#F7FCF8"/>
<path style="mix-blend-mode:multiply" opacity="0.25" d="M51.6372 59.9339C39.5107 80.1836 34.6056 104.547 39.6323 129.123C50.5439 182.578 99.7939 205.993 155.038 194.711C182.839 189.035 206.863 175.645 222.498 156.925C208.024 181.865 180.09 199.808 146.691 206.617C91.4243 217.904 42.1968 194.484 31.2852 141.03C25.2342 111.416 33.5992 82.0991 51.6329 59.9114L51.6372 59.9339Z" fill="url(#paint6_radial_17_2711)"/>
<path d="M230.291 103.446C221.32 59.5058 177.235 31.4107 131.815 40.6698C86.3983 49.9512 56.8615 93.0822 65.8332 137.023C74.805 180.963 115.288 200.216 160.704 190.935C206.12 181.653 239.281 147.36 230.314 103.442L230.291 103.446Z" fill="url(#paint7_radial_17_2711)"/>
<path style="mix-blend-mode:multiply" opacity="0.25" d="M231.862 101.349C222.659 56.3368 176.817 27.6986 129.427 37.3632C82.0419 47.0502 51.0826 91.3649 60.2633 136.382C69.4664 181.394 111.574 200.983 158.959 191.296C206.345 181.609 241.039 146.344 231.858 101.327L231.862 101.349Z" fill="url(#paint8_radial_17_2711)"/>
<path style="mix-blend-mode:screen" d="M164.141 136.231C192.458 130.455 216.001 114.947 227.534 93.4397C228.65 96.6674 229.598 99.9971 230.291 103.446C239.263 147.387 206.102 181.68 160.682 190.939C115.266 200.221 74.7824 180.968 65.8107 137.027C62.4148 120.372 64.556 103.83 71.001 89.1974C82.6261 128.224 121.161 144.993 164.119 136.235L164.141 136.231Z" fill="url(#paint9_radial_17_2711)"/>
<path d="M72.501 86.9745C72.9192 88.2896 73.3778 89.5736 73.859 90.8533C71.8152 100.466 71.7043 110.564 73.8913 120.751C82.7972 162.074 122.475 180.297 166.888 171.722C191.808 166.908 212.917 154.688 225.071 137.575C215.116 160.498 190.617 177.076 160.561 182.887C116.148 191.462 76.4928 173.235 67.5645 131.916C64.172 116.238 66.227 100.689 72.4786 86.9788L72.501 86.9745Z" fill="url(#paint10_radial_17_2711)"/>
<path style="mix-blend-mode:screen" d="M187.927 100.639C185.188 84.3688 178.786 66.8547 165.822 50.6609C165.822 50.6609 194.156 55.4004 211.724 82.1267C205.328 90.5359 197.212 96.4398 187.932 100.662L187.927 100.639Z" fill="url(#paint11_radial_17_2711)"/>
<path style="mix-blend-mode:screen" d="M188.773 106.433C198.865 102.077 207.802 95.9669 214.867 87.2881C229.366 113.424 222.022 134.095 216.04 142.121C209.782 150.526 193.983 160.365 183.697 162.525C183.697 162.525 192.491 137.453 188.773 106.433V106.433Z" fill="url(#paint12_radial_17_2711)"/>
<path style="mix-blend-mode:screen" opacity="0.45" d="M175.446 49.77C188.89 53.2109 219.238 64.7271 212.511 91.0963C207.627 110.289 180.385 126.282 129.231 125.065C78.0764 123.848 87.9669 75.1755 112.342 62.1592C136.74 49.1386 162.49 46.4439 175.424 49.7743L175.446 49.77Z" fill="url(#paint13_radial_17_2711)"/>
<path style="mix-blend-mode:screen" d="M191.251 69.811C189.202 71.7215 190.724 76.6853 194.657 80.8788C198.589 85.0723 203.417 86.9276 205.467 85.0172C207.516 83.1067 205.994 78.1428 202.061 73.9494C198.129 69.7559 193.301 67.9005 191.251 69.811Z" fill="url(#paint14_radial_17_2711)"/>
<path style="mix-blend-mode:screen" d="M178.744 60.0444C177.763 61.4681 179.374 64.2506 182.316 66.2162C185.261 68.2042 188.418 68.6388 189.375 67.2195C190.356 65.7958 188.745 63.0133 185.804 61.0477C182.858 59.0597 179.702 58.6251 178.744 60.0444Z" fill="url(#paint15_radial_17_2711)"/>
<path style="mix-blend-mode:multiply" opacity="0.25" d="M83.071 145.382C86.3934 156.024 82.3765 166.741 74.1046 169.324C65.8327 171.907 56.4205 165.38 53.1025 154.76C49.7801 144.118 53.7969 133.402 62.0689 130.819C70.3408 128.235 79.7529 134.763 83.071 145.382Z" fill="url(#paint16_radial_17_2711)"/>
<path d="M52.6369 153.83C49.3117 143.197 52.5416 132.724 59.8511 130.438C67.1605 128.152 75.7816 134.919 79.1067 145.552C82.4319 156.185 79.202 166.658 71.8925 168.944C64.5831 171.23 55.962 164.463 52.6369 153.83Z" fill="#F7FCF8"/>
<path style="mix-blend-mode:multiply" opacity="0.25" d="M52.7009 149.695C56.0234 160.337 64.6412 167.088 71.9482 164.809C76.7102 163.326 79.7224 158.343 80.3311 152.128C80.8723 160.191 77.6521 167.099 71.8846 168.917C64.5776 171.196 55.9598 164.445 52.6374 153.803C51.4756 150.096 51.1335 146.415 51.466 143.093C51.6017 145.231 52.0102 147.455 52.7009 149.695V149.695Z" fill="url(#paint17_radial_17_2711)"/>
<path d="M71.6186 147.047C73.6472 153.541 71.6756 159.928 67.2188 161.305C62.7663 162.705 57.494 158.562 55.4697 152.09C53.441 145.595 55.4127 139.209 59.8695 137.831C64.3263 136.454 69.5943 140.575 71.6186 147.047Z" fill="#F3A400"/>
<g style="mix-blend-mode:multiply" opacity="0.5">
<path d="M71.6182 147.047C73.167 152.029 72.3775 156.953 69.8893 159.6C66.6474 158.484 63.6155 155.093 62.1674 150.51C60.6185 145.528 61.4081 140.604 63.8962 137.957C67.1382 139.073 70.1701 142.464 71.6182 147.047Z" fill="#F3A400"/>
</g>
<path style="mix-blend-mode:multiply" opacity="0.46" d="M49.931 61.4522C49.8426 61.2366 49.7946 60.9899 49.738 60.6983C49.7293 60.6535 49.725 60.6311 49.7163 60.5862C49.664 60.3171 49.6523 60.0168 49.6543 59.6673C49.6456 59.6225 49.6325 59.5552 49.6463 59.506C49.6389 59.2282 49.6496 58.9237 49.6783 58.5923C49.6653 58.525 49.6971 58.4489 49.7064 58.3773C49.6934 58.31 49.7251 58.234 49.7389 58.1848C49.762 58.064 49.7626 57.9475 49.7813 57.8043C49.8369 57.491 49.8881 57.1553 49.9573 56.7928C49.9486 56.7479 49.9804 56.6719 49.9941 56.6227C50.1782 55.7725 50.412 54.8195 50.7363 53.7326C50.9739 52.9185 51.2701 52.0464 51.6248 51.1165C51.7888 50.6425 51.9976 50.1599 52.2513 49.6685C52.3329 49.4898 52.437 49.3067 52.5455 49.146C52.7175 48.8333 52.8627 48.5026 53.0572 48.1856C53.2155 47.9222 53.4143 47.6276 53.5951 47.3598C53.7353 47.1231 53.8755 46.8864 54.0382 46.6454C54.2731 46.2973 54.5305 45.9448 54.7922 45.6147C54.9187 45.4272 55.0496 45.2622 55.1761 45.0747C55.492 44.6643 55.8304 44.2495 56.1731 43.8572C56.2859 43.719 56.3807 43.6075 56.4935 43.4692C56.8723 43.0233 57.278 42.5956 57.6793 42.1453C57.774 42.0338 57.8687 41.9224 57.9678 41.8334C58.432 41.3476 58.9143 40.8351 59.4234 40.3406C59.482 40.2827 59.5405 40.2248 59.5767 40.1713C60.1038 39.65 60.6759 39.1202 61.2479 38.5902C61.2703 38.5859 61.3064 38.5323 61.3245 38.5055C76.0427 25.0133 103.735 10.9808 126.425 12.3011C150.105 13.6852 163.108 21.3307 170.15 29.4352C170.266 29.5524 170.359 29.6739 170.475 29.791C170.809 30.1917 171.143 30.5924 171.427 30.9793C171.61 31.1999 171.77 31.4248 171.93 31.6497C172.179 31.9737 172.41 32.3245 172.636 32.6528C172.863 32.9812 173.067 33.3138 173.267 33.6241C173.432 33.8715 173.596 34.1189 173.738 34.3706C174.084 34.955 174.408 35.5437 174.705 36.1144C178.547 43.5601 172.327 48.5608 166.166 50.2687C164.442 50.7429 162.734 50.9349 161.238 50.8996C153.588 50.5695 145.961 51.5613 138.504 53.4277C136.018 54.0498 133.528 54.766 131.077 55.5675C125.102 57.5185 119.215 59.9179 113.514 62.6769C111.6 63.6069 109.717 64.5775 107.861 65.5661C106.953 66.0448 106.072 66.5416 105.169 67.0428C102.481 68.5419 99.8066 70.1084 97.2652 71.8817C93.2707 74.6817 88.1848 74.0166 84.3429 71.2484L84.2893 71.2123C84.0215 71.0316 83.7718 70.8241 83.5177 70.5941C83.4641 70.558 83.4106 70.5218 83.3527 70.4632C83.0718 70.2152 82.791 69.9671 82.5282 69.6924C80.8487 67.9938 79.1629 66.6222 77.3456 65.5322C76.1355 64.813 74.8979 64.1922 73.57 63.7053C72.9173 63.4596 72.224 63.2451 71.5351 63.053C70.1349 62.6732 68.6805 62.3738 67.1046 62.1677C66.0301 62.0272 64.9375 61.9134 63.8536 61.8446C60.5572 61.6467 57.1554 61.8649 53.9652 62.6937C53.9652 62.6937 53.9428 62.698 53.8979 62.7067C53.8531 62.7154 53.7858 62.7285 53.7228 62.764C53.7228 62.764 53.7228 62.764 53.7004 62.7684C53.6107 62.7858 53.521 62.8031 53.4356 62.8429C53.4356 62.8429 53.4132 62.8473 53.3908 62.8516C53.2787 62.8734 53.1665 62.8952 53.032 62.9213C53.032 62.9213 53.0096 62.9256 52.9871 62.93C52.8526 62.9561 52.718 62.9822 52.5834 63.0083C52.4488 63.0345 52.2832 63.0201 52.1443 63.0238C52.1443 63.0238 52.1443 63.0238 52.1219 63.0282C51.9786 63.0095 51.8129 62.9951 51.6696 62.9764C51.6696 62.9764 51.6248 62.985 51.598 62.967C51.4504 62.9258 51.3028 62.8847 51.1732 62.8168C51.1732 62.8168 51.124 62.803 51.0972 62.7849C50.9677 62.717 50.8338 62.6266 50.6999 62.5362C50.6999 62.5362 50.6688 62.4958 50.642 62.4777C50.5262 62.3606 50.3836 62.2253 50.2858 62.0814C50.2858 62.0814 50.2815 62.0589 50.2771 62.0365C50.175 61.8702 50.0685 61.6813 49.9801 61.4658C49.9801 61.4658 49.9801 61.4659 49.9758 61.4435L49.931 61.4522Z" fill="url(#paint18_radial_17_2711)"/>
<path d="M166.418 47.4968C172.569 45.9769 178.76 41.4241 174.865 34.5471C169.582 25.1935 156.62 14.1656 126.429 12.3234C96.237 10.4813 57.3595 33.6666 51.9089 47.5473C46.4583 61.4279 54.3262 58.2017 54.3262 58.2017C58.5568 57.2176 63.1938 57.2483 67.4649 57.7922C73.7643 58.594 78.4393 60.6188 82.9317 64.8199C86.8848 68.5207 93.06 69.8818 97.6961 66.9107C101.051 64.7702 104.672 62.927 108.244 61.1864C115.68 57.5322 123.443 54.4892 131.387 52.1327C141.161 49.2579 151.301 47.5456 161.496 48.0334C162.974 48.0956 164.709 47.9217 166.418 47.4968V47.4968Z" fill="#F7FCF8"/>
<path style="mix-blend-mode:multiply" opacity="0.25" d="M53.8427 51.035C58.0732 50.0509 62.7102 50.0816 66.9814 50.6255C73.2807 51.4273 77.9558 53.452 82.4482 57.6531C86.4013 61.3539 92.5765 62.7151 97.2125 59.744C100.567 57.6034 104.189 55.7602 107.76 54.0196C115.196 50.3655 122.96 47.3224 130.903 44.9659C140.678 42.0911 150.818 40.3788 161.012 40.8667C162.49 40.9288 164.225 40.7549 165.935 40.33C169.623 39.4279 173.304 37.4101 174.826 34.4617C174.826 34.4617 174.834 34.5066 174.839 34.5291C178.734 41.4061 172.543 45.9589 166.392 47.4787C164.682 47.9036 162.97 48.0732 161.469 48.0154C151.279 47.55 141.135 49.2399 131.36 52.1147C123.39 54.4531 115.653 57.5142 108.217 61.1684C104.65 62.9314 101.024 64.7522 97.6694 66.8927C93.0333 69.8638 86.8805 68.4984 82.905 64.802C78.4126 60.6009 73.7376 58.5762 67.4383 57.7743C63.1671 57.2304 58.5301 57.1996 54.2995 58.1837C54.2995 58.1837 47.8327 60.8353 50.6932 50.9947C51.988 51.7905 53.8203 51.0393 53.8203 51.0393L53.8427 51.035Z" fill="url(#paint19_radial_17_2711)"/>
<path style="mix-blend-mode:multiply" opacity="0.25" d="M82.9272 64.7976C78.4348 60.5965 73.7598 58.5718 67.4604 57.77C63.1893 57.2261 58.5523 57.1952 54.3217 58.1793C54.3217 58.1793 47.8549 60.8309 50.7154 50.9903C52.0102 51.7862 53.8424 51.035 53.8424 51.035C58.073 50.0509 62.7099 50.0816 66.9811 50.6255C73.2805 51.4273 77.9555 53.452 82.4479 57.6531C84.3821 59.4652 86.8572 60.7069 89.4129 61.1649C89.4319 64.14 90.1574 66.559 91.0339 68.4368C88.0782 68.196 85.1466 66.8801 82.9272 64.7976V64.7976Z" fill="url(#paint20_radial_17_2711)"/>
<path style="mix-blend-mode:multiply" opacity="0.25" d="M79.6902 24.1424C86.4796 33.3432 124.987 35.9449 148.848 32.1508C160.432 30.3212 163.759 26.6034 163.526 22.7624C169.083 26.4543 172.666 30.6459 174.866 34.5473C178.761 41.4243 172.57 45.9771 166.419 47.4969C164.709 47.9219 162.997 48.0914 161.496 48.0336C151.306 47.5682 141.162 49.2581 131.387 52.1329C123.417 54.4713 115.68 57.5324 108.244 61.1866C104.677 62.9496 101.051 64.7704 97.6965 66.9109C93.0604 69.882 86.9076 68.5165 82.9321 64.8201C78.4396 60.6189 73.7647 58.5942 67.4653 57.7924C63.1941 57.2485 58.5572 57.2178 54.3266 58.2019C54.3266 58.2019 46.4587 61.4281 51.9093 47.5475C54.6187 40.6451 65.6074 31.4374 79.6721 24.1692L79.6902 24.1424Z" fill="url(#paint21_radial_17_2711)"/>
<path d="M137.033 137.444C127.434 139.307 119.007 137.494 118.212 133.395C117.416 129.295 124.552 124.461 134.151 122.598C143.75 120.734 152.177 122.547 152.973 126.647C153.769 130.747 146.632 135.581 137.033 137.444Z" fill="url(#paint22_radial_17_2711)"/>
<path d="M198.595 124.423C188.996 126.286 180.57 124.474 179.774 120.374C178.978 116.274 186.114 111.44 195.713 109.577C205.312 107.714 213.739 109.526 214.535 113.626C215.331 117.726 208.194 122.56 198.595 124.423Z" fill="url(#paint23_radial_17_2711)"/>
<path d="M137.656 131.784C127.896 133.679 118.448 127.303 116.554 117.543C114.659 107.783 121.035 98.3347 130.795 96.4401C140.555 94.5455 150.003 100.922 151.898 110.682C153.793 120.442 147.416 129.89 137.656 131.784Z" fill="url(#paint24_radial_17_2711)"/>
<path d="M193.778 116.748C185.244 118.404 176.983 112.829 175.326 104.296C173.67 95.7617 179.245 87.5008 187.779 85.8442C196.312 84.1876 204.573 89.7628 206.23 98.2966C207.886 106.83 202.311 115.091 193.778 116.748Z" fill="url(#paint25_radial_17_2711)"/>
<path style="mix-blend-mode:screen" opacity="0.45" d="M135.972 123.105C131.005 124.069 126.197 120.825 125.233 115.858C124.269 110.891 127.514 106.083 132.48 105.119C137.447 104.155 142.255 107.4 143.219 112.367C144.183 117.333 140.938 122.141 135.972 123.105Z" fill="url(#paint26_radial_17_2711)"/>
<path style="mix-blend-mode:screen" opacity="0.45" d="M192.472 110.02C187.653 110.955 182.99 107.808 182.054 102.99C181.119 98.1715 184.267 93.5075 189.085 92.5722C193.903 91.637 198.567 94.7846 199.502 99.6027C200.437 104.421 197.29 109.085 192.472 110.02Z" fill="url(#paint27_radial_17_2711)"/>
<g style="mix-blend-mode:screen">
<path d="M135.972 123.105C131.005 124.069 126.197 120.825 125.233 115.858C124.269 110.891 127.514 106.083 132.48 105.119C137.447 104.155 142.255 107.4 143.219 112.367C144.183 117.333 140.938 122.141 135.972 123.105Z" fill="white"/>
</g>
<g style="mix-blend-mode:screen">
<path d="M192.472 110.02C187.653 110.955 182.99 107.808 182.054 102.99C181.119 98.1715 184.267 93.5075 189.085 92.5722C193.903 91.637 198.567 94.7846 199.502 99.6027C200.437 104.421 197.29 109.085 192.472 110.02Z" fill="white"/>
</g>
<g style="mix-blend-mode:screen">
<path d="M136.45 134.439C130.74 135.547 125.727 134.468 125.253 132.028C124.78 129.588 129.025 126.711 134.734 125.603C140.444 124.494 145.457 125.574 145.931 128.014C146.404 130.454 142.16 133.33 136.45 134.439Z" fill="white"/>
</g>
<path d="M197.99 121.306C192.28 122.414 187.268 121.335 186.794 118.895C186.32 116.455 190.565 113.578 196.275 112.47C201.985 111.362 206.997 112.441 207.471 114.881C207.945 117.321 203.7 120.197 197.99 121.306Z" fill="#F493A4"/>
<g style="mix-blend-mode:screen">
<path d="M197.99 121.306C192.28 122.414 187.268 121.335 186.794 118.895C186.32 116.455 190.565 113.578 196.275 112.47C201.985 111.362 206.997 112.441 207.471 114.881C207.945 117.321 203.7 120.197 197.99 121.306Z" fill="white"/>
</g>
<path d="M187.31 122.751C186.509 119.346 176.244 119.57 168.17 121.137C160.096 122.704 150.135 127.733 150.756 131.173C152.944 143.524 166.329 147.256 174.402 145.689C182.476 144.121 189.703 132.921 187.288 122.755L187.31 122.751Z" fill="url(#paint28_radial_17_2711)"/>
<g style="mix-blend-mode:screen">
<path d="M180.734 126.517C180.174 124.113 172.92 124.264 167.223 125.37C161.527 126.476 154.491 130.029 154.916 132.46C156.47 141.187 165.918 143.822 171.637 142.712C177.355 141.601 182.45 133.678 180.752 126.491L180.734 126.517Z" fill="white"/>
</g>
<path d="M174.563 219.291C174.319 219.639 173.995 219.936 173.611 220.104C172.245 220.7 171.009 219.303 170.633 218.806C170.547 218.688 170.394 218.637 170.251 218.679C169.802 218.815 169.462 219.274 169.08 219.59C167.083 221.24 163.625 216.269 163.447 216.053C163.045 215.56 163.326 214.798 163.752 214.33C164.065 213.988 164.451 213.711 164.749 213.364C164.982 213.098 165.002 212.713 164.802 212.419C164.236 211.581 161.859 210.057 161.722 208.784C161.638 208.001 165.67 204.361 166.265 205.217C167.604 207.133 171.223 211.852 174.44 214.064C177.156 215.933 176.365 216.749 174.563 219.284L174.563 219.291Z" fill="#FFCC00"/>
<path d="M161.098 214.171C160.341 213.366 159.577 212.556 158.82 211.751C158.616 211.538 158.549 211.103 158.6 210.829C158.651 210.555 158.835 210.206 159.08 210.046C159.349 209.87 159.679 209.754 160.002 209.826L160.307 209.915C160.504 210.001 160.659 210.132 160.792 210.305L163.071 212.725C163.275 212.938 163.341 213.374 163.29 213.648C163.239 213.922 163.055 214.27 162.81 214.43C162.541 214.607 162.211 214.723 161.888 214.65L161.583 214.562C161.386 214.476 161.231 214.345 161.098 214.171Z" fill="#FFCC00"/>
<path d="M171.453 223.704C170.933 223.229 170.394 222.77 169.874 222.303C169.755 222.195 169.667 222.063 169.617 221.914C169.541 221.768 169.505 221.611 169.507 221.443C169.502 221.276 169.532 221.118 169.61 220.969C169.661 220.816 169.741 220.686 169.863 220.573C170.095 220.36 170.399 220.193 170.723 220.212L171.05 220.251C171.257 220.309 171.436 220.411 171.593 220.562C172.113 221.036 172.652 221.488 173.172 221.963C173.291 222.071 173.379 222.202 173.429 222.351C173.505 222.497 173.542 222.655 173.539 222.822C173.544 222.99 173.514 223.147 173.436 223.297C173.385 223.45 173.305 223.579 173.183 223.693C172.951 223.905 172.647 224.072 172.323 224.053L171.996 224.014C171.789 223.956 171.61 223.855 171.453 223.704Z" fill="#FFCC00"/>
<path d="M165.038 223.197C164.641 222.937 164.257 222.67 163.883 222.374C163.59 222.144 163.321 221.884 163.045 221.632C162.926 221.517 162.838 221.386 162.794 221.229C162.718 221.083 162.687 220.919 162.696 220.75C162.704 220.454 162.841 220.104 163.062 219.906C163.3 219.692 163.612 219.531 163.943 219.556C164.275 219.581 164.549 219.699 164.788 219.922C165.063 220.174 165.332 220.434 165.626 220.664L165.377 220.47C165.669 220.693 165.979 220.895 166.283 221.097C166.55 221.277 166.758 221.529 166.839 221.849C166.911 222.137 166.871 222.517 166.704 222.777C166.537 223.036 166.274 223.272 165.952 223.334C165.63 223.395 165.299 223.377 165.025 223.198L165.038 223.197Z" fill="#FFCC00"/>
<path d="M231.399 179.363C232.871 182.829 232.139 186.457 229.758 187.47C227.377 188.484 224.253 186.497 222.775 183.038C221.303 179.573 222.035 175.945 224.416 174.932C226.797 173.918 229.922 175.905 231.399 179.363Z" fill="#F7FCF8"/>
<path style="mix-blend-mode:multiply" opacity="0.25" d="M222.659 181.648C224.131 185.114 227.262 187.094 229.643 186.08C231.196 185.417 232.039 183.649 232.041 181.536C232.491 184.232 231.645 186.664 229.764 187.463C227.383 188.476 224.258 186.489 222.781 183.031C222.269 181.824 222.024 180.603 222.023 179.469C222.141 180.188 222.354 180.923 222.659 181.648V181.648Z" fill="url(#paint29_radial_17_2711)"/>
<path style="mix-blend-mode:multiply" opacity="0.25" d="M228.931 180.131C229.829 182.243 229.382 184.458 227.931 185.076C226.481 185.694 224.573 184.483 223.676 182.372C222.779 180.26 223.226 178.045 224.676 177.427C226.126 176.808 228.034 178.02 228.931 180.131Z" fill="url(#paint30_radial_17_2711)"/>
<path style="mix-blend-mode:multiply" opacity="0.25" d="M228.932 180.131C229.622 181.755 229.514 183.437 228.773 184.409C227.65 184.14 226.506 183.108 225.876 181.612C225.186 179.989 225.294 178.306 226.035 177.335C227.158 177.603 228.302 178.635 228.932 180.131Z" fill="url(#paint31_radial_17_2711)"/>
<path d="M228.382 180.888C222.919 163.283 203.737 153.589 185.541 159.236C167.345 164.882 157.026 183.735 162.488 201.341C167.951 218.946 185.291 225.167 203.494 219.519C221.69 213.873 233.851 198.492 228.389 180.887L228.382 180.888Z" fill="#F7FCF8"/>
<path style="mix-blend-mode:multiply" opacity="0.25" d="M166.606 173.389C163.212 180.603 162.383 188.959 164.894 197.057C170.357 214.662 187.698 220.883 205.9 215.235C215.057 212.396 222.68 207.083 227.305 200.267C223.276 209.133 214.488 216.107 203.487 219.52C185.291 225.167 167.951 218.946 162.482 201.341C159.45 191.588 161.276 181.448 166.599 173.39L166.606 173.389Z" fill="url(#paint32_radial_17_2711)"/>
<path d="M172.118 199.222C176.719 214.048 191.538 219.217 207.143 214.371C222.747 209.525 233.229 196.506 228.628 181.68C224.027 166.854 207.647 158.766 192.042 163.612C176.437 168.457 167.517 184.396 172.118 199.222Z" fill="#FFCC00"/>
<path d="M178.088 195.824C183.001 212.556 191.554 211.599 202.772 210.397C213.989 209.195 226.011 200.533 226.485 191.048C226.912 182.515 219.868 166.683 200.036 169.707C188.878 171.405 174.383 183.224 178.089 195.831L178.088 195.824Z" fill="white"/>
<path d="M212.05 187.153C213.717 186.975 214.924 185.478 214.745 183.811C214.567 182.145 213.071 180.938 211.404 181.117C209.737 181.295 208.53 182.791 208.709 184.458C208.887 186.125 210.383 187.332 212.05 187.153Z" fill="#231F20"/>
<path d="M193.409 193.465C195.076 193.286 196.282 191.79 196.104 190.123C195.925 188.456 194.429 187.25 192.762 187.428C191.095 187.607 189.888 189.103 190.067 190.77C190.246 192.437 191.742 193.644 193.409 193.465Z" fill="#231F20"/>
<path d="M194.064 197.027C195.945 196.463 197.275 195.357 197.035 194.555C196.795 193.754 195.075 193.562 193.194 194.126C191.313 194.69 189.982 195.796 190.222 196.597C190.463 197.399 192.182 197.591 194.064 197.027Z" fill="#F493A4"/>
<path d="M214.311 190.546C216.192 189.982 217.523 188.875 217.283 188.074C217.042 187.273 215.323 187.081 213.441 187.645C211.56 188.208 210.23 189.315 210.47 190.116C210.71 190.917 212.43 191.11 214.311 190.546Z" fill="#F493A4"/>
<path d="M208.696 192.86C208.424 192.071 205.993 192.365 204.114 192.929C202.235 193.492 199.986 194.921 200.214 195.728C201.025 198.607 204.294 199.183 206.18 198.619C208.065 198.054 209.513 195.222 208.696 192.86V192.86Z" fill="#D6493F"/>
<path d="M172.118 199.222C176.719 214.048 191.538 219.217 207.143 214.371C222.747 209.525 233.229 196.506 228.628 181.68C224.027 166.854 207.647 158.766 192.042 163.612C176.437 168.457 167.517 184.396 172.118 199.222ZM192.92 164.229C207.86 159.689 223.534 167.202 228.134 182.021C232.735 196.847 222.528 209.046 207.676 213.777C193.038 218.432 178.577 213.661 173.975 198.835C169.374 184.009 178.41 168.642 192.927 164.228L192.92 164.229Z" fill="#041F8E"/>
<path style="mix-blend-mode:multiply" opacity="0.25" d="M180.044 201.057C181.516 204.522 180.528 208.258 177.839 209.405C175.144 210.553 171.769 208.673 170.291 205.215C168.819 201.749 169.808 198.013 172.496 196.866C175.192 195.719 178.567 197.598 180.044 201.057Z" fill="url(#paint33_radial_17_2711)"/>
<path d="M177.074 209.348C179.454 208.334 180.188 204.707 178.714 201.246C177.24 197.784 174.116 195.8 171.736 196.813C169.357 197.827 168.622 201.454 170.096 204.915C171.57 208.377 174.694 210.361 177.074 209.348Z" fill="#F7FCF8"/>
<path style="mix-blend-mode:multiply" opacity="0.25" d="M169.982 203.523C171.454 206.989 174.585 208.969 176.966 207.955C178.518 207.292 179.362 205.524 179.364 203.411C179.814 206.107 178.967 208.539 177.087 209.338C174.706 210.351 171.581 208.364 170.103 204.906C169.592 203.699 169.347 202.478 169.346 201.344C169.463 202.063 169.676 202.798 169.982 203.523V203.523Z" fill="url(#paint34_radial_17_2711)"/>
<path d="M176.247 202C177.144 204.111 176.697 206.327 175.247 206.945C173.797 207.563 171.889 206.352 170.992 204.241C170.094 202.129 170.541 199.914 171.992 199.296C173.442 198.677 175.35 199.889 176.247 202Z" fill="#F3A400"/>
<g style="mix-blend-mode:multiply" opacity="0.5">
<path d="M176.247 202C176.938 203.624 176.829 205.306 176.088 206.278C174.966 206.009 173.822 204.977 173.192 203.482C172.501 201.858 172.609 200.176 173.351 199.204C174.473 199.473 175.617 200.504 176.247 202Z" fill="#F3A400"/>
</g>
<path style="mix-blend-mode:multiply" opacity="0.46" d="M166.083 173.955C166.048 173.885 166.019 173.801 165.996 173.709C165.995 173.696 165.994 173.689 165.993 173.676C165.969 173.585 165.952 173.486 165.94 173.373C165.938 173.353 165.936 173.333 165.934 173.32C165.924 173.227 165.914 173.128 165.915 173.013C165.913 172.994 165.91 172.967 165.914 172.94C165.911 172.92 165.909 172.893 165.913 172.873C165.909 172.833 165.911 172.786 165.913 172.745C165.915 172.638 165.929 172.522 165.936 172.401C165.934 172.381 165.939 172.36 165.943 172.339C165.972 172.048 166.025 171.72 166.098 171.343C166.155 171.062 166.223 170.759 166.309 170.435C166.352 170.269 166.408 170.102 166.47 169.928C166.49 169.865 166.523 169.801 166.544 169.739C166.592 169.626 166.634 169.514 166.688 169.395C166.731 169.296 166.787 169.196 166.837 169.097C166.882 169.011 166.92 168.927 166.964 168.842C167.032 168.72 167.112 168.591 167.186 168.469C167.226 168.404 167.259 168.34 167.299 168.276C167.391 168.132 167.489 167.98 167.594 167.828C167.628 167.777 167.651 167.735 167.686 167.684C167.796 167.525 167.92 167.364 168.043 167.203C168.073 167.166 168.095 167.123 168.131 167.086C168.273 166.903 168.421 166.719 168.569 166.536C168.587 166.514 168.598 166.493 168.616 166.477C168.776 166.279 168.95 166.086 169.123 165.886C169.129 165.879 169.141 165.864 169.147 165.857C173.648 160.832 182.483 155.175 190.152 154.863C198.155 154.536 202.785 156.663 205.428 159.158C205.465 159.194 205.509 159.23 205.547 159.273C205.674 159.393 205.795 159.515 205.909 159.643C205.977 159.71 206.038 159.784 206.106 159.85C206.197 159.955 206.289 160.059 206.381 160.163C206.466 160.268 206.55 160.366 206.629 160.472C206.691 160.553 206.752 160.626 206.808 160.708C206.942 160.895 207.076 161.075 207.196 161.263C208.739 163.641 206.815 165.531 204.798 166.304C204.237 166.519 203.667 166.647 203.166 166.674C200.585 166.816 198.052 167.41 195.603 168.289C194.789 168.585 193.978 168.906 193.184 169.26C191.236 170.119 189.343 171.114 187.518 172.242C186.908 172.616 186.305 173.003 185.711 173.409C185.423 173.601 185.142 173.798 184.854 173.99C183.999 174.585 183.152 175.199 182.359 175.881C181.112 176.954 179.382 176.898 177.995 176.101C177.988 176.101 177.981 176.096 177.973 176.09C177.88 176.033 177.787 175.975 177.692 175.912C177.671 175.901 177.656 175.889 177.635 175.878C177.533 175.801 177.431 175.725 177.328 175.642C176.709 175.125 176.089 174.721 175.445 174.415C175.014 174.213 174.574 174.052 174.118 173.926C173.89 173.863 173.657 173.814 173.411 173.774C172.932 173.691 172.423 173.638 171.891 173.621C171.527 173.606 171.159 173.612 170.785 173.626C169.669 173.671 168.528 173.854 167.489 174.24C167.489 174.24 167.482 174.241 167.47 174.249C167.456 174.251 167.438 174.266 167.412 174.276C167.412 174.276 167.412 174.276 167.399 174.277C167.373 174.286 167.341 174.303 167.309 174.313L167.296 174.315C167.263 174.325 167.225 174.343 167.179 174.354C167.179 174.354 167.172 174.355 167.166 174.356C167.12 174.367 167.074 174.379 167.029 174.39C166.982 174.395 166.929 174.401 166.876 174.407C166.876 174.407 166.869 174.408 166.863 174.408C166.816 174.413 166.762 174.406 166.708 174.405C166.701 174.405 166.695 174.406 166.688 174.407C166.64 174.398 166.592 174.39 166.543 174.369C166.536 174.369 166.529 174.363 166.522 174.358C166.472 174.336 166.423 174.314 166.38 174.285C166.38 174.285 166.365 174.274 166.359 174.274C166.314 174.239 166.27 174.203 166.225 174.154C166.225 174.154 166.224 174.148 166.217 174.142C166.178 174.092 166.138 174.03 166.103 173.959C166.103 173.959 166.103 173.959 166.103 173.953L166.083 173.955Z" fill="url(#paint35_radial_17_2711)"/>
<path d="M204.776 165.354C206.793 164.641 208.72 162.898 207.185 160.714C205.096 157.751 200.37 154.473 190.153 154.87C179.943 155.266 167.652 164.366 166.286 169.209C164.92 174.059 167.452 172.708 167.452 172.708C168.838 172.237 170.399 172.09 171.852 172.129C173.992 172.188 175.638 172.71 177.29 173.975C178.745 175.088 180.865 175.337 182.319 174.188C183.376 173.35 184.532 172.616 185.671 171.91C188.049 170.434 190.555 169.145 193.153 168.089C196.342 166.794 199.693 165.878 203.136 165.697C203.636 165.671 204.207 165.549 204.77 165.354L204.776 165.354Z" fill="#F7FCF8"/>
<path style="mix-blend-mode:multiply" opacity="0.25" d="M167.049 170.322C168.434 169.851 169.995 169.704 171.449 169.743C173.589 169.802 175.235 170.324 176.887 171.589C178.342 172.702 180.462 172.951 181.915 171.802C182.973 170.964 184.129 170.23 185.268 169.524C187.646 168.048 190.152 166.76 192.749 165.703C195.939 164.408 199.289 163.493 202.732 163.312C203.233 163.285 203.803 163.163 204.366 162.969C205.575 162.537 206.744 161.741 207.162 160.696C207.162 160.696 207.17 160.709 207.178 160.715C208.714 162.899 206.787 164.642 204.77 165.355C204.207 165.556 203.636 165.671 203.136 165.697C199.693 165.878 196.342 166.794 193.152 168.089C190.555 169.145 188.055 170.426 185.671 171.91C184.526 172.623 183.377 173.357 182.319 174.188C180.859 175.344 178.745 175.088 177.29 173.975C175.639 172.716 173.999 172.187 171.852 172.129C170.399 172.09 168.837 172.231 167.452 172.708C167.452 172.708 165.37 173.816 165.999 170.414C166.459 170.64 167.049 170.322 167.049 170.322V170.322Z" fill="url(#paint36_radial_17_2711)"/>
<path style="mix-blend-mode:multiply" opacity="0.25" d="M177.29 173.975C175.639 172.716 173.999 172.188 171.852 172.129C170.399 172.09 168.837 172.231 167.452 172.708C167.452 172.708 165.37 173.817 165.999 170.414C166.459 170.64 167.049 170.322 167.049 170.322C168.434 169.851 169.995 169.704 171.449 169.743C173.589 169.802 175.235 170.324 176.887 171.59C177.603 172.137 178.471 172.473 179.351 172.54C179.458 173.542 179.784 174.332 180.143 174.924C179.138 174.938 178.109 174.599 177.29 173.975Z" fill="url(#paint37_radial_17_2711)"/>
<path style="mix-blend-mode:multiply" opacity="0.25" d="M174.838 160.416C177.433 163.285 190.459 162.862 198.362 160.787C202.193 159.78 203.188 158.418 202.983 157.132C204.975 158.186 206.32 159.472 207.191 160.713C208.727 162.897 206.8 164.64 204.783 165.353C204.221 165.554 203.649 165.669 203.149 165.696C199.706 165.877 196.355 166.793 193.166 168.087C190.568 169.144 188.069 170.425 185.684 171.908C184.54 172.621 183.39 173.355 182.332 174.187C180.872 175.343 178.758 175.086 177.304 173.974C175.652 172.715 174.012 172.186 171.865 172.127C170.412 172.089 168.85 172.229 167.465 172.706C167.465 172.706 164.932 174.051 166.299 169.208C166.98 166.8 170.359 163.331 174.851 160.414L174.838 160.416Z" fill="url(#paint38_radial_17_2711)"/>
<g filter="url(#filter0_d_17_2711)">
<path d="M150.547 189.003C150.798 187.767 152.003 186.969 153.239 187.22L238.045 204.441C239.281 204.692 240.08 205.897 239.829 207.133L230.378 253.676C229.123 259.855 223.097 263.847 216.917 262.592L150.012 249.006C143.833 247.751 139.841 241.725 141.096 235.546L150.547 189.003Z" fill="#56D7B8"/>
<rect x="185.908" y="193.854" width="11.4165" height="61.1926" transform="rotate(11.4785 185.908 193.854)" fill="#F2048A"/>
<rect x="197.097" y="196.126" width="11.4165" height="61.1926" transform="rotate(11.4785 197.097 196.126)" fill="#FC44AC"/>
</g>
<g filter="url(#filter1_d_17_2711)">
<rect x="165.265" y="138.2" width="23.815" height="35.7128" rx="11.9075" transform="rotate(-30.5015 165.265 138.2)" fill="#F2048A"/>
<g filter="url(#filter2_d_17_2711)">
<rect x="198.572" y="124.793" width="23.815" height="35.7128" rx="11.9075" transform="rotate(18.1542 198.572 124.793)" fill="#F2048A"/>
</g>
<path d="M241.924 169.213C242.039 170.469 241.114 171.58 239.858 171.694L153.679 179.562C152.424 179.677 151.313 178.752 151.198 177.496L150.492 169.765C149.919 163.486 154.544 157.931 160.823 157.358L228.811 151.151C235.091 150.577 240.645 155.203 241.219 161.482L241.924 169.213Z" fill="#56D7B8"/>
<rect x="184.927" y="155.157" width="11.4165" height="21.4631" transform="rotate(-5.21636 184.927 155.157)" fill="#F2048A"/>
<rect x="196.295" y="154.119" width="11.4165" height="21.4631" transform="rotate(-5.21636 196.295 154.119)" fill="#FC44AC"/>
</g>
<path d="M86.153 176.212C88.5189 171.711 93.7007 169.464 98.6038 170.815L140.97 182.485C152.262 185.595 157.511 198.586 151.549 208.668V208.668C146.38 217.41 134.949 220.05 126.469 214.462L89.7767 190.28C85.1326 187.219 83.5656 181.136 86.153 176.212V176.212Z" fill="#F7FCF8"/>
</g>
<defs>
<filter id="filter0_d_17_2711" x="133.102" y="184.434" width="108.599" height="85.2386" filterUnits="userSpaceOnUse" color-interpolation-filters="sRGB">
<feFlood flood-opacity="0" result="BackgroundImageFix"/>
<feColorMatrix in="SourceAlpha" type="matrix" values="0 0 0 0 0 0 0 0 0 0 0 0 0 0 0 0 0 0 127 0" result="hardAlpha"/>
<feOffset dx="-2.9683" dy="2.05497"/>
<feGaussianBlur stdDeviation="2.39747"/>
<feComposite in2="hardAlpha" operator="out"/>
<feColorMatrix type="matrix" values="0 0 0 0 0.337255 0 0 0 0 0.843137 0 0 0 0 0.721569 0 0 0 0.48 0"/>
<feBlend mode="normal" in2="BackgroundImageFix" result="effect1_dropShadow_17_2711"/>
<feBlend mode="normal" in="SourceGraphic" in2="effect1_dropShadow_17_2711" result="shape"/>
</filter>
<filter id="filter1_d_17_2711" x="146.106" y="125.167" width="98.7966" height="58.9714" filterUnits="userSpaceOnUse" color-interpolation-filters="sRGB">
<feFlood flood-opacity="0" result="BackgroundImageFix"/>
<feColorMatrix in="SourceAlpha" type="matrix" values="0 0 0 0 0 0 0 0 0 0 0 0 0 0 0 0 0 0 127 0" result="hardAlpha"/>
<feOffset dx="-0.684991" dy="0.913322"/>
<feGaussianBlur stdDeviation="1.82664"/>
<feComposite in2="hardAlpha" operator="out"/>
<feColorMatrix type="matrix" values="0 0 0 0 0.4 0 0 0 0 1 0 0 0 0 0.855814 0 0 0 1 0"/>
<feBlend mode="normal" in2="BackgroundImageFix" result="effect1_dropShadow_17_2711"/>
<feBlend mode="normal" in="SourceGraphic" in2="effect1_dropShadow_17_2711" result="shape"/>
</filter>
<filter id="filter2_d_17_2711" x="183.024" y="121.285" width="42.5984" height="50.1968" filterUnits="userSpaceOnUse" color-interpolation-filters="sRGB">
<feFlood flood-opacity="0" result="BackgroundImageFix"/>
<feColorMatrix in="SourceAlpha" type="matrix" values="0 0 0 0 0 0 0 0 0 0 0 0 0 0 0 0 0 0 127 0" result="hardAlpha"/>
<feOffset dy="0.913322"/>
<feGaussianBlur stdDeviation="3.76745"/>
<feComposite in2="hardAlpha" operator="out"/>
<feColorMatrix type="matrix" values="0 0 0 0 0.94902 0 0 0 0 0.0156863 0 0 0 0 0.541176 0 0 0 1 0"/>
<feBlend mode="normal" in2="BackgroundImageFix" result="effect1_dropShadow_17_2711"/>
<feBlend mode="normal" in="SourceGraphic" in2="effect1_dropShadow_17_2711" result="shape"/>
</filter>
<linearGradient id="paint0_linear_17_2711" x1="313.428" y1="113.641" x2="138.277" y2="228.237" gradientUnits="userSpaceOnUse">
<stop stop-color="#FFFFF3"/>
<stop offset="0.09" stop-color="#F7F5ED" stop-opacity="0.96"/>
<stop offset="0.23" stop-color="#E2DADE" stop-opacity="0.86"/>
<stop offset="0.41" stop-color="#C0B0C6" stop-opacity="0.69"/>
<stop offset="0.63" stop-color="#9174A4" stop-opacity="0.45"/>
<stop offset="0.88" stop-color="#56297A" stop-opacity="0.16"/>
<stop offset="1" stop-color="#370264" stop-opacity="0"/>
</linearGradient>
<linearGradient id="paint1_linear_17_2711" x1="295.167" y1="36.523" x2="120.016" y2="151.119" gradientUnits="userSpaceOnUse">
<stop stop-color="#00FFEE"/>
<stop offset="0.1" stop-color="#07DADA" stop-opacity="0.86"/>
<stop offset="0.29" stop-color="#1599B6" stop-opacity="0.6"/>
<stop offset="0.47" stop-color="#216399" stop-opacity="0.39"/>
<stop offset="0.63" stop-color="#2A3982" stop-opacity="0.22"/>
<stop offset="0.78" stop-color="#311B71" stop-opacity="0.1"/>
<stop offset="0.91" stop-color="#350867" stop-opacity="0.03"/>
<stop offset="1" stop-color="#370264" stop-opacity="0"/>
</linearGradient>
<linearGradient id="paint2_linear_17_2711" x1="305.459" y1="73.5371" x2="130.308" y2="188.133" gradientUnits="userSpaceOnUse">
<stop stop-color="#FF47F3"/>
<stop offset="0.09" stop-color="#F744ED" stop-opacity="0.96"/>
<stop offset="0.23" stop-color="#E23DDE" stop-opacity="0.86"/>
<stop offset="0.41" stop-color="#C031C6" stop-opacity="0.69"/>
<stop offset="0.63" stop-color="#9121A4" stop-opacity="0.45"/>
<stop offset="0.88" stop-color="#560C7A" stop-opacity="0.16"/>
<stop offset="1" stop-color="#370264" stop-opacity="0"/>
</linearGradient>
<radialGradient id="paint3_radial_17_2711" cx="0" cy="0" r="1" gradientUnits="userSpaceOnUse" gradientTransform="translate(219.946 119.345) rotate(-175.365) scale(1.14225 1.14225)">
<stop stop-color="#52DFEC"/>
<stop offset="0.94" stop-color="#408BED"/>
</radialGradient>
<radialGradient id="paint4_radial_17_2711" cx="0" cy="0" r="1" gradientUnits="userSpaceOnUse" gradientTransform="translate(224.589 77.6179) rotate(-175.365) scale(48.8884 48.8885)">
<stop stop-color="#52DFEC"/>
<stop offset="0.94" stop-color="#408BED"/>
</radialGradient>
<radialGradient id="paint5_radial_17_2711" cx="0" cy="0" r="1" gradientUnits="userSpaceOnUse" gradientTransform="translate(228.548 79.3831) rotate(-175.365) scale(43.1085 43.1086)">
<stop stop-color="#52DFEC"/>
<stop offset="0.94" stop-color="#408BED"/>
</radialGradient>
<radialGradient id="paint6_radial_17_2711" cx="0" cy="0" r="1" gradientUnits="userSpaceOnUse" gradientTransform="translate(125.737 138.089) rotate(-175.365) scale(85.8747 85.8747)">
<stop stop-color="#52DFEC"/>
<stop offset="0.94" stop-color="#408BED"/>
</radialGradient>
<radialGradient id="paint7_radial_17_2711" cx="0" cy="0" r="1" gradientUnits="userSpaceOnUse" gradientTransform="translate(196.437 60.7128) rotate(-175.365) scale(196.788 196.788)">
<stop offset="0.06" stop-color="#000A57"/>
<stop offset="0.96" stop-color="#000328"/>
</radialGradient>
<radialGradient id="paint8_radial_17_2711" cx="0" cy="0" r="1" gradientUnits="userSpaceOnUse" gradientTransform="translate(211.797 64.9944) rotate(-175.645) scale(204.659 202.691)">
<stop stop-color="#52DFEC"/>
<stop offset="0.94" stop-color="#408BED"/>
</radialGradient>
<radialGradient id="paint9_radial_17_2711" cx="0" cy="0" r="1" gradientUnits="userSpaceOnUse" gradientTransform="translate(92.3939 203.895) rotate(-175.365) scale(1.14225)">
<stop offset="0.04" stop-color="#000328"/>
<stop offset="0.94" stop-color="#000A57"/>
</radialGradient>
<radialGradient id="paint10_radial_17_2711" cx="0" cy="0" r="1" gradientUnits="userSpaceOnUse" gradientTransform="translate(153.123 102.789) rotate(-175.365) scale(232.472 232.472)">
<stop offset="0.06" stop-color="#000A57"/>
<stop offset="0.96" stop-color="#000328"/>
</radialGradient>
<radialGradient id="paint11_radial_17_2711" cx="0" cy="0" r="1" gradientUnits="userSpaceOnUse" gradientTransform="translate(209.734 63.9652) rotate(-179.765) scale(113.677 113.677)">
<stop offset="0.04" stop-color="#000328"/>
<stop offset="0.94" stop-color="#000A57"/>
</radialGradient>
<radialGradient id="paint12_radial_17_2711" cx="0" cy="0" r="1" gradientUnits="userSpaceOnUse" gradientTransform="translate(209.734 63.9883) rotate(-179.765) scale(113.677 113.677)">
<stop offset="0.04" stop-color="#000328"/>
<stop offset="0.94" stop-color="#000A57"/>
</radialGradient>
<radialGradient id="paint13_radial_17_2711" cx="0" cy="0" r="1" gradientUnits="userSpaceOnUse" gradientTransform="translate(186.704 59.4882) rotate(-175.365) scale(121.079 121.079)">
<stop offset="0.04" stop-color="#000328"/>
<stop offset="0.94" stop-color="#000A57"/>
</radialGradient>
<radialGradient id="paint14_radial_17_2711" cx="0" cy="0" r="1" gradientUnits="userSpaceOnUse" gradientTransform="translate(204.919 78.7848) rotate(-133.065) scale(19.167 19.167)">
<stop offset="0.04" stop-color="#000328"/>
<stop offset="0.94" stop-color="#000A57"/>
</radialGradient>
<radialGradient id="paint15_radial_17_2711" cx="0" cy="0" r="1" gradientUnits="userSpaceOnUse" gradientTransform="translate(188.183 63.5682) rotate(-145.955) scale(11.8109)">
<stop offset="0.04" stop-color="#000328"/>
<stop offset="0.94" stop-color="#000A57"/>
</radialGradient>
<radialGradient id="paint16_radial_17_2711" cx="0" cy="0" r="1" gradientUnits="userSpaceOnUse" gradientTransform="translate(67.9715 150.047) rotate(-175.365) scale(18.0705 18.0705)">
<stop stop-color="#52DFEC"/>
<stop offset="0.94" stop-color="#408BED"/>
</radialGradient>
<radialGradient id="paint17_radial_17_2711" cx="0" cy="0" r="1" gradientUnits="userSpaceOnUse" gradientTransform="translate(58.3577 168.268) rotate(-175.365) scale(28.0538 28.0537)">
<stop stop-color="#52DFEC"/>
<stop offset="0.94" stop-color="#408BED"/>
</radialGradient>
<radialGradient id="paint18_radial_17_2711" cx="0" cy="0" r="1" gradientUnits="userSpaceOnUse" gradientTransform="translate(147.586 21.5247) rotate(-175.365) scale(116.053 116.053)">
<stop stop-color="#52DFEC"/>
<stop offset="0.94" stop-color="#408BED"/>
</radialGradient>
<radialGradient id="paint19_radial_17_2711" cx="0" cy="0" r="1" gradientUnits="userSpaceOnUse" gradientTransform="translate(112.677 49.8201) rotate(-175.365) scale(46.2613 46.2613)">
<stop stop-color="#52DFEC"/>
<stop offset="0.94" stop-color="#408BED"/>
</radialGradient>
<radialGradient id="paint20_radial_17_2711" cx="0" cy="0" r="1" gradientUnits="userSpaceOnUse" gradientTransform="translate(70.6233 58.8108) rotate(-175.365) scale(15.8773 15.8774)">
<stop stop-color="#52DFEC"/>
<stop offset="0.94" stop-color="#408BED"/>
</radialGradient>
<radialGradient id="paint21_radial_17_2711" cx="0" cy="0" r="1" gradientUnits="userSpaceOnUse" gradientTransform="translate(147.105 27.4678) rotate(-175.365) scale(110.502 110.502)">
<stop stop-color="#52DFEC"/>
<stop offset="0.94" stop-color="#408BED"/>
</radialGradient>
<radialGradient id="paint22_radial_17_2711" cx="0" cy="0" r="1" gradientUnits="userSpaceOnUse" gradientTransform="translate(135.584 130.008) rotate(168.365) scale(18.9614 8.53263)">
<stop stop-color="#00F1CD"/>
<stop offset="0.12" stop-color="#00ECC9" stop-opacity="0.98"/>
<stop offset="0.25" stop-color="#00DFBE" stop-opacity="0.93"/>
<stop offset="0.38" stop-color="#00CAAC" stop-opacity="0.84"/>
<stop offset="0.52" stop-color="#00AD93" stop-opacity="0.72"/>
<stop offset="0.65" stop-color="#008672" stop-opacity="0.56"/>
<stop offset="0.79" stop-color="#00574A" stop-opacity="0.36"/>
<stop offset="0.92" stop-color="#00211C" stop-opacity="0.14"/>
<stop offset="1" stop-opacity="0"/>
</radialGradient>
<radialGradient id="paint23_radial_17_2711" cx="0" cy="0" r="1" gradientUnits="userSpaceOnUse" gradientTransform="translate(197.124 116.99) rotate(168.365) scale(1.14225 0.514014)">
<stop stop-color="#00F1CD"/>
<stop offset="0.12" stop-color="#00ECC9" stop-opacity="0.98"/>
<stop offset="0.25" stop-color="#00DFBE" stop-opacity="0.93"/>
<stop offset="0.38" stop-color="#00CAAC" stop-opacity="0.84"/>
<stop offset="0.52" stop-color="#00AD93" stop-opacity="0.72"/>
<stop offset="0.65" stop-color="#008672" stop-opacity="0.56"/>
<stop offset="0.79" stop-color="#00574A" stop-opacity="0.36"/>
<stop offset="0.92" stop-color="#00211C" stop-opacity="0.14"/>
<stop offset="1" stop-opacity="0"/>
</radialGradient>
<radialGradient id="paint24_radial_17_2711" cx="0" cy="0" r="1" gradientUnits="userSpaceOnUse" gradientTransform="translate(134.292 114.149) rotate(179.585) scale(18.0019)">
<stop stop-color="#00F1CD"/>
<stop offset="0.12" stop-color="#00ECC9" stop-opacity="0.98"/>
<stop offset="0.25" stop-color="#00DFBE" stop-opacity="0.93"/>
<stop offset="0.38" stop-color="#00CAAC" stop-opacity="0.84"/>
<stop offset="0.52" stop-color="#00AD93" stop-opacity="0.72"/>
<stop offset="0.65" stop-color="#008672" stop-opacity="0.56"/>
<stop offset="0.79" stop-color="#00574A" stop-opacity="0.36"/>
<stop offset="0.92" stop-color="#00211C" stop-opacity="0.14"/>
<stop offset="1" stop-opacity="0"/>
</radialGradient>
<radialGradient id="paint25_radial_17_2711" cx="0" cy="0" r="1" gradientUnits="userSpaceOnUse" gradientTransform="translate(190.834 101.334) rotate(179.585) scale(15.7403 15.7402)">
<stop stop-color="#00F1CD"/>
<stop offset="0.12" stop-color="#00ECC9" stop-opacity="0.98"/>
<stop offset="0.25" stop-color="#00DFBE" stop-opacity="0.93"/>
<stop offset="0.38" stop-color="#00CAAC" stop-opacity="0.84"/>
<stop offset="0.52" stop-color="#00AD93" stop-opacity="0.72"/>
<stop offset="0.65" stop-color="#008672" stop-opacity="0.56"/>
<stop offset="0.79" stop-color="#00574A" stop-opacity="0.36"/>
<stop offset="0.92" stop-color="#00211C" stop-opacity="0.14"/>
<stop offset="1" stop-opacity="0"/>
</radialGradient>
<radialGradient id="paint26_radial_17_2711" cx="0" cy="0" r="1" gradientUnits="userSpaceOnUse" gradientTransform="translate(134.292 114.149) rotate(179.585) scale(9.16087 9.1609)">
<stop offset="0.04" stop-color="#000328"/>
<stop offset="0.94" stop-color="#000A57"/>
</radialGradient>
<radialGradient id="paint27_radial_17_2711" cx="0" cy="0" r="1" gradientUnits="userSpaceOnUse" gradientTransform="translate(190.834 101.334) rotate(179.585) scale(8.88674 8.8867)">
<stop offset="0.04" stop-color="#000328"/>
<stop offset="0.94" stop-color="#000A57"/>
</radialGradient>
<radialGradient id="paint28_radial_17_2711" cx="0" cy="0" r="1" gradientUnits="userSpaceOnUse" gradientTransform="translate(171.114 140.28) rotate(165.985) scale(20.7662 14.744)">
<stop stop-color="#F2058A"/>
<stop offset="0.12" stop-color="#00ECC9" stop-opacity="0.98"/>
<stop offset="0.24" stop-color="#00DFBE" stop-opacity="0.93"/>
<stop offset="0.36" stop-color="#00CAAC" stop-opacity="0.84"/>
<stop offset="0.49" stop-color="#00AD93" stop-opacity="0.72"/>
<stop offset="0.62" stop-color="#008672" stop-opacity="0.56"/>
<stop offset="0.75" stop-color="#00574A" stop-opacity="0.36"/>
<stop offset="0.88" stop-color="#00211C" stop-opacity="0.14"/>
<stop offset="0.95" stop-opacity="0"/>
</radialGradient>
<radialGradient id="paint29_radial_17_2711" cx="0" cy="0" r="1" gradientUnits="userSpaceOnUse" gradientTransform="translate(225.239 187.715) rotate(178.925) scale(9.48045 9.48046)">
<stop stop-color="#52DFEC"/>
<stop offset="0.94" stop-color="#408BED"/>
</radialGradient>
<radialGradient id="paint30_radial_17_2711" cx="0" cy="0" r="1" gradientUnits="userSpaceOnUse" gradientTransform="translate(225.392 173.526) rotate(178.925) scale(16.5124 16.5124)">
<stop stop-color="#52DFEC"/>
<stop offset="0.94" stop-color="#408BED"/>
</radialGradient>
<radialGradient id="paint31_radial_17_2711" cx="0" cy="0" r="1" gradientUnits="userSpaceOnUse" gradientTransform="translate(226.789 173.993) rotate(178.925) scale(14.5643 14.5643)">
<stop stop-color="#52DFEC"/>
<stop offset="0.94" stop-color="#408BED"/>
</radialGradient>
<radialGradient id="paint32_radial_17_2711" cx="0" cy="0" r="1" gradientUnits="userSpaceOnUse" gradientTransform="translate(194.194 197.179) rotate(178.925) scale(29.0152 29.0152)">
<stop stop-color="#52DFEC"/>
<stop offset="0.94" stop-color="#408BED"/>
</radialGradient>
<radialGradient id="paint33_radial_17_2711" cx="0" cy="0" r="1" gradientUnits="userSpaceOnUse" gradientTransform="translate(175.175 203.135) rotate(178.925) scale(6.1046 6.1046)">
<stop stop-color="#52DFEC"/>
<stop offset="0.94" stop-color="#408BED"/>
</radialGradient>
<radialGradient id="paint34_radial_17_2711" cx="0" cy="0" r="1" gradientUnits="userSpaceOnUse" gradientTransform="translate(172.553 209.59) rotate(178.925) scale(9.48045 9.48046)">
<stop stop-color="#52DFEC"/>
<stop offset="0.94" stop-color="#408BED"/>
</radialGradient>
<radialGradient id="paint35_radial_17_2711" cx="0" cy="0" r="1" gradientUnits="userSpaceOnUse" gradientTransform="translate(197.622 157.258) rotate(178.925) scale(39.2095 39.2095)">
<stop stop-color="#52DFEC"/>
<stop offset="0.94" stop-color="#408BED"/>
</radialGradient>
<radialGradient id="paint36_radial_17_2711" cx="0" cy="0" r="1" gradientUnits="userSpaceOnUse" gradientTransform="translate(186.839 167.95) rotate(178.925) scale(15.6318 15.6318)">
<stop stop-color="#52DFEC"/>
<stop offset="0.94" stop-color="#408BED"/>
</radialGradient>
<radialGradient id="paint37_radial_17_2711" cx="0" cy="0" r="1" gradientUnits="userSpaceOnUse" gradientTransform="translate(173.002 172.38) rotate(178.925) scale(5.36403 5.36404)">
<stop stop-color="#52DFEC"/>
<stop offset="0.94" stop-color="#408BED"/>
</radialGradient>
<radialGradient id="paint38_radial_17_2711" cx="0" cy="0" r="1" gradientUnits="userSpaceOnUse" gradientTransform="translate(197.659 159.272) rotate(178.925) scale(37.3281 37.3281)">
<stop stop-color="#52DFEC"/>
<stop offset="0.94" stop-color="#408BED"/>
</radialGradient>
<clipPath id="clip0_17_2711">
<rect width="317" height="273" fill="white"/>
</clipPath>
</defs>
</svg>
