<svg width="328" height="273" viewBox="0 0 328 273" fill="none" xmlns="http://www.w3.org/2000/svg">
<path d="M144.051 238.322L311.071 129.063C312.959 127.826 313.488 125.296 312.258 123.407C311.021 121.519 308.491 120.99 306.601 122.22L139.582 231.479C137.693 232.716 137.165 235.246 138.395 237.136C139.632 239.024 142.162 239.552 144.051 238.322V238.322Z" fill="url(#paint0_linear_251_67424)"/>
<path style="mix-blend-mode:screen" d="M126.43 162.539L293.45 53.2795C295.338 52.0427 295.867 49.5128 294.637 47.6234C293.4 45.7354 290.87 45.2066 288.981 46.4369L121.961 155.696C120.073 156.933 119.544 159.463 120.774 161.352C122.011 163.24 124.541 163.769 126.43 162.539V162.539Z" fill="url(#paint1_linear_251_67424)"/>
<path d="M136.399 198.903L303.419 89.6443C305.307 88.4075 305.836 85.8775 304.606 83.9882C303.369 82.1001 300.839 81.5714 298.95 82.8016L131.93 192.061C130.042 193.298 129.513 195.827 130.743 197.717C131.98 199.605 134.51 200.134 136.399 198.903V198.903Z" fill="url(#paint2_linear_251_67424)"/>
<path d="M207.451 160.41C205.027 156.182 205.484 150.893 208.597 147.144L236.863 113.105C244.444 103.976 258.629 104.546 265.451 114.255C271.247 122.503 269.144 133.901 260.788 139.538L224.107 164.281C218.485 168.073 210.825 166.293 207.451 160.41Z" fill="#F7FCF8"/>
<path d="M78.9993 216.563C78.3705 217.64 77.4869 218.602 76.3947 219.21C72.5208 221.312 68.5234 217.503 67.2811 216.139C66.9872 215.823 66.5219 215.704 66.1357 215.872C64.8423 216.403 63.956 217.831 62.8974 218.851C57.4233 224.219 45.9735 210.431 45.4168 209.841C44.1072 208.489 44.752 206.177 45.8806 204.678C46.7156 203.585 47.7961 202.677 48.5819 201.57C49.2095 200.727 49.1756 199.593 48.5037 198.769C46.6083 196.438 39.2198 192.543 38.4972 188.82C38.0531 186.533 49.0383 174.789 51.0097 177.152C55.4419 182.482 67.2951 195.471 77.3435 201.2C85.8199 206.024 83.6992 208.646 79.0217 216.559L78.9993 216.563Z" fill="#FFCC00"/>
<path d="M38.0031 204.857C35.5557 202.679 33.1263 200.474 30.6789 198.296C30.0282 197.701 29.7172 196.458 29.7891 195.63C29.861 194.801 30.3284 193.733 31.0126 193.182C31.7597 192.594 32.7029 192.179 33.679 192.292L34.6008 192.485C35.2 192.695 35.7089 193.038 36.1273 193.515L43.4514 200.076C44.1022 200.671 44.4132 201.914 44.3413 202.742C44.2694 203.571 43.8019 204.639 43.1177 205.19C42.3707 205.777 41.4275 206.193 40.4514 206.08L39.5295 205.887C38.9303 205.677 38.4215 205.334 38.0031 204.857Z" fill="#FFCC00"/>
<path d="M70.9284 230.371C69.2867 229.107 67.5865 227.902 65.9225 226.642C65.5388 226.344 65.2587 225.98 65.0819 225.549C64.8154 225.135 64.6835 224.695 64.655 224.189C64.5816 223.691 64.6516 223.212 64.8467 222.778C64.9434 222.318 65.1653 221.902 65.4943 221.559C66.1255 220.855 66.9754 220.317 67.9434 220.269L68.9064 220.315C69.5331 220.426 70.0961 220.689 70.5688 221.086C72.2328 222.345 73.933 223.551 75.5746 224.815C75.9582 225.113 76.2384 225.477 76.4152 225.909C76.6816 226.322 76.8136 226.762 76.8421 227.268C76.9154 227.766 76.8455 228.245 76.6504 228.679C76.5537 229.14 76.3318 229.555 76.0028 229.898C75.3716 230.602 74.5217 231.14 73.5537 231.188L72.5907 231.142C71.9641 231.031 71.401 230.768 70.9284 230.371Z" fill="#FFCC00"/>
<path d="M51.8907 230.483C50.6668 229.813 49.4611 229.116 48.2871 228.343C47.3542 227.733 46.4979 227.038 45.6235 226.37C45.2399 226.072 44.9553 225.685 44.7742 225.232C44.5077 224.818 44.3714 224.356 44.3654 223.845C44.3121 222.971 44.6183 221.911 45.2358 221.256C45.8938 220.57 46.7661 220.028 47.7384 220.002C48.7108 219.976 49.5561 220.254 50.3277 220.873C51.202 221.541 52.0627 222.258 52.9912 222.846L52.2189 222.344C53.1251 222.936 54.1079 223.443 55.0459 223.959C55.8811 224.425 56.5717 225.106 56.8891 226.022C57.1667 226.852 57.1557 227.995 56.7257 228.776C56.2956 229.558 55.5877 230.347 54.6632 230.619C53.7387 230.892 52.7439 230.922 51.9087 230.456L51.8907 230.483Z" fill="#FFCC00"/>
<path d="M240.712 104.583C244.034 115.225 240.807 125.695 233.5 127.974C226.193 130.254 217.575 123.503 214.253 112.861C210.931 102.219 214.157 91.7488 221.464 89.4693C228.771 87.1899 237.389 93.9413 240.712 104.583Z" fill="#F7FCF8"/>
<path style="mix-blend-mode:multiply" opacity="0.25" d="M214.294 108.757C217.616 119.399 226.234 126.15 233.541 123.871C238.303 122.388 241.315 117.405 241.924 111.19C242.465 119.253 239.245 126.161 233.478 127.979C226.171 130.259 217.553 123.507 214.23 112.865C213.069 109.158 212.727 105.478 213.059 102.155C213.195 104.293 213.603 106.518 214.294 108.757V108.757Z" fill="url(#paint3_radial_251_67424)"/>
<path style="mix-blend-mode:multiply" opacity="0.25" d="M233.212 106.109C235.24 112.604 233.269 118.99 228.812 120.368C224.355 121.745 219.087 117.624 217.063 111.152C215.034 104.658 217.006 98.2707 221.462 96.8936C225.915 95.4941 231.187 99.6369 233.212 106.109Z" fill="url(#paint4_radial_251_67424)"/>
<path style="mix-blend-mode:multiply" opacity="0.25" d="M233.212 106.109C234.76 111.091 233.971 116.015 231.483 118.662C228.241 117.546 225.209 114.155 223.761 109.572C222.212 104.59 223.001 99.6663 225.49 97.0191C228.732 98.1351 231.763 101.526 233.212 106.109Z" fill="url(#paint5_radial_251_67424)"/>
<path d="M231.381 108.186C220.469 54.7321 166.822 20.5344 111.556 31.821C56.2895 43.1077 20.351 95.5798 31.267 149.056C42.1786 202.511 91.4285 225.926 146.673 214.644C201.939 203.357 242.27 161.645 231.358 108.191L231.381 108.186Z" fill="#F7FCF8"/>
<path style="mix-blend-mode:multiply" opacity="0.25" d="M51.6371 67.9339C39.5106 88.1836 34.6055 112.547 39.6322 137.123C50.5438 190.578 99.7937 213.993 155.038 202.711C182.839 197.035 206.863 183.645 222.498 164.925C208.024 189.865 180.09 207.808 146.691 214.617C91.4242 225.904 42.1967 202.484 31.2851 149.03C25.234 119.416 33.5991 90.0991 51.6328 67.9114L51.6371 67.9339Z" fill="url(#paint6_radial_251_67424)"/>
<path d="M230.292 111.446C221.32 67.5058 177.235 39.4107 131.815 48.6698C86.3985 57.9512 56.8617 101.082 65.8335 145.023C74.8052 188.963 115.288 208.216 160.704 198.935C206.121 189.653 239.281 155.36 230.314 111.442L230.292 111.446Z" fill="url(#paint7_radial_251_67424)"/>
<path style="mix-blend-mode:multiply" opacity="0.25" d="M231.863 109.349C222.66 64.3368 176.817 35.6986 129.428 45.3632C82.0422 55.0502 51.0829 99.3649 60.2636 144.382C69.4667 189.394 111.574 208.983 158.96 199.296C206.345 189.609 241.039 154.344 231.858 109.327L231.863 109.349Z" fill="url(#paint8_radial_251_67424)"/>
<path style="mix-blend-mode:screen" d="M164.142 144.231C192.459 138.455 216.001 122.947 227.535 101.44C228.65 104.667 229.599 107.997 230.292 111.446C239.263 155.387 206.103 189.68 160.682 198.939C115.266 208.221 74.7828 188.968 65.8111 145.027C62.4152 128.372 64.5564 111.83 71.0014 97.1974C82.6265 136.224 121.161 152.993 164.119 144.235L164.142 144.231Z" fill="url(#paint9_radial_251_67424)"/>
<path d="M72.5016 94.9745C72.9198 96.2896 73.3785 97.5736 73.8596 98.8533C71.8159 108.466 71.7049 118.564 73.8919 128.751C82.7978 170.074 122.476 188.297 166.889 179.722C191.809 174.908 212.918 162.688 225.072 145.575C215.116 168.498 190.618 185.076 160.562 190.887C116.149 199.462 76.4934 181.235 67.5651 139.916C64.1726 124.238 66.2276 108.689 72.4792 94.9788L72.5016 94.9745Z" fill="url(#paint10_radial_251_67424)"/>
<path style="mix-blend-mode:screen" d="M187.928 108.639C185.189 92.3688 178.787 74.8547 165.823 58.6609C165.823 58.6609 194.156 63.4004 211.725 90.1267C205.329 98.5359 197.213 104.44 187.932 108.662L187.928 108.639Z" fill="url(#paint11_radial_251_67424)"/>
<path style="mix-blend-mode:screen" d="M188.773 114.432C198.865 110.076 207.802 103.967 214.868 95.2877C229.366 121.423 222.022 142.094 216.04 150.121C209.783 158.526 193.983 168.365 183.697 170.525C183.697 170.525 192.491 145.453 188.773 114.432V114.432Z" fill="url(#paint12_radial_251_67424)"/>
<path style="mix-blend-mode:screen" opacity="0.45" d="M175.447 57.77C188.891 61.2109 219.238 72.7271 212.512 99.0963C207.627 118.289 180.386 134.282 129.231 133.065C78.0769 131.848 87.9673 83.1755 112.343 70.1592C136.74 57.1386 162.491 54.4439 175.425 57.7743L175.447 57.77Z" fill="url(#paint13_radial_251_67424)"/>
<path style="mix-blend-mode:screen" d="M191.252 77.8108C189.203 79.7212 190.725 84.6851 194.657 88.8786C198.59 93.0721 203.418 94.9274 205.467 93.0169C207.517 91.1064 205.995 86.1426 202.062 81.9491C198.13 77.7556 193.302 75.9003 191.252 77.8108Z" fill="url(#paint14_radial_251_67424)"/>
<path style="mix-blend-mode:screen" d="M178.745 68.0441C177.764 69.4678 179.375 72.2503 182.316 74.2159C185.262 76.204 188.418 76.6386 189.376 75.2192C190.357 73.7956 188.746 71.0131 185.804 69.0475C182.859 67.0594 179.703 66.6248 178.745 68.0441Z" fill="url(#paint15_radial_251_67424)"/>
<path style="mix-blend-mode:multiply" opacity="0.25" d="M83.0715 153.382C86.3939 164.024 82.377 174.74 74.1051 177.324C65.8331 179.907 56.421 173.379 53.103 162.76C49.7806 152.118 53.7974 141.401 62.0694 138.818C70.3413 136.235 79.7534 142.763 83.0715 153.382Z" fill="url(#paint16_radial_251_67424)"/>
<path d="M52.6372 161.83C49.3121 151.197 52.542 140.724 59.8515 138.438C67.1609 136.152 75.782 142.919 79.1071 153.552C82.4323 164.185 79.2023 174.658 71.8929 176.944C64.5834 179.229 55.9624 172.463 52.6372 161.83Z" fill="#F7FCF8"/>
<path style="mix-blend-mode:multiply" opacity="0.25" d="M52.7014 157.695C56.0238 168.336 64.6417 175.088 71.9486 172.808C76.7107 171.325 79.7229 166.342 80.3315 160.127C80.8728 168.19 77.6526 175.099 71.885 176.916C64.5781 179.196 55.9603 172.444 52.6379 161.803C51.476 158.095 51.134 154.415 51.4664 151.092C51.6022 153.23 52.0107 155.455 52.7014 157.695V157.695Z" fill="url(#paint17_radial_251_67424)"/>
<path d="M71.6191 155.046C73.6477 161.541 71.6761 167.928 67.2193 169.305C62.7668 170.704 57.4945 166.562 55.4702 160.089C53.4415 153.595 55.4132 147.208 59.87 145.831C64.3268 144.454 69.5948 148.574 71.6191 155.046Z" fill="#F3A400"/>
<g style="mix-blend-mode:multiply" opacity="0.5">
<path d="M71.6191 155.046C73.168 160.028 72.3785 164.952 69.8903 167.6C66.6484 166.483 63.6164 163.093 62.1684 158.51C60.6195 153.528 61.4091 148.604 63.8972 145.957C67.1391 147.073 70.1711 150.464 71.6191 155.046Z" fill="#F3A400"/>
</g>
<path style="mix-blend-mode:multiply" opacity="0.46" d="M49.9306 69.4522C49.8422 69.2366 49.7943 68.9899 49.7377 68.6983C49.729 68.6535 49.7246 68.6311 49.7159 68.5862C49.6637 68.3171 49.652 68.0168 49.6539 67.6673C49.6452 67.6225 49.6322 67.5552 49.6459 67.506C49.6385 67.2282 49.6492 66.9237 49.678 66.5923C49.6649 66.525 49.6967 66.4489 49.7061 66.3773C49.693 66.31 49.7248 66.234 49.7385 66.1848C49.7616 66.064 49.7622 65.9475 49.781 65.8043C49.8365 65.491 49.8877 65.1553 49.957 64.7928C49.9483 64.7479 49.98 64.6719 49.9938 64.6227C50.1778 63.7725 50.4117 62.8195 50.7359 61.7326C50.9735 60.9185 51.2697 60.0464 51.6244 59.1165C51.7884 58.6425 51.9972 58.1599 52.2509 57.6685C52.3326 57.4898 52.4367 57.3067 52.5451 57.146C52.7171 56.8333 52.8624 56.5026 53.0568 56.1856C53.2151 55.9222 53.414 55.6276 53.5947 55.3598C53.7349 55.1231 53.8751 54.8864 54.0378 54.6454C54.2727 54.2973 54.5301 53.9448 54.7919 53.6147C54.9184 53.4272 55.0492 53.2622 55.1757 53.0747C55.4917 52.6643 55.83 52.2495 56.1728 51.8572C56.2856 51.719 56.3803 51.6075 56.4931 51.4692C56.872 51.0233 57.2776 50.5956 57.6789 50.1453C57.7737 50.0338 57.8684 49.9224 57.9674 49.8334C58.4317 49.3476 58.914 48.8351 59.423 48.3406C59.4816 48.2827 59.5402 48.2248 59.5763 48.1713C60.1035 47.65 60.6755 47.1202 61.2475 46.5902C61.2699 46.5859 61.3061 46.5323 61.3241 46.5055C76.0424 33.0133 103.734 18.9808 126.424 20.3011C150.104 21.6852 163.108 29.3307 170.15 37.4352C170.266 37.5524 170.359 37.6739 170.475 37.791C170.809 38.1917 171.142 38.5924 171.427 38.9793C171.609 39.1999 171.769 39.4248 171.929 39.6497C172.178 39.9737 172.409 40.3245 172.636 40.6528C172.863 40.9812 173.067 41.3138 173.267 41.6241C173.431 41.8715 173.596 42.1189 173.737 42.3706C174.084 42.955 174.407 43.5437 174.704 44.1144C178.547 51.5601 172.326 56.5608 166.165 58.2687C164.442 58.7429 162.734 58.9349 161.238 58.8996C153.587 58.5695 145.96 59.5613 138.503 61.4277C136.018 62.0498 133.527 62.766 131.076 63.5675C125.102 65.5185 119.215 67.9179 113.513 70.6769C111.6 71.6069 109.717 72.5775 107.861 73.5661C106.953 74.0448 106.072 74.5416 105.169 75.0428C102.481 76.5419 99.8062 78.1084 97.2648 79.8817C93.2704 82.6817 88.1844 82.0166 84.3425 79.2484L84.2889 79.2123C84.0211 79.0316 83.7714 78.8241 83.5173 78.5941C83.4638 78.558 83.4102 78.5218 83.3523 78.4632C83.0714 78.2152 82.7906 77.9671 82.5278 77.6924C80.8484 75.9938 79.1625 74.6222 77.3452 73.5322C76.1351 72.813 74.8976 72.1922 73.5697 71.7053C72.9169 71.4596 72.2237 71.2451 71.5348 71.053C70.1346 70.6732 68.6802 70.3738 67.1043 70.1677C66.0298 70.0272 64.9371 69.9134 63.8533 69.8446C60.5568 69.6467 57.1551 69.8649 53.9648 70.6937C53.9648 70.6937 53.9424 70.698 53.8976 70.7067C53.8527 70.7154 53.7854 70.7285 53.7225 70.764C53.7225 70.764 53.7225 70.764 53.7 70.7684C53.6103 70.7858 53.5206 70.8031 53.4353 70.8429C53.4353 70.8429 53.4129 70.8473 53.3904 70.8516C53.2783 70.8734 53.1662 70.8952 53.0316 70.9213C53.0316 70.9213 53.0092 70.9256 52.9868 70.93C52.8522 70.9561 52.7176 70.9822 52.583 71.0083C52.4485 71.0345 52.2829 71.0201 52.144 71.0238C52.144 71.0238 52.1439 71.0238 52.1215 71.0282C51.9782 71.0095 51.8125 70.9951 51.6693 70.9764C51.6693 70.9764 51.6244 70.985 51.5976 70.967C51.45 70.9258 51.3024 70.8847 51.1728 70.8168C51.1728 70.8168 51.1236 70.803 51.0968 70.7849C50.9673 70.717 50.8334 70.6266 50.6995 70.5362C50.6995 70.5362 50.6684 70.4958 50.6416 70.4777C50.5258 70.3606 50.3832 70.2253 50.2855 70.0814C50.2855 70.0814 50.2811 70.0589 50.2767 70.0365C50.1746 69.8702 50.0681 69.6813 49.9797 69.4658C49.9797 69.4658 49.9798 69.4659 49.9754 69.4435L49.9306 69.4522Z" fill="url(#paint18_radial_251_67424)"/>
<path d="M166.418 55.4968C172.57 53.9769 178.76 49.4241 174.866 42.5471C169.582 33.1935 156.62 22.1656 126.429 20.3234C96.2371 18.4813 57.3596 41.6666 51.909 55.5473C46.4584 69.4279 54.3263 66.2017 54.3263 66.2017C58.5569 65.2176 63.1939 65.2483 67.4651 65.7922C73.7644 66.594 78.4394 68.6188 82.9318 72.8199C86.8849 76.5207 93.0601 77.8818 97.6962 74.9107C101.051 72.7702 104.672 70.927 108.244 69.1864C115.68 65.5322 123.444 62.4892 131.387 60.1327C141.162 57.2579 151.301 55.5456 161.496 56.0334C162.974 56.0956 164.709 55.9217 166.418 55.4968V55.4968Z" fill="#F7FCF8"/>
<path style="mix-blend-mode:multiply" opacity="0.25" d="M53.8428 59.035C58.0733 58.0509 62.7103 58.0816 66.9815 58.6255C73.2808 59.4273 77.9559 61.452 82.4483 65.6531C86.4014 69.3539 92.5766 70.7151 97.2127 67.744C100.567 65.6034 104.189 63.7602 107.761 62.0196C115.196 58.3655 122.96 55.3224 130.904 52.9659C140.678 50.0911 150.818 48.3788 161.012 48.8667C162.491 48.9288 164.225 48.7549 165.935 48.33C169.623 47.4279 173.304 45.4101 174.826 42.4617C174.826 42.4617 174.834 42.5066 174.839 42.5291C178.734 49.4061 172.543 53.9589 166.392 55.4787C164.682 55.9036 162.97 56.0732 161.469 56.0154C151.279 55.55 141.135 57.2399 131.36 60.1147C123.39 62.4531 115.653 65.5142 108.217 69.1684C104.65 70.9314 101.024 72.7522 97.6695 74.8927C93.0334 77.8638 86.8807 76.4984 82.9051 72.802C78.4127 68.6009 73.7377 66.5762 67.4384 65.7743C63.1672 65.2304 58.5302 65.1996 54.2996 66.1837C54.2996 66.1837 47.8329 68.8353 50.6933 58.9947C51.9881 59.7905 53.8204 59.0393 53.8204 59.0393L53.8428 59.035Z" fill="url(#paint19_radial_251_67424)"/>
<path style="mix-blend-mode:multiply" opacity="0.25" d="M82.9277 72.7975C78.4352 68.5964 73.7603 66.5717 67.4609 65.7699C63.1897 65.2259 58.5527 65.1951 54.3222 66.1792C54.3222 66.1792 47.8554 68.8308 50.7158 58.9902C52.0106 59.7861 53.8429 59.0349 53.8429 59.0349C58.0734 58.0507 62.7104 58.0814 66.9816 58.6253C73.2809 59.4272 77.956 61.4519 82.4484 65.653C84.3826 67.4651 86.8577 68.7068 89.4134 69.1648C89.4324 72.1399 90.1579 74.5589 91.0344 76.4367C88.0787 76.1959 85.1471 74.88 82.9277 72.7975V72.7975Z" fill="url(#paint20_radial_251_67424)"/>
<path style="mix-blend-mode:multiply" opacity="0.25" d="M79.6898 32.1424C86.4792 41.3432 124.987 43.9449 148.848 40.1508C160.431 38.3212 163.759 34.6034 163.525 30.7624C169.082 34.4543 172.665 38.6459 174.865 42.5473C178.76 49.4243 172.57 53.9771 166.418 55.4969C164.709 55.9219 162.996 56.0914 161.496 56.0336C151.306 55.5682 141.162 57.2581 131.387 60.1329C123.417 62.4713 115.68 65.5324 108.244 69.1866C104.677 70.9496 101.051 72.7704 97.6961 74.9109C93.06 77.882 86.9072 76.5165 82.9317 72.8201C78.4393 68.6189 73.7643 66.5942 67.465 65.7924C63.1938 65.2485 58.5568 65.2178 54.3263 66.2019C54.3263 66.2019 46.4583 69.4281 51.9089 55.5475C54.6183 48.6451 65.607 39.4374 79.6717 32.1692L79.6898 32.1424Z" fill="url(#paint21_radial_251_67424)"/>
<path d="M137.033 145.444C127.434 147.307 119.007 145.494 118.212 141.395C117.416 137.295 124.552 132.461 134.151 130.598C143.75 128.734 152.177 130.547 152.973 134.647C153.768 138.747 146.632 143.581 137.033 145.444Z" fill="url(#paint22_radial_251_67424)"/>
<path d="M198.595 132.423C188.996 134.286 180.57 132.473 179.774 128.374C178.978 124.274 186.114 119.44 195.713 117.577C205.312 115.713 213.739 117.526 214.535 121.626C215.331 125.726 208.194 130.56 198.595 132.423Z" fill="url(#paint23_radial_251_67424)"/>
<path d="M137.656 139.784C127.896 141.679 118.449 135.303 116.554 125.543C114.659 115.783 121.036 106.335 130.796 104.44C140.556 102.546 150.004 108.922 151.898 118.682C153.793 128.442 147.416 137.89 137.656 139.784Z" fill="url(#paint24_radial_251_67424)"/>
<path d="M193.777 124.748C185.244 126.404 176.983 120.829 175.326 112.295C173.67 103.761 179.245 95.5005 187.778 93.8439C196.312 92.1874 204.573 97.7625 206.23 106.296C207.886 114.83 202.311 123.091 193.777 124.748Z" fill="url(#paint25_radial_251_67424)"/>
<path style="mix-blend-mode:screen" opacity="0.45" d="M135.972 131.105C131.005 132.069 126.197 128.824 125.233 123.858C124.269 118.891 127.514 114.083 132.48 113.119C137.447 112.155 142.255 115.4 143.219 120.366C144.183 125.333 140.938 130.141 135.972 131.105Z" fill="url(#paint26_radial_251_67424)"/>
<path style="mix-blend-mode:screen" opacity="0.45" d="M192.472 118.02C187.653 118.955 182.99 115.808 182.054 110.99C181.119 106.172 184.267 101.508 189.085 100.572C193.903 99.637 198.567 102.785 199.502 107.603C200.437 112.421 197.29 117.085 192.472 118.02Z" fill="url(#paint27_radial_251_67424)"/>
<g style="mix-blend-mode:screen">
<path d="M135.972 131.105C131.005 132.069 126.197 128.824 125.233 123.858C124.269 118.891 127.514 114.083 132.48 113.119C137.447 112.155 142.255 115.4 143.219 120.366C144.183 125.333 140.938 130.141 135.972 131.105Z" fill="white"/>
</g>
<g style="mix-blend-mode:screen">
<path d="M192.472 118.02C187.653 118.955 182.99 115.808 182.054 110.99C181.119 106.172 184.267 101.508 189.085 100.572C193.903 99.637 198.567 102.785 199.502 107.603C200.437 112.421 197.29 117.085 192.472 118.02Z" fill="white"/>
</g>
<g style="mix-blend-mode:screen">
<path d="M136.45 142.439C130.74 143.547 125.727 142.468 125.253 140.028C124.78 137.588 129.025 134.711 134.734 133.603C140.444 132.494 145.457 133.574 145.931 136.014C146.404 138.454 142.16 141.33 136.45 142.439Z" fill="white"/>
</g>
<path d="M197.99 129.306C192.28 130.414 187.268 129.335 186.794 126.895C186.32 124.455 190.565 121.578 196.275 120.47C201.985 119.361 206.998 120.441 207.471 122.881C207.945 125.321 203.7 128.197 197.99 129.306Z" fill="#F493A4"/>
<g style="mix-blend-mode:screen">
<path d="M197.99 129.306C192.28 130.414 187.268 129.335 186.794 126.895C186.32 124.455 190.565 121.578 196.275 120.47C201.985 119.361 206.998 120.441 207.471 122.881C207.945 125.321 203.7 128.197 197.99 129.306Z" fill="white"/>
</g>
<path d="M187.31 130.751C186.509 127.346 176.243 127.57 168.17 129.137C160.096 130.704 150.135 135.733 150.756 139.173C152.944 151.524 166.328 155.256 174.402 153.689C182.475 152.122 189.703 140.922 187.287 130.755L187.31 130.751Z" fill="url(#paint28_radial_251_67424)"/>
<g style="mix-blend-mode:screen">
<path d="M180.734 134.517C180.174 132.113 172.919 132.264 167.223 133.37C161.527 134.476 154.49 138.029 154.915 140.46C156.47 149.188 165.918 151.822 171.636 150.712C177.355 149.602 182.449 141.678 180.752 134.491L180.734 134.517Z" fill="white"/>
</g>
<path d="M174.563 227.291C174.319 227.639 173.995 227.936 173.611 228.104C172.245 228.7 171.009 227.303 170.633 226.806C170.547 226.688 170.394 226.637 170.251 226.679C169.802 226.815 169.462 227.274 169.08 227.59C167.083 229.24 163.625 224.269 163.447 224.053C163.045 223.56 163.326 222.798 163.752 222.33C164.065 221.988 164.451 221.711 164.749 221.364C164.982 221.098 165.002 220.713 164.802 220.419C164.236 219.581 161.859 218.057 161.722 216.784C161.638 216.001 165.67 212.361 166.265 213.217C167.604 215.133 171.223 219.852 174.44 222.064C177.156 223.933 176.365 224.749 174.563 227.284L174.563 227.291Z" fill="#FFCC00"/>
<path d="M161.098 222.171C160.341 221.366 159.577 220.556 158.819 219.751C158.615 219.538 158.549 219.103 158.6 218.829C158.651 218.555 158.835 218.206 159.08 218.046C159.349 217.87 159.679 217.754 160.002 217.826L160.307 217.915C160.504 218.001 160.659 218.132 160.792 218.305L163.07 220.725C163.274 220.938 163.341 221.374 163.29 221.648C163.239 221.922 163.055 222.27 162.81 222.43C162.541 222.607 162.211 222.723 161.888 222.65L161.583 222.562C161.386 222.476 161.231 222.345 161.098 222.171Z" fill="#FFCC00"/>
<path d="M171.453 231.704C170.933 231.229 170.394 230.77 169.874 230.303C169.755 230.195 169.667 230.063 169.617 229.914C169.541 229.768 169.505 229.611 169.507 229.443C169.502 229.276 169.532 229.118 169.61 228.969C169.661 228.816 169.741 228.686 169.863 228.573C170.095 228.36 170.399 228.193 170.723 228.212L171.05 228.251C171.257 228.309 171.436 228.411 171.593 228.562C172.113 229.036 172.652 229.488 173.172 229.963C173.291 230.071 173.379 230.202 173.429 230.351C173.505 230.497 173.542 230.655 173.539 230.822C173.544 230.99 173.514 231.147 173.436 231.297C173.385 231.45 173.305 231.579 173.183 231.693C172.951 231.905 172.647 232.072 172.323 232.053L171.996 232.014C171.789 231.956 171.61 231.855 171.453 231.704Z" fill="#FFCC00"/>
<path d="M165.038 231.197C164.641 230.937 164.257 230.67 163.883 230.374C163.59 230.144 163.32 229.884 163.045 229.632C162.925 229.517 162.838 229.386 162.794 229.229C162.718 229.083 162.687 228.919 162.696 228.75C162.704 228.454 162.841 228.104 163.061 227.906C163.3 227.692 163.612 227.531 163.943 227.556C164.275 227.581 164.549 227.699 164.788 227.922C165.063 228.174 165.332 228.434 165.625 228.664L165.376 228.47C165.669 228.693 165.979 228.895 166.282 229.097C166.55 229.277 166.758 229.529 166.839 229.849C166.91 230.137 166.871 230.517 166.704 230.777C166.537 231.036 166.274 231.272 165.952 231.334C165.629 231.395 165.299 231.377 165.025 231.198L165.038 231.197Z" fill="#FFCC00"/>
<path d="M231.399 187.363C232.871 190.829 232.139 194.457 229.758 195.47C227.377 196.484 224.252 194.497 222.775 191.038C221.303 187.573 222.035 183.945 224.416 182.932C226.796 181.918 229.921 183.905 231.399 187.363Z" fill="#F7FCF8"/>
<path style="mix-blend-mode:multiply" opacity="0.25" d="M222.659 189.648C224.131 193.114 227.262 195.094 229.643 194.08C231.196 193.417 232.039 191.649 232.041 189.536C232.491 192.232 231.645 194.664 229.764 195.463C227.383 196.476 224.258 194.489 222.781 191.031C222.269 189.824 222.024 188.603 222.023 187.469C222.141 188.188 222.354 188.923 222.659 189.648V189.648Z" fill="url(#paint29_radial_251_67424)"/>
<path style="mix-blend-mode:multiply" opacity="0.25" d="M228.931 188.131C229.829 190.243 229.382 192.458 227.931 193.076C226.481 193.694 224.573 192.483 223.676 190.372C222.779 188.26 223.226 186.045 224.676 185.427C226.126 184.808 228.034 186.02 228.931 188.131Z" fill="url(#paint30_radial_251_67424)"/>
<path style="mix-blend-mode:multiply" opacity="0.25" d="M228.932 188.131C229.622 189.755 229.514 191.437 228.773 192.409C227.65 192.14 226.506 191.108 225.876 189.612C225.186 187.989 225.294 186.306 226.035 185.335C227.158 185.603 228.302 186.635 228.932 188.131Z" fill="url(#paint31_radial_251_67424)"/>
<path d="M228.382 188.888C222.919 171.283 203.737 161.589 185.541 167.236C167.345 172.882 157.026 191.735 162.488 209.341C167.951 226.946 185.291 233.167 203.494 227.519C221.69 221.873 233.851 206.492 228.389 188.887L228.382 188.888Z" fill="#F7FCF8"/>
<path style="mix-blend-mode:multiply" opacity="0.25" d="M166.606 181.389C163.212 188.603 162.383 196.959 164.894 205.057C170.357 222.662 187.698 228.883 205.9 223.235C215.057 220.396 222.68 215.083 227.305 208.267C223.276 217.133 214.488 224.107 203.487 227.52C185.291 233.167 167.951 226.946 162.482 209.341C159.45 199.588 161.276 189.448 166.599 181.39L166.606 181.389Z" fill="url(#paint32_radial_251_67424)"/>
<path d="M172.118 207.222C176.719 222.048 191.538 227.217 207.143 222.371C222.748 217.525 233.229 204.506 228.628 189.68C224.027 174.854 207.647 166.766 192.042 171.612C176.438 176.457 167.517 192.396 172.118 207.222Z" fill="#FFCC00"/>
<path d="M178.088 203.824C183.001 220.556 191.554 219.599 202.772 218.397C213.989 217.195 226.011 208.533 226.485 199.048C226.912 190.515 219.868 174.683 200.036 177.707C188.878 179.405 174.383 191.224 178.089 203.831L178.088 203.824Z" fill="white"/>
<path d="M212.05 195.153C213.717 194.975 214.924 193.478 214.745 191.811C214.567 190.145 213.071 188.938 211.404 189.117C209.737 189.295 208.53 190.791 208.709 192.458C208.887 194.125 210.383 195.332 212.05 195.153Z" fill="#231F20"/>
<path d="M193.409 201.465C195.076 201.286 196.283 199.79 196.104 198.123C195.925 196.456 194.429 195.25 192.762 195.428C191.095 195.607 189.889 197.103 190.067 198.77C190.246 200.437 191.742 201.644 193.409 201.465Z" fill="#231F20"/>
<path d="M194.064 205.027C195.945 204.463 197.275 203.357 197.035 202.555C196.795 201.754 195.075 201.562 193.194 202.126C191.313 202.69 189.982 203.796 190.222 204.597C190.463 205.399 192.182 205.591 194.064 205.027Z" fill="#F493A4"/>
<path d="M214.311 198.546C216.193 197.982 217.523 196.875 217.283 196.074C217.043 195.273 215.323 195.081 213.442 195.645C211.56 196.208 210.23 197.315 210.47 198.116C210.71 198.917 212.43 199.11 214.311 198.546Z" fill="#F493A4"/>
<path d="M208.696 200.86C208.424 200.071 205.993 200.365 204.114 200.929C202.235 201.492 199.986 202.921 200.214 203.728C201.025 206.607 204.294 207.183 206.18 206.619C208.065 206.054 209.513 203.222 208.696 200.86V200.86Z" fill="#D6493F"/>
<path d="M172.118 207.222C176.719 222.048 191.538 227.217 207.143 222.371C222.748 217.525 233.229 204.506 228.628 189.68C224.027 174.854 207.647 166.766 192.042 171.612C176.438 176.457 167.517 192.396 172.118 207.222ZM192.92 172.229C207.86 167.689 223.534 175.202 228.134 190.021C232.736 204.847 222.528 217.046 207.676 221.777C193.038 226.432 178.577 221.661 173.975 206.835C169.374 192.009 178.41 176.642 192.927 172.228L192.92 172.229Z" fill="#041F8E"/>
<path style="mix-blend-mode:multiply" opacity="0.25" d="M180.044 209.057C181.516 212.522 180.527 216.258 177.839 217.405C175.144 218.553 171.769 216.673 170.291 213.215C168.819 209.749 169.808 206.013 172.496 204.866C175.192 203.719 178.567 205.598 180.044 209.057Z" fill="url(#paint33_radial_251_67424)"/>
<path d="M177.074 217.348C179.454 216.334 180.188 212.707 178.714 209.246C177.24 205.784 174.116 203.8 171.736 204.813C169.357 205.827 168.622 209.454 170.096 212.915C171.57 216.377 174.694 218.361 177.074 217.348Z" fill="#F7FCF8"/>
<path style="mix-blend-mode:multiply" opacity="0.25" d="M169.982 211.523C171.454 214.989 174.585 216.969 176.966 215.955C178.518 215.292 179.362 213.524 179.364 211.411C179.814 214.107 178.967 216.539 177.087 217.338C174.706 218.351 171.581 216.364 170.104 212.906C169.592 211.699 169.347 210.478 169.346 209.344C169.463 210.063 169.676 210.798 169.982 211.523V211.523Z" fill="url(#paint34_radial_251_67424)"/>
<path d="M176.247 210C177.144 212.111 176.697 214.327 175.247 214.945C173.797 215.563 171.889 214.352 170.992 212.241C170.095 210.129 170.542 207.914 171.992 207.296C173.442 206.677 175.35 207.889 176.247 210Z" fill="#F3A400"/>
<g style="mix-blend-mode:multiply" opacity="0.5">
<path d="M176.247 210C176.938 211.624 176.829 213.306 176.088 214.278C174.966 214.009 173.822 212.977 173.192 211.482C172.501 209.858 172.609 208.176 173.351 207.204C174.473 207.473 175.617 208.504 176.247 210Z" fill="#F3A400"/>
</g>
<path style="mix-blend-mode:multiply" opacity="0.46" d="M166.083 181.955C166.048 181.885 166.019 181.801 165.996 181.709C165.995 181.696 165.994 181.689 165.993 181.676C165.969 181.585 165.952 181.486 165.94 181.373C165.938 181.353 165.936 181.333 165.934 181.32C165.924 181.227 165.914 181.128 165.915 181.013C165.913 180.994 165.91 180.967 165.914 180.94C165.911 180.92 165.909 180.893 165.913 180.873C165.909 180.833 165.911 180.786 165.913 180.745C165.915 180.638 165.929 180.522 165.936 180.401C165.934 180.381 165.939 180.36 165.943 180.339C165.972 180.048 166.025 179.72 166.098 179.343C166.155 179.062 166.223 178.759 166.309 178.435C166.352 178.269 166.408 178.102 166.47 177.928C166.49 177.865 166.523 177.801 166.544 177.739C166.592 177.626 166.634 177.514 166.688 177.395C166.731 177.296 166.787 177.196 166.837 177.097C166.882 177.011 166.92 176.927 166.964 176.842C167.032 176.72 167.112 176.591 167.186 176.469C167.226 176.404 167.259 176.34 167.299 176.276C167.391 176.132 167.489 175.98 167.594 175.828C167.628 175.777 167.651 175.735 167.686 175.684C167.796 175.525 167.92 175.364 168.043 175.203C168.073 175.166 168.095 175.123 168.131 175.086C168.273 174.903 168.421 174.719 168.569 174.536C168.587 174.514 168.598 174.493 168.616 174.477C168.776 174.279 168.95 174.086 169.123 173.886C169.129 173.879 169.141 173.864 169.147 173.857C173.648 168.832 182.483 163.175 190.152 162.863C198.155 162.536 202.785 164.663 205.428 167.158C205.465 167.194 205.509 167.23 205.547 167.273C205.674 167.393 205.795 167.515 205.909 167.643C205.977 167.71 206.038 167.784 206.106 167.85C206.197 167.955 206.289 168.059 206.381 168.163C206.466 168.268 206.55 168.366 206.629 168.472C206.691 168.553 206.752 168.626 206.808 168.708C206.942 168.895 207.076 169.075 207.196 169.263C208.739 171.641 206.815 173.531 204.798 174.304C204.237 174.519 203.667 174.647 203.166 174.674C200.585 174.816 198.052 175.41 195.603 176.289C194.789 176.585 193.978 176.906 193.184 177.26C191.236 178.119 189.343 179.114 187.518 180.242C186.908 180.616 186.305 181.003 185.711 181.409C185.423 181.601 185.142 181.798 184.854 181.99C183.999 182.585 183.152 183.199 182.359 183.881C181.112 184.954 179.382 184.898 177.995 184.101C177.988 184.101 177.981 184.096 177.973 184.09C177.88 184.033 177.787 183.975 177.692 183.912C177.671 183.901 177.656 183.889 177.635 183.878C177.533 183.801 177.431 183.725 177.328 183.642C176.709 183.125 176.089 182.721 175.445 182.415C175.014 182.213 174.574 182.052 174.118 181.926C173.89 181.863 173.657 181.814 173.411 181.774C172.932 181.691 172.423 181.638 171.891 181.621C171.527 181.606 171.159 181.612 170.785 181.626C169.669 181.671 168.528 181.854 167.489 182.24C167.489 182.24 167.482 182.241 167.47 182.249C167.456 182.251 167.438 182.266 167.412 182.276C167.412 182.276 167.412 182.276 167.399 182.277C167.373 182.286 167.341 182.303 167.309 182.313L167.296 182.315C167.263 182.325 167.225 182.343 167.179 182.354C167.179 182.354 167.172 182.355 167.166 182.356C167.12 182.367 167.074 182.379 167.029 182.39C166.982 182.395 166.929 182.401 166.876 182.407C166.876 182.407 166.869 182.408 166.863 182.408C166.816 182.413 166.762 182.406 166.708 182.405C166.701 182.405 166.695 182.406 166.688 182.407C166.64 182.398 166.592 182.39 166.543 182.369C166.536 182.369 166.529 182.363 166.522 182.358C166.472 182.336 166.423 182.314 166.38 182.285C166.38 182.285 166.365 182.274 166.359 182.274C166.314 182.239 166.27 182.203 166.225 182.154C166.225 182.154 166.224 182.148 166.217 182.142C166.178 182.092 166.138 182.03 166.103 181.959C166.103 181.959 166.103 181.959 166.103 181.953L166.083 181.955Z" fill="url(#paint35_radial_251_67424)"/>
<path d="M204.776 173.354C206.793 172.641 208.72 170.898 207.185 168.714C205.096 165.751 200.37 162.473 190.153 162.87C179.943 163.266 167.652 172.366 166.286 177.209C164.92 182.059 167.452 180.708 167.452 180.708C168.838 180.237 170.399 180.09 171.852 180.129C173.992 180.188 175.638 180.71 177.29 181.975C178.745 183.088 180.865 183.337 182.319 182.188C183.376 181.35 184.532 180.616 185.671 179.91C188.049 178.434 190.555 177.145 193.153 176.089C196.342 174.794 199.693 173.878 203.136 173.697C203.636 173.671 204.207 173.549 204.77 173.354L204.776 173.354Z" fill="#F7FCF8"/>
<path style="mix-blend-mode:multiply" opacity="0.25" d="M167.049 178.322C168.434 177.851 169.995 177.704 171.449 177.743C173.589 177.802 175.235 178.324 176.887 179.589C178.342 180.702 180.462 180.951 181.916 179.802C182.973 178.964 184.129 178.23 185.268 177.524C187.646 176.048 190.152 174.76 192.749 173.703C195.939 172.408 199.29 171.493 202.732 171.312C203.233 171.285 203.804 171.163 204.366 170.969C205.575 170.537 206.744 169.741 207.163 168.696C207.163 168.696 207.171 168.709 207.178 168.715C208.714 170.899 206.787 172.642 204.77 173.355C204.207 173.556 203.636 173.671 203.136 173.697C199.693 173.878 196.342 174.794 193.153 176.089C190.555 177.145 188.055 178.426 185.671 179.91C184.526 180.623 183.377 181.357 182.319 182.188C180.859 183.344 178.745 183.088 177.29 181.975C175.639 180.716 173.999 180.187 171.852 180.129C170.399 180.09 168.837 180.231 167.452 180.708C167.452 180.708 165.37 181.816 165.999 178.414C166.459 178.64 167.049 178.322 167.049 178.322V178.322Z" fill="url(#paint36_radial_251_67424)"/>
<path style="mix-blend-mode:multiply" opacity="0.25" d="M177.29 181.975C175.639 180.716 173.999 180.188 171.852 180.129C170.399 180.09 168.837 180.231 167.452 180.708C167.452 180.708 165.37 181.817 165.999 178.414C166.459 178.64 167.049 178.322 167.049 178.322C168.434 177.851 169.995 177.704 171.449 177.743C173.589 177.802 175.235 178.324 176.887 179.59C177.603 180.137 178.471 180.473 179.351 180.54C179.458 181.542 179.784 182.332 180.143 182.924C179.138 182.938 178.109 182.599 177.29 181.975Z" fill="url(#paint37_radial_251_67424)"/>
<path style="mix-blend-mode:multiply" opacity="0.25" d="M174.838 168.416C177.433 171.285 190.459 170.862 198.362 168.787C202.193 167.78 203.188 166.418 202.983 165.132C204.975 166.186 206.32 167.472 207.191 168.713C208.727 170.897 206.8 172.64 204.783 173.353C204.221 173.554 203.649 173.669 203.149 173.696C199.706 173.877 196.355 174.793 193.166 176.087C190.568 177.144 188.069 178.425 185.684 179.908C184.54 180.621 183.39 181.355 182.332 182.187C180.872 183.343 178.758 183.086 177.304 181.974C175.652 180.715 174.012 180.186 171.865 180.127C170.412 180.089 168.85 180.229 167.465 180.706C167.465 180.706 164.932 182.051 166.299 177.208C166.98 174.8 170.359 171.331 174.851 168.414L174.838 168.416Z" fill="url(#paint38_radial_251_67424)"/>
<path d="M150.547 197.003C150.798 195.767 152.003 194.969 153.239 195.22L238.045 212.441C239.281 212.692 240.079 213.897 239.828 215.133L230.377 261.676C229.123 267.855 223.096 271.847 216.917 270.592L150.012 257.006C143.833 255.751 139.841 249.725 141.096 243.546L150.547 197.003Z" fill="#56D7B8"/>
<rect x="185.908" y="201.854" width="11.4165" height="61.1926" transform="rotate(11.4785 185.908 201.854)" fill="#F2048A"/>
<rect x="197.097" y="204.126" width="11.4165" height="61.1926" transform="rotate(11.4785 197.097 204.126)" fill="#FC44AC"/>
<rect x="165.265" y="146.2" width="23.815" height="35.7128" rx="11.9075" transform="rotate(-30.5015 165.265 146.2)" fill="#F2048A"/>
<g filter="url(#filter0_d_251_67424)">
<rect x="198.572" y="132.793" width="23.815" height="35.7128" rx="11.9075" transform="rotate(18.1542 198.572 132.793)" fill="#F2048A"/>
</g>
<path d="M241.925 177.213C242.039 178.469 241.114 179.58 239.858 179.694L153.68 187.562C152.424 187.677 151.313 186.752 151.198 185.496L150.492 177.765C149.919 171.486 154.545 165.931 160.824 165.358L228.812 159.151C235.091 158.577 240.646 163.203 241.219 169.482L241.925 177.213Z" fill="#56D7B8"/>
<rect x="184.927" y="163.157" width="11.4165" height="21.4631" transform="rotate(-5.21636 184.927 163.157)" fill="#F2048A"/>
<rect x="196.295" y="162.119" width="11.4165" height="21.4631" transform="rotate(-5.21636 196.295 162.119)" fill="#FC44AC"/>
<path d="M86.1529 184.212C88.5187 179.711 93.7006 177.464 98.6037 178.815L140.97 190.485C152.262 193.595 157.511 206.586 151.549 216.668C146.38 225.41 134.949 228.05 126.469 222.462L89.7765 198.28C85.1324 195.219 83.5654 189.136 86.1529 184.212Z" fill="#F7FCF8"/>
<defs>
<filter id="filter0_d_251_67424" x="183.024" y="129.285" width="42.5982" height="50.197" filterUnits="userSpaceOnUse" color-interpolation-filters="sRGB">
<feFlood flood-opacity="0" result="BackgroundImageFix"/>
<feColorMatrix in="SourceAlpha" type="matrix" values="0 0 0 0 0 0 0 0 0 0 0 0 0 0 0 0 0 0 127 0" result="hardAlpha"/>
<feOffset dy="0.913322"/>
<feGaussianBlur stdDeviation="3.76745"/>
<feComposite in2="hardAlpha" operator="out"/>
<feColorMatrix type="matrix" values="0 0 0 0 0.94902 0 0 0 0 0.0156863 0 0 0 0 0.541176 0 0 0 1 0"/>
<feBlend mode="normal" in2="BackgroundImageFix" result="effect1_dropShadow_251_67424"/>
<feBlend mode="normal" in="SourceGraphic" in2="effect1_dropShadow_251_67424" result="shape"/>
</filter>
<linearGradient id="paint0_linear_251_67424" x1="313.427" y1="121.641" x2="138.277" y2="236.237" gradientUnits="userSpaceOnUse">
<stop stop-color="#FFFFF3"/>
<stop offset="0.09" stop-color="#F7F5ED" stop-opacity="0.96"/>
<stop offset="0.23" stop-color="#E2DADE" stop-opacity="0.86"/>
<stop offset="0.41" stop-color="#C0B0C6" stop-opacity="0.69"/>
<stop offset="0.63" stop-color="#9174A4" stop-opacity="0.45"/>
<stop offset="0.88" stop-color="#56297A" stop-opacity="0.16"/>
<stop offset="1" stop-color="#370264" stop-opacity="0"/>
</linearGradient>
<linearGradient id="paint1_linear_251_67424" x1="295.166" y1="44.523" x2="120.016" y2="159.119" gradientUnits="userSpaceOnUse">
<stop stop-color="#00FFEE"/>
<stop offset="0.1" stop-color="#07DADA" stop-opacity="0.86"/>
<stop offset="0.29" stop-color="#1599B6" stop-opacity="0.6"/>
<stop offset="0.47" stop-color="#216399" stop-opacity="0.39"/>
<stop offset="0.63" stop-color="#2A3982" stop-opacity="0.22"/>
<stop offset="0.78" stop-color="#311B71" stop-opacity="0.1"/>
<stop offset="0.91" stop-color="#350867" stop-opacity="0.03"/>
<stop offset="1" stop-color="#370264" stop-opacity="0"/>
</linearGradient>
<linearGradient id="paint2_linear_251_67424" x1="305.459" y1="81.5371" x2="130.308" y2="196.133" gradientUnits="userSpaceOnUse">
<stop stop-color="#FF47F3"/>
<stop offset="0.09" stop-color="#F744ED" stop-opacity="0.96"/>
<stop offset="0.23" stop-color="#E23DDE" stop-opacity="0.86"/>
<stop offset="0.41" stop-color="#C031C6" stop-opacity="0.69"/>
<stop offset="0.63" stop-color="#9121A4" stop-opacity="0.45"/>
<stop offset="0.88" stop-color="#560C7A" stop-opacity="0.16"/>
<stop offset="1" stop-color="#370264" stop-opacity="0"/>
</linearGradient>
<radialGradient id="paint3_radial_251_67424" cx="0" cy="0" r="1" gradientUnits="userSpaceOnUse" gradientTransform="translate(219.945 127.346) rotate(-175.365) scale(1.14225 1.14225)">
<stop stop-color="#52DFEC"/>
<stop offset="0.94" stop-color="#408BED"/>
</radialGradient>
<radialGradient id="paint4_radial_251_67424" cx="0" cy="0" r="1" gradientUnits="userSpaceOnUse" gradientTransform="translate(224.588 85.618) rotate(-175.365) scale(48.8884 48.8885)">
<stop stop-color="#52DFEC"/>
<stop offset="0.94" stop-color="#408BED"/>
</radialGradient>
<radialGradient id="paint5_radial_251_67424" cx="0" cy="0" r="1" gradientUnits="userSpaceOnUse" gradientTransform="translate(228.548 87.3826) rotate(-175.365) scale(43.1085 43.1086)">
<stop stop-color="#52DFEC"/>
<stop offset="0.94" stop-color="#408BED"/>
</radialGradient>
<radialGradient id="paint6_radial_251_67424" cx="0" cy="0" r="1" gradientUnits="userSpaceOnUse" gradientTransform="translate(125.737 146.089) rotate(-175.365) scale(85.8747 85.8747)">
<stop stop-color="#52DFEC"/>
<stop offset="0.94" stop-color="#408BED"/>
</radialGradient>
<radialGradient id="paint7_radial_251_67424" cx="0" cy="0" r="1" gradientUnits="userSpaceOnUse" gradientTransform="translate(196.438 68.7128) rotate(-175.365) scale(196.788 196.788)">
<stop offset="0.06" stop-color="#000A57"/>
<stop offset="0.96" stop-color="#000328"/>
</radialGradient>
<radialGradient id="paint8_radial_251_67424" cx="0" cy="0" r="1" gradientUnits="userSpaceOnUse" gradientTransform="translate(211.798 72.9944) rotate(-175.645) scale(204.659 202.691)">
<stop stop-color="#52DFEC"/>
<stop offset="0.94" stop-color="#408BED"/>
</radialGradient>
<radialGradient id="paint9_radial_251_67424" cx="0" cy="0" r="1" gradientUnits="userSpaceOnUse" gradientTransform="translate(92.3943 211.895) rotate(-175.365) scale(1.14225)">
<stop offset="0.04" stop-color="#000328"/>
<stop offset="0.94" stop-color="#000A57"/>
</radialGradient>
<radialGradient id="paint10_radial_251_67424" cx="0" cy="0" r="1" gradientUnits="userSpaceOnUse" gradientTransform="translate(153.123 110.789) rotate(-175.365) scale(232.472 232.472)">
<stop offset="0.06" stop-color="#000A57"/>
<stop offset="0.96" stop-color="#000328"/>
</radialGradient>
<radialGradient id="paint11_radial_251_67424" cx="0" cy="0" r="1" gradientUnits="userSpaceOnUse" gradientTransform="translate(209.735 71.9652) rotate(-179.765) scale(113.677 113.677)">
<stop offset="0.04" stop-color="#000328"/>
<stop offset="0.94" stop-color="#000A57"/>
</radialGradient>
<radialGradient id="paint12_radial_251_67424" cx="0" cy="0" r="1" gradientUnits="userSpaceOnUse" gradientTransform="translate(209.735 71.9879) rotate(-179.765) scale(113.677 113.677)">
<stop offset="0.04" stop-color="#000328"/>
<stop offset="0.94" stop-color="#000A57"/>
</radialGradient>
<radialGradient id="paint13_radial_251_67424" cx="0" cy="0" r="1" gradientUnits="userSpaceOnUse" gradientTransform="translate(186.704 67.4882) rotate(-175.365) scale(121.079 121.079)">
<stop offset="0.04" stop-color="#000328"/>
<stop offset="0.94" stop-color="#000A57"/>
</radialGradient>
<radialGradient id="paint14_radial_251_67424" cx="0" cy="0" r="1" gradientUnits="userSpaceOnUse" gradientTransform="translate(204.92 86.7845) rotate(-133.065) scale(19.167 19.167)">
<stop offset="0.04" stop-color="#000328"/>
<stop offset="0.94" stop-color="#000A57"/>
</radialGradient>
<radialGradient id="paint15_radial_251_67424" cx="0" cy="0" r="1" gradientUnits="userSpaceOnUse" gradientTransform="translate(188.184 71.5679) rotate(-145.955) scale(11.8109)">
<stop offset="0.04" stop-color="#000328"/>
<stop offset="0.94" stop-color="#000A57"/>
</radialGradient>
<radialGradient id="paint16_radial_251_67424" cx="0" cy="0" r="1" gradientUnits="userSpaceOnUse" gradientTransform="translate(67.972 158.047) rotate(-175.365) scale(18.0705 18.0705)">
<stop stop-color="#52DFEC"/>
<stop offset="0.94" stop-color="#408BED"/>
</radialGradient>
<radialGradient id="paint17_radial_251_67424" cx="0" cy="0" r="1" gradientUnits="userSpaceOnUse" gradientTransform="translate(58.3582 176.268) rotate(-175.365) scale(28.0538 28.0537)">
<stop stop-color="#52DFEC"/>
<stop offset="0.94" stop-color="#408BED"/>
</radialGradient>
<radialGradient id="paint18_radial_251_67424" cx="0" cy="0" r="1" gradientUnits="userSpaceOnUse" gradientTransform="translate(147.586 29.5247) rotate(-175.365) scale(116.053 116.053)">
<stop stop-color="#52DFEC"/>
<stop offset="0.94" stop-color="#408BED"/>
</radialGradient>
<radialGradient id="paint19_radial_251_67424" cx="0" cy="0" r="1" gradientUnits="userSpaceOnUse" gradientTransform="translate(112.677 57.8201) rotate(-175.365) scale(46.2613 46.2613)">
<stop stop-color="#52DFEC"/>
<stop offset="0.94" stop-color="#408BED"/>
</radialGradient>
<radialGradient id="paint20_radial_251_67424" cx="0" cy="0" r="1" gradientUnits="userSpaceOnUse" gradientTransform="translate(70.6237 66.8107) rotate(-175.365) scale(15.8773 15.8774)">
<stop stop-color="#52DFEC"/>
<stop offset="0.94" stop-color="#408BED"/>
</radialGradient>
<radialGradient id="paint21_radial_251_67424" cx="0" cy="0" r="1" gradientUnits="userSpaceOnUse" gradientTransform="translate(147.104 35.4678) rotate(-175.365) scale(110.502 110.502)">
<stop stop-color="#52DFEC"/>
<stop offset="0.94" stop-color="#408BED"/>
</radialGradient>
<radialGradient id="paint22_radial_251_67424" cx="0" cy="0" r="1" gradientUnits="userSpaceOnUse" gradientTransform="translate(135.584 138.008) rotate(168.365) scale(18.9614 8.53263)">
<stop stop-color="#00F1CD"/>
<stop offset="0.12" stop-color="#00ECC9" stop-opacity="0.98"/>
<stop offset="0.25" stop-color="#00DFBE" stop-opacity="0.93"/>
<stop offset="0.38" stop-color="#00CAAC" stop-opacity="0.84"/>
<stop offset="0.52" stop-color="#00AD93" stop-opacity="0.72"/>
<stop offset="0.65" stop-color="#008672" stop-opacity="0.56"/>
<stop offset="0.79" stop-color="#00574A" stop-opacity="0.36"/>
<stop offset="0.92" stop-color="#00211C" stop-opacity="0.14"/>
<stop offset="1" stop-opacity="0"/>
</radialGradient>
<radialGradient id="paint23_radial_251_67424" cx="0" cy="0" r="1" gradientUnits="userSpaceOnUse" gradientTransform="translate(197.124 124.989) rotate(168.365) scale(1.14225 0.514014)">
<stop stop-color="#00F1CD"/>
<stop offset="0.12" stop-color="#00ECC9" stop-opacity="0.98"/>
<stop offset="0.25" stop-color="#00DFBE" stop-opacity="0.93"/>
<stop offset="0.38" stop-color="#00CAAC" stop-opacity="0.84"/>
<stop offset="0.52" stop-color="#00AD93" stop-opacity="0.72"/>
<stop offset="0.65" stop-color="#008672" stop-opacity="0.56"/>
<stop offset="0.79" stop-color="#00574A" stop-opacity="0.36"/>
<stop offset="0.92" stop-color="#00211C" stop-opacity="0.14"/>
<stop offset="1" stop-opacity="0"/>
</radialGradient>
<radialGradient id="paint24_radial_251_67424" cx="0" cy="0" r="1" gradientUnits="userSpaceOnUse" gradientTransform="translate(134.292 122.15) rotate(179.585) scale(18.0019)">
<stop stop-color="#00F1CD"/>
<stop offset="0.12" stop-color="#00ECC9" stop-opacity="0.98"/>
<stop offset="0.25" stop-color="#00DFBE" stop-opacity="0.93"/>
<stop offset="0.38" stop-color="#00CAAC" stop-opacity="0.84"/>
<stop offset="0.52" stop-color="#00AD93" stop-opacity="0.72"/>
<stop offset="0.65" stop-color="#008672" stop-opacity="0.56"/>
<stop offset="0.79" stop-color="#00574A" stop-opacity="0.36"/>
<stop offset="0.92" stop-color="#00211C" stop-opacity="0.14"/>
<stop offset="1" stop-opacity="0"/>
</radialGradient>
<radialGradient id="paint25_radial_251_67424" cx="0" cy="0" r="1" gradientUnits="userSpaceOnUse" gradientTransform="translate(190.834 109.334) rotate(179.585) scale(15.7403 15.7402)">
<stop stop-color="#00F1CD"/>
<stop offset="0.12" stop-color="#00ECC9" stop-opacity="0.98"/>
<stop offset="0.25" stop-color="#00DFBE" stop-opacity="0.93"/>
<stop offset="0.38" stop-color="#00CAAC" stop-opacity="0.84"/>
<stop offset="0.52" stop-color="#00AD93" stop-opacity="0.72"/>
<stop offset="0.65" stop-color="#008672" stop-opacity="0.56"/>
<stop offset="0.79" stop-color="#00574A" stop-opacity="0.36"/>
<stop offset="0.92" stop-color="#00211C" stop-opacity="0.14"/>
<stop offset="1" stop-opacity="0"/>
</radialGradient>
<radialGradient id="paint26_radial_251_67424" cx="0" cy="0" r="1" gradientUnits="userSpaceOnUse" gradientTransform="translate(134.292 122.149) rotate(179.585) scale(9.16087 9.1609)">
<stop offset="0.04" stop-color="#000328"/>
<stop offset="0.94" stop-color="#000A57"/>
</radialGradient>
<radialGradient id="paint27_radial_251_67424" cx="0" cy="0" r="1" gradientUnits="userSpaceOnUse" gradientTransform="translate(190.834 109.334) rotate(179.585) scale(8.88674 8.8867)">
<stop offset="0.04" stop-color="#000328"/>
<stop offset="0.94" stop-color="#000A57"/>
</radialGradient>
<radialGradient id="paint28_radial_251_67424" cx="0" cy="0" r="1" gradientUnits="userSpaceOnUse" gradientTransform="translate(171.113 148.281) rotate(165.985) scale(20.7662 14.744)">
<stop stop-color="#F2058A"/>
<stop offset="0.12" stop-color="#00ECC9" stop-opacity="0.98"/>
<stop offset="0.24" stop-color="#00DFBE" stop-opacity="0.93"/>
<stop offset="0.36" stop-color="#00CAAC" stop-opacity="0.84"/>
<stop offset="0.49" stop-color="#00AD93" stop-opacity="0.72"/>
<stop offset="0.62" stop-color="#008672" stop-opacity="0.56"/>
<stop offset="0.75" stop-color="#00574A" stop-opacity="0.36"/>
<stop offset="0.88" stop-color="#00211C" stop-opacity="0.14"/>
<stop offset="0.95" stop-opacity="0"/>
</radialGradient>
<radialGradient id="paint29_radial_251_67424" cx="0" cy="0" r="1" gradientUnits="userSpaceOnUse" gradientTransform="translate(225.239 195.715) rotate(178.925) scale(9.48045 9.48046)">
<stop stop-color="#52DFEC"/>
<stop offset="0.94" stop-color="#408BED"/>
</radialGradient>
<radialGradient id="paint30_radial_251_67424" cx="0" cy="0" r="1" gradientUnits="userSpaceOnUse" gradientTransform="translate(225.392 181.526) rotate(178.925) scale(16.5124 16.5124)">
<stop stop-color="#52DFEC"/>
<stop offset="0.94" stop-color="#408BED"/>
</radialGradient>
<radialGradient id="paint31_radial_251_67424" cx="0" cy="0" r="1" gradientUnits="userSpaceOnUse" gradientTransform="translate(226.789 181.993) rotate(178.925) scale(14.5643 14.5643)">
<stop stop-color="#52DFEC"/>
<stop offset="0.94" stop-color="#408BED"/>
</radialGradient>
<radialGradient id="paint32_radial_251_67424" cx="0" cy="0" r="1" gradientUnits="userSpaceOnUse" gradientTransform="translate(194.194 205.179) rotate(178.925) scale(29.0152 29.0152)">
<stop stop-color="#52DFEC"/>
<stop offset="0.94" stop-color="#408BED"/>
</radialGradient>
<radialGradient id="paint33_radial_251_67424" cx="0" cy="0" r="1" gradientUnits="userSpaceOnUse" gradientTransform="translate(175.175 211.135) rotate(178.925) scale(6.1046 6.1046)">
<stop stop-color="#52DFEC"/>
<stop offset="0.94" stop-color="#408BED"/>
</radialGradient>
<radialGradient id="paint34_radial_251_67424" cx="0" cy="0" r="1" gradientUnits="userSpaceOnUse" gradientTransform="translate(172.553 217.59) rotate(178.925) scale(9.48045 9.48046)">
<stop stop-color="#52DFEC"/>
<stop offset="0.94" stop-color="#408BED"/>
</radialGradient>
<radialGradient id="paint35_radial_251_67424" cx="0" cy="0" r="1" gradientUnits="userSpaceOnUse" gradientTransform="translate(197.622 165.258) rotate(178.925) scale(39.2095 39.2095)">
<stop stop-color="#52DFEC"/>
<stop offset="0.94" stop-color="#408BED"/>
</radialGradient>
<radialGradient id="paint36_radial_251_67424" cx="0" cy="0" r="1" gradientUnits="userSpaceOnUse" gradientTransform="translate(186.839 175.95) rotate(178.925) scale(15.6318 15.6318)">
<stop stop-color="#52DFEC"/>
<stop offset="0.94" stop-color="#408BED"/>
</radialGradient>
<radialGradient id="paint37_radial_251_67424" cx="0" cy="0" r="1" gradientUnits="userSpaceOnUse" gradientTransform="translate(173.002 180.38) rotate(178.925) scale(5.36403 5.36404)">
<stop stop-color="#52DFEC"/>
<stop offset="0.94" stop-color="#408BED"/>
</radialGradient>
<radialGradient id="paint38_radial_251_67424" cx="0" cy="0" r="1" gradientUnits="userSpaceOnUse" gradientTransform="translate(197.659 167.272) rotate(178.925) scale(37.3281 37.3281)">
<stop stop-color="#52DFEC"/>
<stop offset="0.94" stop-color="#408BED"/>
</radialGradient>
</defs>
</svg>
