<svg width="187" height="160" viewBox="0 0 187 160" fill="none" xmlns="http://www.w3.org/2000/svg">
<path d="M150.033 147.64C150.708 148.411 151.56 149.038 152.524 149.343C155.946 150.419 158.548 146.756 159.32 145.471C159.496 145.166 159.85 145.005 160.203 145.069C161.312 145.278 162.244 146.29 163.24 146.949C168.445 150.387 175.45 137.599 175.819 137.036C176.655 135.751 175.787 134 174.647 132.988C173.811 132.249 172.815 131.686 172.012 130.931C171.385 130.353 171.241 129.437 171.642 128.682C172.783 126.529 178.085 122.272 178.085 119.187C178.085 117.291 167.497 109.612 166.292 111.813C163.577 116.745 156.122 128.971 148.989 135.092C142.964 140.266 145.069 142.017 150.033 147.624V147.64Z" fill="#FFCC00"/>
<path d="M180.961 131.927L185.796 125.549C186.23 124.987 186.278 123.927 186.086 123.284C185.893 122.641 185.363 121.854 184.736 121.533C184.045 121.179 183.226 120.986 182.471 121.244L181.764 121.533C181.314 121.79 180.977 122.143 180.704 122.593L175.868 128.971C175.434 129.534 175.386 130.594 175.578 131.237C175.771 131.879 176.301 132.666 176.928 132.988C177.619 133.341 178.438 133.534 179.193 133.277L179.9 132.988C180.35 132.731 180.687 132.377 180.961 131.927Z" fill="#FFCC00"/>
<path d="M158.613 157.408C159.737 156.139 160.91 154.902 162.035 153.649C162.292 153.359 162.469 153.022 162.549 152.653C162.694 152.283 162.742 151.897 162.694 151.496C162.661 151.094 162.549 150.725 162.324 150.387C162.163 150.034 161.939 149.745 161.617 149.504C161.007 149.054 160.235 148.732 159.464 148.861L158.693 149.038C158.211 149.231 157.81 149.52 157.472 149.921C156.348 151.191 155.175 152.412 154.05 153.681C153.793 153.97 153.616 154.307 153.536 154.677C153.391 155.046 153.343 155.432 153.391 155.834C153.423 156.235 153.536 156.605 153.761 156.942C153.922 157.296 154.146 157.585 154.468 157.826C155.078 158.276 155.849 158.597 156.621 158.468L157.392 158.292C157.874 158.099 158.275 157.81 158.613 157.408Z" fill="#FFCC00"/>
<path d="M173.843 154.548C174.727 153.825 175.578 153.086 176.398 152.283C177.04 151.656 177.619 150.966 178.213 150.291C178.47 149.986 178.647 149.648 178.711 149.263C178.856 148.893 178.888 148.491 178.824 148.09C178.727 147.383 178.31 146.58 177.731 146.162C177.105 145.712 176.317 145.407 175.53 145.551C174.743 145.696 174.116 146.049 173.602 146.644C173.008 147.319 172.429 148.009 171.787 148.636L172.333 148.106C171.69 148.716 171 149.279 170.325 149.841C169.73 150.339 169.297 150.998 169.184 151.785C169.088 152.492 169.28 153.392 169.746 153.97C170.212 154.548 170.903 155.046 171.69 155.111C172.478 155.175 173.265 155.046 173.875 154.548H173.843Z" fill="#FFCC00"/>
<path d="M0.957134 86.6375C-0.0550223 95.6505 4.15426 103.507 10.3397 104.198C16.5251 104.888 22.3731 98.1568 23.3692 89.1438C24.3813 80.1308 20.172 72.2745 13.9866 71.5837C7.80124 70.8928 1.95322 77.6245 0.957134 86.6375Z" fill="#F7FCF8"/>
<path style="mix-blend-mode:multiply" opacity="0.25" d="M22.6944 85.8824C21.6822 94.8954 15.8503 101.627 9.66487 100.936C5.63231 100.486 2.45126 96.984 0.989258 92.116C1.80862 98.6388 5.45559 103.667 10.3396 104.214C16.525 104.905 22.3731 98.1729 23.3691 89.1599C23.7226 86.027 23.4334 83.0227 22.6462 80.42C22.8711 82.1551 22.9032 83.9866 22.6783 85.8824H22.6944Z" fill="url(#paint0_radial_2_58439)"/>
<path style="mix-blend-mode:multiply" opacity="0.25" d="M7.17473 86.7018C6.56422 92.1963 9.11872 97 12.9103 97.4178C16.7019 97.8355 20.2524 93.7226 20.8629 88.228C21.4734 82.7335 18.919 77.9297 15.1274 77.512C11.3519 77.0943 7.78523 81.2072 7.17473 86.7018Z" fill="url(#paint1_radial_2_58439)"/>
<path style="mix-blend-mode:multiply" opacity="0.25" d="M7.1747 86.7017C6.70879 90.9271 8.10654 94.7186 10.5004 96.4538C12.9103 95.056 14.8221 91.875 15.2559 88.0031C15.7218 83.7777 14.3241 79.9861 11.9302 78.251C9.52035 79.6487 7.60848 82.8298 7.1747 86.7017Z" fill="url(#paint2_radial_2_58439)"/>
<path d="M8.97404 88.0674C9.40782 43.6771 46.954 8.05882 92.8224 8.50867C138.707 8.95852 175.546 45.2998 175.112 89.69C174.678 134.08 138.98 160.412 93.0955 159.979C47.2111 159.529 8.52418 132.474 8.95796 88.0835L8.97404 88.0674Z" fill="#F7FCF8"/>
<path style="mix-blend-mode:multiply" opacity="0.25" d="M146.29 28.0449C159.111 42.3436 166.806 61.0444 166.597 81.4482C166.164 125.838 130.465 152.171 84.5807 151.737C61.4939 151.512 40.2225 144.539 24.8474 132.024C40.2707 149.696 65.3658 159.706 93.0957 159.963C138.98 160.412 174.679 134.064 175.112 89.6739C175.353 65.0769 164.123 42.9541 146.274 28.0449H146.29Z" fill="url(#paint3_radial_2_58439)"/>
<path d="M80.8532 23.0965C41.5077 22.711 9.31146 52.7061 8.95801 90.0756C8.58849 127.445 41.7808 150.243 81.1264 150.628C120.472 151.014 151.078 128.843 151.447 91.4573C151.817 54.0878 120.215 23.4821 80.8693 23.0965H80.8532Z" fill="#FFCC00"/>
<path d="M135.301 87.746C135.542 129.742 115.154 133.438 88.4363 138.418C61.7186 143.399 28.0122 131.735 20.3487 110.174C13.4564 90.7825 18.7743 49.3966 66.6027 42.6488C93.5132 38.8573 135.124 56.0961 135.301 87.73V87.746Z" fill="white"/>
<path d="M49.6369 91.3609C53.6741 91.3609 56.9469 88.0881 56.9469 84.0509C56.9469 80.0137 53.6741 76.7408 49.6369 76.7408C45.5997 76.7408 42.3269 80.0137 42.3269 84.0509C42.3269 88.0881 45.5997 91.3609 49.6369 91.3609Z" fill="#231F20"/>
<path d="M96.9995 93.0318C101.037 93.0318 104.309 89.759 104.309 85.7218C104.309 81.6846 101.037 78.4117 96.9995 78.4117C92.9623 78.4117 89.6895 81.6846 89.6895 85.7218C89.6895 89.759 92.9623 93.0318 96.9995 93.0318Z" fill="#231F20"/>
<path d="M99.2651 101.515C103.994 101.515 107.828 99.8818 107.828 97.8676C107.828 95.8535 103.994 94.2206 99.2651 94.2206C94.5358 94.2206 90.7019 95.8535 90.7019 97.8676C90.7019 99.8818 94.5358 101.515 99.2651 101.515Z" fill="#F493A4"/>
<path d="M48.0785 100.567C52.8079 100.567 56.6417 98.9339 56.6417 96.9197C56.6417 94.9056 52.8079 93.2728 48.0785 93.2728C43.3492 93.2728 39.5154 94.9056 39.5154 96.9197C39.5154 98.9339 43.3492 100.567 48.0785 100.567Z" fill="#F493A4"/>
<path d="M62.6662 102.077C62.7465 100.069 68.5624 99.0725 73.2858 99.0725C78.0092 99.0725 84.1785 100.824 84.2107 102.832C84.3231 110.046 77.1738 113.612 72.4504 113.612C67.727 113.612 62.4091 108.086 62.6662 102.077Z" fill="#D6493F"/>
<path style="mix-blend-mode:multiply" opacity="0.25" d="M13.842 69.8646C25.7629 44.7535 48.416 25.4583 79.2626 25.1209C109.692 24.7835 136.988 38.3432 141.872 66.2498C142.739 71.2463 138.755 81.9141 135.22 85.4968C118.929 101.98 89.0468 104.117 71.1011 103.748C29.3135 102.928 9.61662 78.7652 13.8259 69.8646H13.842Z" fill="url(#paint4_radial_2_58439)"/>
<path d="M80.8532 23.0965C41.5077 22.711 9.31146 52.7061 8.95801 90.0756C8.58849 127.445 41.7808 150.243 81.1264 150.628C120.472 151.014 151.078 128.843 151.447 91.4573C151.817 54.0878 120.215 23.4821 80.8693 23.0965H80.8532ZM146.9 91.8428C146.531 129.212 116.488 150.227 79.4876 149.616C41.9575 148.99 9.97017 127.895 10.3397 90.5254C10.7092 53.156 41.6684 24.9923 79.2627 25.1209C115.797 25.2655 147.27 54.4734 146.9 91.8428Z" fill="#041F8E"/>
<g style="mix-blend-mode:color-burn" opacity="0.42">
<path d="M43.9818 32.447C32.0288 38.1183 -0.585155 67.8242 21.12 86.2359C35.5151 98.446 60.6101 110.206 108.246 99.7634C155.897 89.3205 147.688 46.2958 116.295 34.9211C91.521 25.9403 55.4851 27.0006 43.9818 32.447Z" fill="#00FFFF"/>
</g>
<path style="mix-blend-mode:multiply" opacity="0.25" d="M43.9818 32.447C32.0288 38.1183 -0.585155 67.8242 21.12 86.2359C35.5151 98.446 60.6101 110.206 108.246 99.7634C155.897 89.3205 147.688 46.2958 116.295 34.9211C91.521 25.9403 55.4851 27.0006 43.9818 32.447Z" fill="url(#paint5_radial_2_58439)"/>
<path style="mix-blend-mode:multiply" opacity="0.25" d="M43.9818 32.447C32.0288 38.1183 -0.585155 67.8242 21.12 86.2359C35.5151 98.446 60.6101 110.206 108.246 99.7634C155.897 89.3205 147.688 46.2958 116.295 34.9211C91.521 25.9403 55.4851 27.0006 43.9818 32.447Z" fill="url(#paint6_radial_2_58439)"/>
<path style="mix-blend-mode:multiply" opacity="0.25" d="M134.417 101.177C133.405 110.19 138.273 118.127 145.278 118.898C152.282 119.685 158.789 113.018 159.785 104.005C160.797 94.9918 155.929 87.0552 148.925 86.284C141.92 85.4968 135.413 92.1642 134.417 101.177Z" fill="url(#paint7_radial_2_58439)"/>
<path d="M160.023 103.183C161.03 94.1798 156.828 86.3201 150.638 85.628C144.447 84.9358 138.613 91.6733 137.606 100.676C136.6 109.68 140.802 117.539 146.992 118.232C153.182 118.924 159.017 112.186 160.023 103.183Z" fill="#F7FCF8"/>
<path style="mix-blend-mode:multiply" opacity="0.25" d="M159.336 99.9079C158.323 108.921 152.491 115.653 146.306 114.962C142.273 114.512 139.092 111.01 137.63 106.142C138.45 112.664 142.097 117.693 146.981 118.239C153.166 118.93 159.014 112.198 160.01 103.185C160.364 100.053 160.075 97.0482 159.287 94.4455C159.512 96.1806 159.544 98.0122 159.319 99.9079H159.336Z" fill="url(#paint8_radial_2_58439)"/>
<path d="M143.832 100.727C143.222 106.222 145.776 111.026 149.568 111.443C153.343 111.861 156.91 107.748 157.52 102.254C158.131 96.759 155.576 91.9553 151.785 91.5376C147.993 91.1199 144.443 95.2328 143.832 100.727Z" fill="#F3A400"/>
<g style="mix-blend-mode:multiply" opacity="0.5">
<path d="M143.832 100.727C143.366 104.953 144.764 108.744 147.157 110.479C149.567 109.082 151.479 105.901 151.913 102.029C152.379 97.8033 150.981 94.0117 148.587 92.2766C146.177 93.6744 144.266 96.8554 143.832 100.727Z" fill="#F3A400"/>
</g>
<path style="mix-blend-mode:multiply" opacity="0.46" d="M147.881 29.0088C147.913 28.816 147.929 28.6072 147.913 28.3822C147.913 28.3501 147.913 28.334 147.913 28.3019C147.913 28.077 147.881 27.836 147.832 27.5629C147.832 27.5147 147.832 27.4825 147.8 27.4343C147.752 27.2094 147.704 26.9684 147.623 26.7114C147.623 26.6632 147.591 26.5989 147.575 26.5507C147.575 26.5025 147.543 26.4543 147.527 26.39C147.495 26.2936 147.463 26.1972 147.431 26.0848C147.35 25.8438 147.254 25.5868 147.142 25.3136C147.125 25.2654 147.109 25.2172 147.077 25.1851C146.804 24.5264 146.467 23.8034 146.033 23.0001C145.712 22.3896 145.342 21.747 144.924 21.0401C144.716 20.6866 144.475 20.3332 144.201 19.9797C144.105 19.8512 143.993 19.7227 143.896 19.6102C143.719 19.3853 143.543 19.1443 143.334 18.9194C143.157 18.7266 142.964 18.5338 142.788 18.341C142.627 18.1803 142.482 18.0036 142.322 17.843C142.081 17.602 141.824 17.361 141.551 17.1361C141.422 17.0075 141.293 16.8951 141.149 16.7665C140.844 16.4934 140.506 16.2203 140.169 15.9472C140.056 15.8668 139.96 15.7704 139.864 15.6901C139.494 15.4009 139.109 15.1117 138.707 14.8226C138.61 14.7583 138.53 14.6779 138.434 14.6137C137.984 14.2924 137.518 13.9711 137.036 13.6497C136.988 13.6176 136.94 13.5694 136.875 13.5373C136.361 13.1999 135.831 12.8625 135.285 12.5251C135.253 12.509 135.237 12.493 135.205 12.4769C121.356 3.99408 97.0639 -2.93034 79.1503 1.64846C60.4495 6.43612 51.2437 14.5494 46.8898 22.1165C46.8256 22.229 46.7613 22.3414 46.697 22.4539C46.4882 22.8234 46.2954 23.1929 46.1187 23.5624C46.0062 23.7713 45.9098 23.9802 45.8134 24.189C45.6688 24.4943 45.5242 24.7995 45.3957 25.0887C45.2672 25.3779 45.1547 25.6832 45.0423 25.9723C44.9619 26.1973 44.8655 26.4222 44.7852 26.6471C44.5924 27.1612 44.4318 27.6914 44.2711 28.1894C42.3592 34.7283 48.1109 37.7648 53.2841 38.1664C54.73 38.2789 56.1278 38.1664 57.3167 37.8933C63.3735 36.4473 69.6232 36.0618 75.8729 36.3991C77.9614 36.5116 80.05 36.7044 82.1225 36.9615C87.1994 37.588 92.2601 38.5841 97.2567 39.9176C98.9275 40.3674 100.582 40.8333 102.221 41.3475C103.008 41.5884 103.812 41.8455 104.599 42.1026C106.977 42.8737 109.354 43.7252 111.652 44.7374C115.267 46.344 119.235 45.0266 121.87 42.2311C121.87 42.2311 121.902 42.199 121.918 42.1829C122.095 41.9901 122.271 41.7812 122.448 41.5724C122.48 41.5242 122.512 41.4921 122.561 41.4439C122.753 41.2029 122.93 40.9458 123.107 40.6888C124.183 39.0661 125.324 37.7166 126.609 36.5598C127.461 35.7886 128.36 35.1139 129.34 34.5194C129.822 34.2142 130.336 33.941 130.867 33.6679C131.911 33.1377 133.052 32.6718 134.273 32.2702C135.108 31.9971 135.96 31.74 136.827 31.5151C139.43 30.8564 142.193 30.4869 144.844 30.6636C144.844 30.6636 144.86 30.6636 144.892 30.6636C144.924 30.6636 144.989 30.6636 145.037 30.6957C145.037 30.6957 145.053 30.6957 145.069 30.6957C145.133 30.6957 145.214 30.7118 145.294 30.7279C145.294 30.7279 145.326 30.7279 145.342 30.7279C145.439 30.7279 145.535 30.7279 145.631 30.7279H145.663C145.776 30.7279 145.888 30.7279 146.001 30.7118C146.113 30.7118 146.242 30.6797 146.354 30.6475C146.354 30.6475 146.37 30.6475 146.386 30.6475C146.499 30.6154 146.611 30.5833 146.74 30.5351C146.756 30.5351 146.772 30.5351 146.788 30.519C146.901 30.4708 146.997 30.4065 147.109 30.3423C147.125 30.3423 147.142 30.3101 147.158 30.3101C147.254 30.2298 147.35 30.1495 147.431 30.037C147.431 30.037 147.447 30.0049 147.463 29.9888C147.543 29.8764 147.623 29.7478 147.688 29.6193V29.5872C147.752 29.4426 147.8 29.2659 147.832 29.0891C147.832 29.0891 147.832 29.0891 147.832 29.0731L147.881 29.0088Z" fill="url(#paint9_radial_2_58439)"/>
<path d="M52.6737 35.9172C47.5326 35.6602 41.8773 32.9771 43.9177 26.8881C46.6811 18.5981 55.3245 7.76961 79.1504 1.6324C102.976 -4.52086 137.631 7.97847 144.121 18.2125C150.628 28.4465 143.848 27.097 143.848 27.097C140.33 26.9685 136.618 27.7075 133.293 28.8161C128.393 30.4387 124.971 32.7843 122.03 36.833C119.444 40.3996 114.737 42.456 110.575 40.8013C107.555 39.6124 104.39 38.7127 101.257 37.8612C94.7505 36.0939 88.0831 34.8568 81.3675 34.2303C73.1096 33.443 64.7553 33.6519 56.6741 35.6119C55.5013 35.9011 54.1035 36.0136 52.6576 35.9493L52.6737 35.9172Z" fill="#F7FCF8"/>
<path style="mix-blend-mode:multiply" opacity="0.25" d="M143.141 21.2812C139.623 21.1526 135.911 21.8916 132.586 23.0002C127.686 24.6229 124.264 26.9685 121.324 31.0171C118.737 34.5838 114.03 36.6402 109.869 34.9854C106.848 33.7965 103.683 32.8968 100.55 32.0453C94.0435 30.2781 87.3762 29.041 80.6606 28.4144C72.4027 27.6272 64.0484 27.836 55.9672 29.7961C54.7944 30.0853 53.3966 30.1978 51.9507 30.1335C48.866 29.9889 45.6046 28.9446 43.9338 26.84C43.9338 26.84 43.9338 26.8721 43.9177 26.8882C41.8773 32.9772 47.5326 35.6763 52.6737 35.9173C54.1035 35.9815 55.5013 35.869 56.6902 35.5799C64.7553 33.6198 73.1256 33.4109 81.3835 34.1982C88.0991 34.8408 94.7665 36.0779 101.273 37.8291C104.406 38.6806 107.571 39.5803 110.591 40.7692C114.753 42.424 119.46 40.3675 122.047 36.8009C124.987 32.7522 128.409 30.4066 133.309 28.784C136.634 27.6754 140.33 26.9364 143.864 27.0649C143.864 27.0649 149.439 28.1734 145.631 20.767C144.732 21.6025 143.141 21.2812 143.141 21.2812Z" fill="url(#paint10_radial_2_58439)"/>
<path style="mix-blend-mode:multiply" opacity="0.25" d="M122.047 36.8009C124.987 32.7522 128.409 30.4066 133.309 28.784C136.634 27.6754 140.33 26.9364 143.864 27.0649C143.864 27.0649 149.439 28.1734 145.631 20.767C144.732 21.6025 143.141 21.2812 143.141 21.2812C139.623 21.1526 135.911 21.8916 132.586 23.0002C127.686 24.6229 124.264 26.9685 121.324 31.0171C120.054 32.7683 118.271 34.15 116.295 34.9051C116.745 37.2829 116.536 39.3232 116.118 40.962C118.448 40.3033 120.584 38.8091 122.03 36.8009H122.047Z" fill="url(#paint11_radial_2_58439)"/>
<path style="mix-blend-mode:multiply" opacity="0.25" d="M118.335 3.81739C114.335 12.2199 84.0023 20.2529 64.3375 20.9437C54.8104 21.2811 51.5651 18.823 51.1474 15.7062C47.2755 19.5139 45.0745 23.4179 43.9177 26.8721C41.8773 32.9611 47.5326 35.6602 52.6737 35.9011C54.1035 35.9654 55.5013 35.853 56.6902 35.5638C64.7553 33.6037 73.1256 33.3949 81.3835 34.1821C88.0991 34.8247 94.7665 36.0618 101.273 37.813C104.406 38.6645 107.571 39.5642 110.591 40.7531C114.753 42.4079 119.46 40.3514 122.047 36.7848C124.987 32.7362 128.409 30.3905 133.309 28.7678C136.634 27.6593 140.33 26.9203 143.864 27.0488C143.864 27.0488 150.644 28.3983 144.137 18.1643C140.908 13.0714 130.706 7.43225 118.335 3.78528V3.81739Z" fill="url(#paint12_radial_2_58439)"/>
<path opacity="0.47" d="M37.8445 92.9675C30.2292 77.1586 36.013 50.8907 45.1384 37.1061C45.1384 37.1061 24.0117 47.0991 16.1875 71.921C15.079 79.9862 29.6348 91.7304 37.8445 92.9675Z" fill="#F7FCF8"/>
<g opacity="0.53">
<g style="mix-blend-mode:screen">
<path d="M28.0765 61.7995C30.1008 62.8438 30.0205 67.0692 27.8677 71.2142C25.7148 75.3592 22.341 77.8976 20.3167 76.8533C18.2923 75.809 18.3727 71.5837 20.5255 67.4387C22.6623 63.2776 26.0522 60.7552 28.0765 61.7995Z" fill="#F7FCF8"/>
</g>
<g style="mix-blend-mode:screen">
<path d="M33.9085 50.7943C34.9849 51.694 34.3423 54.2163 32.4947 56.4174C30.631 58.6184 28.2533 59.6788 27.1929 58.763C26.1165 57.8633 26.7592 55.341 28.6067 53.1399C30.4704 50.9389 32.8481 49.8785 33.9085 50.7943Z" fill="#F7FCF8"/>
</g>
</g>
<defs>
<radialGradient id="paint0_radial_2_58439" cx="0" cy="0" r="1" gradientUnits="userSpaceOnUse" gradientTransform="translate(20.9932 101.601) rotate(-15.62) scale(22.8297 22.8297)">
<stop stop-color="#52DFEC"/>
<stop offset="0.94" stop-color="#408BED"/>
</radialGradient>
<radialGradient id="paint1_radial_2_58439" cx="0" cy="0" r="1" gradientUnits="userSpaceOnUse" gradientTransform="translate(10.8217 68.9785) rotate(-15.62) scale(39.7633 39.7633)">
<stop stop-color="#52DFEC"/>
<stop offset="0.94" stop-color="#408BED"/>
</radialGradient>
<radialGradient id="paint2_radial_2_58439" cx="0" cy="0" r="1" gradientUnits="userSpaceOnUse" gradientTransform="translate(7.92347 71.0232) rotate(-15.62) scale(35.072 35.072)">
<stop stop-color="#52DFEC"/>
<stop offset="0.94" stop-color="#408BED"/>
</radialGradient>
<radialGradient id="paint3_radial_2_58439" cx="0" cy="0" r="1" gradientUnits="userSpaceOnUse" gradientTransform="translate(99.1475 101.954) rotate(-15.62) scale(69.8709 69.8709)">
<stop stop-color="#52DFEC"/>
<stop offset="0.94" stop-color="#408BED"/>
</radialGradient>
<radialGradient id="paint4_radial_2_58439" cx="0" cy="0" r="1" gradientUnits="userSpaceOnUse" gradientTransform="translate(33.0916 46.4951) rotate(-15.34) scale(127.002 125.781)">
<stop stop-color="#52DFEC"/>
<stop offset="0.94" stop-color="#408BED"/>
</radialGradient>
<radialGradient id="paint5_radial_2_58439" cx="0" cy="0" r="1" gradientUnits="userSpaceOnUse" gradientTransform="translate(77.1704 65.5098) rotate(-10.57) scale(52.9856 52.9856)">
<stop stop-color="#52DFEC"/>
<stop offset="0.94" stop-color="#408BED"/>
</radialGradient>
<radialGradient id="paint6_radial_2_58439" cx="0" cy="0" r="1" gradientUnits="userSpaceOnUse" gradientTransform="translate(77.1704 65.5098) rotate(-10.57) scale(52.9856 52.9856)">
<stop stop-color="#52DFEC"/>
<stop offset="0.94" stop-color="#408BED"/>
</radialGradient>
<radialGradient id="paint7_radial_2_58439" cx="0" cy="0" r="1" gradientUnits="userSpaceOnUse" gradientTransform="translate(147.141 102.549) rotate(-15.62) scale(14.7004 14.7004)">
<stop stop-color="#52DFEC"/>
<stop offset="0.94" stop-color="#408BED"/>
</radialGradient>
<radialGradient id="paint8_radial_2_58439" cx="0" cy="0" r="1" gradientUnits="userSpaceOnUse" gradientTransform="translate(157.649 115.609) rotate(-15.62) scale(22.8298 22.8297)">
<stop stop-color="#52DFEC"/>
<stop offset="0.94" stop-color="#408BED"/>
</radialGradient>
<radialGradient id="paint9_radial_2_58439" cx="0" cy="0" r="1" gradientUnits="userSpaceOnUse" gradientTransform="translate(63.6232 12.2441) rotate(-15.62) scale(94.4197 94.4197)">
<stop stop-color="#52DFEC"/>
<stop offset="0.94" stop-color="#408BED"/>
</radialGradient>
<radialGradient id="paint10_radial_2_58439" cx="0" cy="0" r="1" gradientUnits="userSpaceOnUse" gradientTransform="translate(95.8915 29.4467) rotate(-15.62) scale(37.6426 37.6426)">
<stop stop-color="#52DFEC"/>
<stop offset="0.94" stop-color="#408BED"/>
</radialGradient>
<radialGradient id="paint11_radial_2_58439" cx="0" cy="0" r="1" gradientUnits="userSpaceOnUse" gradientTransform="translate(130.871 30.0934) rotate(-15.62) scale(12.917 12.917)">
<stop stop-color="#52DFEC"/>
<stop offset="0.94" stop-color="#408BED"/>
</radialGradient>
<radialGradient id="paint12_radial_2_58439" cx="0" cy="0" r="1" gradientUnits="userSpaceOnUse" gradientTransform="translate(64.9297 16.9168) rotate(-15.62) scale(89.8891 89.8891)">
<stop stop-color="#52DFEC"/>
<stop offset="0.94" stop-color="#408BED"/>
</radialGradient>
</defs>
</svg>
