<svg width="407" height="351" viewBox="0 0 407 351" fill="none" xmlns="http://www.w3.org/2000/svg">
<path d="M327.411 323.503C328.888 325.192 330.753 326.564 332.864 327.233C340.358 329.59 346.058 321.568 347.747 318.753C348.134 318.085 348.908 317.733 349.682 317.874C352.11 318.331 354.151 320.548 356.332 321.99C367.732 329.52 383.072 301.513 383.882 300.281C385.711 297.467 383.811 293.632 381.313 291.415C379.484 289.796 377.302 288.565 375.543 286.911C374.171 285.645 373.854 283.639 374.734 281.985C377.232 277.271 388.843 267.947 388.843 261.192C388.843 257.04 365.656 240.222 363.017 245.042C357.071 255.843 340.745 282.619 325.124 296.024C311.929 307.353 316.539 311.189 327.411 323.468V323.503Z" fill="#FFCC00"/>
<path d="M395.14 289.092L405.731 275.124C406.681 273.893 406.787 271.571 406.364 270.163C405.942 268.756 404.781 267.032 403.409 266.328C401.896 265.554 400.101 265.132 398.448 265.695L396.9 266.328C395.915 266.891 395.176 267.665 394.578 268.65L383.987 282.619C383.037 283.85 382.931 286.172 383.354 287.58C383.776 288.987 384.937 290.711 386.309 291.415C387.822 292.189 389.617 292.611 391.27 292.048L392.818 291.415C393.803 290.852 394.542 290.078 395.14 289.092Z" fill="#FFCC00"/>
<path d="M346.198 344.895C348.661 342.115 351.23 339.406 353.692 336.662C354.255 336.028 354.642 335.29 354.818 334.48C355.135 333.671 355.241 332.827 355.135 331.947C355.065 331.068 354.818 330.258 354.326 329.519C353.974 328.745 353.481 328.112 352.778 327.584C351.441 326.599 349.752 325.895 348.063 326.177L346.374 326.564C345.319 326.986 344.439 327.619 343.7 328.499C341.237 331.279 338.669 333.953 336.206 336.732C335.643 337.366 335.256 338.104 335.08 338.914C334.763 339.723 334.658 340.567 334.763 341.447C334.834 342.327 335.08 343.136 335.572 343.875C335.924 344.649 336.417 345.282 337.121 345.81C338.458 346.795 340.146 347.499 341.835 347.217L343.524 346.83C344.58 346.408 345.459 345.775 346.198 344.895Z" fill="#FFCC00"/>
<path d="M379.554 338.632C381.489 337.049 383.354 335.431 385.149 333.672C386.556 332.299 387.823 330.786 389.124 329.309C389.687 328.64 390.074 327.901 390.215 327.057C390.532 326.248 390.602 325.368 390.461 324.488C390.25 322.94 389.336 321.181 388.069 320.266C386.697 319.281 384.973 318.613 383.249 318.929C381.525 319.246 380.152 320.02 379.027 321.322C377.725 322.8 376.458 324.312 375.051 325.685L376.247 324.524C374.84 325.861 373.327 327.092 371.849 328.323C370.547 329.414 369.597 330.857 369.351 332.581C369.14 334.129 369.562 336.099 370.582 337.366C371.603 338.633 373.116 339.723 374.84 339.864C376.564 340.005 378.288 339.723 379.625 338.632H379.554Z" fill="#FFCC00"/>
<path d="M0.934514 189.908C-1.2821 209.646 7.9362 226.851 21.4822 228.364C35.0282 229.877 47.8353 215.135 50.0168 195.396C52.2334 175.658 43.0151 158.453 29.4691 156.94C15.9231 155.427 3.11595 170.169 0.934514 189.908Z" fill="#F7FCF8"/>
<path style="mix-blend-mode:multiply" opacity="0.25" d="M48.538 188.254C46.3214 207.993 33.5495 222.735 20.0035 221.222C11.1722 220.237 4.20569 212.567 1.00391 201.906C2.79831 216.191 10.7851 227.203 21.4812 228.4C35.0272 229.913 47.8343 215.17 50.0158 195.432C50.7898 188.571 50.1565 181.991 48.4325 176.292C48.9251 180.091 48.9955 184.102 48.5029 188.254H48.538Z" fill="url(#paint0_radial_2_53905)"/>
<path style="mix-blend-mode:multiply" opacity="0.25" d="M14.5504 190.048C13.2134 202.082 18.8078 212.602 27.1113 213.516C35.4148 214.431 43.1906 205.424 44.5276 193.391C45.8646 181.358 40.2703 170.838 31.9667 169.923C23.6984 169.008 15.8874 178.015 14.5504 190.048Z" fill="url(#paint1_radial_2_53905)"/>
<path style="mix-blend-mode:multiply" opacity="0.25" d="M14.5516 190.048C13.5313 199.302 16.5924 207.605 21.8348 211.405C27.1125 208.344 31.2994 201.378 32.2494 192.898C33.2697 183.645 30.2087 175.341 24.9663 171.541C19.6886 174.602 15.5016 181.569 14.5516 190.048Z" fill="url(#paint2_radial_2_53905)"/>
<path d="M18.4919 193.039C19.4418 95.8246 101.668 17.8207 202.119 18.8059C302.606 19.791 383.284 99.3782 382.334 196.593C381.384 293.807 303.204 351.475 202.718 350.525C102.231 349.539 17.5067 290.289 18.4566 193.074L18.4919 193.039Z" fill="#F7FCF8"/>
<path style="mix-blend-mode:multiply" opacity="0.25" d="M319.213 61.59C347.29 92.9041 364.143 133.859 363.686 178.543C362.736 275.758 284.556 333.425 184.069 332.475C133.509 331.982 86.9249 316.712 53.2534 289.304C87.0305 328.006 141.989 349.926 202.717 350.489C303.204 351.475 381.383 293.772 382.333 196.557C382.861 142.69 358.267 94.2411 319.177 61.59H319.213Z" fill="url(#paint3_radial_2_53905)"/>
<path d="M175.907 50.7533C89.7405 49.9089 19.2309 115.598 18.4569 197.437C17.6476 279.276 90.3387 329.203 176.505 330.047C262.672 330.892 329.698 282.337 330.508 200.463C331.317 118.624 262.109 51.5977 175.942 50.7533H175.907Z" fill="#FFCC00"/>
<path d="M295.146 192.335C295.674 284.308 251.025 292.4 192.513 303.307C134.001 314.214 60.1844 288.67 43.4014 241.453C28.3073 198.985 39.9533 108.35 144.697 93.5727C203.631 85.2692 294.759 123.022 295.146 192.3V192.335Z" fill="white"/>
<path d="M107.542 200.252C116.384 200.252 123.551 193.085 123.551 184.243C123.551 175.402 116.384 168.234 107.542 168.234C98.7006 168.234 91.5332 175.402 91.5332 184.243C91.5332 193.085 98.7006 200.252 107.542 200.252Z" fill="#231F20"/>
<path d="M211.266 203.911C220.107 203.911 227.275 196.744 227.275 187.902C227.275 179.061 220.107 171.893 211.266 171.893C202.424 171.893 195.257 179.061 195.257 187.902C195.257 196.744 202.424 203.911 211.266 203.911Z" fill="#231F20"/>
<path d="M216.226 222.489C226.584 222.489 234.98 218.913 234.98 214.502C234.98 210.091 226.584 206.515 216.226 206.515C205.869 206.515 197.473 210.091 197.473 214.502C197.473 218.913 205.869 222.489 216.226 222.489Z" fill="#F493A4"/>
<path d="M104.129 220.413C114.486 220.413 122.883 216.837 122.883 212.426C122.883 208.015 114.486 204.439 104.129 204.439C93.7721 204.439 85.376 208.015 85.376 212.426C85.376 216.837 93.7721 220.413 104.129 220.413Z" fill="#F493A4"/>
<path d="M136.076 223.72C136.252 219.322 148.989 217.141 159.333 217.141C169.677 217.141 183.188 220.976 183.259 225.374C183.505 241.172 167.848 248.983 157.504 248.983C147.159 248.983 135.513 236.879 136.076 223.72Z" fill="#D6493F"/>
<path style="mix-blend-mode:multiply" opacity="0.25" d="M29.1527 153.175C55.2596 98.1816 104.87 55.9252 172.424 55.1863C239.063 54.4474 298.841 84.143 309.537 145.258C311.437 156.201 302.712 179.563 294.971 187.409C259.294 223.509 193.851 228.188 154.55 227.379C63.0353 225.584 19.8992 172.667 29.1175 153.175H29.1527Z" fill="url(#paint4_radial_2_53905)"/>
<path d="M175.907 50.7533C89.7405 49.9089 19.2309 115.598 18.4569 197.437C17.6476 279.276 90.3387 329.203 176.505 330.047C262.672 330.892 329.698 282.337 330.508 200.463C331.317 118.624 262.109 51.5977 175.942 50.7533H175.907ZM320.55 201.307C319.741 283.146 253.946 329.168 172.917 327.831C90.7257 326.458 20.6735 280.261 21.4828 198.422C22.292 116.583 90.0924 54.9051 172.424 55.1866C252.433 55.5032 321.36 119.468 320.55 201.307Z" fill="#041F8E"/>
<g style="mix-blend-mode:color-burn" opacity="0.42">
<path d="M95.1574 71.2307C68.9802 83.6508 -2.44414 148.707 45.09 189.028C76.6153 215.768 131.573 241.523 235.895 218.653C340.252 195.784 322.273 101.56 253.522 76.649C199.268 56.9809 120.349 59.3031 95.1574 71.2307Z" fill="#00FFFF"/>
</g>
<path style="mix-blend-mode:multiply" opacity="0.25" d="M95.1574 71.2307C68.9802 83.6508 -2.44414 148.707 45.09 189.028C76.6153 215.768 131.573 241.523 235.895 218.653C340.252 195.784 322.273 101.56 253.522 76.649C199.268 56.9809 120.349 59.3031 95.1574 71.2307Z" fill="url(#paint5_radial_2_53905)"/>
<path style="mix-blend-mode:multiply" opacity="0.25" d="M95.1574 71.2307C68.9802 83.6508 -2.44414 148.707 45.09 189.028C76.6153 215.768 131.573 241.523 235.895 218.653C340.252 195.784 322.273 101.56 253.522 76.649C199.268 56.9809 120.349 59.3031 95.1574 71.2307Z" fill="url(#paint6_radial_2_53905)"/>
<path style="mix-blend-mode:multiply" opacity="0.25" d="M293.211 221.749C290.994 241.488 301.655 258.869 316.996 260.558C332.336 262.282 346.586 247.68 348.767 227.942C350.984 208.203 340.323 190.822 324.983 189.133C309.642 187.409 295.392 202.011 293.211 221.749Z" fill="url(#paint7_radial_2_53905)"/>
<path d="M349.289 226.143C351.494 206.426 342.291 189.213 328.735 187.697C315.178 186.181 302.401 200.936 300.196 220.653C297.992 240.37 307.194 257.583 320.751 259.099C334.308 260.615 347.085 245.86 349.289 226.143Z" fill="#F7FCF8"/>
<path style="mix-blend-mode:multiply" opacity="0.25" d="M347.783 218.97C345.566 238.709 332.794 253.451 319.248 251.938C310.417 250.953 303.45 243.283 300.249 232.622C302.043 246.907 310.03 257.919 320.726 259.116C334.272 260.628 347.079 245.886 349.261 226.148C350.035 219.287 349.401 212.707 347.677 207.007C348.17 210.807 348.24 214.818 347.748 218.97H347.783Z" fill="url(#paint8_radial_2_53905)"/>
<path d="M313.829 220.764C312.492 232.797 318.087 243.318 326.39 244.232C334.658 245.147 342.469 236.14 343.806 224.107C345.143 212.074 339.549 201.554 331.245 200.639C322.942 199.724 315.166 208.731 313.829 220.764Z" fill="#F3A400"/>
<g style="mix-blend-mode:multiply" opacity="0.5">
<path d="M313.83 220.765C312.81 230.018 315.871 238.322 321.114 242.122C326.391 239.061 330.578 232.094 331.528 223.615C332.549 214.361 329.487 206.058 324.245 202.258C318.967 205.319 314.78 212.285 313.83 220.765Z" fill="#F3A400"/>
</g>
<path style="mix-blend-mode:multiply" opacity="0.46" d="M322.696 63.701C322.766 63.2788 322.802 62.8214 322.766 62.3288C322.766 62.2584 322.766 62.2232 322.766 62.1529C322.766 61.6603 322.696 61.1325 322.591 60.5344C322.591 60.4288 322.591 60.3585 322.52 60.2529C322.415 59.7604 322.309 59.2326 322.133 58.6696C322.133 58.564 322.063 58.4233 322.028 58.3178C322.028 58.2122 321.957 58.1067 321.922 57.9659C321.852 57.7548 321.781 57.5437 321.711 57.2974C321.535 56.7696 321.324 56.2067 321.078 55.6086C321.042 55.503 321.007 55.3975 320.937 55.3271C320.339 53.8845 319.6 52.3012 318.65 50.542C317.946 49.205 317.137 47.7976 316.222 46.2495C315.765 45.4754 315.237 44.7014 314.639 43.9274C314.428 43.6459 314.181 43.3644 313.97 43.1181C313.583 42.6255 313.196 42.0978 312.739 41.6052C312.352 41.183 311.93 40.7608 311.543 40.3385C311.191 39.9867 310.874 39.5997 310.522 39.2478C309.995 38.7201 309.432 38.1923 308.833 37.6997C308.552 37.4182 308.27 37.172 307.954 36.8905C307.285 36.2924 306.546 35.6942 305.808 35.096C305.561 34.9201 305.35 34.709 305.139 34.5331C304.33 33.8998 303.485 33.2665 302.606 32.6332C302.395 32.4924 302.219 32.3165 302.008 32.1757C301.022 31.472 300.002 30.7684 298.947 30.0647C298.841 29.9943 298.735 29.8888 298.595 29.8184C297.469 29.0795 296.308 28.3406 295.111 27.6017C295.041 27.5666 295.006 27.5314 294.936 27.4962C264.607 8.91883 211.408 -6.24562 172.177 3.78194C131.222 14.2669 111.062 32.035 101.527 48.6069C101.386 48.8531 101.245 49.0995 101.105 49.3457C100.647 50.155 100.225 50.9642 99.838 51.7735C99.5917 52.2309 99.3805 52.6883 99.1694 53.1457C98.8528 53.8142 98.5361 54.4827 98.2547 55.116C97.9732 55.7493 97.7269 56.4178 97.4806 57.0511C97.3047 57.5437 97.0936 58.0363 96.9176 58.5289C96.4954 59.6548 96.1436 60.8158 95.7918 61.9066C91.6048 76.2266 104.201 82.8765 115.53 83.7561C118.697 84.0024 121.758 83.7561 124.361 83.158C137.626 79.9914 151.313 79.1469 165 79.8858C169.573 80.1321 174.147 80.5543 178.686 81.1173C189.805 82.4895 200.888 84.6709 211.83 87.5912C215.489 88.5764 219.113 89.5967 222.702 90.7226C224.426 91.2504 226.185 91.8133 227.909 92.3763C233.117 94.0651 238.324 95.9299 243.355 98.1465C251.272 101.665 259.962 98.7799 265.732 92.6578C265.732 92.6578 265.803 92.5874 265.838 92.5522C266.225 92.13 266.612 91.6726 266.999 91.2152C267.07 91.1096 267.14 91.0393 267.245 90.9337C267.668 90.4059 268.055 89.843 268.442 89.2801C270.799 85.7265 273.297 82.7709 276.112 80.2377C277.977 78.5488 279.947 77.0711 282.093 75.7692C283.149 75.1007 284.275 74.5026 285.436 73.9045C287.723 72.7434 290.221 71.723 292.895 70.8434C294.724 70.2453 296.589 69.6823 298.489 69.1898C304.189 67.7472 310.241 66.938 316.046 67.325C316.046 67.325 316.081 67.325 316.152 67.325C316.222 67.325 316.363 67.325 316.468 67.3954C316.468 67.3954 316.504 67.3954 316.539 67.3954C316.68 67.3954 316.856 67.4305 317.031 67.4657C317.031 67.4657 317.102 67.4657 317.137 67.4657C317.348 67.4657 317.559 67.4657 317.77 67.4657H317.841C318.087 67.4657 318.333 67.4657 318.58 67.4305C318.826 67.4305 319.107 67.3602 319.354 67.2898C319.354 67.2898 319.389 67.2898 319.424 67.2898C319.67 67.2195 319.917 67.1491 320.198 67.0435C320.233 67.0435 320.268 67.0435 320.304 67.0083C320.55 66.9028 320.761 66.7621 321.007 66.6213C321.042 66.6213 321.078 66.5509 321.113 66.5509C321.324 66.375 321.535 66.1991 321.711 65.9528C321.711 65.9528 321.746 65.8824 321.781 65.8472C321.957 65.601 322.133 65.3195 322.274 65.038V64.9676C322.415 64.651 322.52 64.264 322.591 63.8769C322.591 63.8769 322.591 63.8769 322.591 63.8417L322.696 63.701Z" fill="url(#paint9_radial_2_53905)"/>
<path d="M114.192 78.8304C102.933 78.2675 90.5483 72.3916 95.0167 59.0567C101.068 40.9016 119.998 17.1873 172.176 3.74683C224.355 -9.7288 300.247 17.6447 314.462 40.0572C328.712 62.4697 313.864 59.5142 313.864 59.5142C306.158 59.2327 298.031 60.8512 290.748 63.2789C280.016 66.8325 272.522 71.9694 266.083 80.8359C260.419 88.6469 250.11 93.1505 240.997 89.5265C234.382 86.9228 227.451 84.9525 220.59 83.0877C206.34 79.2174 191.739 76.5082 177.032 75.1361C158.947 73.412 140.651 73.8694 122.953 78.1619C120.385 78.7952 117.324 79.0415 114.157 78.9008L114.192 78.8304Z" fill="#F7FCF8"/>
<path style="mix-blend-mode:multiply" opacity="0.25" d="M312.316 46.7773C304.61 46.4958 296.483 48.1143 289.2 50.542C278.468 54.0956 270.974 59.2326 264.535 68.099C258.871 75.91 248.561 80.4136 239.449 76.7896C232.834 74.186 225.903 72.2156 219.042 70.3508C204.792 66.4806 190.191 63.7714 175.483 62.3992C157.399 60.6751 139.103 61.1325 121.405 65.425C118.837 66.0583 115.776 66.3046 112.609 66.1639C105.853 65.8472 98.711 63.5602 95.0519 58.9511C95.0519 58.9511 95.0519 59.0214 95.0167 59.0566C90.5483 72.3915 102.933 78.3025 114.192 78.8303C117.324 78.971 120.385 78.7247 122.988 78.0914C140.651 73.7989 158.982 73.3415 177.067 75.0655C191.774 76.4729 206.375 79.1821 220.625 83.0172C227.486 84.882 234.417 86.8523 241.032 89.456C250.145 93.08 260.454 88.5763 266.119 80.7654C272.557 71.8989 280.052 66.762 290.783 63.2084C298.066 60.7807 306.158 59.1622 313.899 59.4437C313.899 59.4437 326.108 61.8714 317.769 45.6514C315.799 47.481 312.316 46.7773 312.316 46.7773Z" fill="url(#paint10_radial_2_53905)"/>
<path style="mix-blend-mode:multiply" opacity="0.25" d="M266.119 80.7654C272.558 71.8989 280.052 66.762 290.783 63.2084C298.067 60.7807 306.159 59.1622 313.9 59.4437C313.9 59.4437 326.109 61.8714 317.77 45.6514C315.8 47.481 312.316 46.7773 312.316 46.7773C304.611 46.4958 296.483 48.1143 289.2 50.542C278.469 54.0956 270.975 59.2326 264.536 68.099C261.756 71.9341 257.851 74.96 253.523 76.6137C254.508 81.821 254.051 86.2894 253.136 89.8782C258.238 88.4356 262.917 85.1635 266.084 80.7654H266.119Z" fill="url(#paint11_radial_2_53905)"/>
<path style="mix-blend-mode:multiply" opacity="0.25" d="M257.991 8.53188C249.23 26.9333 182.802 44.5256 139.736 46.0385C118.872 46.7774 111.764 41.3942 110.85 34.5684C102.37 42.9071 97.55 51.4569 95.0167 59.0215C90.5483 72.3564 102.933 78.2674 114.192 78.7952C117.324 78.9359 120.385 78.6896 122.988 78.0563C140.651 73.7638 158.982 73.3064 177.067 75.0305C191.774 76.4378 206.375 79.147 220.625 82.9821C227.486 84.8469 234.417 86.8172 241.032 89.4209C250.145 93.0449 260.454 88.5413 266.119 80.7303C272.557 71.8638 280.052 66.7269 290.783 63.1733C298.066 60.7456 306.158 59.1271 313.899 59.4086C313.899 59.4086 328.747 62.3641 314.497 39.9516C307.425 28.7981 285.083 16.4484 257.991 8.46155V8.53188Z" fill="url(#paint12_radial_2_53905)"/>
<path opacity="0.47" d="M81.7174 203.77C65.04 169.149 77.7064 111.622 97.6911 81.4341C97.6911 81.4341 51.4236 103.319 34.2888 157.679C31.8611 175.341 63.7382 201.061 81.7174 203.77Z" fill="#F7FCF8"/>
<g opacity="0.53">
<g style="mix-blend-mode:screen">
<path d="M60.3259 135.513C64.7592 137.8 64.5832 147.053 59.8685 156.131C55.1538 165.208 47.7651 170.767 43.3319 168.48C38.8986 166.193 39.0746 156.94 43.7893 147.862C48.4688 138.749 55.8927 133.226 60.3259 135.513Z" fill="#F7FCF8"/>
</g>
<g style="mix-blend-mode:screen">
<path d="M73.0975 111.411C75.4548 113.382 74.0475 118.906 70.0013 123.726C65.9199 128.546 60.7126 130.868 58.3904 128.863C56.033 126.893 57.4404 121.369 61.4866 116.548C65.568 111.728 70.7753 109.406 73.0975 111.411Z" fill="#F7FCF8"/>
</g>
</g>
<defs>
<radialGradient id="paint0_radial_2_53905" cx="0" cy="0" r="1" gradientUnits="userSpaceOnUse" gradientTransform="translate(44.8124 222.677) rotate(-15.62) scale(49.997 49.9971)">
<stop stop-color="#52DFEC"/>
<stop offset="0.94" stop-color="#408BED"/>
</radialGradient>
<radialGradient id="paint1_radial_2_53905" cx="0" cy="0" r="1" gradientUnits="userSpaceOnUse" gradientTransform="translate(22.5373 151.235) rotate(-15.62) scale(87.0815 87.0814)">
<stop stop-color="#52DFEC"/>
<stop offset="0.94" stop-color="#408BED"/>
</radialGradient>
<radialGradient id="paint2_radial_2_53905" cx="0" cy="0" r="1" gradientUnits="userSpaceOnUse" gradientTransform="translate(16.1914 155.713) rotate(-15.62) scale(76.8076 76.8076)">
<stop stop-color="#52DFEC"/>
<stop offset="0.94" stop-color="#408BED"/>
</radialGradient>
<radialGradient id="paint3_radial_2_53905" cx="0" cy="0" r="1" gradientUnits="userSpaceOnUse" gradientTransform="translate(215.97 223.451) rotate(-15.62) scale(153.017 153.017)">
<stop stop-color="#52DFEC"/>
<stop offset="0.94" stop-color="#408BED"/>
</radialGradient>
<radialGradient id="paint4_radial_2_53905" cx="0" cy="0" r="1" gradientUnits="userSpaceOnUse" gradientTransform="translate(71.3094 101.996) rotate(-15.34) scale(278.134 275.46)">
<stop stop-color="#52DFEC"/>
<stop offset="0.94" stop-color="#408BED"/>
</radialGradient>
<radialGradient id="paint5_radial_2_53905" cx="0" cy="0" r="1" gradientUnits="userSpaceOnUse" gradientTransform="translate(167.84 143.638) rotate(-10.57) scale(116.038 116.038)">
<stop stop-color="#52DFEC"/>
<stop offset="0.94" stop-color="#408BED"/>
</radialGradient>
<radialGradient id="paint6_radial_2_53905" cx="0" cy="0" r="1" gradientUnits="userSpaceOnUse" gradientTransform="translate(167.84 143.638) rotate(-10.57) scale(116.038 116.038)">
<stop stop-color="#52DFEC"/>
<stop offset="0.94" stop-color="#408BED"/>
</radialGradient>
<radialGradient id="paint7_radial_2_53905" cx="0" cy="0" r="1" gradientUnits="userSpaceOnUse" gradientTransform="translate(321.076 224.754) rotate(-15.62) scale(32.1938 32.1938)">
<stop stop-color="#52DFEC"/>
<stop offset="0.94" stop-color="#408BED"/>
</radialGradient>
<radialGradient id="paint8_radial_2_53905" cx="0" cy="0" r="1" gradientUnits="userSpaceOnUse" gradientTransform="translate(344.089 253.356) rotate(-15.62) scale(49.9971 49.9971)">
<stop stop-color="#52DFEC"/>
<stop offset="0.94" stop-color="#408BED"/>
</radialGradient>
<radialGradient id="paint9_radial_2_53905" cx="0" cy="0" r="1" gradientUnits="userSpaceOnUse" gradientTransform="translate(138.173 26.9863) rotate(-15.62) scale(206.779 206.779)">
<stop stop-color="#52DFEC"/>
<stop offset="0.94" stop-color="#408BED"/>
</radialGradient>
<radialGradient id="paint10_radial_2_53905" cx="0" cy="0" r="1" gradientUnits="userSpaceOnUse" gradientTransform="translate(208.839 64.6599) rotate(-15.62) scale(82.4371 82.4371)">
<stop stop-color="#52DFEC"/>
<stop offset="0.94" stop-color="#408BED"/>
</radialGradient>
<radialGradient id="paint11_radial_2_53905" cx="0" cy="0" r="1" gradientUnits="userSpaceOnUse" gradientTransform="translate(285.445 66.0761) rotate(-15.62) scale(28.2883 28.2883)">
<stop stop-color="#52DFEC"/>
<stop offset="0.94" stop-color="#408BED"/>
</radialGradient>
<radialGradient id="paint12_radial_2_53905" cx="0" cy="0" r="1" gradientUnits="userSpaceOnUse" gradientTransform="translate(141.033 37.2196) rotate(-15.62) scale(196.857 196.857)">
<stop stop-color="#52DFEC"/>
<stop offset="0.94" stop-color="#408BED"/>
</radialGradient>
</defs>
</svg>
