<svg width="81" height="73" viewBox="0 0 81 73" fill="none" xmlns="http://www.w3.org/2000/svg">
<path d="M64.98 67.4058C65.2764 67.7434 65.6552 68.0234 66.0834 68.1634C67.5986 68.6411 68.7515 67.0188 69.0973 66.4506C69.1797 66.3188 69.3361 66.2447 69.4844 66.2777C69.9784 66.3765 70.3902 66.8212 70.8349 67.1094C73.1406 68.6328 76.2451 62.9673 76.4015 62.7202C76.7721 62.1521 76.3851 61.378 75.8828 60.9251C75.5122 60.5957 75.0675 60.3487 74.7134 60.011C74.4334 59.7558 74.3675 59.3522 74.5487 59.0146C75.0593 58.0594 77.4062 56.1737 77.4062 54.8067C77.4062 53.9668 72.7124 50.5658 72.1771 51.5375C70.9749 53.728 67.6727 59.1382 64.5106 61.8556C61.8425 64.1449 62.7731 64.9272 64.9717 67.4058H64.98Z" fill="#FFCC00"/>
<path d="M78.6825 60.4475C79.3989 59.5087 80.1071 58.5617 80.8235 57.6229C81.0129 57.3677 81.0376 56.9065 80.9552 56.6183C80.8729 56.3301 80.6341 55.9842 80.3541 55.836C80.0494 55.6796 79.6871 55.5972 79.3495 55.7043L79.0366 55.836C78.8389 55.9513 78.6825 56.1078 78.5672 56.3054L76.4261 59.1299C76.2367 59.3852 76.2121 59.8463 76.2944 60.1346C76.3768 60.4228 76.6156 60.7686 76.8955 60.9168C77.2002 61.0733 77.5625 61.1557 77.9002 61.0486L78.2131 60.9168C78.4107 60.8015 78.5672 60.6451 78.6825 60.4475Z" fill="#FFCC00"/>
<path d="M68.7844 71.7373C69.2785 71.1773 69.7973 70.6339 70.2996 70.0739C70.4149 69.9421 70.489 69.7939 70.5219 69.6292C70.5878 69.4645 70.6043 69.2998 70.5796 69.1186C70.5713 68.9375 70.5137 68.7728 70.4149 68.6328C70.349 68.4764 70.2419 68.3446 70.1019 68.2458C69.8302 68.0399 69.4926 67.9082 69.1467 67.9576L68.8091 68.0399C68.595 68.1222 68.4138 68.254 68.2738 68.427C67.7715 68.9869 67.2527 69.5304 66.7587 70.0903C66.6434 70.2221 66.5693 70.3703 66.5363 70.535C66.4704 70.6997 66.454 70.8644 66.4787 71.0456C66.4869 71.2268 66.5446 71.3914 66.6434 71.5314C66.7093 71.6879 66.8163 71.8197 66.9563 71.9185C67.228 72.1243 67.5657 72.2561 67.9115 72.2067L68.2491 72.1243C68.4632 72.042 68.6444 71.9102 68.7844 71.7373Z" fill="#FFCC00"/>
<path d="M75.5286 70.4692C75.9156 70.148 76.2944 69.8186 76.6567 69.4645C76.9449 69.1845 77.2002 68.8798 77.4637 68.5834C77.579 68.4516 77.6531 68.2952 77.686 68.1222C77.7519 67.9575 77.7684 67.7847 77.7355 67.6035C77.6943 67.2906 77.5131 66.9365 77.2496 66.7471C76.9696 66.5494 76.6238 66.4177 76.2779 66.4753C75.9321 66.5329 75.6521 66.6894 75.4215 66.9612C75.158 67.2576 74.9027 67.5705 74.6145 67.8423L74.8533 67.6117C74.5733 67.8834 74.2604 68.1305 73.964 68.3775C73.7004 68.5999 73.5028 68.8881 73.4534 69.234C73.4122 69.5469 73.4946 69.9504 73.7004 70.1974C73.9063 70.4445 74.211 70.675 74.5569 70.708C74.9027 70.7409 75.2568 70.6833 75.5203 70.4609L75.5286 70.4692Z" fill="#FFCC00"/>
<path d="M0.0656574 38.889C-0.379018 42.8828 1.48202 46.3661 4.22418 46.6708C6.96635 46.9755 9.55206 43.9945 9.99673 40.0007C10.4414 36.0069 8.58034 32.5236 5.83818 32.2189C3.09602 31.9142 0.510333 34.8951 0.0656574 38.889Z" fill="#F7FCF8"/>
<path style="mix-blend-mode:multiply" opacity="0.25" d="M9.70048 38.5514C9.25581 42.5452 6.67012 45.5262 3.92796 45.2215C2.14103 45.0239 0.732885 43.4675 0.0905762 41.31C0.452904 44.2004 2.06691 46.4238 4.23264 46.6708C6.9748 46.9755 9.56051 43.9945 10.0052 40.0007C10.1616 38.609 10.0299 37.2832 9.68402 36.1304C9.78284 36.8962 9.79107 37.7114 9.70048 38.5514Z" fill="url(#paint0_radial_289_20433)"/>
<path style="mix-blend-mode:multiply" opacity="0.25" d="M2.82409 38.9137C2.55234 41.3512 3.68872 43.4758 5.36037 43.6569C7.03202 43.8381 8.61309 42.0182 8.88483 39.589C9.15658 37.1515 8.0202 35.0269 6.34855 34.8458C4.6769 34.6564 3.09584 36.4845 2.82409 38.9137Z" fill="url(#paint1_radial_289_20433)"/>
<path style="mix-blend-mode:multiply" opacity="0.25" d="M2.82429 38.9137C2.61842 40.783 3.23601 42.4711 4.29828 43.2369C5.3688 42.6193 6.20874 41.2112 6.40637 39.4901C6.61224 37.6208 5.99465 35.9327 4.93237 35.1669C3.86186 35.7845 3.02192 37.1926 2.82429 38.9137Z" fill="url(#paint2_radial_289_20433)"/>
<path d="M3.61475 39.523C3.80414 19.8585 20.4383 4.07254 40.7698 4.27018C61.1013 4.46781 77.4226 20.5667 77.2332 40.2394C77.0438 59.904 61.2249 71.5726 40.9016 71.3749C20.57 71.1773 3.43359 59.1875 3.62299 39.523H3.61475Z" fill="#F7FCF8"/>
<path style="mix-blend-mode:multiply" opacity="0.25" d="M64.453 12.9332C70.1349 19.2657 73.5441 27.5498 73.4535 36.5915C73.2641 56.256 57.4452 67.9246 37.1219 67.727C26.8944 67.6282 17.4739 64.5402 10.6555 58.99C17.4903 66.8212 28.6072 71.2514 40.8934 71.3667C61.225 71.5644 77.0356 59.8958 77.225 40.2312C77.3321 29.3367 72.3583 19.5374 64.453 12.9249V12.9332Z" fill="url(#paint3_radial_289_20433)"/>
<path d="M4.22411 40.6018C4.38057 24.437 18.0502 11.4673 34.7585 11.6238C51.4667 11.7885 64.8811 25.0217 64.7246 41.1865C64.5682 57.3512 51.5655 66.9447 34.8573 66.78C18.149 66.6153 4.05943 56.7583 4.21589 40.6018H4.22411Z" fill="url(#paint4_radial_289_20433)"/>
<path style="mix-blend-mode:multiply" opacity="0.25" d="M3.52443 39.9677C3.68913 23.4077 17.9434 10.1251 35.3764 10.2898C52.8093 10.4627 66.8083 24.0171 66.6518 40.5771C66.4871 57.1371 52.9328 66.9611 35.4999 66.7882C18.067 66.6153 3.36797 56.5195 3.52443 39.9595V39.9677Z" fill="url(#paint5_radial_289_20433)"/>
<path style="mix-blend-mode:screen" d="M29.8836 47.659C19.4667 47.5601 10.0708 43.6898 4.51241 36.8715C4.33948 38.0902 4.23243 39.3337 4.22419 40.6018C4.06773 56.7666 18.1573 66.6236 34.8656 66.78C51.5738 66.9447 64.5765 57.3512 64.7329 41.1865C64.7906 35.0598 62.8966 29.3532 59.6109 24.6182C58.1781 39.2266 45.6943 47.8072 29.8918 47.659H29.8836Z" fill="url(#paint6_radial_289_20433)"/>
<path d="M58.9276 23.9347C58.8699 24.4288 58.7958 24.9147 58.7135 25.4005C60.0969 28.6615 60.8298 32.2271 60.7557 35.9821C60.4427 51.2164 47.6542 60.3898 31.3495 60.4063C22.2007 60.4145 13.8919 57.5406 8.41577 52.3198C13.5131 59.7475 23.3206 63.9308 34.3552 63.9225C50.6599 63.9061 63.4402 54.7326 63.7614 39.4984C63.8849 33.7176 62.0897 28.3568 58.9358 23.9347H58.9276Z" fill="url(#paint7_radial_289_20433)"/>
<path style="mix-blend-mode:screen" d="M19.0221 36.6985C18.8739 30.7531 19.9362 24.1159 23.4112 17.4951C23.4112 17.4951 13.7107 21.1185 9.32983 31.7824C12.1708 34.3187 15.4482 35.8504 19.0221 36.7068V36.6985Z" fill="url(#paint8_radial_289_20433)"/>
<path style="mix-blend-mode:screen" d="M19.1208 38.8066C15.2505 37.9584 11.6684 36.4103 8.57211 33.8246C5.23704 44.0686 9.25559 50.8787 11.9236 53.3079C14.7152 55.8525 20.9818 58.2488 24.7698 58.3064C24.7698 58.3064 19.936 50.0388 19.1208 38.8066Z" fill="url(#paint9_radial_289_20433)"/>
<path style="mix-blend-mode:screen" opacity="0.45" d="M19.9444 17.841C15.4236 19.982 5.47605 26.1416 9.66753 35.0104C12.7144 41.4664 23.4524 45.2544 41.47 41.31C59.4876 37.3655 52.6446 20.822 43.1252 17.8904C33.5976 14.9588 24.3006 15.7741 19.9527 17.841H19.9444Z" fill="url(#paint10_radial_289_20433)"/>
<path style="mix-blend-mode:screen" d="M15.7283 26.0181C16.5847 26.5534 16.3871 28.4144 15.2836 30.1684C14.1802 31.9224 12.5991 32.9106 11.7427 32.3753C10.8863 31.8401 11.0839 29.979 12.1874 28.225C13.2908 26.471 14.8719 25.4829 15.7283 26.0181Z" fill="url(#paint11_radial_289_20433)"/>
<path style="mix-blend-mode:screen" d="M19.4834 21.7031C19.9281 22.1395 19.5493 23.2348 18.6435 24.1323C17.7377 25.0382 16.6507 25.4087 16.2142 24.9723C15.7696 24.5359 16.1484 23.4406 17.0542 22.5431C17.96 21.6372 19.047 21.2667 19.4834 21.7031Z" fill="url(#paint12_radial_289_20433)"/>
<path style="mix-blend-mode:multiply" opacity="0.25" d="M59.1992 45.3285C58.7545 49.3224 60.912 52.8386 64.0165 53.1845C67.121 53.5304 70.0031 50.5741 70.4478 46.5885C70.8925 42.5946 68.735 39.0784 65.6305 38.7325C62.526 38.3867 59.6439 41.3429 59.1992 45.3285Z" fill="url(#paint13_radial_289_20433)"/>
<path d="M70.5487 46.2273C70.995 42.2363 69.1327 38.7523 66.3892 38.4456C63.6457 38.1388 61.0599 41.1254 60.6137 45.1164C60.1674 49.1073 62.0297 52.5913 64.7732 52.898C67.5167 53.2048 70.1025 50.2182 70.5487 46.2273Z" fill="#F7FCF8"/>
<path style="mix-blend-mode:multiply" opacity="0.25" d="M70.242 44.7685C69.7973 48.7624 67.2116 51.7434 64.4695 51.4387C62.6825 51.2411 61.2744 49.6847 60.6321 47.5272C60.9944 50.4176 62.6084 52.6409 64.7741 52.888C67.5163 53.1927 70.102 50.2117 70.5467 46.2179C70.7032 44.8262 70.5714 43.5004 70.2255 42.3475C70.3243 43.1134 70.3326 43.9286 70.242 44.7685Z" fill="url(#paint14_radial_289_20433)"/>
<path d="M63.3658 45.1309C63.0941 47.5684 64.2305 49.6929 65.9021 49.8741C67.5738 50.0635 69.1548 48.2354 69.4266 45.8061C69.6983 43.3687 68.5619 41.2441 66.8903 41.0629C65.2186 40.8818 63.6376 42.7017 63.3658 45.1309Z" fill="#F3A400"/>
<g style="mix-blend-mode:multiply" opacity="0.5">
<path d="M63.366 45.1309C63.1602 47.0002 63.7778 48.6883 64.8401 49.4541C65.9106 48.8365 66.7505 47.4284 66.9481 45.7073C67.154 43.838 66.5364 42.1499 65.4741 41.3841C64.4036 42.0017 63.5637 43.4098 63.366 45.1309Z" fill="#F3A400"/>
</g>
<path style="mix-blend-mode:multiply" opacity="0.46" d="M65.1611 13.3531C65.1776 13.2708 65.1776 13.1802 65.1776 13.0731C65.1776 13.0567 65.1776 13.0484 65.1776 13.032C65.1776 12.9331 65.1611 12.8261 65.1364 12.7026C65.1364 12.6861 65.1364 12.6614 65.1282 12.6449C65.1117 12.5461 65.087 12.4391 65.0541 12.3238C65.0541 12.2991 65.0376 12.2744 65.0294 12.2497C65.0294 12.2249 65.0129 12.2002 65.0047 12.1838C64.9882 12.1426 64.98 12.1014 64.9635 12.052C64.9223 11.945 64.8811 11.8297 64.8317 11.7062C64.8317 11.6897 64.8153 11.665 64.807 11.6485C64.6835 11.3603 64.5353 11.0392 64.3459 10.6768C64.2059 10.4051 64.0412 10.1168 63.8518 9.81216C63.7612 9.6557 63.6542 9.49928 63.5307 9.34282C63.4895 9.28518 63.4401 9.22753 63.3907 9.17812C63.3083 9.0793 63.2342 8.97225 63.1436 8.87344C63.0695 8.79109 62.9789 8.70051 62.8966 8.61816C62.8307 8.54405 62.7648 8.46992 62.6907 8.39581C62.5837 8.28876 62.4684 8.1817 62.3531 8.08289C62.2954 8.02524 62.2378 7.97582 62.1802 7.91818C62.0402 7.79466 61.8919 7.67114 61.7437 7.55585C61.6943 7.51468 61.6531 7.48173 61.6037 7.44055C61.439 7.3088 61.2661 7.1853 61.0932 7.05355C61.052 7.02061 61.0108 6.98768 60.9697 6.96298C60.772 6.82299 60.5661 6.67474 60.352 6.53475C60.3273 6.51828 60.3026 6.50182 60.2862 6.48535C60.0638 6.33712 59.825 6.18892 59.5862 6.04069C59.578 6.04069 59.5615 6.0242 59.5533 6.01596C53.4184 2.25269 42.6556 -0.810637 34.7173 1.2151C26.4332 3.33143 22.357 6.93001 20.4219 10.2815C20.3889 10.331 20.3642 10.3804 20.3313 10.4298C20.2407 10.5945 20.1501 10.7592 20.076 10.9156C20.0266 11.0062 19.9854 11.0968 19.9443 11.1874C19.8784 11.3191 19.8207 11.4591 19.7631 11.5909C19.7054 11.7226 19.656 11.8544 19.6066 11.9779C19.5655 12.0767 19.5243 12.1756 19.4914 12.2744C19.409 12.505 19.3349 12.7355 19.269 12.9578C18.4208 15.8565 20.9654 17.1987 23.2628 17.3799C23.9052 17.4293 24.5228 17.3799 25.0498 17.2646C27.7343 16.6223 30.5012 16.4494 33.2681 16.5976C34.1903 16.647 35.1209 16.7294 36.0431 16.8446C38.2912 17.1246 40.5393 17.5693 42.7462 18.1539C43.4873 18.3516 44.2202 18.5657 44.9449 18.788C45.299 18.8951 45.6448 19.0103 45.9989 19.1256C47.053 19.4715 48.107 19.8421 49.1281 20.295C50.7339 21.0114 52.4879 20.4267 53.6572 19.1833L53.6737 19.1668C53.756 19.0845 53.8302 18.9939 53.9043 18.8951C53.9207 18.8786 53.9372 18.8621 53.9537 18.8374C54.036 18.7304 54.1184 18.6233 54.1925 18.508C54.6701 17.7916 55.1724 17.1905 55.7406 16.6799C56.1194 16.3423 56.5147 16.0377 56.9511 15.7741C57.1652 15.6424 57.3958 15.5189 57.6264 15.4036C58.0957 15.173 58.5898 14.9671 59.1333 14.786C59.5039 14.6624 59.8827 14.5471 60.2615 14.4483C61.4143 14.1519 62.6331 13.9954 63.8189 14.0695C63.8189 14.0695 63.8271 14.0695 63.8436 14.0695C63.86 14.0695 63.8847 14.0696 63.9095 14.0778C63.9095 14.0778 63.9095 14.0778 63.9177 14.0778C63.9506 14.0778 63.9836 14.0777 64.0165 14.086C64.0165 14.086 64.0247 14.086 64.033 14.086C64.0741 14.086 64.1153 14.086 64.1647 14.086C64.1647 14.086 64.173 14.086 64.1812 14.086C64.2306 14.086 64.28 14.086 64.3294 14.086C64.3788 14.086 64.4365 14.0695 64.4859 14.0613C64.4859 14.0613 64.4859 14.0613 64.4941 14.0613C64.5435 14.0448 64.6012 14.0284 64.6506 14.0119C64.6506 14.0119 64.667 14.0119 64.6753 14.0037C64.7247 13.9789 64.7741 13.9543 64.8153 13.9213C64.8153 13.9213 64.8317 13.9131 64.84 13.9048C64.8812 13.8719 64.9223 13.8307 64.9635 13.7895C64.9635 13.7895 64.9717 13.7731 64.98 13.7649C65.0129 13.7155 65.0541 13.6578 65.0788 13.6002C65.0788 13.6002 65.0788 13.5919 65.0788 13.5837C65.1035 13.5178 65.1282 13.4437 65.1447 13.3613C65.1447 13.3613 65.1447 13.3614 65.1447 13.3531H65.1611Z" fill="url(#paint15_radial_289_20433)"/>
<path d="M22.9829 16.4164C20.7019 16.3011 18.1986 15.1153 19.1044 12.4144C20.3314 8.74167 24.1605 3.94904 34.7174 1.22335C45.2743 -1.50235 60.6239 4.03142 63.506 8.56875C66.3882 13.1061 63.3825 12.5049 63.3825 12.5049C61.8179 12.4473 60.1792 12.7767 58.7052 13.2625C56.5312 13.9789 55.016 15.0165 53.7149 16.8117C52.5703 18.3927 50.4787 19.2986 48.6341 18.5657C47.3001 18.0386 45.8919 17.6352 44.5085 17.2646C41.6264 16.4823 38.6701 15.9388 35.6973 15.6506C32.0411 15.3047 28.3355 15.3953 24.7616 16.2682C24.2429 16.3917 23.617 16.4494 22.9829 16.4164Z" fill="#F7FCF8"/>
<path style="mix-blend-mode:multiply" opacity="0.25" d="M63.0614 9.93571C61.4968 9.87806 59.8581 10.2074 58.3841 10.6933C56.2101 11.4097 54.6949 12.4473 53.3938 14.2424C52.2492 15.8235 50.1576 16.7293 48.313 15.9964C46.979 15.4694 45.5708 15.066 44.1874 14.6954C41.3053 13.9131 38.349 13.3696 35.3763 13.0814C31.72 12.7355 28.0144 12.8261 24.4406 13.699C23.9218 13.8225 23.2959 13.8801 22.6619 13.8472C21.2949 13.7813 19.8538 13.3202 19.1127 12.3814C19.1127 12.3814 19.1127 12.3979 19.1127 12.4061C18.2069 15.1071 20.7102 16.2929 22.9912 16.4082C23.6253 16.4411 24.2429 16.3835 24.7699 16.26C28.3438 15.3953 32.0494 15.2965 35.7057 15.6424C38.6866 15.9223 41.6346 16.4741 44.5168 17.2564C45.9002 17.6352 47.3084 18.0304 48.6424 18.5574C50.487 19.2903 52.5704 18.3846 53.7232 16.8035C55.0243 15.0083 56.5395 13.9707 58.7135 13.2543C60.1875 12.7685 61.8262 12.439 63.3908 12.4967C63.3908 12.4967 65.8612 12.9908 64.1731 9.70511C63.7696 10.0757 63.0696 9.93571 63.0696 9.93571H63.0614Z" fill="url(#paint16_radial_289_20433)"/>
<path style="mix-blend-mode:multiply" opacity="0.25" d="M53.7148 16.8035C55.0159 15.0083 56.5311 13.9707 58.7051 13.2543C60.1791 12.7685 61.8178 12.439 63.3824 12.4967C63.3824 12.4967 65.8528 12.9908 64.1647 9.70511C63.7612 10.0757 63.0612 9.93571 63.0612 9.93571C61.4966 9.87806 59.8579 10.2074 58.3839 10.6933C56.21 11.4097 54.6947 12.4473 53.3937 14.2424C52.8337 15.0165 52.0432 15.6259 51.1703 15.9635C51.3679 17.0176 51.2774 17.9234 51.0962 18.6481C52.1255 18.3598 53.0725 17.6928 53.7148 16.8035Z" fill="url(#paint17_radial_289_20433)"/>
<path style="mix-blend-mode:multiply" opacity="0.25" d="M52.068 2.19504C50.2975 5.91713 36.8502 9.48279 28.1461 9.77924C23.9217 9.92746 22.4888 8.84048 22.3077 7.46528C20.5949 9.1534 19.6149 10.8827 19.1044 12.4144C18.1986 15.1153 20.7019 16.3011 22.9829 16.4164C23.617 16.4494 24.2346 16.3917 24.7616 16.2682C28.3355 15.4036 32.0411 15.3047 35.6973 15.6506C38.6783 15.9306 41.6264 16.4823 44.5085 17.2646C45.8919 17.6434 47.3001 18.0386 48.6341 18.5657C50.4787 19.2986 52.5621 18.3927 53.7149 16.8117C55.016 15.0165 56.5312 13.9789 58.7052 13.2625C60.1792 12.7767 61.8179 12.4473 63.3825 12.5049C63.3825 12.5049 66.3882 13.1061 63.506 8.56876C62.0732 6.31244 57.5523 3.80905 52.0762 2.20328L52.068 2.19504Z" fill="url(#paint18_radial_289_20433)"/>
<path d="M39.5594 46.2261C43.084 46.2261 45.9413 45.0058 45.9413 43.5004C45.9413 41.9951 43.084 40.7747 39.5594 40.7747C36.0348 40.7747 33.1775 41.9951 33.1775 43.5004C33.1775 45.0058 36.0348 46.2261 39.5594 46.2261Z" fill="url(#paint19_radial_289_20433)"/>
<path d="M16.8809 45.8473C20.4056 45.8473 23.2628 44.627 23.2628 43.1216C23.2628 41.6163 20.4056 40.3959 16.8809 40.3959C13.3563 40.3959 10.499 41.6163 10.499 43.1216C10.499 44.627 13.3563 45.8473 16.8809 45.8473Z" fill="url(#paint20_radial_289_20433)"/>
<path d="M38.9499 44.2663C42.5337 44.2663 45.4389 41.3611 45.4389 37.7773C45.4389 34.1935 42.5337 31.2883 38.9499 31.2883C35.3661 31.2883 32.4609 34.1935 32.4609 37.7773C32.4609 41.3611 35.3661 44.2663 38.9499 44.2663Z" fill="url(#paint21_radial_289_20433)"/>
<path d="M18.0585 42.8005C21.192 42.8005 23.7322 40.2603 23.7322 37.1268C23.7322 33.9933 21.192 31.453 18.0585 31.453C14.925 31.453 12.3848 33.9933 12.3848 37.1268C12.3848 40.2603 14.925 42.8005 18.0585 42.8005Z" fill="url(#paint22_radial_289_20433)"/>
<path style="mix-blend-mode:screen" opacity="0.45" d="M38.9501 41.0794C40.7738 41.0794 42.2522 39.601 42.2522 37.7773C42.2522 35.9536 40.7738 34.4752 38.9501 34.4752C37.1264 34.4752 35.6479 35.9536 35.6479 37.7773C35.6479 39.601 37.1264 41.0794 38.9501 41.0794Z" fill="url(#paint23_radial_289_20433)"/>
<path style="mix-blend-mode:screen" opacity="0.45" d="M18.0585 40.3301C19.8277 40.3301 21.2618 38.8959 21.2618 37.1268C21.2618 35.3576 19.8277 33.9235 18.0585 33.9235C16.2894 33.9235 14.8552 35.3576 14.8552 37.1268C14.8552 38.8959 16.2894 40.3301 18.0585 40.3301Z" fill="url(#paint24_radial_289_20433)"/>
<g style="mix-blend-mode:screen">
<path d="M38.9501 41.0794C40.7738 41.0794 42.2522 39.601 42.2522 37.7773C42.2522 35.9536 40.7738 34.4752 38.9501 34.4752C37.1264 34.4752 35.6479 35.9536 35.6479 37.7773C35.6479 39.601 37.1264 41.0794 38.9501 41.0794Z" fill="white"/>
</g>
<g style="mix-blend-mode:screen">
<path d="M18.0585 40.3301C19.8277 40.3301 21.2618 38.8959 21.2618 37.1268C21.2618 35.3576 19.8277 33.9235 18.0585 33.9235C16.2894 33.9235 14.8552 35.3576 14.8552 37.1268C14.8552 38.8959 16.2894 40.3301 18.0585 40.3301Z" fill="white"/>
</g>
<g style="mix-blend-mode:screen">
<path d="M39.5594 45.1227C41.656 45.1227 43.3556 44.3964 43.3556 43.5004C43.3556 42.6045 41.656 41.8782 39.5594 41.8782C37.4628 41.8782 35.7632 42.6045 35.7632 43.5004C35.7632 44.3964 37.4628 45.1227 39.5594 45.1227Z" fill="white"/>
</g>
<path d="M16.8809 44.7027C18.9775 44.7027 20.6771 43.9764 20.6771 43.0805C20.6771 42.1845 18.9775 41.4583 16.8809 41.4583C14.7843 41.4583 13.0847 42.1845 13.0847 43.0805C13.0847 43.9764 14.7843 44.7027 16.8809 44.7027Z" fill="#F493A4"/>
<g style="mix-blend-mode:screen">
<path d="M16.8809 44.7027C18.9775 44.7027 20.6771 43.9764 20.6771 43.0805C20.6771 42.1845 18.9775 41.4583 16.8809 41.4583C14.7843 41.4583 13.0847 42.1845 13.0847 43.0805C13.0847 43.9764 14.7843 44.7027 16.8809 44.7027Z" fill="white"/>
</g>
<path d="M20.7595 44.4804C20.8089 43.2205 24.4569 42.5946 27.4214 42.5946C30.3859 42.5946 34.2562 43.6899 34.2727 44.9498C34.3468 49.4706 29.8671 51.7104 26.9026 51.7104C23.9381 51.7104 20.6113 48.2437 20.7677 44.4804H20.7595Z" fill="url(#paint25_radial_289_20433)"/>
<g style="mix-blend-mode:screen">
<path d="M23.3453 45.3615C23.3782 44.4721 25.9557 44.0275 28.0473 44.0275C30.1389 44.0275 32.8728 44.8015 32.8893 45.6908C32.9387 48.8859 29.7766 50.467 27.6767 50.467C25.5769 50.467 23.23 48.0131 23.337 45.3532L23.3453 45.3615Z" fill="white"/>
</g>
<defs>
<radialGradient id="paint0_radial_289_20433" cx="0" cy="0" r="1" gradientUnits="userSpaceOnUse" gradientTransform="translate(8.97767 45.5171) rotate(-15.62) scale(0.411736)">
<stop stop-color="#52DFEC"/>
<stop offset="0.94" stop-color="#408BED"/>
</radialGradient>
<radialGradient id="paint1_radial_289_20433" cx="0" cy="0" r="1" gradientUnits="userSpaceOnUse" gradientTransform="translate(4.46798 31.0706) rotate(-15.62) scale(17.6223 17.6223)">
<stop stop-color="#52DFEC"/>
<stop offset="0.94" stop-color="#408BED"/>
</radialGradient>
<radialGradient id="paint2_radial_289_20433" cx="0" cy="0" r="1" gradientUnits="userSpaceOnUse" gradientTransform="translate(3.18828 31.9671) rotate(-15.6201) scale(15.5388 15.5389)">
<stop stop-color="#52DFEC"/>
<stop offset="0.94" stop-color="#408BED"/>
</radialGradient>
<radialGradient id="paint3_radial_289_20433" cx="0" cy="0" r="1" gradientUnits="userSpaceOnUse" gradientTransform="translate(43.6009 45.6787) rotate(-15.62) scale(30.9543 30.9543)">
<stop stop-color="#52DFEC"/>
<stop offset="0.94" stop-color="#408BED"/>
</radialGradient>
<radialGradient id="paint4_radial_289_20433" cx="0" cy="0" r="1" gradientUnits="userSpaceOnUse" gradientTransform="translate(13.2681 23.155) rotate(-15.62) scale(70.9339 70.9339)">
<stop offset="0.06" stop-color="#000A57"/>
<stop offset="0.96" stop-color="#000328"/>
</radialGradient>
<radialGradient id="paint5_radial_289_20433" cx="0" cy="0" r="1" gradientUnits="userSpaceOnUse" gradientTransform="translate(8.12738 25.7251) rotate(-15.34) scale(73.7713 73.0619)">
<stop stop-color="#52DFEC"/>
<stop offset="0.94" stop-color="#408BED"/>
</radialGradient>
<radialGradient id="paint6_radial_289_20433" cx="0" cy="0" r="1" gradientUnits="userSpaceOnUse" gradientTransform="translate(59.9194 66.6738) rotate(-15.62) scale(0.411736)">
<stop offset="0.04" stop-color="#000328"/>
<stop offset="0.94" stop-color="#000A57"/>
</radialGradient>
<radialGradient id="paint7_radial_289_20433" cx="0" cy="0" r="1" gradientUnits="userSpaceOnUse" gradientTransform="translate(31.4856 35.0687) rotate(-15.62) scale(83.7966 83.7965)">
<stop offset="0.06" stop-color="#000A57"/>
<stop offset="0.96" stop-color="#000328"/>
</radialGradient>
<radialGradient id="paint8_radial_289_20433" cx="0" cy="0" r="1" gradientUnits="userSpaceOnUse" gradientTransform="translate(8.78657 25.2192) rotate(-11.22) scale(40.976 40.976)">
<stop offset="0.04" stop-color="#000328"/>
<stop offset="0.94" stop-color="#000A57"/>
</radialGradient>
<radialGradient id="paint9_radial_289_20433" cx="0" cy="0" r="1" gradientUnits="userSpaceOnUse" gradientTransform="translate(8.78804 25.2273) rotate(-11.22) scale(40.976 40.976)">
<stop offset="0.04" stop-color="#000328"/>
<stop offset="0.94" stop-color="#000A57"/>
</radialGradient>
<radialGradient id="paint10_radial_289_20433" cx="0" cy="0" r="1" gradientUnits="userSpaceOnUse" gradientTransform="translate(16.6285 22.0531) rotate(-15.62) scale(43.644 43.644)">
<stop offset="0.04" stop-color="#000328"/>
<stop offset="0.94" stop-color="#000A57"/>
</radialGradient>
<radialGradient id="paint11_radial_289_20433" cx="0" cy="0" r="1" gradientUnits="userSpaceOnUse" gradientTransform="translate(11.5083 30.1323) rotate(-57.92) scale(6.90891 6.90892)">
<stop offset="0.04" stop-color="#000328"/>
<stop offset="0.94" stop-color="#000A57"/>
</radialGradient>
<radialGradient id="paint12_radial_289_20433" cx="0" cy="0" r="1" gradientUnits="userSpaceOnUse" gradientTransform="translate(16.3854 23.5984) rotate(-45.0302) scale(4.25736)">
<stop offset="0.04" stop-color="#000328"/>
<stop offset="0.94" stop-color="#000A57"/>
</radialGradient>
<radialGradient id="paint13_radial_289_20433" cx="0" cy="0" r="1" gradientUnits="userSpaceOnUse" gradientTransform="translate(64.8626 45.942) rotate(-15.62) scale(6.51367 6.51368)">
<stop stop-color="#52DFEC"/>
<stop offset="0.94" stop-color="#408BED"/>
</radialGradient>
<radialGradient id="paint14_radial_289_20433" cx="0" cy="0" r="1" gradientUnits="userSpaceOnUse" gradientTransform="translate(69.5161 51.7293) rotate(-15.62) scale(10.1122 10.1122)">
<stop stop-color="#52DFEC"/>
<stop offset="0.94" stop-color="#408BED"/>
</radialGradient>
<radialGradient id="paint15_radial_289_20433" cx="0" cy="0" r="1" gradientUnits="userSpaceOnUse" gradientTransform="translate(27.8627 5.93249) rotate(-15.62) scale(41.8324 41.8324)">
<stop stop-color="#52DFEC"/>
<stop offset="0.94" stop-color="#408BED"/>
</radialGradient>
<radialGradient id="paint16_radial_289_20433" cx="0" cy="0" r="1" gradientUnits="userSpaceOnUse" gradientTransform="translate(42.1591 13.5471) rotate(-15.62) scale(16.6753 16.6753)">
<stop stop-color="#52DFEC"/>
<stop offset="0.94" stop-color="#408BED"/>
</radialGradient>
<radialGradient id="paint17_radial_289_20433" cx="0" cy="0" r="1" gradientUnits="userSpaceOnUse" gradientTransform="translate(57.6574 13.8399) rotate(-15.6201) scale(5.72313 5.72315)">
<stop stop-color="#52DFEC"/>
<stop offset="0.94" stop-color="#408BED"/>
</radialGradient>
<radialGradient id="paint18_radial_289_20433" cx="0" cy="0" r="1" gradientUnits="userSpaceOnUse" gradientTransform="translate(28.4415 8.00237) rotate(-15.62) scale(39.8314 39.8314)">
<stop stop-color="#52DFEC"/>
<stop offset="0.94" stop-color="#408BED"/>
</radialGradient>
<radialGradient id="paint19_radial_289_20433" cx="0" cy="0" r="1" gradientUnits="userSpaceOnUse" gradientTransform="translate(39.5613 43.4955) rotate(0.65) scale(6.83482 3.07567)">
<stop stop-color="#00F1CD"/>
<stop offset="0.12" stop-color="#00ECC9" stop-opacity="0.98"/>
<stop offset="0.25" stop-color="#00DFBE" stop-opacity="0.93"/>
<stop offset="0.38" stop-color="#00CAAC" stop-opacity="0.84"/>
<stop offset="0.52" stop-color="#00AD93" stop-opacity="0.72"/>
<stop offset="0.65" stop-color="#008672" stop-opacity="0.56"/>
<stop offset="0.79" stop-color="#00574A" stop-opacity="0.36"/>
<stop offset="0.92" stop-color="#00211C" stop-opacity="0.14"/>
<stop offset="1" stop-opacity="0"/>
</radialGradient>
<radialGradient id="paint20_radial_289_20433" cx="0" cy="0" r="1" gradientUnits="userSpaceOnUse" gradientTransform="translate(16.8909 43.1159) rotate(0.65) scale(0.411736 0.185281)">
<stop stop-color="#00F1CD"/>
<stop offset="0.12" stop-color="#00ECC9" stop-opacity="0.98"/>
<stop offset="0.25" stop-color="#00DFBE" stop-opacity="0.93"/>
<stop offset="0.38" stop-color="#00CAAC" stop-opacity="0.84"/>
<stop offset="0.52" stop-color="#00AD93" stop-opacity="0.72"/>
<stop offset="0.65" stop-color="#008672" stop-opacity="0.56"/>
<stop offset="0.79" stop-color="#00574A" stop-opacity="0.36"/>
<stop offset="0.92" stop-color="#00211C" stop-opacity="0.14"/>
<stop offset="1" stop-opacity="0"/>
</radialGradient>
<radialGradient id="paint21_radial_289_20433" cx="0" cy="0" r="1" gradientUnits="userSpaceOnUse" gradientTransform="translate(38.929 37.795) rotate(-10.57) scale(6.48897)">
<stop stop-color="#00F1CD"/>
<stop offset="0.12" stop-color="#00ECC9" stop-opacity="0.98"/>
<stop offset="0.25" stop-color="#00DFBE" stop-opacity="0.93"/>
<stop offset="0.38" stop-color="#00CAAC" stop-opacity="0.84"/>
<stop offset="0.52" stop-color="#00AD93" stop-opacity="0.72"/>
<stop offset="0.65" stop-color="#008672" stop-opacity="0.56"/>
<stop offset="0.79" stop-color="#00574A" stop-opacity="0.36"/>
<stop offset="0.92" stop-color="#00211C" stop-opacity="0.14"/>
<stop offset="1" stop-opacity="0"/>
</radialGradient>
<radialGradient id="paint22_radial_289_20433" cx="0" cy="0" r="1" gradientUnits="userSpaceOnUse" gradientTransform="translate(18.0414 37.1441) rotate(-10.57) scale(5.67372 5.67371)">
<stop stop-color="#00F1CD"/>
<stop offset="0.12" stop-color="#00ECC9" stop-opacity="0.98"/>
<stop offset="0.25" stop-color="#00DFBE" stop-opacity="0.93"/>
<stop offset="0.38" stop-color="#00CAAC" stop-opacity="0.84"/>
<stop offset="0.52" stop-color="#00AD93" stop-opacity="0.72"/>
<stop offset="0.65" stop-color="#008672" stop-opacity="0.56"/>
<stop offset="0.79" stop-color="#00574A" stop-opacity="0.36"/>
<stop offset="0.92" stop-color="#00211C" stop-opacity="0.14"/>
<stop offset="1" stop-opacity="0"/>
</radialGradient>
<radialGradient id="paint23_radial_289_20433" cx="0" cy="0" r="1" gradientUnits="userSpaceOnUse" gradientTransform="translate(38.9292 37.795) rotate(-10.57) scale(3.30212 3.30213)">
<stop offset="0.04" stop-color="#000328"/>
<stop offset="0.94" stop-color="#000A57"/>
</radialGradient>
<radialGradient id="paint24_radial_289_20433" cx="0" cy="0" r="1" gradientUnits="userSpaceOnUse" gradientTransform="translate(18.0414 37.1441) rotate(-10.57) scale(3.20331 3.20329)">
<stop offset="0.04" stop-color="#000328"/>
<stop offset="0.94" stop-color="#000A57"/>
</radialGradient>
<radialGradient id="paint25_radial_289_20433" cx="0" cy="0" r="1" gradientUnits="userSpaceOnUse" gradientTransform="translate(27.6947 49.5708) rotate(3.03) scale(7.48536 5.31461)">
<stop stop-color="#00F1CD"/>
<stop offset="0.12" stop-color="#00ECC9" stop-opacity="0.98"/>
<stop offset="0.24" stop-color="#00DFBE" stop-opacity="0.93"/>
<stop offset="0.36" stop-color="#00CAAC" stop-opacity="0.84"/>
<stop offset="0.49" stop-color="#00AD93" stop-opacity="0.72"/>
<stop offset="0.62" stop-color="#008672" stop-opacity="0.56"/>
<stop offset="0.75" stop-color="#00574A" stop-opacity="0.36"/>
<stop offset="0.88" stop-color="#00211C" stop-opacity="0.14"/>
<stop offset="0.95" stop-opacity="0"/>
</radialGradient>
</defs>
</svg>
