<svg width="81" height="82" viewBox="0 0 81 82" fill="none" xmlns="http://www.w3.org/2000/svg">
<path d="M62.1273 73.6202C62.4617 74.0024 62.8836 74.3128 63.3612 74.4641C65.0569 74.9975 66.3466 73.1824 66.7287 72.5455C66.8163 72.3943 66.9914 72.3147 67.1665 72.3465C67.7158 72.45 68.1776 72.9515 68.6711 73.2779C71.2504 74.9815 74.7214 68.6447 74.9045 68.3661C75.3184 67.7292 74.8885 66.8615 74.3233 66.36C73.9094 65.9938 73.4158 65.7152 73.0177 65.341C72.7073 65.0544 72.6356 64.6006 72.8347 64.2265C73.3999 63.1597 76.0269 61.0501 76.0269 59.5216C76.0269 58.5822 70.7807 54.777 70.1837 55.8676C68.8383 58.3116 65.1445 64.3698 61.6099 67.4028C58.6246 69.9662 59.6674 70.8339 62.1273 73.6123V73.6202Z" fill="#FFCC00"/>
<path d="M77.452 65.8425C78.2481 64.7917 79.0521 63.7329 79.8482 62.6821C80.0631 62.4035 80.087 61.8781 79.9915 61.5597C79.896 61.2412 79.6333 60.8511 79.3228 60.6919C78.9805 60.5168 78.5745 60.4212 78.2003 60.5486L77.85 60.6919C77.6271 60.8193 77.4599 60.9944 77.3246 61.2173L74.9284 64.3778C74.7134 64.6564 74.6896 65.1818 74.7851 65.5002C74.8806 65.8187 75.1433 66.2088 75.4538 66.368C75.7961 66.5431 76.2021 66.6386 76.5763 66.5113L76.9266 66.368C77.1495 66.2406 77.3166 66.0654 77.452 65.8425Z" fill="#FFCC00"/>
<path d="M66.3782 78.4605C66.9355 77.8316 67.5166 77.2186 68.0739 76.5977C68.2012 76.4544 68.2888 76.2872 68.3286 76.1041C68.4003 75.921 68.4242 75.73 68.4003 75.531C68.3843 75.3319 68.3286 75.1488 68.2172 74.9817C68.1376 74.8065 68.0261 74.6632 67.8669 74.5438C67.5644 74.3209 67.1823 74.1617 66.8001 74.2254L66.418 74.3129C66.1792 74.4084 65.9802 74.5517 65.813 74.7508C65.2557 75.3797 64.6746 75.9847 64.1173 76.6136C63.99 76.7569 63.9024 76.9241 63.8626 77.1072C63.7909 77.2903 63.7671 77.4814 63.7909 77.6804C63.8069 77.8794 63.8626 78.0625 63.974 78.2296C64.0537 78.4048 64.1651 78.5481 64.3243 78.6675C64.6268 78.8904 65.009 79.0496 65.3911 78.9859L65.7732 78.8984C66.012 78.8028 66.211 78.6596 66.3782 78.4605Z" fill="#FFCC00"/>
<path d="M73.9173 77.0434C74.3551 76.6852 74.7771 76.319 75.1831 75.921C75.5015 75.6105 75.7881 75.2682 76.0826 74.9339C76.21 74.7826 76.2976 74.6154 76.3294 74.4244C76.4011 74.2413 76.417 74.0422 76.3852 73.8432C76.3374 73.493 76.1304 73.0949 75.8438 72.8879C75.5334 72.665 75.1433 72.5138 74.7532 72.5854C74.3631 72.657 74.0526 72.8322 73.7979 73.1267C73.5033 73.4611 73.2167 73.8034 72.8983 74.1139L73.169 73.8511C72.8505 74.1537 72.5082 74.4323 72.1739 74.7109C71.8793 74.9577 71.6644 75.2841 71.6087 75.6742C71.5609 76.0245 71.6564 76.4703 71.8873 76.7569C72.1182 77.0435 72.4605 77.2903 72.8505 77.3221C73.2406 77.354 73.6307 77.2902 73.9332 77.0434H73.9173Z" fill="#FFCC00"/>
<path d="M0.0189459 40.7455C0.215768 20.604 17.2518 4.44267 38.064 4.64678C58.8834 4.85089 75.5988 21.3402 75.4019 41.4817C75.2051 61.6232 59.0074 73.5711 38.1879 73.3743C17.3685 73.1701 -0.185173 60.8943 0.0116491 40.7528L0.0189459 40.7455Z" fill="#F7FCF8"/>
<path d="M38.4647 9.74946C20.6121 9.57451 6.00353 23.1844 5.84315 40.1403C5.67549 57.0962 20.7361 67.4403 38.5886 67.6153C56.4411 67.7902 70.328 57.7304 70.4957 40.7672C70.6634 23.8113 56.3244 9.92442 38.4719 9.74946H38.4647Z" fill="#FFCC00"/>
<path d="M64.2157 37.7345C64.3251 56.7898 55.0744 58.4665 42.9516 60.7263C30.8288 62.9861 15.535 57.6938 12.0578 47.911C8.93052 39.1123 11.3434 20.3339 33.0449 17.2723C45.2552 15.5519 64.1356 23.3738 64.2157 37.7272V37.7345Z" fill="white"/>
<path d="M27.2006 35.3346C29.0324 35.3346 30.5174 33.8496 30.5174 32.0178C30.5174 30.186 29.0324 28.701 27.2006 28.701C25.3688 28.701 23.8838 30.186 23.8838 32.0178C23.8838 33.8496 25.3688 35.3346 27.2006 35.3346Z" fill="#231F20"/>
<path d="M48.6908 36.0855C50.5227 36.0855 52.0077 34.6005 52.0077 32.7686C52.0077 30.9368 50.5227 29.4518 48.6908 29.4518C46.859 29.4518 45.374 30.9368 45.374 32.7686C45.374 34.6005 46.859 36.0855 48.6908 36.0855Z" fill="#231F20"/>
<path d="M49.7186 39.9417C51.8645 39.9417 53.6041 39.2008 53.6041 38.2869C53.6041 37.373 51.8645 36.6322 49.7186 36.6322C47.5728 36.6322 45.8333 37.373 45.8333 38.2869C45.8333 39.2008 47.5728 39.9417 49.7186 39.9417Z" fill="#F493A4"/>
<path d="M26.4936 39.5116C28.6394 39.5116 30.379 38.7708 30.379 37.8569C30.379 36.943 28.6394 36.2021 26.4936 36.2021C24.3477 36.2021 22.6082 36.943 22.6082 37.8569C22.6082 38.7708 24.3477 39.5116 26.4936 39.5116Z" fill="#F493A4"/>
<path d="M35.0025 39.0332C35.0249 38.3426 36.6438 38 37.9586 38C39.2734 38 40.9907 38.6022 40.9996 39.2928C41.0309 41.7735 39.0408 43 37.726 43C36.4112 43 34.9309 41.0995 35.0025 39.0332Z" fill="#D6493F"/>
<path style="mix-blend-mode:multiply" opacity="0.25" d="M64.2201 35.4872C63.7608 39.5767 65.9696 43.1778 69.1479 43.5277C72.3263 43.8849 75.2786 40.8597 75.7306 36.7702C76.1898 32.6806 73.981 29.0795 70.8027 28.7296C67.6244 28.3724 64.672 31.3976 64.2201 35.4872Z" fill="url(#paint0_radial_302_14663)"/>
<path d="M24.3231 15.3739C22.5616 15.4569 20.5444 14.7298 21.038 12.586C21.705 9.66776 24.2926 5.68882 32.2124 2.80546C40.1322 -0.0779059 52.3621 3.02802 54.9148 6.30191C57.473 9.57526 55.1166 9.34019 55.1166 9.34019C53.9127 9.41316 52.6718 9.7883 51.5747 10.2767C49.9579 10.9926 48.869 11.9059 48.001 13.3839C47.2374 14.6858 45.7007 15.5432 44.227 15.1171C43.1578 14.812 42.0488 14.6103 40.9523 14.424C38.6752 14.0374 36.3609 13.837 34.0504 13.8463C31.2087 13.852 28.3671 14.2005 25.6769 15.137C25.2866 15.2745 24.8138 15.3592 24.3187 15.3853L24.3231 15.3739Z" fill="#F7FCF8"/>
<path style="mix-blend-mode:multiply" opacity="0.25" d="M54.6831 7.38616C53.4792 7.45913 52.2384 7.8343 51.1413 8.32265C49.5244 9.03856 48.4355 9.9519 47.5675 11.4299C46.8039 12.7318 45.2672 13.5892 43.7935 13.1631C42.7242 12.858 41.6153 12.6563 40.5188 12.47C38.2417 12.0834 35.9274 11.883 33.6169 11.8922C30.7752 11.8979 27.9336 12.2465 25.2434 13.183C24.8531 13.3205 24.3803 13.4053 23.8851 13.4313C22.8286 13.4844 21.682 13.2366 21.0424 12.5745C21.0424 12.5745 21.0435 12.5855 21.0385 12.5915C20.545 14.7353 22.5627 15.4678 24.3236 15.3794C24.8133 15.3538 25.2861 15.269 25.6819 15.131C28.3666 14.195 31.2136 13.8459 34.0553 13.8402C36.3664 13.8364 38.6807 14.0369 40.9573 14.418C42.0537 14.6044 43.1627 14.806 44.232 15.1111C45.7057 15.5372 47.2424 14.6798 48.0059 13.3779C48.874 11.8999 49.9629 10.9866 51.5797 10.2707C52.6768 9.78232 53.9122 9.40768 55.1216 9.33418C55.1216 9.33418 57.0591 9.52707 55.5151 7.12821C55.236 7.44292 54.6831 7.38616 54.6831 7.38616V7.38616Z" fill="url(#paint1_radial_302_14663)"/>
<path style="mix-blend-mode:multiply" opacity="0.25" d="M48.0059 13.3779C48.8739 11.8999 49.9628 10.9866 51.5797 10.2707C52.6768 9.78231 53.9122 9.40767 55.1215 9.33417C55.1215 9.33417 57.0591 9.52707 55.515 7.12821C55.236 7.44291 54.683 7.38616 54.683 7.38616C53.4791 7.45913 52.2383 7.83429 51.1412 8.32265C49.5244 9.03855 48.4355 9.95189 47.5674 11.4299C47.1928 12.0691 46.6306 12.5994 45.9819 12.9224C46.2142 13.7182 46.2108 14.4208 46.1227 14.9934C46.8951 14.6915 47.5741 14.1111 48.0004 13.3784L48.0059 13.3779Z" fill="url(#paint2_radial_302_14663)"/>
<path style="mix-blend-mode:multiply" opacity="0.25" d="M45.6457 2.25525C44.5606 5.2529 34.4853 8.99864 27.8034 9.88693C24.5663 10.3182 23.3782 9.58782 23.1323 8.539C21.9386 9.96575 21.3177 11.3699 21.038 12.586C20.5444 14.7298 22.5622 15.4624 24.3231 15.3739C24.8127 15.3483 25.2855 15.2636 25.6813 15.1255C28.3661 14.1895 31.2131 13.8405 34.0548 13.8348C36.3658 13.831 38.6801 14.0315 40.9567 14.4126C42.0532 14.5989 43.1622 14.8006 44.2314 15.1057C45.7051 15.5317 47.2418 14.6744 48.0054 13.3724C48.8734 11.8944 49.9623 10.9811 51.5792 10.2652C52.6763 9.77685 53.9116 9.40221 55.121 9.32871C55.121 9.32871 57.4774 9.56378 54.9192 6.29043C53.6491 4.66117 49.9836 3.07714 45.6446 2.24431L45.6457 2.25525Z" fill="url(#paint3_radial_302_14663)"/>
<path style="mix-blend-mode:multiply" opacity="0.25" d="M63.2375 14.2587C68.835 20.5006 72.1949 30.7138 72.1037 39.6207C71.9143 58.9985 56.3283 70.4933 36.2951 70.3039C26.2154 70.2057 15.4704 67.697 8.75757 62.2336C15.4914 69.9483 27.9059 73.7825 40.0128 73.8947C60.0459 74.0911 75.6319 62.5893 75.8213 43.2115C75.9266 32.4741 71.0305 20.7671 63.2375 14.2587Z" fill="url(#paint4_radial_302_14663)"/>
<path d="M75.8869 36.5059C76.3436 32.4208 74.437 28.8546 71.6282 28.5406C68.8195 28.2265 66.1723 31.2835 65.7155 35.3686C65.2587 39.4537 67.1654 43.0199 69.9741 43.334C72.7829 43.648 75.4301 40.591 75.8869 36.5059Z" fill="#F7FCF8"/>
<path style="mix-blend-mode:multiply" opacity="0.25" d="M75.5638 35.0203C75.1045 39.1098 72.4583 42.1642 69.6518 41.8507C67.8221 41.6466 66.3787 40.0575 65.7153 37.8487C66.0871 40.8083 67.7419 43.09 69.958 43.3378C72.7645 43.6513 75.4179 40.5969 75.8699 36.5074C76.0303 35.0859 75.8991 33.7227 75.5419 32.5417C75.644 33.329 75.6585 34.1601 75.5565 35.0203H75.5638Z" fill="url(#paint5_radial_302_14663)"/>
<path d="M68.5292 35.392C68.2522 37.8851 69.4112 40.0648 71.1316 40.2543C72.8447 40.4438 74.463 38.5777 74.74 36.0846C75.017 33.5915 73.858 31.4119 72.1376 31.2223C70.4172 31.0328 68.8062 32.899 68.5292 35.392Z" fill="#F3A400"/>
<g style="mix-blend-mode:multiply" opacity="0.5">
<path d="M68.5292 35.392C68.3178 37.3092 68.952 39.0296 70.0382 39.8169C71.1316 39.1827 71.9991 37.7393 72.196 35.9825C72.4074 34.0653 71.7732 32.3449 70.687 31.5576C69.5935 32.1919 68.726 33.6352 68.5292 35.392Z" fill="#F3A400"/>
</g>
<path d="M67.543 78.5834C67.6683 78.7592 67.8336 78.9084 68.0293 78.9927C68.7241 79.2902 69.3466 78.5769 69.5353 78.3236C69.5787 78.2633 69.6562 78.2371 69.7289 78.2579C69.9569 78.325 70.1311 78.5567 70.326 78.7157C71.3451 79.5458 73.082 77.0118 73.1713 76.9017C73.3734 76.6498 73.2283 76.2644 73.0104 76.0283C72.8508 75.8558 72.6538 75.7171 72.5012 75.5419C72.382 75.4075 72.3709 75.2125 72.4709 75.0626C72.7553 74.6352 73.9561 73.854 74.0208 73.2073C74.0606 72.8099 72.0023 70.9777 71.7035 71.4138C71.0307 72.3908 69.2113 74.7975 67.5874 75.931C66.2158 76.8891 66.6203 77.3004 67.5433 78.58L67.543 78.5834Z" fill="#FFCC00"/>
<path d="M74.3563 75.9386C74.7376 75.5277 75.1227 75.1138 75.504 74.7029C75.6067 74.5942 75.6391 74.3729 75.6122 74.2341C75.5852 74.0953 75.4906 73.9192 75.366 73.8387C75.2286 73.7501 75.0609 73.6924 74.8972 73.7305L74.7429 73.7763C74.6432 73.8207 74.565 73.8877 74.4983 73.9763L73.3507 75.2119C73.2479 75.3207 73.2156 75.542 73.2425 75.6808C73.2694 75.8195 73.3641 75.9957 73.4887 76.0762C73.6261 76.1648 73.7938 76.2224 73.9575 76.1844L74.1118 76.1386C74.2115 76.0941 74.2896 76.0271 74.3563 75.9386Z" fill="#FFCC00"/>
<path d="M69.1364 80.8112C69.3988 80.5688 69.6707 80.334 69.9327 80.0949C69.9927 80.0397 70.0368 79.9727 70.0614 79.8969C70.0995 79.8225 70.1177 79.7427 70.116 79.6574C70.1177 79.5726 70.1019 79.4927 70.0618 79.4173C70.0356 79.3398 69.9945 79.2745 69.9322 79.2172C69.8136 79.1101 69.6587 79.0265 69.4943 79.0373L69.329 79.0582C69.2239 79.0885 69.1336 79.1407 69.0545 79.2178C68.792 79.4602 68.5205 79.6916 68.2581 79.9341C68.1982 79.9893 68.1541 80.0563 68.1295 80.1321C68.0914 80.2065 68.0732 80.2864 68.0749 80.3716C68.0732 80.4565 68.089 80.5363 68.1291 80.6117C68.1553 80.6892 68.1964 80.7545 68.2587 80.8118C68.3773 80.9189 68.5322 81.0025 68.6965 80.9917L68.8619 80.9709C68.967 80.9406 69.0573 80.8884 69.1364 80.8112Z" fill="#FFCC00"/>
<path d="M72.386 80.5311C72.5864 80.398 72.7804 80.261 72.969 80.1098C73.1169 79.9919 73.2527 79.8592 73.3914 79.7302C73.4517 79.6716 73.4959 79.6046 73.5174 79.5251C73.5555 79.4507 73.5707 79.3672 73.5656 79.2816C73.5602 79.1314 73.4895 78.9542 73.3771 78.8545C73.2551 78.7471 73.0965 78.6665 72.9284 78.6803C72.7604 78.6941 72.6216 78.7551 72.5013 78.8689C72.3626 78.9979 72.2268 79.1306 72.0789 79.2484L72.2046 79.1488C72.0571 79.2633 71.9004 79.3666 71.7472 79.4704C71.6121 79.5623 71.5073 79.6913 71.4672 79.854C71.4322 80.0001 71.4537 80.1928 71.5393 80.3238C71.6248 80.4548 71.7591 80.5738 71.9228 80.6037C72.0865 80.6337 72.2542 80.6233 72.3927 80.5317L72.386 80.5311Z" fill="#FFCC00"/>
<path d="M37.571 62.6658C37.1696 64.5341 37.8871 66.2694 39.1693 66.5441C40.4515 66.8187 41.8188 65.5302 42.2168 63.6617C42.6182 61.7934 41.9006 60.0581 40.6184 59.7834C39.3362 59.5088 37.9689 60.7973 37.571 62.6658Z" fill="#F7FCF8"/>
<path style="mix-blend-mode:multiply" opacity="0.25" d="M42.1439 62.9638C41.7425 64.832 40.3786 66.1208 39.0964 65.8462C38.2604 65.6672 37.6671 64.8662 37.4628 63.815C37.4976 65.1997 38.1566 66.3304 39.1691 66.5474C40.4513 66.8221 41.8185 65.5336 42.2165 63.665C42.3564 63.0157 42.3588 62.3798 42.2484 61.8176C42.2592 62.1861 42.2274 62.5707 42.1405 62.9634L42.1439 62.9638Z" fill="url(#paint6_radial_302_14663)"/>
<path style="mix-blend-mode:multiply" opacity="0.25" d="M38.873 62.8098C38.6297 63.9489 39.0644 65.0096 39.8505 65.1767C40.6366 65.3439 41.4673 64.5562 41.7106 63.4171C41.9539 62.278 41.5192 61.2174 40.7331 61.0502C39.9504 60.8834 39.1163 61.6708 38.873 62.8098Z" fill="url(#paint7_radial_302_14663)"/>
<path style="mix-blend-mode:multiply" opacity="0.25" d="M38.8731 62.8098C38.6867 63.6859 38.9001 64.51 39.3656 64.924C39.9001 64.6816 40.3677 64.0549 40.5399 63.2523C40.7262 62.3762 40.5128 61.552 40.0474 61.138C39.5128 61.3805 39.0453 62.0072 38.8731 62.8098Z" fill="url(#paint8_radial_302_14663)"/>
<path d="M39.2216 63.1339C40.2443 53.837 48.863 47.158 58.4695 48.2151C68.0792 49.2725 75.0395 57.6643 74.0168 66.9612C72.9942 76.258 64.9576 81.029 55.3475 79.975C45.7377 78.9176 38.1953 72.4338 39.2179 63.1369L39.2216 63.1339Z" fill="#F7FCF8"/>
<path style="mix-blend-mode:multiply" opacity="0.25" d="M69.2681 53.4363C71.6557 56.703 72.8765 60.7849 72.4045 65.058C71.3818 74.3549 63.3453 79.1258 53.7352 78.0718C48.9 77.5401 44.587 75.6319 41.6264 72.6855C44.4888 76.7141 49.5397 79.3391 55.3476 79.975C64.9574 81.0324 72.9942 76.258 74.0169 66.9612C74.5837 61.8097 72.6937 56.9361 69.2647 53.4359L69.2681 53.4363Z" fill="url(#paint9_radial_302_14663)"/>
<path d="M55.654 51.0221C47.4137 50.1154 40.0345 55.7278 39.176 63.5545C38.3142 71.3809 44.7942 76.8569 53.0345 77.7636C61.2748 78.6702 68.1563 74.6647 69.0185 66.8349C69.8803 59.0085 63.8977 51.9291 55.6573 51.0224L55.654 51.0221Z" fill="#FFCC00"/>
<path d="M65.7114 65.718C64.8804 74.5272 60.5288 74.8739 54.8232 75.3572C49.1175 75.8406 42.2961 72.6879 41.1421 68.0071C40.1042 63.7971 42.0877 55.2326 52.2561 54.8219C57.9772 54.5919 66.3387 59.0792 65.7117 65.7146L65.7114 65.718Z" fill="white"/>
<path d="M57.8677 67.8514C58.8591 67.9507 59.6971 67.6889 59.7394 67.2666C59.7817 66.8444 59.0122 66.4216 58.0208 66.3223C57.0293 66.2231 56.1913 66.4849 56.149 66.9072C56.1068 67.3294 56.8762 67.7522 57.8677 67.8514Z" fill="#F493A4"/>
<path d="M47.1567 66.5784C48.1482 66.6776 48.9862 66.4158 49.0285 65.9936C49.0707 65.5713 48.3013 65.1485 47.3098 65.0493C46.3184 64.95 45.4804 65.2118 45.4381 65.6341C45.3958 66.0563 46.1653 66.4791 47.1567 66.5784Z" fill="#F493A4"/>
<path d="M50.1837 67.1978C50.2427 66.7785 51.4828 66.6917 52.473 66.7909C53.4633 66.89 54.7198 67.3866 54.6844 67.8083C54.5566 69.3229 52.9829 69.9206 51.9927 69.8214C51.0025 69.7223 50.0037 68.4521 50.1837 67.1978V67.1978Z" fill="#D6493F"/>
<path d="M58.4203 65.7296C58.3462 65.7222 58.2738 65.6979 58.2064 65.6572L56.4123 64.5488C56.1591 64.3942 56.017 64.1146 56.0399 63.8176C56.0625 63.5239 56.2414 63.2662 56.5152 63.1474L58.4287 62.315C58.6847 62.2046 58.9794 62.3191 59.0932 62.5754C59.2037 62.8314 59.0858 63.1258 58.8328 63.2399L57.2999 63.9063L58.7414 64.799C58.9785 64.9452 59.0529 65.2554 58.9033 65.4922C58.7978 65.6619 58.6089 65.7485 58.4236 65.7299L58.4203 65.7296Z" fill="#231F20"/>
<path d="M47.6533 64.2706C48.4997 64.3553 49.2545 63.7379 49.3393 62.8915C49.424 62.0452 48.8066 61.2904 47.9602 61.2056C47.1138 61.1209 46.359 61.7383 46.2743 62.5847C46.1896 63.431 46.807 64.1859 47.6533 64.2706Z" fill="#231F20"/>
<path d="M55.654 51.0221C47.4137 50.1154 40.0345 55.7278 39.176 63.5545C38.3142 71.3809 44.7942 76.8569 53.0345 77.7636C61.2748 78.6702 68.1563 74.6647 69.0185 66.8349C69.8803 59.0085 63.8977 51.9291 55.6573 51.0224L55.654 51.0221ZM68.0572 66.8203C67.1954 74.6467 60.456 78.4216 52.7122 77.517C44.8575 76.5979 38.5944 71.5042 39.4562 63.6778C40.3181 55.8515 47.3995 50.597 55.2781 51.4131C62.934 52.2102 68.919 58.9939 68.0572 66.8203V66.8203Z" fill="#041F8E"/>
<path style="mix-blend-mode:multiply" opacity="0.25" d="M65.2445 68.5152C64.8432 70.3834 65.6971 72.1494 67.1494 72.4581C68.6013 72.7701 70.1054 71.509 70.5034 69.6404C70.9047 67.7721 70.0508 66.0061 68.5985 65.6975C67.1465 65.3854 65.6425 66.6466 65.2445 68.5152Z" fill="url(#paint10_radial_302_14663)"/>
<path d="M70.5733 69.4749C70.9733 67.6085 70.2574 65.8727 68.9742 65.5976C67.691 65.3226 66.3264 66.6126 65.9264 68.4789C65.5264 70.3452 66.2424 72.0811 67.5256 72.3561C68.8088 72.6311 70.1733 71.3412 70.5733 69.4749Z" fill="#F7FCF8"/>
<path style="mix-blend-mode:multiply" opacity="0.25" d="M70.4949 68.7721C70.0936 70.6403 68.7297 71.9291 67.4475 71.6545C66.6115 71.4755 66.0182 70.6745 65.8138 69.6233C65.8487 71.0079 66.5077 72.1387 67.5201 72.3557C68.8023 72.6304 70.1696 71.3419 70.5676 69.4733C70.7075 68.824 70.7099 68.1881 70.5995 67.6259C70.6102 67.9944 70.5785 68.379 70.4916 68.7717L70.4949 68.7721Z" fill="url(#paint11_radial_302_14663)"/>
<path d="M67.2275 68.6185C66.9842 69.7575 67.4189 70.8182 68.205 70.9853C68.9877 71.1522 69.8218 70.3648 70.0651 69.2257C70.3084 68.0867 69.8737 67.026 69.0876 66.8588C68.3015 66.6917 67.4708 67.4794 67.2275 68.6185Z" fill="#F3A400"/>
<g style="mix-blend-mode:multiply" opacity="0.5">
<path d="M67.2275 68.6184C67.0412 69.4945 67.2546 70.3187 67.7201 70.7327C68.2546 70.4902 68.7222 69.8635 68.8944 69.0609C69.0807 68.1848 68.8673 67.3607 68.4019 66.9467C67.8673 67.1891 67.3997 67.8158 67.2275 68.6184Z" fill="#F3A400"/>
</g>
<path style="mix-blend-mode:multiply" opacity="0.46" d="M69.5815 53.6684C69.5923 53.6286 69.6001 53.5852 69.6014 53.5377C69.6021 53.5309 69.6024 53.5276 69.6031 53.5208C69.6078 53.4737 69.6062 53.4225 69.6018 53.3642C69.6028 53.3541 69.6035 53.3474 69.5977 53.3366C69.5924 53.2884 69.5873 53.2369 69.5759 53.1813C69.5769 53.1712 69.5715 53.1571 69.5691 53.1466C69.5701 53.1365 69.5644 53.1258 69.5624 53.1119C69.5577 53.0911 69.553 53.0702 69.5486 53.0459C69.5368 52.9937 69.522 52.9378 69.5042 52.8782C69.5018 52.8677 69.4995 52.8573 69.4934 52.8499C69.45 52.7061 69.3944 52.5474 69.3203 52.3699C69.2658 52.2352 69.2018 52.0927 69.1291 51.9357C69.0927 51.8573 69.0496 51.7781 68.9998 51.6983C68.9823 51.6693 68.9614 51.64 68.9435 51.6144C68.9112 51.5635 68.8792 51.5093 68.8401 51.4578C68.8071 51.4136 68.7708 51.3692 68.7378 51.3251C68.7075 51.288 68.6808 51.2479 68.6505 51.2109C68.6051 51.1553 68.5562 51.0994 68.5037 51.0465C68.4795 51.0168 68.4549 50.9906 68.4273 50.9606C68.369 50.8969 68.304 50.8326 68.239 50.7683C68.2171 50.749 68.1989 50.7268 68.1804 50.708C68.109 50.6396 68.0342 50.5708 67.9561 50.5018C67.9373 50.4863 67.9221 50.4678 67.9032 50.4523C67.8157 50.3755 67.7248 50.2983 67.6305 50.2209C67.621 50.2131 67.6119 50.202 67.5991 50.1939C67.4985 50.1124 67.3944 50.0305 67.287 49.9483C67.2806 49.9443 67.2775 49.9406 67.2711 49.9365C64.5459 47.8675 59.5987 45.906 55.7472 46.4899C51.7263 47.1011 49.6261 48.6088 48.5545 50.1037C48.5387 50.126 48.5228 50.1482 48.507 50.1704C48.4555 50.2435 48.4073 50.3169 48.3625 50.3907C48.3345 50.4321 48.3099 50.4739 48.2853 50.5156C48.2486 50.5766 48.2119 50.6376 48.1789 50.6955C48.1459 50.7534 48.1159 50.815 48.0862 50.8733C48.0647 50.9188 48.0397 50.9639 48.0182 51.0094C47.967 51.1131 47.9222 51.2209 47.878 51.3219C47.34 52.6526 48.482 53.4099 49.5581 53.6027C49.8589 53.6566 50.1543 53.6623 50.4092 53.63C51.7093 53.454 53.0276 53.5044 54.3307 53.7063C54.7662 53.7737 55.2 53.858 55.6291 53.9553C56.6803 54.1933 57.7203 54.5083 58.7398 54.8927C59.0806 55.0221 59.4177 55.1545 59.7505 55.2967C59.9105 55.3637 60.0735 55.4345 60.2331 55.5049C60.7154 55.7165 61.196 55.9449 61.6564 56.2053C62.3805 56.618 63.2401 56.4251 63.8511 55.8943C63.8511 55.8943 63.8585 55.8883 63.8622 55.8852C63.9033 55.8485 63.9447 55.8085 63.9862 55.7684C63.9939 55.7589 64.0013 55.7529 64.0124 55.7438C64.0579 55.6973 64.1004 55.6471 64.1428 55.597C64.4025 55.2794 64.67 55.0204 64.9637 54.8049C65.1584 54.6611 65.3612 54.5385 65.5791 54.4345C65.6866 54.3806 65.8001 54.3341 65.917 54.288C66.147 54.1988 66.3959 54.125 66.6603 54.0665C66.8412 54.0267 67.0251 53.9907 67.2117 53.9618C67.7711 53.8783 68.3582 53.8588 68.9102 53.9515C68.9102 53.9515 68.9136 53.9519 68.9203 53.9525C68.9271 53.9532 68.9405 53.9546 68.95 53.9623C68.95 53.9623 68.9533 53.9627 68.9567 53.963C68.9702 53.9643 68.9867 53.9694 69.0032 53.9744C69.0032 53.9744 69.0099 53.9751 69.0133 53.9755C69.0335 53.9775 69.0537 53.9795 69.0739 53.9815L69.0807 53.9822C69.1042 53.9846 69.1278 53.9869 69.1517 53.9859C69.1753 53.9883 69.2029 53.9842 69.2272 53.9799C69.2272 53.9799 69.2305 53.9802 69.2339 53.9805C69.2582 53.9762 69.2824 53.9718 69.3104 53.9644C69.3137 53.9647 69.3171 53.9651 69.3208 53.962C69.3454 53.9543 69.367 53.9428 69.3919 53.9317C69.3953 53.9321 69.3993 53.9257 69.4027 53.926C69.4245 53.9112 69.4465 53.8964 69.4657 53.8745C69.4657 53.8745 69.4697 53.8681 69.4734 53.865C69.4926 53.8431 69.5121 53.8179 69.5283 53.7923L69.529 53.7856C69.5455 53.7566 69.5593 53.7206 69.5698 53.6842C69.5698 53.6842 69.5698 53.6842 69.5701 53.6808L69.5815 53.6684Z" fill="url(#paint12_radial_302_14663)"/>
<path d="M49.4772 53.1183C48.4048 52.9565 47.2756 52.2753 47.8311 51.0417C48.5844 49.3617 50.6237 47.2731 55.7474 46.4866C60.8714 45.6967 67.874 49.0444 69.0199 51.3261C70.1692 53.6081 68.7761 53.1829 68.7761 53.1829C68.0412 53.0821 67.2477 53.1591 66.5272 53.3217C65.4659 53.5591 64.6993 53.979 63.998 54.766C63.3808 55.4594 62.3508 55.7918 61.5132 55.3575C60.905 55.0449 60.2603 54.7898 59.6214 54.5456C58.2945 54.0385 56.9227 53.6392 55.528 53.3669C53.8133 53.0286 52.0575 52.897 50.3223 53.1383C50.0703 53.1743 49.7749 53.1685 49.4732 53.1247L49.4772 53.1183Z" fill="#F7FCF8"/>
<path style="mix-blend-mode:multiply" opacity="0.25" d="M68.7499 51.9522C68.0149 51.8514 67.2214 51.9284 66.501 52.091C65.4396 52.3284 64.673 52.7483 63.9717 53.5353C63.3546 54.2287 62.3246 54.561 61.487 54.1268C60.8787 53.8142 60.2341 53.5591 59.5952 53.3149C58.2682 52.8078 56.8964 52.4085 55.5017 52.1362C53.7871 51.7978 52.0313 51.6663 50.296 51.9076C50.044 51.9436 49.7486 51.9378 49.4469 51.894C48.8032 51.7989 48.1414 51.5116 47.8353 51.0353C47.8353 51.0353 47.8347 51.042 47.831 51.045C47.2754 52.2787 48.4043 52.9632 49.477 53.1217C49.7755 53.1652 50.0708 53.1709 50.3261 53.1353C52.0581 52.8936 53.8172 53.0255 55.5319 53.3639C56.9262 53.6396 58.298 54.0388 59.6253 54.5425C60.2642 54.7868 60.9089 55.0418 61.5171 55.3545C62.3547 55.7887 63.3847 55.4564 64.0018 54.763C64.7032 53.9759 65.4698 53.556 66.5311 53.3187C67.2516 53.1561 68.0418 53.0787 68.78 53.1799C68.78 53.1799 69.9255 53.5293 69.2827 51.8967C69.0766 52.0529 68.7499 51.9522 68.7499 51.9522V51.9522Z" fill="url(#paint13_radial_302_14663)"/>
<path style="mix-blend-mode:multiply" opacity="0.25" d="M64.0022 54.7596C64.7036 53.9726 65.4702 53.5527 66.5315 53.3153C67.252 53.1528 68.0422 53.0754 68.7804 53.1765C68.7804 53.1765 69.9259 53.5259 69.2831 51.8933C69.077 52.0496 68.7503 51.9488 68.7503 51.9488C68.0153 51.848 67.2218 51.9251 66.5014 52.0877C65.44 52.325 64.6734 52.7449 63.9721 53.532C63.6692 53.8724 63.2664 54.1247 62.8363 54.2415C62.8807 54.7494 62.794 55.1728 62.6721 55.5075C63.1743 55.4183 63.6536 55.15 63.9989 54.7593L64.0022 54.7596Z" fill="url(#paint14_radial_302_14663)"/>
<path style="mix-blend-mode:multiply" opacity="0.25" d="M63.9164 47.7671C62.9013 49.4446 56.3738 50.492 52.2368 50.2241C50.2325 50.0948 49.6037 49.5114 49.5815 48.8492C48.6899 49.5662 48.1466 50.3385 47.8316 51.0383C47.276 52.272 48.4049 52.9565 49.4776 53.1149C49.776 53.1584 50.0714 53.1642 50.3267 53.1285C52.0586 52.8869 53.8178 53.0188 55.5325 53.3572C56.9268 53.6328 58.2986 54.0321 59.6259 54.5358C60.2648 54.7801 60.9095 55.0351 61.5177 55.3478C62.3553 55.782 63.3853 55.4497 64.0024 54.7563C64.7038 53.9692 65.4704 53.5493 66.5317 53.312C67.2522 53.1494 68.0423 53.072 68.7806 53.1731C68.7806 53.1731 70.1736 53.5984 69.0244 51.3163C68.4543 50.1809 66.4339 48.7846 63.917 47.7603L63.9164 47.7671Z" fill="url(#paint15_radial_302_14663)"/>
<path d="M10.1377 75.8648C10.0427 75.9731 9.92117 76.0629 9.78385 76.1078C9.29792 76.261 8.9282 75.7407 8.81728 75.5585C8.79087 75.5163 8.74068 75.4925 8.69315 75.503C8.53469 75.5347 8.40264 75.6773 8.26003 75.7698C7.52058 76.2583 6.52495 74.4414 6.47477 74.3622C6.35593 74.1799 6.48005 73.9317 6.64115 73.7865C6.75999 73.6808 6.90261 73.6016 7.01617 73.4933C7.10596 73.4114 7.12708 73.282 7.06898 73.1738C6.90524 72.8674 6.15259 72.2626 6.15259 71.8243C6.15259 71.5549 7.6579 70.4642 7.82956 70.7758C8.21514 71.4783 9.27414 73.2134 10.2883 74.0849C11.1439 74.819 10.8455 75.0699 10.1404 75.8648H10.1377Z" fill="#FFCC00"/>
<path d="M5.74322 73.6333L5.05657 72.7274C4.99583 72.6456 4.98791 72.4977 5.01432 72.4052C5.04073 72.3128 5.11731 72.2019 5.2071 72.1544C5.30482 72.1042 5.42103 72.0778 5.5293 72.1121L5.62966 72.1544C5.69304 72.1913 5.74322 72.2415 5.78019 72.3049L6.46683 73.2107C6.52757 73.2926 6.53548 73.4405 6.50907 73.5329C6.48266 73.6254 6.40608 73.7363 6.31629 73.7838C6.21858 73.834 6.10238 73.8604 5.99411 73.8261L5.89375 73.7838C5.83037 73.7468 5.78019 73.6967 5.74322 73.6333Z" fill="#FFCC00"/>
<path d="M8.91759 77.2513C8.75914 77.0718 8.59277 76.8975 8.43167 76.7179C8.3947 76.6756 8.37093 76.6281 8.36036 76.5753C8.33924 76.5224 8.33395 76.4696 8.34188 76.4115C8.34452 76.3534 8.36301 76.3006 8.3947 76.2557C8.41582 76.2055 8.45016 76.1633 8.49505 76.1316C8.5822 76.0656 8.69047 76.0233 8.80139 76.0392L8.90968 76.0656C8.97834 76.092 9.03645 76.1342 9.08134 76.1897C9.24244 76.3693 9.40881 76.5436 9.56726 76.7231C9.60424 76.7654 9.62801 76.813 9.63857 76.8658C9.6597 76.9186 9.66498 76.9714 9.65706 77.0295C9.65442 77.0876 9.63593 77.1404 9.60424 77.1853C9.58311 77.2355 9.54878 77.2778 9.50388 77.3094C9.41673 77.3755 9.30845 77.4177 9.19753 77.4019L9.08926 77.3755C9.02059 77.3491 8.96249 77.3068 8.91759 77.2513Z" fill="#FFCC00"/>
<path d="M6.75479 76.8446C6.63067 76.7416 6.50919 76.636 6.39299 76.5224C6.30056 76.4327 6.21869 76.3349 6.13418 76.2399C6.09721 76.1976 6.07344 76.1474 6.06287 76.092C6.04175 76.0392 6.03647 75.9837 6.04703 75.9256C6.06023 75.8252 6.11834 75.7117 6.20285 75.6509C6.29264 75.5875 6.40356 75.5453 6.51448 75.5638C6.6254 75.5823 6.71518 75.6324 6.78913 75.7196C6.87364 75.8147 6.95551 75.915 7.04795 76.0022L6.97135 75.9282C7.06114 76.0154 7.1615 76.0946 7.25657 76.1738C7.34108 76.2451 7.40446 76.3376 7.42031 76.4485C7.43351 76.5488 7.40711 76.6782 7.34108 76.7575C7.27506 76.8367 7.17735 76.9106 7.06644 76.9212C6.95552 76.9318 6.84195 76.9133 6.75744 76.842L6.75479 76.8446Z" fill="#FFCC00"/>
<path d="M30.9296 64.3505C31.3046 65.5811 30.9217 66.7907 30.0766 67.0495C29.2288 67.3083 28.2385 66.5187 27.8635 65.2854C27.4885 64.0547 27.8714 62.8452 28.7165 62.5863C29.5616 62.3275 30.5546 63.1172 30.9296 64.3505Z" fill="#F7FCF8"/>
<path style="mix-blend-mode:multiply" opacity="0.25" d="M27.8742 64.8126C28.2492 66.0433 29.2395 66.8329 30.0872 66.5768C30.6392 66.4077 30.9904 65.8373 31.067 65.119C31.1225 66.0512 30.7448 66.8488 30.0767 67.0521C29.229 67.3109 28.2386 66.5213 27.8636 65.288C27.7316 64.8575 27.6946 64.4323 27.7368 64.0494C27.7527 64.2977 27.7949 64.5538 27.8742 64.8153V64.8126Z" fill="url(#paint16_radial_302_14663)"/>
<path style="mix-blend-mode:multiply" opacity="0.25" d="M30.0607 64.5221C30.2905 65.2748 30.0555 66.0116 29.5405 66.1674C29.0255 66.3232 28.4181 65.8426 28.191 65.0926C27.9612 64.3399 28.1963 63.6031 28.7112 63.4473C29.2289 63.2888 29.8336 63.7721 30.0607 64.5221Z" fill="url(#paint17_radial_302_14663)"/>
<path style="mix-blend-mode:multiply" opacity="0.25" d="M30.0609 64.5221C30.2378 65.1005 30.1401 65.6683 29.8496 65.972C29.4772 65.8399 29.126 65.4464 28.9649 64.9156C28.788 64.3373 28.8857 63.7695 29.1762 63.4658C29.5486 63.5978 29.8998 63.9913 30.0609 64.5221Z" fill="url(#paint18_radial_302_14663)"/>
<path d="M29.8468 64.7598C28.6294 58.5721 22.4576 54.5738 16.0586 55.8335C9.66235 57.0906 5.46329 63.1304 6.68075 69.318C7.89821 75.5057 13.5709 78.2549 19.9672 76.9978C26.3635 75.7407 31.0617 70.9501 29.8442 64.7624L29.8468 64.7598Z" fill="#F7FCF8"/>
<path style="mix-blend-mode:multiply" opacity="0.25" d="M9.10241 59.956C7.68424 62.2879 7.09796 65.1005 7.65784 67.9447C8.8753 74.1324 14.548 76.8816 20.9443 75.6245C24.1635 74.9907 26.9524 73.4642 28.7719 71.3145C27.0791 74.1852 23.8334 76.2372 19.9671 76.9978C13.5708 78.2549 7.89816 75.5083 6.68069 69.318C6.00726 65.8875 6.9976 62.5071 9.09976 59.9586L9.10241 59.956Z" fill="url(#paint19_radial_302_14663)"/>
<path d="M29.72 65.1374C28.7191 60.051 23.6459 56.7658 18.3879 57.801C13.1298 58.8362 9.67815 63.7985 10.6791 68.8849C11.68 73.9713 16.3438 76.2319 21.5992 75.1967C26.8573 74.1615 30.7183 70.2265 29.7174 65.1401L29.72 65.1374Z" fill="url(#paint20_radial_302_14663)"/>
<path style="mix-blend-mode:multiply" opacity="0.25" d="M29.9024 64.8945C28.8777 59.684 23.5985 56.3353 18.1133 57.4128C12.6281 58.4929 9.01273 63.5899 10.0374 68.8004C11.0621 74.0109 15.9161 76.3112 21.4013 75.231C26.8864 74.1509 30.927 70.1024 29.9024 64.8918V64.8945Z" fill="url(#paint21_radial_302_14663)"/>
<path style="mix-blend-mode:screen" d="M22.0457 68.8717C25.3231 68.2273 28.0564 66.4553 29.4112 63.9781C29.538 64.3531 29.6436 64.7387 29.7228 65.1375C30.7237 70.2239 26.8627 74.1615 21.6047 75.1941C16.3466 76.2293 11.6827 73.9687 10.6845 68.8823C10.3042 66.9544 10.5656 65.0424 11.3236 63.3575C12.6361 67.8787 17.0755 69.8515 22.0483 68.8717H22.0457Z" fill="url(#paint22_radial_302_14663)"/>
<path d="M11.4925 63.1013C11.54 63.2545 11.5902 63.4024 11.6457 63.5503C11.4001 64.6594 11.3816 65.8294 11.6245 67.0072C12.6202 71.7926 17.1916 73.9317 22.3308 72.9783C25.2147 72.4422 27.6655 71.0478 29.0863 69.0803C27.9163 71.7213 25.0694 73.6201 21.5914 74.2645C16.4495 75.2178 11.8807 73.0787 10.8851 68.2933C10.5074 66.479 10.7557 64.6832 11.4925 63.1013V63.1013Z" fill="url(#paint23_radial_302_14663)"/>
<path style="mix-blend-mode:screen" d="M24.8264 64.7756C24.5227 62.8927 23.7991 60.8618 22.3123 58.9788C22.3123 58.9788 25.5843 59.5493 27.5914 62.655C26.8441 63.6216 25.9013 64.2976 24.8238 64.7756H24.8264Z" fill="url(#paint24_radial_302_14663)"/>
<path style="mix-blend-mode:screen" d="M24.919 65.4465C26.0889 64.9526 27.1268 64.2528 27.9507 63.2545C29.604 66.2863 28.7377 68.671 28.0405 69.5927C27.309 70.5593 25.4736 71.6816 24.2852 71.9246C24.2852 71.9246 25.323 69.0328 24.919 65.4465V65.4465Z" fill="url(#paint25_radial_302_14663)"/>
<path style="mix-blend-mode:screen" opacity="0.45" d="M23.4241 58.8864C24.9744 59.2957 28.4736 60.6532 27.6734 63.6955C27.0924 65.9086 23.9312 67.7361 18.0182 67.5512C12.1078 67.3664 13.2883 61.7491 16.1194 60.265C18.9504 58.7808 21.9294 58.4903 23.4215 58.8864H23.4241Z" fill="url(#paint26_radial_302_14663)"/>
<path style="mix-blend-mode:screen" d="M25.2332 61.2157C24.9955 61.4349 25.1672 62.0106 25.6161 62.4992C26.0651 62.9877 26.625 63.207 26.8626 62.9878C27.1003 62.7686 26.9287 62.1928 26.4797 61.7043C26.0308 61.2157 25.4709 60.9965 25.2332 61.2157Z" fill="url(#paint27_radial_302_14663)"/>
<path style="mix-blend-mode:screen" d="M23.7965 60.0748C23.6829 60.2385 23.8651 60.5607 24.2032 60.7931C24.5412 61.0255 24.9056 61.0784 25.0192 60.9146C25.1328 60.7509 24.9505 60.4287 24.6125 60.1963C24.2745 59.9639 23.91 59.9111 23.7965 60.0748Z" fill="url(#paint28_radial_302_14663)"/>
<path style="mix-blend-mode:multiply" opacity="0.25" d="M12.6676 69.862C13.0426 71.0927 12.5699 72.3287 11.6112 72.6218C10.6526 72.9149 9.57245 72.1517 9.1948 70.921C8.81979 69.6904 9.29252 68.4544 10.2512 68.1613C11.2098 67.8681 12.2899 68.6314 12.6676 69.862Z" fill="url(#paint29_radial_302_14663)"/>
<path d="M11.3528 72.5734C12.1997 72.3153 12.5818 71.1074 12.2064 69.8755C11.8309 68.6435 10.84 67.8541 9.99312 68.1122C9.14624 68.3703 8.76409 69.5782 9.13956 70.8102C9.51503 72.0421 10.5059 72.8316 11.3528 72.5734Z" fill="#F7FCF8"/>
<path style="mix-blend-mode:multiply" opacity="0.25" d="M9.15271 70.3348C9.52772 71.5654 10.5181 72.3551 11.3658 72.0989C11.9177 71.9299 12.269 71.3595 12.3456 70.6411C12.401 71.5734 12.0234 72.3709 11.3552 72.5743C10.5075 72.8331 9.51716 72.0435 9.14215 70.8102C9.01011 70.3797 8.97314 69.9545 9.01539 69.5716C9.03124 69.8198 9.07348 70.076 9.15271 70.3374V70.3348Z" fill="url(#paint30_radial_302_14663)"/>
<path d="M11.342 70.0443C11.5718 70.7969 11.3367 71.5337 10.8217 71.6896C10.3041 71.848 9.69935 71.3647 9.47224 70.6147C9.24248 69.862 9.47751 69.1252 9.99249 68.9694C10.5075 68.8136 11.1149 69.2942 11.342 70.0443Z" fill="#F3A400"/>
<g style="mix-blend-mode:multiply" opacity="0.5">
<path d="M11.3419 70.0443C11.5188 70.6226 11.4211 71.1904 11.1306 71.4941C10.7583 71.3621 10.407 70.9686 10.2459 70.4378C10.069 69.8594 10.1667 69.2916 10.4572 68.9879C10.8296 69.12 11.1808 69.5135 11.3419 70.0443Z" fill="#F3A400"/>
</g>
<path style="mix-blend-mode:multiply" opacity="0.46" d="M8.90429 60.1329C8.89637 60.1065 8.88846 60.0775 8.88317 60.0458C8.88317 60.0405 8.88317 60.0379 8.88317 60.0326C8.87789 60.0009 8.87524 59.9666 8.87524 59.9269C8.87524 59.9217 8.87524 59.9137 8.87524 59.9085C8.87524 59.8768 8.87525 59.8424 8.88053 59.8028C8.88053 59.7949 8.88053 59.787 8.88317 59.779C8.88317 59.7711 8.88316 59.7632 8.8858 59.7553C8.8858 59.7394 8.88845 59.7262 8.89109 59.7104C8.89637 59.6734 8.9043 59.6338 8.91222 59.5942C8.91222 59.5889 8.91485 59.581 8.91749 59.573C8.93862 59.4753 8.96768 59.3644 9.00729 59.2403C9.03634 59.1479 9.07068 59.0475 9.11293 58.9366C9.13406 58.8811 9.15782 58.8257 9.18423 58.7702C9.19479 58.7491 9.20536 58.7306 9.21856 58.7095C9.23705 58.6725 9.25818 58.6355 9.27931 58.5986C9.2978 58.5669 9.32156 58.5352 9.34005 58.5035C9.35853 58.4771 9.37438 58.4507 9.39287 58.4216C9.41928 58.382 9.45096 58.3424 9.48001 58.3028C9.49585 58.2816 9.50907 58.2605 9.52491 58.2394C9.56189 58.1919 9.6015 58.147 9.64112 58.0994C9.65432 58.0836 9.66487 58.0704 9.67808 58.0545C9.72297 58.0043 9.76787 57.9542 9.81541 57.904C9.82597 57.8908 9.83654 57.8802 9.84974 57.867C9.90256 57.8116 9.96066 57.7535 10.0188 57.6954C10.0267 57.6901 10.032 57.6822 10.0373 57.6769C10.1006 57.6161 10.164 57.5554 10.2327 57.4947C10.2353 57.492 10.238 57.4894 10.2432 57.4867C11.9572 55.9392 15.1685 54.3388 17.791 54.5131C20.527 54.6953 22.0244 55.5879 22.8325 56.5307C22.8457 56.5439 22.8562 56.5598 22.8694 56.573C22.9091 56.6179 22.9434 56.6654 22.9804 56.7103C23.0015 56.7367 23.02 56.7631 23.0385 56.7895C23.0675 56.8291 23.0939 56.8661 23.1203 56.9057C23.1467 56.9427 23.1705 56.9823 23.1943 57.0193C23.2128 57.0483 23.2312 57.0774 23.2471 57.1064C23.2867 57.1751 23.3237 57.2411 23.358 57.3098C23.7964 58.1734 23.0728 58.7491 22.3571 58.9392C22.159 58.9921 21.961 59.0158 21.7867 59.0053C20.902 58.9604 20.0199 59.0686 19.1563 59.2799C18.8685 59.3512 18.5806 59.4304 18.298 59.5229C17.6035 59.7447 16.9247 60.0141 16.2619 60.331C16.04 60.4366 15.8208 60.5449 15.6043 60.6611C15.5013 60.7166 15.3957 60.772 15.2927 60.8275C14.981 60.9965 14.6694 61.1761 14.3763 61.3794C13.9115 61.699 13.3252 61.6171 12.8815 61.2949C12.8815 61.2949 12.8762 61.2923 12.8736 61.2896C12.8419 61.2685 12.8128 61.2448 12.7838 61.2183C12.7785 61.2131 12.7706 61.2078 12.7653 61.2025C12.7336 61.1735 12.6993 61.1444 12.6702 61.1127C12.4774 60.9146 12.282 60.7562 12.0734 60.6268C11.9334 60.5423 11.7908 60.471 11.6376 60.4129C11.5611 60.3838 11.4845 60.3574 11.4026 60.3336C11.2415 60.2861 11.0725 60.2518 10.8903 60.228C10.7661 60.2095 10.642 60.1963 10.5126 60.1884C10.1297 60.1646 9.73618 60.1858 9.36909 60.2782C9.36909 60.2782 9.36646 60.2782 9.36118 60.2808C9.3559 60.2808 9.34797 60.2861 9.34005 60.2887C9.34005 60.2887 9.34005 60.2887 9.3374 60.2887C9.32948 60.2914 9.31892 60.294 9.30571 60.2993C9.30571 60.2993 9.30307 60.2993 9.30043 60.2993C9.28722 60.3019 9.27403 60.3046 9.26082 60.3072C9.26082 60.3072 9.25818 60.3072 9.25554 60.3072C9.23969 60.3099 9.22385 60.3125 9.208 60.3125C9.19216 60.3125 9.17367 60.3125 9.15518 60.3125C9.15518 60.3125 9.15518 60.3125 9.15254 60.3125C9.13669 60.3125 9.1182 60.3099 9.10236 60.3046C9.10236 60.3046 9.09709 60.3046 9.09444 60.3046C9.0786 60.2993 9.06275 60.294 9.04427 60.2861C9.04427 60.2861 9.03898 60.2861 9.03634 60.2835C9.02049 60.2755 9.00465 60.265 8.99145 60.2544C8.99145 60.2544 8.98616 60.2518 8.98616 60.2491C8.97031 60.2359 8.95712 60.2201 8.94655 60.2016C8.94655 60.2016 8.94655 60.199 8.94391 60.1963C8.93071 60.1778 8.92014 60.1541 8.91222 60.1303C8.91222 60.1303 8.91222 60.1303 8.91222 60.1277L8.90429 60.1329Z" fill="url(#paint31_radial_302_14663)"/>
<path d="M22.3837 58.6144C23.0967 58.4454 23.815 57.9225 23.3714 57.1249C22.7692 56.0395 21.2798 54.7534 17.7911 54.5157C14.3025 54.278 9.78915 56.9242 9.14741 58.5246C8.50566 60.125 9.41677 59.7579 9.41677 59.7579C9.90534 59.647 10.4414 59.6549 10.9353 59.7209C11.6615 59.8187 12.2029 60.0563 12.7179 60.5476C13.1721 60.978 13.8826 61.1418 14.4213 60.8037C14.8122 60.5581 15.2321 60.3495 15.6467 60.1514C16.5103 59.7341 17.4082 59.3882 18.3299 59.1241C19.4628 58.7993 20.6354 58.6118 21.8132 58.6752C21.9849 58.6857 22.183 58.6646 22.381 58.617L22.3837 58.6144Z" fill="#F7FCF8"/>
<path style="mix-blend-mode:multiply" opacity="0.25" d="M9.36658 58.9313C9.85514 58.8204 10.3913 58.8283 10.8851 58.8943C11.6114 58.992 12.1527 59.2297 12.6677 59.7209C13.122 60.1514 13.8324 60.3151 14.3711 59.9771C14.762 59.7315 15.1819 59.5229 15.5965 59.3248C16.4601 58.9075 17.358 58.5616 18.2797 58.2975C19.4126 57.9727 20.5852 57.7851 21.763 57.8485C21.9347 57.8591 22.1328 57.838 22.3308 57.7904C22.7587 57.6874 23.1865 57.4603 23.3661 57.1196C23.3661 57.1196 23.3661 57.1249 23.3687 57.1249C23.8124 57.9225 23.0941 58.4454 22.381 58.6144C22.1829 58.6619 21.9849 58.6804 21.8132 58.6725C20.6354 58.6091 19.4628 58.7966 18.3298 59.1214C17.4082 59.3855 16.5103 59.7315 15.6467 60.1488C15.2321 60.3495 14.8121 60.5555 14.4213 60.8011C13.8825 61.1391 13.1721 60.978 12.7179 60.5449C12.2029 60.0563 11.6615 59.8187 10.9353 59.7183C10.4414 59.6523 9.90532 59.6443 9.41675 59.7553C9.41675 59.7553 8.66673 60.0563 9.00477 58.9207C9.15266 59.0132 9.36658 58.9286 9.36658 58.9286V58.9313Z" fill="url(#paint32_radial_302_14663)"/>
<path style="mix-blend-mode:multiply" opacity="0.25" d="M12.7179 60.5475C12.2029 60.059 11.6615 59.8213 10.9353 59.7209C10.4414 59.6549 9.90532 59.647 9.41675 59.7579C9.41675 59.7579 8.66673 60.059 9.00477 58.9234C9.15266 59.0158 9.36658 58.9313 9.36658 58.9313C9.85514 58.8204 10.3913 58.8283 10.8851 58.8943C11.6114 58.992 12.1527 59.2297 12.6677 59.7209C12.8896 59.9322 13.1748 60.0774 13.4706 60.1329C13.4706 60.4762 13.5524 60.7562 13.6528 60.9727C13.3121 60.941 12.9741 60.7879 12.7179 60.5449V60.5475Z" fill="url(#paint33_radial_302_14663)"/>
<path style="mix-blend-mode:multiply" opacity="0.25" d="M12.3746 55.8441C13.151 56.9137 17.601 57.2464 20.3634 56.8292C21.7023 56.6258 22.0905 56.2006 22.0694 55.7543C22.7085 56.1874 23.1178 56.6733 23.3687 57.1249C23.8124 57.9225 23.0941 58.4454 22.381 58.6144C22.183 58.6619 21.9849 58.6804 21.8132 58.6725C20.6354 58.6091 19.4628 58.7966 18.3299 59.1215C17.4082 59.3856 16.5103 59.7315 15.6467 60.1488C15.2321 60.3495 14.8122 60.5555 14.4213 60.8011C13.8826 61.1391 13.1721 60.978 12.7179 60.5449C12.2029 60.0564 11.6615 59.8187 10.9353 59.7183C10.4414 59.6523 9.90534 59.6444 9.41677 59.7553C9.41677 59.7553 8.50566 60.1224 9.14741 58.522C9.46696 57.7271 10.7452 56.6707 12.3772 55.8414L12.3746 55.8441Z" fill="url(#paint34_radial_302_14663)"/>
<path d="M18.9042 68.9971C20.0154 68.7898 20.8444 68.237 20.7558 67.7624C20.6673 67.2878 19.6947 67.0712 18.5835 67.2785C17.4723 67.4859 16.6433 68.0387 16.7319 68.5133C16.8204 68.9879 17.793 69.2045 18.9042 68.9971Z" fill="url(#paint35_radial_302_14663)"/>
<path d="M26.0324 67.5426C27.1436 67.3353 27.9726 66.7825 27.884 66.3079C27.7955 65.8333 26.8229 65.6167 25.7117 65.824C24.6005 66.0314 23.7715 66.5842 23.8601 67.0588C23.9486 67.5334 24.9212 67.75 26.0324 67.5426Z" fill="url(#paint36_radial_302_14663)"/>
<path d="M18.6045 68.3699C19.7538 68.3699 20.6855 67.4382 20.6855 66.2889C20.6855 65.1396 19.7538 64.2079 18.6045 64.2079C17.4552 64.2079 16.5234 65.1396 16.5234 66.2889C16.5234 67.4382 17.4552 68.3699 18.6045 68.3699Z" fill="url(#paint37_radial_302_14663)"/>
<path d="M25.1514 66.6744C26.1563 66.6744 26.971 65.8598 26.971 64.8549C26.971 63.8499 26.1563 63.0353 25.1514 63.0353C24.1464 63.0353 23.3318 63.8499 23.3318 64.8549C23.3318 65.8598 24.1464 66.6744 25.1514 66.6744Z" fill="url(#paint38_radial_302_14663)"/>
<path style="mix-blend-mode:screen" opacity="0.45" d="M18.6044 67.3479C19.1893 67.3479 19.6634 66.8738 19.6634 66.2889C19.6634 65.704 19.1893 65.2299 18.6044 65.2299C18.0195 65.2299 17.5454 65.704 17.5454 66.2889C17.5454 66.8738 18.0195 67.3479 18.6044 67.3479Z" fill="url(#paint39_radial_302_14663)"/>
<path style="mix-blend-mode:screen" opacity="0.45" d="M25.1513 65.8822C25.7187 65.8822 26.1787 65.4222 26.1787 64.8549C26.1787 64.2875 25.7187 63.8276 25.1513 63.8276C24.584 63.8276 24.124 64.2875 24.124 64.8549C24.124 65.4222 24.584 65.8822 25.1513 65.8822Z" fill="url(#paint40_radial_302_14663)"/>
<g style="mix-blend-mode:screen">
<path d="M18.6044 67.3479C19.1893 67.3479 19.6634 66.8738 19.6634 66.2889C19.6634 65.704 19.1893 65.2299 18.6044 65.2299C18.0195 65.2299 17.5454 65.704 17.5454 66.2889C17.5454 66.8738 18.0195 67.3479 18.6044 67.3479Z" fill="white"/>
</g>
<g style="mix-blend-mode:screen">
<path d="M25.1513 65.8822C25.7187 65.8822 26.1787 65.4222 26.1787 64.8549C26.1787 64.2875 25.7187 63.8276 25.1513 63.8276C24.584 63.8276 24.124 64.2875 24.124 64.8549C24.124 65.4222 24.584 65.8822 25.1513 65.8822Z" fill="white"/>
</g>
<g style="mix-blend-mode:screen">
<path d="M18.8393 68.6493C19.5003 68.5259 19.9934 68.197 19.9407 67.9145C19.888 67.632 19.3094 67.5031 18.6485 67.6264C17.9875 67.7497 17.4944 68.0787 17.5471 68.3612C17.5998 68.6436 18.1784 68.7726 18.8393 68.6493Z" fill="white"/>
</g>
<path d="M25.9626 67.1796C26.6236 67.0563 27.1167 66.7273 27.064 66.4449C27.0113 66.1624 26.4327 66.0334 25.7718 66.1568C25.1108 66.2801 24.6177 66.6091 24.6704 66.8915C24.7231 67.174 25.3016 67.303 25.9626 67.1796Z" fill="#F493A4"/>
<g style="mix-blend-mode:screen">
<path d="M25.9626 67.1796C26.6236 67.0563 27.1167 66.7273 27.064 66.4449C27.0113 66.1624 26.4327 66.0334 25.7718 66.1568C25.1108 66.2801 24.6177 66.6091 24.6704 66.8915C24.7231 67.174 25.3016 67.303 25.9626 67.1796Z" fill="white"/>
</g>
<path d="M24.7341 67.3321C24.6444 66.9359 23.4586 66.9544 22.5237 67.1287C21.5888 67.303 20.4347 67.8761 20.5034 68.2749C20.7464 69.7036 22.2913 70.1473 23.2262 69.973C24.1611 69.7987 25.0062 68.5099 24.7368 67.3321H24.7341Z" fill="url(#paint41_radial_302_14663)"/>
<g style="mix-blend-mode:screen">
<path d="M23.9707 67.7625C23.9074 67.4826 23.0702 67.4958 22.41 67.6199C21.7497 67.744 20.9337 68.1481 20.9812 68.4307C21.1529 69.4395 22.2436 69.7538 22.9065 69.6296C23.5693 69.5055 24.1635 68.5944 23.9734 67.7625H23.9707Z" fill="white"/>
</g>
<defs>
<radialGradient id="paint0_radial_302_14663" cx="0" cy="0" r="1" gradientUnits="userSpaceOnUse" gradientTransform="translate(70.0009 36.0947) rotate(-15.62) scale(6.67011 6.67009)">
<stop stop-color="#52DFEC"/>
<stop offset="0.94" stop-color="#408BED"/>
</radialGradient>
<radialGradient id="paint1_radial_302_14663" cx="0" cy="0" r="1" gradientUnits="userSpaceOnUse" gradientTransform="translate(38.8612 11.7391) rotate(-21.1805) scale(12.8951 12.8951)">
<stop stop-color="#52DFEC"/>
<stop offset="0.94" stop-color="#408BED"/>
</radialGradient>
<radialGradient id="paint2_radial_302_14663" cx="0" cy="0" r="1" gradientUnits="userSpaceOnUse" gradientTransform="translate(50.809 10.7984) rotate(-21.1805) scale(4.42494 4.42494)">
<stop stop-color="#52DFEC"/>
<stop offset="0.94" stop-color="#408BED"/>
</radialGradient>
<radialGradient id="paint3_radial_302_14663" cx="0" cy="0" r="1" gradientUnits="userSpaceOnUse" gradientTransform="translate(27.8887 8.4947) rotate(-21.1804) scale(30.793 30.7929)">
<stop stop-color="#52DFEC"/>
<stop offset="0.94" stop-color="#408BED"/>
</radialGradient>
<radialGradient id="paint4_radial_302_14663" cx="0" cy="0" r="1" gradientUnits="userSpaceOnUse" gradientTransform="translate(42.6622 48.5508) rotate(-15.6177) scale(30.5053 30.5012)">
<stop stop-color="#52DFEC"/>
<stop offset="0.94" stop-color="#408BED"/>
</radialGradient>
<radialGradient id="paint5_radial_302_14663" cx="0" cy="0" r="1" gradientUnits="userSpaceOnUse" gradientTransform="translate(74.7989 42.1316) rotate(-15.62) scale(10.3587 10.3587)">
<stop stop-color="#52DFEC"/>
<stop offset="0.94" stop-color="#408BED"/>
</radialGradient>
<radialGradient id="paint6_radial_302_14663" cx="0" cy="0" r="1" gradientUnits="userSpaceOnUse" gradientTransform="translate(41.4664 66.2166) rotate(-9.90262) scale(4.80996)">
<stop stop-color="#52DFEC"/>
<stop offset="0.94" stop-color="#408BED"/>
</radialGradient>
<radialGradient id="paint7_radial_302_14663" cx="0" cy="0" r="1" gradientUnits="userSpaceOnUse" gradientTransform="translate(40.0192 59.1676) rotate(-9.90262) scale(8.37764)">
<stop stop-color="#52DFEC"/>
<stop offset="0.94" stop-color="#408BED"/>
</radialGradient>
<radialGradient id="paint8_radial_302_14663" cx="0" cy="0" r="1" gradientUnits="userSpaceOnUse" gradientTransform="translate(39.3688 59.5354) rotate(-9.9026) scale(7.38926 7.38925)">
<stop stop-color="#52DFEC"/>
<stop offset="0.94" stop-color="#408BED"/>
</radialGradient>
<radialGradient id="paint9_radial_302_14663" cx="0" cy="0" r="1" gradientUnits="userSpaceOnUse" gradientTransform="translate(57.8439 67.9345) rotate(-9.90261) scale(14.721 14.721)">
<stop stop-color="#52DFEC"/>
<stop offset="0.94" stop-color="#408BED"/>
</radialGradient>
<radialGradient id="paint10_radial_302_14663" cx="0" cy="0" r="1" gradientUnits="userSpaceOnUse" gradientTransform="translate(67.8923 69.0631) rotate(-9.90257) scale(3.0972 3.09719)">
<stop stop-color="#52DFEC"/>
<stop offset="0.94" stop-color="#408BED"/>
</radialGradient>
<radialGradient id="paint11_radial_302_14663" cx="0" cy="0" r="1" gradientUnits="userSpaceOnUse" gradientTransform="translate(69.8215 72.025) rotate(-9.90261) scale(4.80996 4.80996)">
<stop stop-color="#52DFEC"/>
<stop offset="0.94" stop-color="#408BED"/>
</radialGradient>
<radialGradient id="paint12_radial_302_14663" cx="0" cy="0" r="1" gradientUnits="userSpaceOnUse" gradientTransform="translate(52.2794 48.382) rotate(-9.9026) scale(19.8931 19.8931)">
<stop stop-color="#52DFEC"/>
<stop offset="0.94" stop-color="#408BED"/>
</radialGradient>
<radialGradient id="paint13_radial_302_14663" cx="0" cy="0" r="1" gradientUnits="userSpaceOnUse" gradientTransform="translate(58.6825 52.6623) rotate(-9.90259) scale(7.93085 7.93084)">
<stop stop-color="#52DFEC"/>
<stop offset="0.94" stop-color="#408BED"/>
</radialGradient>
<radialGradient id="paint14_radial_302_14663" cx="0" cy="0" r="1" gradientUnits="userSpaceOnUse" gradientTransform="translate(66.0027 53.5354) rotate(-9.90259) scale(2.72148 2.72147)">
<stop stop-color="#52DFEC"/>
<stop offset="0.94" stop-color="#408BED"/>
</radialGradient>
<radialGradient id="paint15_radial_302_14663" cx="0" cy="0" r="1" gradientUnits="userSpaceOnUse" gradientTransform="translate(52.4551 49.389) rotate(-9.90263) scale(18.9386 18.9386)">
<stop stop-color="#52DFEC"/>
<stop offset="0.94" stop-color="#408BED"/>
</radialGradient>
<radialGradient id="paint16_radial_302_14663" cx="0" cy="0" r="1" gradientUnits="userSpaceOnUse" gradientTransform="translate(28.5346 66.9724) rotate(-174.96) scale(0.132046)">
<stop stop-color="#52DFEC"/>
<stop offset="0.94" stop-color="#408BED"/>
</radialGradient>
<radialGradient id="paint17_radial_302_14663" cx="0" cy="0" r="1" gradientUnits="userSpaceOnUse" gradientTransform="translate(29.1027 62.1523) rotate(-174.96) scale(5.65153 5.65155)">
<stop stop-color="#52DFEC"/>
<stop offset="0.94" stop-color="#408BED"/>
</radialGradient>
<radialGradient id="paint18_radial_302_14663" cx="0" cy="0" r="1" gradientUnits="userSpaceOnUse" gradientTransform="translate(29.5618 62.3598) rotate(-174.96) scale(4.98337 4.9834)">
<stop stop-color="#52DFEC"/>
<stop offset="0.94" stop-color="#408BED"/>
</radialGradient>
<radialGradient id="paint19_radial_302_14663" cx="0" cy="0" r="1" gradientUnits="userSpaceOnUse" gradientTransform="translate(17.6262 69.0618) rotate(-174.96) scale(9.9272)">
<stop stop-color="#52DFEC"/>
<stop offset="0.94" stop-color="#408BED"/>
</radialGradient>
<radialGradient id="paint20_radial_302_14663" cx="0" cy="0" r="1" gradientUnits="userSpaceOnUse" gradientTransform="translate(25.8624 60.1751) rotate(-174.96) scale(22.7488 22.7488)">
<stop offset="0.06" stop-color="#000A57"/>
<stop offset="0.96" stop-color="#000328"/>
</radialGradient>
<radialGradient id="paint21_radial_302_14663" cx="0" cy="0" r="1" gradientUnits="userSpaceOnUse" gradientTransform="translate(27.4887 60.6506) rotate(-175.23) scale(23.6588 23.4313)">
<stop stop-color="#52DFEC"/>
<stop offset="0.94" stop-color="#408BED"/>
</radialGradient>
<radialGradient id="paint22_radial_302_14663" cx="0" cy="0" r="1" gradientUnits="userSpaceOnUse" gradientTransform="translate(13.7182 76.6415) rotate(-174.96) scale(12.6975 12.6975)">
<stop offset="0.04" stop-color="#000328"/>
<stop offset="0.94" stop-color="#000A57"/>
</radialGradient>
<radialGradient id="paint23_radial_302_14663" cx="0" cy="0" r="1" gradientUnits="userSpaceOnUse" gradientTransform="translate(20.8209 65.0036) rotate(-174.96) scale(26.874 26.8739)">
<stop offset="0.06" stop-color="#000A57"/>
<stop offset="0.96" stop-color="#000328"/>
</radialGradient>
<radialGradient id="paint24_radial_302_14663" cx="0" cy="0" r="1" gradientUnits="userSpaceOnUse" gradientTransform="translate(27.3693 60.5578) rotate(-179.35) scale(13.1412 13.1412)">
<stop offset="0.04" stop-color="#000328"/>
<stop offset="0.94" stop-color="#000A57"/>
</radialGradient>
<radialGradient id="paint25_radial_302_14663" cx="0" cy="0" r="1" gradientUnits="userSpaceOnUse" gradientTransform="translate(27.3694 60.5579) rotate(-179.35) scale(13.1412 13.1412)">
<stop offset="0.04" stop-color="#000328"/>
<stop offset="0.94" stop-color="#000A57"/>
</radialGradient>
<radialGradient id="paint26_radial_302_14663" cx="0" cy="0" r="1" gradientUnits="userSpaceOnUse" gradientTransform="translate(24.7382 60.0255) rotate(-174.96) scale(13.9968 13.9968)">
<stop offset="0.04" stop-color="#000328"/>
<stop offset="0.94" stop-color="#000A57"/>
</radialGradient>
<radialGradient id="paint27_radial_302_14663" cx="0" cy="0" r="1" gradientUnits="userSpaceOnUse" gradientTransform="translate(26.8039 62.26) rotate(-132.65) scale(2.21573 2.21573)">
<stop offset="0.04" stop-color="#000328"/>
<stop offset="0.94" stop-color="#000A57"/>
</radialGradient>
<radialGradient id="paint28_radial_302_14663" cx="0" cy="0" r="1" gradientUnits="userSpaceOnUse" gradientTransform="translate(24.8798 60.4894) rotate(-145.54) scale(1.36535 1.36535)">
<stop offset="0.04" stop-color="#000328"/>
<stop offset="0.94" stop-color="#000A57"/>
</radialGradient>
<radialGradient id="paint29_radial_302_14663" cx="0" cy="0" r="1" gradientUnits="userSpaceOnUse" gradientTransform="translate(10.9388 70.3968) rotate(-174.96) scale(2.08896 2.08897)">
<stop stop-color="#52DFEC"/>
<stop offset="0.94" stop-color="#408BED"/>
</radialGradient>
<radialGradient id="paint30_radial_302_14663" cx="0" cy="0" r="1" gradientUnits="userSpaceOnUse" gradientTransform="translate(9.81276 72.4953) rotate(-174.96) scale(3.24304 3.24304)">
<stop stop-color="#52DFEC"/>
<stop offset="0.94" stop-color="#408BED"/>
</radialGradient>
<radialGradient id="paint31_radial_302_14663" cx="0" cy="0" r="1" gradientUnits="userSpaceOnUse" gradientTransform="translate(20.2472 55.605) rotate(-174.96) scale(13.4159 13.4158)">
<stop stop-color="#52DFEC"/>
<stop offset="0.94" stop-color="#408BED"/>
</radialGradient>
<radialGradient id="paint32_radial_302_14663" cx="0" cy="0" r="1" gradientUnits="userSpaceOnUse" gradientTransform="translate(16.1888 58.8474) rotate(-174.96) scale(5.34785 5.34786)">
<stop stop-color="#52DFEC"/>
<stop offset="0.94" stop-color="#408BED"/>
</radialGradient>
<radialGradient id="paint33_radial_302_14663" cx="0" cy="0" r="1" gradientUnits="userSpaceOnUse" gradientTransform="translate(11.3201 59.8523) rotate(-174.96) scale(1.83544)">
<stop stop-color="#52DFEC"/>
<stop offset="0.94" stop-color="#408BED"/>
</radialGradient>
<radialGradient id="paint34_radial_302_14663" cx="0" cy="0" r="1" gradientUnits="userSpaceOnUse" gradientTransform="translate(20.1868 56.2917) rotate(-174.96) scale(12.7741)">
<stop stop-color="#52DFEC"/>
<stop offset="0.94" stop-color="#408BED"/>
</radialGradient>
<radialGradient id="paint35_radial_302_14663" cx="0" cy="0" r="1" gradientUnits="userSpaceOnUse" gradientTransform="translate(18.7438 68.1376) rotate(168.78) scale(0.132046 0.0594205)">
<stop stop-color="#00F1CD"/>
<stop offset="0.12" stop-color="#00ECC9" stop-opacity="0.98"/>
<stop offset="0.25" stop-color="#00DFBE" stop-opacity="0.93"/>
<stop offset="0.38" stop-color="#00CAAC" stop-opacity="0.84"/>
<stop offset="0.52" stop-color="#00AD93" stop-opacity="0.72"/>
<stop offset="0.65" stop-color="#008672" stop-opacity="0.56"/>
<stop offset="0.79" stop-color="#00574A" stop-opacity="0.36"/>
<stop offset="0.92" stop-color="#00211C" stop-opacity="0.14"/>
<stop offset="1" stop-opacity="0"/>
</radialGradient>
<radialGradient id="paint36_radial_302_14663" cx="0" cy="0" r="1" gradientUnits="userSpaceOnUse" gradientTransform="translate(25.8722 66.6842) rotate(168.78) scale(2.19196 0.986381)">
<stop stop-color="#00F1CD"/>
<stop offset="0.12" stop-color="#00ECC9" stop-opacity="0.98"/>
<stop offset="0.25" stop-color="#00DFBE" stop-opacity="0.93"/>
<stop offset="0.38" stop-color="#00CAAC" stop-opacity="0.84"/>
<stop offset="0.52" stop-color="#00AD93" stop-opacity="0.72"/>
<stop offset="0.65" stop-color="#008672" stop-opacity="0.56"/>
<stop offset="0.79" stop-color="#00574A" stop-opacity="0.36"/>
<stop offset="0.92" stop-color="#00211C" stop-opacity="0.14"/>
<stop offset="1" stop-opacity="0"/>
</radialGradient>
<radialGradient id="paint37_radial_302_14663" cx="0" cy="0" r="1" gradientUnits="userSpaceOnUse" gradientTransform="translate(18.6045 66.2889) rotate(180) scale(2.08103)">
<stop stop-color="#00F1CD"/>
<stop offset="0.12" stop-color="#00ECC9" stop-opacity="0.98"/>
<stop offset="0.25" stop-color="#00DFBE" stop-opacity="0.93"/>
<stop offset="0.38" stop-color="#00CAAC" stop-opacity="0.84"/>
<stop offset="0.52" stop-color="#00AD93" stop-opacity="0.72"/>
<stop offset="0.65" stop-color="#008672" stop-opacity="0.56"/>
<stop offset="0.79" stop-color="#00574A" stop-opacity="0.36"/>
<stop offset="0.92" stop-color="#00211C" stop-opacity="0.14"/>
<stop offset="1" stop-opacity="0"/>
</radialGradient>
<radialGradient id="paint38_radial_302_14663" cx="0" cy="0" r="1" gradientUnits="userSpaceOnUse" gradientTransform="translate(25.1514 64.8549) rotate(180) scale(1.81959 1.81959)">
<stop stop-color="#00F1CD"/>
<stop offset="0.12" stop-color="#00ECC9" stop-opacity="0.98"/>
<stop offset="0.25" stop-color="#00DFBE" stop-opacity="0.93"/>
<stop offset="0.38" stop-color="#00CAAC" stop-opacity="0.84"/>
<stop offset="0.52" stop-color="#00AD93" stop-opacity="0.72"/>
<stop offset="0.65" stop-color="#008672" stop-opacity="0.56"/>
<stop offset="0.79" stop-color="#00574A" stop-opacity="0.36"/>
<stop offset="0.92" stop-color="#00211C" stop-opacity="0.14"/>
<stop offset="1" stop-opacity="0"/>
</radialGradient>
<radialGradient id="paint39_radial_302_14663" cx="0" cy="0" r="1" gradientUnits="userSpaceOnUse" gradientTransform="translate(18.6044 66.2889) rotate(180) scale(1.059)">
<stop offset="0.04" stop-color="#000328"/>
<stop offset="0.94" stop-color="#000A57"/>
</radialGradient>
<radialGradient id="paint40_radial_302_14663" cx="0" cy="0" r="1" gradientUnits="userSpaceOnUse" gradientTransform="translate(25.1513 64.8549) rotate(180) scale(1.02732 1.02731)">
<stop offset="0.04" stop-color="#000328"/>
<stop offset="0.94" stop-color="#000A57"/>
</radialGradient>
<radialGradient id="paint41_radial_302_14663" cx="0" cy="0" r="1" gradientUnits="userSpaceOnUse" gradientTransform="translate(22.8427 69.3436) rotate(166.4) scale(0.132045 0.0937522)">
<stop stop-color="#00F1CD"/>
<stop offset="0.12" stop-color="#00ECC9" stop-opacity="0.98"/>
<stop offset="0.24" stop-color="#00DFBE" stop-opacity="0.93"/>
<stop offset="0.36" stop-color="#00CAAC" stop-opacity="0.84"/>
<stop offset="0.49" stop-color="#00AD93" stop-opacity="0.72"/>
<stop offset="0.62" stop-color="#008672" stop-opacity="0.56"/>
<stop offset="0.75" stop-color="#00574A" stop-opacity="0.36"/>
<stop offset="0.88" stop-color="#00211C" stop-opacity="0.14"/>
<stop offset="0.95" stop-opacity="0"/>
</radialGradient>
</defs>
</svg>
