<svg width="81" height="78" viewBox="0 0 81 78" fill="none" xmlns="http://www.w3.org/2000/svg">
<path d="M62.1273 72.6202C62.4617 73.0023 62.8836 73.3128 63.3612 73.4641C65.0569 73.9974 66.3466 72.1824 66.7287 71.5455C66.8163 71.3943 66.9914 71.3147 67.1665 71.3465C67.7158 71.45 68.1776 71.9515 68.6711 72.2779C71.2504 73.9815 74.7214 67.6447 74.9045 67.3661C75.3184 66.7292 74.8885 65.8615 74.3233 65.3599C73.9094 64.9938 73.4158 64.7151 73.0177 64.341C72.7073 64.0544 72.6356 63.6006 72.8347 63.2265C73.3999 62.1597 76.0269 60.0501 76.0269 58.5216C76.0269 57.5822 70.7807 53.7769 70.1837 54.8676C68.8383 57.3116 65.1445 63.3697 61.6099 66.4028C58.6246 68.9662 59.6674 69.8339 62.1273 72.6123V72.6202Z" fill="#FFCC00"/>
<path d="M77.452 64.8425C78.2481 63.7917 79.0521 62.7329 79.8482 61.6821C80.0631 61.4035 80.087 60.8781 79.9915 60.5596C79.896 60.2412 79.6333 59.8511 79.3228 59.6919C78.9805 59.5168 78.5745 59.4212 78.2003 59.5486L77.85 59.6919C77.6271 59.8193 77.4599 59.9944 77.3246 60.2173L74.9284 63.3778C74.7134 63.6564 74.6896 64.1818 74.7851 64.5002C74.8806 64.8187 75.1433 65.2088 75.4538 65.368C75.7961 65.5431 76.2021 65.6386 76.5763 65.5113L76.9266 65.368C77.1495 65.2406 77.3166 65.0654 77.452 64.8425Z" fill="#FFCC00"/>
<path d="M66.3782 77.4605C66.9355 76.8316 67.5166 76.2186 68.0739 75.5976C68.2012 75.4543 68.2888 75.2872 68.3286 75.1041C68.4003 74.921 68.4242 74.7299 68.4003 74.5309C68.3843 74.3319 68.3286 74.1488 68.2172 73.9816C68.1376 73.8065 68.0261 73.6632 67.8669 73.5438C67.5644 73.3209 67.1823 73.1616 66.8001 73.2253L66.418 73.3129C66.1792 73.4084 65.9802 73.5517 65.813 73.7507C65.2557 74.3796 64.6746 74.9847 64.1173 75.6136C63.99 75.7569 63.9024 75.9241 63.8626 76.1071C63.7909 76.2902 63.7671 76.4813 63.7909 76.6804C63.8069 76.8794 63.8626 77.0624 63.974 77.2296C64.0537 77.4047 64.1651 77.5481 64.3243 77.6675C64.6268 77.8904 65.009 78.0496 65.3911 77.9859L65.7732 77.8983C66.012 77.8028 66.211 77.6595 66.3782 77.4605Z" fill="#FFCC00"/>
<path d="M73.9173 76.0434C74.3551 75.6852 74.7771 75.319 75.1831 74.921C75.5015 74.6105 75.7881 74.2682 76.0826 73.9338C76.21 73.7826 76.2976 73.6154 76.3294 73.4243C76.4011 73.2412 76.417 73.0422 76.3852 72.8432C76.3374 72.4929 76.1304 72.0949 75.8438 71.8879C75.5334 71.665 75.1433 71.5137 74.7532 71.5854C74.3631 71.657 74.0526 71.8322 73.7979 72.1267C73.5033 72.4611 73.2167 72.8034 72.8983 73.1139L73.169 72.8511C72.8505 73.1537 72.5082 73.4323 72.1739 73.7109C71.8793 73.9577 71.6644 74.2841 71.6087 74.6742C71.5609 75.0245 71.6564 75.4703 71.8873 75.7569C72.1182 76.0435 72.4605 76.2903 72.8505 76.3221C73.2406 76.3539 73.6307 76.2902 73.9332 76.0434H73.9173Z" fill="#FFCC00"/>
<path d="M0.0189459 39.7455C0.215768 19.604 17.2518 3.44266 38.064 3.64677C58.8834 3.85088 75.5988 20.3402 75.4019 40.4817C75.2051 60.6232 59.0074 72.5711 38.1879 72.3742C17.3685 72.1701 -0.185173 59.8942 0.0116491 39.7528L0.0189459 39.7455Z" fill="#F7FCF8"/>
<path d="M38.4647 8.74945C20.6121 8.57449 6.00353 22.1844 5.84315 39.1403C5.67549 56.0962 20.7361 66.4403 38.5886 66.6152C56.4411 66.7902 70.328 56.7304 70.4957 39.7672C70.6634 22.8113 56.3244 8.9244 38.4719 8.74945H38.4647Z" fill="#FFCC00"/>
<path d="M64.2157 36.7345C64.3251 55.7898 55.0744 57.4665 42.9516 59.7263C30.8288 61.9861 15.535 56.6938 12.0578 46.911C8.93052 38.1123 11.3434 19.3339 33.0449 16.2723C45.2552 14.5519 64.1356 22.3738 64.2157 36.7272V36.7345Z" fill="white"/>
<path d="M27.2006 34.3346C29.0324 34.3346 30.5174 32.8496 30.5174 31.0178C30.5174 29.186 29.0324 27.701 27.2006 27.701C25.3688 27.701 23.8838 29.186 23.8838 31.0178C23.8838 32.8496 25.3688 34.3346 27.2006 34.3346Z" fill="#231F20"/>
<path d="M48.6908 35.0855C50.5227 35.0855 52.0077 33.6005 52.0077 31.7687C52.0077 29.9368 50.5227 28.4518 48.6908 28.4518C46.859 28.4518 45.374 29.9368 45.374 31.7687C45.374 33.6005 46.859 35.0855 48.6908 35.0855Z" fill="#231F20"/>
<path d="M49.7186 38.9417C51.8645 38.9417 53.6041 38.2009 53.6041 37.287C53.6041 36.3731 51.8645 35.6322 49.7186 35.6322C47.5728 35.6322 45.8333 36.3731 45.8333 37.287C45.8333 38.2009 47.5728 38.9417 49.7186 38.9417Z" fill="#F493A4"/>
<path d="M26.4936 38.5116C28.6394 38.5116 30.379 37.7708 30.379 36.8569C30.379 35.943 28.6394 35.2021 26.4936 35.2021C24.3477 35.2021 22.6082 35.943 22.6082 36.8569C22.6082 37.7708 24.3477 38.5116 26.4936 38.5116Z" fill="#F493A4"/>
<path d="M33.5464 39.1358C33.579 37.8268 35.9392 37.1776 37.8562 37.1776C39.7731 37.1776 42.2768 38.319 42.2899 39.6279C42.3355 44.3296 39.434 46.6542 37.5171 46.6542C35.6002 46.6542 33.442 43.0521 33.5464 39.1358V39.1358Z" fill="#D6493F"/>
<path style="mix-blend-mode:multiply" opacity="0.25" d="M64.2198 34.4871C63.7606 38.5767 65.9694 42.1778 69.1477 42.5277C72.326 42.8849 75.2784 39.8597 75.7303 35.7701C76.1896 31.6806 73.9808 28.0795 70.8025 27.7296C67.6242 27.3724 64.6718 30.3976 64.2198 34.4871Z" fill="url(#paint0_radial_289_20236)"/>
<path d="M24.0666 51.028C13.9675 47.6594 0.00998825 34.6262 0.00998825 34.6262C0.00998825 34.6262 -0.302043 48.1512 2.56194 53.9439C4.71056 58.2897 6.8611 60.3113 10.5806 63.4206C15.3672 67.4218 18.8224 68.9098 24.7956 70.7103C31.9033 72.8527 36.3613 72.8983 43.7489 72.1682C51.1038 71.4413 55.7701 71.0836 61.9732 67.0654C67.3011 63.6141 69.6268 60.8692 72.9077 55.0374C76.6264 48.4275 75.4586 37.5421 75.4586 37.5421C75.4586 37.5421 63.2344 48.1151 51.767 51.757C47.4237 53.1364 43.2016 53.8461 38.6455 53.9439C33.6749 54.0506 28.7829 52.6012 24.0666 51.028Z" fill="white"/>
<path d="M22.1028 54.0187C19.1048 52.0545 17.6308 49.8327 17.0578 46.3743C25.4548 47.7981 37.7757 50.0093 37.7757 50.0093L57.0935 47.0935C57.0935 47.0935 55.8467 52.1242 53.4486 54.0187C48.7072 57.7643 37.7757 50.0093 37.7757 50.0093C37.7757 50.0093 27.6184 57.6323 22.1028 54.0187Z" fill="#408BED"/>
<circle cx="38.281" cy="56.4953" r="1.09346" fill="#6D6D6D"/>
<circle cx="38.281" cy="62.3271" r="1.09346" fill="#6D6D6D"/>
<path d="M25.3231 15.3739C23.5616 15.4569 21.5444 14.7298 22.038 12.586C22.705 9.66776 25.2926 5.68882 33.2124 2.80546C41.1322 -0.0779059 53.3621 3.02802 55.9148 6.30191C58.473 9.57526 56.1166 9.34019 56.1166 9.34019C54.9127 9.41316 53.6718 9.7883 52.5747 10.2767C50.9579 10.9926 49.869 11.9059 49.001 13.3839C48.2374 14.6858 46.7007 15.5432 45.227 15.1171C44.1578 14.812 43.0488 14.6103 41.9523 14.424C39.6752 14.0374 37.3609 13.837 35.0504 13.8463C32.2087 13.852 29.3671 14.2005 26.6769 15.137C26.2866 15.2745 25.8138 15.3592 25.3187 15.3853L25.3231 15.3739Z" fill="#F7FCF8"/>
<path style="mix-blend-mode:multiply" opacity="0.25" d="M55.6831 7.38616C54.4792 7.45913 53.2384 7.8343 52.1413 8.32265C50.5244 9.03856 49.4355 9.9519 48.5675 11.4299C47.8039 12.7318 46.2672 13.5892 44.7935 13.1631C43.7242 12.858 42.6153 12.6563 41.5188 12.47C39.2417 12.0834 36.9274 11.883 34.6169 11.8922C31.7752 11.8979 28.9336 12.2465 26.2434 13.183C25.8531 13.3205 25.3803 13.4053 24.8851 13.4313C23.8286 13.4844 22.682 13.2366 22.0424 12.5745C22.0424 12.5745 22.0435 12.5855 22.0385 12.5915C21.545 14.7353 23.5627 15.4678 25.3236 15.3794C25.8133 15.3538 26.2861 15.269 26.6819 15.131C29.3666 14.195 32.2136 13.8459 35.0553 13.8402C37.3664 13.8364 39.6807 14.0369 41.9573 14.418C43.0537 14.6044 44.1627 14.806 45.232 15.1111C46.7057 15.5372 48.2424 14.6798 49.0059 13.3779C49.874 11.8999 50.9629 10.9866 52.5797 10.2707C53.6768 9.78232 54.9122 9.40768 56.1216 9.33418C56.1216 9.33418 58.0591 9.52707 56.5151 7.12821C56.236 7.44292 55.6831 7.38616 55.6831 7.38616V7.38616Z" fill="url(#paint1_radial_289_20236)"/>
<path style="mix-blend-mode:multiply" opacity="0.25" d="M49.0059 13.3779C49.8739 11.8999 50.9628 10.9866 52.5797 10.2707C53.6768 9.78232 54.9122 9.40768 56.1215 9.33418C56.1215 9.33418 58.0591 9.52707 56.515 7.12821C56.236 7.44292 55.683 7.38616 55.683 7.38616C54.4791 7.45913 53.2383 7.8343 52.1412 8.32266C50.5244 9.03856 49.4355 9.9519 48.5674 11.4299C48.1928 12.0691 47.6306 12.5994 46.9819 12.9224C47.2142 13.7182 47.2108 14.4208 47.1227 14.9934C47.8951 14.6915 48.5741 14.1111 49.0004 13.3784L49.0059 13.3779Z" fill="url(#paint2_radial_289_20236)"/>
<path style="mix-blend-mode:multiply" opacity="0.25" d="M46.6457 2.25524C45.5606 5.2529 35.4853 8.99864 28.8034 9.88692C25.5663 10.3182 24.3782 9.58781 24.1323 8.53899C22.9386 9.96574 22.3177 11.3699 22.038 12.586C21.5444 14.7298 23.5622 15.4624 25.3231 15.3739C25.8127 15.3483 26.2855 15.2636 26.6813 15.1255C29.3661 14.1895 32.2131 13.8405 35.0548 13.8348C37.3658 13.831 39.6801 14.0315 41.9567 14.4125C43.0532 14.5989 44.1622 14.8006 45.2314 15.1056C46.7051 15.5317 48.2418 14.6743 49.0054 13.3724C49.8734 11.8944 50.9623 10.9811 52.5792 10.2652C53.6763 9.77684 54.9116 9.40221 56.121 9.32871C56.121 9.32871 58.4774 9.56378 55.9192 6.29042C54.6491 4.66116 50.9836 3.07713 46.6446 2.24431L46.6457 2.25524Z" fill="url(#paint3_radial_289_20236)"/>
<path style="mix-blend-mode:multiply" opacity="0.25" d="M63.2375 13.2587C68.835 19.5006 72.1949 29.7137 72.1037 38.6207C71.9143 57.9984 56.3283 69.4932 36.2951 69.3039C26.2154 69.2057 15.4704 66.697 8.75757 61.2336C15.4914 68.9483 27.9059 72.7825 40.0128 72.8947C60.0459 73.0911 75.6319 61.5892 75.8213 42.2115C75.9266 31.4741 71.0305 19.7671 63.2375 13.2587Z" fill="url(#paint4_radial_289_20236)"/>
<path d="M75.8869 35.5059C76.3436 31.4208 74.437 27.8546 71.6282 27.5405C68.8195 27.2265 66.1723 30.2835 65.7155 34.3686C65.2587 38.4537 67.1654 42.0199 69.9741 42.334C72.7829 42.648 75.4301 39.591 75.8869 35.5059Z" fill="#F7FCF8"/>
<path style="mix-blend-mode:multiply" opacity="0.25" d="M75.5638 34.0202C75.1045 38.1098 72.4583 41.1642 69.6518 40.8507C67.8221 40.6466 66.3787 39.0574 65.7153 36.8486C66.0871 39.8083 67.7419 42.09 69.958 42.3378C72.7645 42.6513 75.4179 39.5969 75.8699 35.5073C76.0303 34.0858 75.8991 32.7227 75.5419 31.5417C75.644 32.329 75.6585 33.16 75.5565 34.0202H75.5638Z" fill="url(#paint5_radial_289_20236)"/>
<path d="M68.5292 34.392C68.2522 36.8851 69.4112 39.0647 71.1316 39.2543C72.8447 39.4438 74.463 37.5776 74.74 35.0846C75.017 32.5915 73.858 30.4118 72.1376 30.2223C70.4172 30.0328 68.8062 31.899 68.5292 34.392Z" fill="#F3A400"/>
<g style="mix-blend-mode:multiply" opacity="0.5">
<path d="M68.5292 34.392C68.3178 36.3092 68.952 38.0296 70.0382 38.8169C71.1316 38.1827 71.9991 36.7393 72.196 34.9825C72.4074 33.0653 71.7732 31.3449 70.687 30.5576C69.5935 31.1918 68.726 32.6352 68.5292 34.392Z" fill="#F3A400"/>
</g>
<path d="M22.1028 54.0187C19.1432 52.0796 17.6688 49.8895 17.0803 46.5065C23.6167 57.9347 37.7757 50.0093 37.7757 50.0093C45.5 51 52 57 57.0935 47.0935C57.0935 47.0935 55.8467 52.1242 53.4486 54.0187C48.7072 57.7643 37.7757 50.0093 37.7757 50.0093C37.7757 50.0093 27.6184 57.6323 22.1028 54.0187Z" fill="#3D6496"/>
<defs>
<radialGradient id="paint0_radial_289_20236" cx="0" cy="0" r="1" gradientUnits="userSpaceOnUse" gradientTransform="translate(70.0007 35.0946) rotate(-15.62) scale(6.67011 6.67009)">
<stop stop-color="#52DFEC"/>
<stop offset="0.94" stop-color="#408BED"/>
</radialGradient>
<radialGradient id="paint1_radial_289_20236" cx="0" cy="0" r="1" gradientUnits="userSpaceOnUse" gradientTransform="translate(39.8612 11.7391) rotate(-21.1805) scale(12.8951 12.8951)">
<stop stop-color="#52DFEC"/>
<stop offset="0.94" stop-color="#408BED"/>
</radialGradient>
<radialGradient id="paint2_radial_289_20236" cx="0" cy="0" r="1" gradientUnits="userSpaceOnUse" gradientTransform="translate(51.809 10.7984) rotate(-21.1805) scale(4.42494 4.42494)">
<stop stop-color="#52DFEC"/>
<stop offset="0.94" stop-color="#408BED"/>
</radialGradient>
<radialGradient id="paint3_radial_289_20236" cx="0" cy="0" r="1" gradientUnits="userSpaceOnUse" gradientTransform="translate(28.8887 8.4947) rotate(-21.1804) scale(30.793 30.7929)">
<stop stop-color="#52DFEC"/>
<stop offset="0.94" stop-color="#408BED"/>
</radialGradient>
<radialGradient id="paint4_radial_289_20236" cx="0" cy="0" r="1" gradientUnits="userSpaceOnUse" gradientTransform="translate(42.6622 47.5508) rotate(-15.6177) scale(30.5053 30.5012)">
<stop stop-color="#52DFEC"/>
<stop offset="0.94" stop-color="#408BED"/>
</radialGradient>
<radialGradient id="paint5_radial_289_20236" cx="0" cy="0" r="1" gradientUnits="userSpaceOnUse" gradientTransform="translate(74.7989 41.1315) rotate(-15.62) scale(10.3587 10.3587)">
<stop stop-color="#52DFEC"/>
<stop offset="0.94" stop-color="#408BED"/>
</radialGradient>
</defs>
</svg>
