<svg width="82" height="84" viewBox="0 0 82 84" fill="none" xmlns="http://www.w3.org/2000/svg">
<path d="M63.1273 73.6202C63.4617 74.0024 63.8836 74.3128 64.3612 74.4641C66.0569 74.9975 67.3466 73.1824 67.7287 72.5455C67.8163 72.3943 67.9914 72.3147 68.1665 72.3465C68.7158 72.45 69.1776 72.9515 69.6711 73.2779C72.2504 74.9816 75.7214 68.6447 75.9045 68.3661C76.3184 67.7292 75.8885 66.8615 75.3233 66.36C74.9094 65.9938 74.4158 65.7152 74.0177 65.341C73.7073 65.0544 73.6356 64.6006 73.8347 64.2265C74.3999 63.1597 77.0269 61.0501 77.0269 59.5216C77.0269 58.5822 71.7807 54.777 71.1837 55.8676C69.8383 58.3116 66.1445 64.3698 62.6099 67.4028C59.6246 69.9662 60.6674 70.8339 63.1273 73.6123V73.6202Z" fill="#FFCC00"/>
<path d="M78.452 65.8425C79.2481 64.7917 80.0521 63.7329 80.8482 62.6821C81.0631 62.4035 81.087 61.8781 80.9915 61.5597C80.896 61.2412 80.6333 60.8511 80.3228 60.6919C79.9805 60.5168 79.5745 60.4212 79.2003 60.5486L78.85 60.6919C78.6271 60.8193 78.4599 60.9944 78.3246 61.2173L75.9284 64.3778C75.7134 64.6564 75.6896 65.1818 75.7851 65.5002C75.8806 65.8187 76.1433 66.2088 76.4538 66.368C76.7961 66.5431 77.2021 66.6386 77.5763 66.5113L77.9266 66.368C78.1495 66.2406 78.3166 66.0654 78.452 65.8425Z" fill="#FFCC00"/>
<path d="M67.3782 78.4605C67.9355 77.8316 68.5166 77.2186 69.0739 76.5977C69.2012 76.4544 69.2888 76.2872 69.3286 76.1041C69.4003 75.921 69.4242 75.73 69.4003 75.531C69.3843 75.3319 69.3286 75.1488 69.2172 74.9817C69.1376 74.8065 69.0261 74.6632 68.8669 74.5438C68.5644 74.3209 68.1823 74.1617 67.8001 74.2254L67.418 74.3129C67.1792 74.4084 66.9802 74.5517 66.813 74.7508C66.2557 75.3797 65.6746 75.9847 65.1173 76.6136C64.99 76.7569 64.9024 76.9241 64.8626 77.1072C64.7909 77.2903 64.7671 77.4814 64.7909 77.6804C64.8069 77.8794 64.8626 78.0625 64.974 78.2296C65.0537 78.4048 65.1651 78.5481 65.3243 78.6675C65.6268 78.8904 66.009 79.0496 66.3911 78.9859L66.7732 78.8984C67.012 78.8028 67.211 78.6596 67.3782 78.4605Z" fill="#FFCC00"/>
<path d="M74.9173 77.0434C75.3551 76.6852 75.7771 76.319 76.1831 75.921C76.5015 75.6105 76.7881 75.2682 77.0826 74.9339C77.21 74.7826 77.2976 74.6154 77.3294 74.4244C77.4011 74.2413 77.417 74.0422 77.3852 73.8432C77.3374 73.493 77.1304 73.0949 76.8438 72.8879C76.5334 72.665 76.1433 72.5138 75.7532 72.5854C75.3631 72.657 75.0526 72.8322 74.7979 73.1267C74.5033 73.4611 74.2167 73.8034 73.8983 74.1139L74.169 73.8511C73.8505 74.1537 73.5082 74.4323 73.1739 74.7109C72.8793 74.9577 72.6644 75.2841 72.6087 75.6742C72.5609 76.0245 72.6564 76.4703 72.8873 76.7569C73.1182 77.0435 73.4605 77.2903 73.8505 77.3221C74.2406 77.354 74.6307 77.2902 74.9332 77.0434H74.9173Z" fill="#FFCC00"/>
<path d="M1.01895 40.7455C1.21577 20.604 18.2518 4.44267 39.064 4.64678C59.8834 4.85089 76.5988 21.3402 76.4019 41.4817C76.2051 61.6232 60.0074 73.5711 39.1879 73.3743C18.3685 73.1701 0.814827 60.8943 1.01165 40.7528L1.01895 40.7455Z" fill="#F7FCF8"/>
<path d="M39.4647 9.74946C21.6121 9.57451 7.00353 23.1844 6.84315 40.1403C6.67549 57.0962 21.7361 67.4403 39.5886 67.6153C57.4411 67.7902 71.328 57.7304 71.4957 40.7672C71.6634 23.8113 57.3244 9.92442 39.4719 9.74946H39.4647Z" fill="#FFCC00"/>
<path d="M65.2157 37.7345C65.3251 56.7898 56.0744 58.4665 43.9516 60.7263C31.8288 62.9861 16.535 57.6938 13.0578 47.911C9.93052 39.1123 12.3434 20.3339 34.0449 17.2723C46.2552 15.5519 65.1356 23.3738 65.2157 37.7272V37.7345Z" fill="white"/>
<path d="M28.2006 35.3346C30.0324 35.3346 31.5174 33.8496 31.5174 32.0178C31.5174 30.186 30.0324 28.701 28.2006 28.701C26.3688 28.701 24.8838 30.186 24.8838 32.0178C24.8838 33.8496 26.3688 35.3346 28.2006 35.3346Z" fill="#231F20"/>
<path d="M49.6908 36.0855C51.5227 36.0855 53.0077 34.6005 53.0077 32.7686C53.0077 30.9368 51.5227 29.4518 49.6908 29.4518C47.859 29.4518 46.374 30.9368 46.374 32.7686C46.374 34.6005 47.859 36.0855 49.6908 36.0855Z" fill="#231F20"/>
<path d="M50.7186 39.9417C52.8645 39.9417 54.6041 39.2008 54.6041 38.2869C54.6041 37.373 52.8645 36.6322 50.7186 36.6322C48.5728 36.6322 46.8333 37.373 46.8333 38.2869C46.8333 39.2008 48.5728 39.9417 50.7186 39.9417Z" fill="#F493A4"/>
<path d="M27.4936 39.5116C29.6394 39.5116 31.379 38.7708 31.379 37.8569C31.379 36.943 29.6394 36.2021 27.4936 36.2021C25.3477 36.2021 23.6082 36.943 23.6082 37.8569C23.6082 38.7708 25.3477 39.5116 27.4936 39.5116Z" fill="#F493A4"/>
<path d="M36.0025 38.9132C36.0249 38.637 37.6438 38.5 38.9586 38.5C40.2734 38.5 41.9907 38.7409 41.9996 39.0171C42.0309 40.0094 40.0408 40.5 38.726 40.5C37.4112 40.5 35.9309 39.7397 36.0025 38.9132Z" fill="#D6493F"/>
<path style="mix-blend-mode:multiply" opacity="0.25" d="M65.2198 35.4872C64.7606 39.5767 66.9694 43.1778 70.1477 43.5277C73.326 43.8849 76.2784 40.8597 76.7303 36.7702C77.1896 32.6806 74.9808 29.0795 71.8025 28.7296C68.6242 28.3724 65.6718 31.3976 65.2198 35.4872Z" fill="url(#paint0_radial_289_20395)"/>
<path d="M25.3231 15.3739C23.5616 15.4569 21.5444 14.7298 22.038 12.586C22.705 9.66776 25.2926 5.68882 33.2124 2.80546C41.1322 -0.077906 53.3621 3.02802 55.9148 6.30191C58.473 9.57526 56.1166 9.34019 56.1166 9.34019C54.9127 9.41316 53.6718 9.7883 52.5747 10.2767C50.9579 10.9926 49.869 11.9059 49.001 13.3839C48.2374 14.6858 46.7007 15.5432 45.227 15.1171C44.1578 14.812 43.0488 14.6103 41.9523 14.424C39.6752 14.0374 37.3609 13.837 35.0503 13.8463C32.2087 13.852 29.3671 14.2005 26.6769 15.137C26.2866 15.2745 25.8138 15.3592 25.3187 15.3853L25.3231 15.3739Z" fill="#F7FCF8"/>
<path style="mix-blend-mode:multiply" opacity="0.25" d="M55.6831 7.38616C54.4792 7.45913 53.2384 7.8343 52.1413 8.32265C50.5244 9.03856 49.4355 9.9519 48.5675 11.4299C47.8039 12.7318 46.2672 13.5892 44.7935 13.1631C43.7242 12.858 42.6153 12.6563 41.5188 12.47C39.2417 12.0834 36.9274 11.883 34.6169 11.8922C31.7752 11.8979 28.9336 12.2465 26.2434 13.183C25.8531 13.3205 25.3803 13.4053 24.8851 13.4313C23.8286 13.4844 22.682 13.2366 22.0424 12.5745C22.0424 12.5745 22.0435 12.5855 22.0385 12.5915C21.545 14.7353 23.5627 15.4678 25.3236 15.3794C25.8133 15.3538 26.2861 15.269 26.6819 15.131C29.3666 14.195 32.2136 13.8459 35.0553 13.8402C37.3664 13.8364 39.6807 14.0369 41.9573 14.418C43.0537 14.6044 44.1627 14.806 45.232 15.1111C46.7057 15.5372 48.2424 14.6798 49.0059 13.3779C49.874 11.8999 50.9629 10.9866 52.5797 10.2707C53.6768 9.78232 54.9122 9.40768 56.1216 9.33418C56.1216 9.33418 58.0591 9.52707 56.5151 7.12821C56.236 7.44292 55.6831 7.38616 55.6831 7.38616Z" fill="url(#paint1_radial_289_20395)"/>
<path style="mix-blend-mode:multiply" opacity="0.25" d="M49.0059 13.3779C49.8739 11.8999 50.9628 10.9866 52.5797 10.2707C53.6768 9.78231 54.9122 9.40767 56.1215 9.33417C56.1215 9.33417 58.0591 9.52707 56.515 7.12821C56.236 7.44291 55.683 7.38616 55.683 7.38616C54.4791 7.45913 53.2383 7.83429 52.1412 8.32265C50.5244 9.03855 49.4355 9.95189 48.5674 11.4299C48.1928 12.0691 47.6306 12.5994 46.9819 12.9224C47.2142 13.7182 47.2108 14.4208 47.1227 14.9934C47.8951 14.6915 48.5741 14.1111 49.0004 13.3784L49.0059 13.3779Z" fill="url(#paint2_radial_289_20395)"/>
<path style="mix-blend-mode:multiply" opacity="0.25" d="M46.6457 2.25525C45.5606 5.2529 35.4853 8.99864 28.8034 9.88693C25.5663 10.3182 24.3782 9.58782 24.1323 8.539C22.9386 9.96575 22.3177 11.3699 22.038 12.586C21.5444 14.7298 23.5622 15.4624 25.3231 15.3739C25.8127 15.3483 26.2855 15.2636 26.6813 15.1255C29.3661 14.1895 32.2131 13.8405 35.0548 13.8348C37.3658 13.831 39.6801 14.0315 41.9567 14.4126C43.0532 14.5989 44.1622 14.8006 45.2314 15.1057C46.7051 15.5317 48.2418 14.6744 49.0054 13.3724C49.8734 11.8944 50.9623 10.9811 52.5792 10.2652C53.6763 9.77685 54.9116 9.40221 56.121 9.32871C56.121 9.32871 58.4774 9.56378 55.9192 6.29043C54.6491 4.66117 50.9836 3.07714 46.6446 2.24431L46.6457 2.25525Z" fill="url(#paint3_radial_289_20395)"/>
<path style="mix-blend-mode:multiply" opacity="0.25" d="M64.2375 14.2587C69.835 20.5006 73.1949 30.7138 73.1037 39.6207C72.9143 58.9985 57.3283 70.4933 37.2951 70.3039C27.2154 70.2057 16.4704 67.697 9.75757 62.2336C16.4914 69.9483 28.9059 73.7825 41.0128 73.8947C61.0459 74.0911 76.632 62.5893 76.8213 43.2115C76.9266 32.4741 72.0305 20.7671 64.2375 14.2587Z" fill="url(#paint4_radial_289_20395)"/>
<path d="M76.8869 36.5059C77.3436 32.4208 75.437 28.8546 72.6282 28.5406C69.8195 28.2265 67.1723 31.2835 66.7155 35.3686C66.2587 39.4537 68.1654 43.0199 70.9741 43.334C73.7829 43.648 76.4301 40.591 76.8869 36.5059Z" fill="#F7FCF8"/>
<path style="mix-blend-mode:multiply" opacity="0.25" d="M76.5638 35.0203C76.1045 39.1098 73.4583 42.1642 70.6518 41.8507C68.8221 41.6466 67.3787 40.0575 66.7153 37.8487C67.0871 40.8083 68.7419 43.09 70.958 43.3378C73.7645 43.6513 76.4179 40.5969 76.8699 36.5074C77.0303 35.0859 76.8991 33.7227 76.5419 32.5417C76.644 33.329 76.6585 34.1601 76.5565 35.0203H76.5638Z" fill="url(#paint5_radial_289_20395)"/>
<path d="M69.5292 35.392C69.2522 37.8851 70.4112 40.0648 72.1316 40.2543C73.8447 40.4438 75.463 38.5777 75.74 36.0846C76.017 33.5915 74.858 31.4119 73.1376 31.2223C71.4172 31.0328 69.8062 32.899 69.5292 35.392Z" fill="#F3A400"/>
<g style="mix-blend-mode:multiply" opacity="0.5">
<path d="M69.5292 35.392C69.3178 37.3092 69.952 39.0296 71.0382 39.8169C72.1316 39.1827 72.9991 37.7393 73.196 35.9825C73.4074 34.0653 72.7732 32.3449 71.687 31.5576C70.5935 32.1919 69.726 33.6352 69.5292 35.392Z" fill="#F3A400"/>
</g>
<path d="M1 42.4051C31.0883 65.2656 47.7138 65.5885 77 42.4051" stroke="#00063E" stroke-linecap="round"/>
<rect x="29" y="54.5" width="17.1296" height="19.8334" rx="2.85186" fill="#003366"/>
<path d="M33.0106 62.5531H34.1484L35.3501 65.4849H35.4012L36.6029 62.5531H37.7407V66.9167H36.8458V64.0765H36.8096L35.6804 66.8954H35.071L33.9417 64.0658H33.9055V66.9167H33.0106V62.5531ZM41.1962 62.5531H42.1187V65.3869C42.1187 65.705 42.0427 65.9834 41.8908 66.2221C41.7402 66.4607 41.5293 66.6468 41.2579 66.7803C40.9866 66.9124 40.6706 66.9785 40.3098 66.9785C39.9476 66.9785 39.6308 66.9124 39.3595 66.7803C39.0882 66.6468 38.8773 66.4607 38.7267 66.2221C38.5761 65.9834 38.5008 65.705 38.5008 65.3869V62.5531H39.4234V65.308C39.4234 65.4742 39.4597 65.6219 39.5321 65.7512C39.606 65.8805 39.7097 65.982 39.8432 66.0559C39.9767 66.1298 40.1322 66.1667 40.3098 66.1667C40.4888 66.1667 40.6443 66.1298 40.7764 66.0559C40.9099 65.982 41.0129 65.8805 41.0854 65.7512C41.1592 65.6219 41.1962 65.4742 41.1962 65.308V62.5531Z" fill="white"/>
<defs>
<radialGradient id="paint0_radial_289_20395" cx="0" cy="0" r="1" gradientUnits="userSpaceOnUse" gradientTransform="translate(71.0007 36.0947) rotate(-15.62) scale(6.67011 6.67009)">
<stop stop-color="#52DFEC"/>
<stop offset="0.94" stop-color="#408BED"/>
</radialGradient>
<radialGradient id="paint1_radial_289_20395" cx="0" cy="0" r="1" gradientUnits="userSpaceOnUse" gradientTransform="translate(39.8612 11.7391) rotate(-21.1805) scale(12.8951 12.8951)">
<stop stop-color="#52DFEC"/>
<stop offset="0.94" stop-color="#408BED"/>
</radialGradient>
<radialGradient id="paint2_radial_289_20395" cx="0" cy="0" r="1" gradientUnits="userSpaceOnUse" gradientTransform="translate(51.809 10.7984) rotate(-21.1805) scale(4.42494 4.42494)">
<stop stop-color="#52DFEC"/>
<stop offset="0.94" stop-color="#408BED"/>
</radialGradient>
<radialGradient id="paint3_radial_289_20395" cx="0" cy="0" r="1" gradientUnits="userSpaceOnUse" gradientTransform="translate(28.8887 8.4947) rotate(-21.1804) scale(30.793 30.7929)">
<stop stop-color="#52DFEC"/>
<stop offset="0.94" stop-color="#408BED"/>
</radialGradient>
<radialGradient id="paint4_radial_289_20395" cx="0" cy="0" r="1" gradientUnits="userSpaceOnUse" gradientTransform="translate(43.6622 48.5508) rotate(-15.6177) scale(30.5053 30.5012)">
<stop stop-color="#52DFEC"/>
<stop offset="0.94" stop-color="#408BED"/>
</radialGradient>
<radialGradient id="paint5_radial_289_20395" cx="0" cy="0" r="1" gradientUnits="userSpaceOnUse" gradientTransform="translate(75.7989 42.1316) rotate(-15.62) scale(10.3587 10.3587)">
<stop stop-color="#52DFEC"/>
<stop offset="0.94" stop-color="#408BED"/>
</radialGradient>
</defs>
</svg>
