<svg width="81" height="79" viewBox="0 0 81 79" fill="none" xmlns="http://www.w3.org/2000/svg">
<path d="M62.1273 73.6202C62.4617 74.0024 62.8836 74.3128 63.3612 74.4641C65.0569 74.9975 66.3466 73.1824 66.7287 72.5455C66.8163 72.3943 66.9914 72.3147 67.1665 72.3465C67.7158 72.45 68.1776 72.9515 68.6711 73.2779C71.2504 74.9815 74.7214 68.6447 74.9045 68.3661C75.3184 67.7292 74.8885 66.8615 74.3233 66.36C73.9094 65.9938 73.4158 65.7152 73.0177 65.341C72.7073 65.0544 72.6356 64.6006 72.8347 64.2265C73.3999 63.1597 76.0269 61.0501 76.0269 59.5216C76.0269 58.5822 70.7807 54.777 70.1837 55.8676C68.8383 58.3116 65.1445 64.3698 61.6099 67.4028C58.6246 69.9662 59.6674 70.8339 62.1273 73.6123V73.6202Z" fill="#FFCC00"/>
<path d="M77.452 65.8425C78.2481 64.7917 79.0521 63.7329 79.8482 62.6821C80.0631 62.4035 80.087 61.8781 79.9915 61.5597C79.896 61.2412 79.6333 60.8511 79.3228 60.6919C78.9805 60.5168 78.5745 60.4212 78.2003 60.5486L77.85 60.6919C77.6271 60.8193 77.4599 60.9944 77.3246 61.2173L74.9284 64.3778C74.7134 64.6564 74.6896 65.1818 74.7851 65.5002C74.8806 65.8187 75.1433 66.2088 75.4538 66.368C75.7961 66.5431 76.2021 66.6386 76.5763 66.5113L76.9266 66.368C77.1495 66.2406 77.3166 66.0654 77.452 65.8425Z" fill="#FFCC00"/>
<path d="M66.3782 78.4605C66.9355 77.8316 67.5166 77.2186 68.0739 76.5977C68.2012 76.4544 68.2888 76.2872 68.3286 76.1041C68.4003 75.921 68.4242 75.73 68.4003 75.5309C68.3843 75.3319 68.3286 75.1488 68.2172 74.9816C68.1376 74.8065 68.0261 74.6632 67.8669 74.5438C67.5644 74.3209 67.1823 74.1617 66.8001 74.2253L66.418 74.3129C66.1792 74.4084 65.9802 74.5517 65.813 74.7507C65.2557 75.3796 64.6746 75.9847 64.1173 76.6136C63.99 76.7569 63.9024 76.9241 63.8626 77.1072C63.7909 77.2903 63.7671 77.4813 63.7909 77.6804C63.8069 77.8794 63.8626 78.0624 63.974 78.2296C64.0537 78.4048 64.1651 78.5481 64.3243 78.6675C64.6268 78.8904 65.009 79.0496 65.3911 78.9859L65.7732 78.8984C66.012 78.8028 66.211 78.6595 66.3782 78.4605Z" fill="#FFCC00"/>
<path d="M73.9173 77.0435C74.3551 76.6852 74.7771 76.319 75.1831 75.921C75.5015 75.6105 75.7881 75.2682 76.0826 74.9339C76.21 74.7826 76.2976 74.6154 76.3294 74.4244C76.4011 74.2413 76.417 74.0423 76.3852 73.8432C76.3374 73.493 76.1304 73.0949 75.8438 72.8879C75.5334 72.665 75.1433 72.5138 74.7532 72.5854C74.3631 72.6571 74.0526 72.8322 73.7979 73.1267C73.5033 73.4611 73.2167 73.8034 72.8983 74.1139L73.169 73.8512C72.8505 74.1537 72.5082 74.4323 72.1739 74.7109C71.8793 74.9577 71.6644 75.2841 71.6087 75.6742C71.5609 76.0245 71.6564 76.4703 71.8873 76.7569C72.1182 77.0435 72.4605 77.2903 72.8505 77.3221C73.2406 77.354 73.6307 77.2902 73.9332 77.0435H73.9173Z" fill="#FFCC00"/>
<path d="M0.0189459 40.7455C0.215768 20.604 17.2518 4.44267 38.064 4.64678C58.8834 4.8509 75.5988 21.3402 75.4019 41.4817C75.2051 61.6232 59.0074 73.5711 38.1879 73.3743C17.3685 73.1701 -0.185173 60.8943 0.0116491 40.7528L0.0189459 40.7455Z" fill="#F7FCF8"/>
<path d="M38.4647 9.74946C20.6121 9.5745 6.00353 23.1844 5.84315 40.1403C5.67549 57.0962 20.7361 67.4403 38.5886 67.6152C56.4411 67.7902 70.328 57.7304 70.4957 40.7672C70.6634 23.8113 56.3244 9.92441 38.4719 9.74946H38.4647Z" fill="#FFCC00"/>
<path d="M64.2157 37.7345C64.3251 56.7898 55.0744 58.4665 42.9516 60.7263C30.8288 62.9861 15.535 57.6938 12.0578 47.911C8.93052 39.1123 11.3434 20.334 33.0449 17.2723C45.2552 15.5519 64.1356 23.3738 64.2157 37.7272V37.7345Z" fill="white"/>
<path d="M27.5 33C29.433 33 31 32.1046 31 31C31 29.8955 29.433 29 27.5 29C25.567 29 24 29.8955 24 31C24 32.1046 25.567 33 27.5 33Z" fill="#231F20"/>
<path d="M48.5 33C50.433 33 52 32.1046 52 31C52 29.8955 50.433 29 48.5 29C46.567 29 45 29.8955 45 31C45 32.1046 46.567 33 48.5 33Z" fill="#231F20"/>
<path d="M54.8854 39.3096C57.0312 39.3096 58.7708 38.5687 58.7708 37.6548C58.7708 36.7409 57.0312 36 54.8854 36C52.7395 36 51 36.7409 51 37.6548C51 38.5687 52.7395 39.3096 54.8854 39.3096Z" fill="#F493A4"/>
<path d="M20.8854 39.3096C23.0313 39.3096 24.7708 38.5687 24.7708 37.6548C24.7708 36.7409 23.0313 36 20.8854 36C18.7396 36 17 36.7409 17 37.6548C17 38.5687 18.7396 39.3096 20.8854 39.3096Z" fill="#F493A4"/>
<path d="M35.0025 39.0332C35.0249 38.3426 36.6438 38 37.9586 38C39.2734 38 40.9907 38.6023 40.9996 39.2929C41.0309 41.7735 39.0408 43 37.726 43C36.4112 43 34.9309 41.0995 35.0025 39.0332Z" fill="#D6493F"/>
<path style="mix-blend-mode:multiply" opacity="0.25" d="M64.2198 35.4871C63.7606 39.5767 65.9694 43.1778 69.1477 43.5277C72.326 43.8849 75.2784 40.8597 75.7303 36.7701C76.1896 32.6806 73.9808 29.0795 70.8025 28.7296C67.6242 28.3724 64.6718 31.3976 64.2198 35.4871Z" fill="url(#paint0_radial_289_20317)"/>
<path d="M24.0666 52.028C13.9675 48.6594 0.00998825 35.6262 0.00998825 35.6262C0.00998825 35.6262 -0.302043 49.1512 2.56194 54.9439C4.71056 59.2897 6.8611 61.3113 10.5806 64.4206C15.3672 68.4218 18.8224 69.9098 24.7956 71.7103C31.9033 73.8527 36.3613 73.8983 43.7489 73.1682C51.1038 72.4413 55.7701 72.0836 61.9732 68.0654C67.3011 64.6141 69.6268 61.8692 72.9077 56.0374C76.6264 49.4275 75.4586 38.5421 75.4586 38.5421C75.4586 38.5421 63.2344 49.1151 51.767 52.757C47.4237 54.1364 43.2016 54.8461 38.6455 54.9439C33.6749 55.0506 28.7829 53.6012 24.0666 52.028Z" fill="white"/>
<circle cx="38.281" cy="57.4953" r="1.09346" fill="#6D6D6D"/>
<circle cx="38.281" cy="63.3271" r="1.09346" fill="#6D6D6D"/>
<path d="M24.3231 15.3739C22.5616 15.4569 20.5444 14.7298 21.038 12.586C21.705 9.66777 24.2926 5.68883 32.2124 2.80547C40.1322 -0.0778964 52.3621 3.02803 54.9148 6.30192C57.473 9.57527 55.1166 9.3402 55.1166 9.3402C53.9127 9.41317 52.6718 9.78831 51.5747 10.2767C49.9579 10.9926 48.869 11.9059 48.001 13.3839C47.2374 14.6858 45.7007 15.5432 44.227 15.1171C43.1578 14.812 42.0488 14.6103 40.9523 14.424C38.6752 14.0374 36.3609 13.837 34.0503 13.8463C31.2087 13.852 28.3671 14.2005 25.6769 15.137C25.2866 15.2745 24.8138 15.3593 24.3187 15.3853L24.3231 15.3739Z" fill="#F7FCF8"/>
<path style="mix-blend-mode:multiply" opacity="0.25" d="M54.6831 7.38617C53.4792 7.45914 52.2384 7.83431 51.1413 8.32266C49.5244 9.03857 48.4355 9.95191 47.5675 11.4299C46.8039 12.7318 45.2672 13.5892 43.7935 13.1632C42.7242 12.8581 41.6153 12.6563 40.5188 12.47C38.2417 12.0834 35.9274 11.883 33.6169 11.8922C30.7752 11.8979 27.9336 12.2465 25.2434 13.183C24.8531 13.3205 24.3803 13.4053 23.8851 13.4313C22.8286 13.4844 21.682 13.2366 21.0424 12.5745C21.0424 12.5745 21.0435 12.5855 21.0385 12.5915C20.545 14.7353 22.5627 15.4678 24.3236 15.3794C24.8133 15.3538 25.2861 15.2691 25.6819 15.131C28.3666 14.195 31.2136 13.846 34.0553 13.8403C36.3664 13.8365 38.6807 14.0369 40.9573 14.418C42.0537 14.6044 43.1627 14.806 44.232 15.1111C45.7057 15.5372 47.2424 14.6798 48.0059 13.3779C48.874 11.8999 49.9629 10.9866 51.5797 10.2707C52.6768 9.78233 53.9122 9.40769 55.1216 9.33419C55.1216 9.33419 57.0591 9.52708 55.5151 7.12822C55.236 7.44293 54.6831 7.38617 54.6831 7.38617Z" fill="url(#paint1_radial_289_20317)"/>
<path style="mix-blend-mode:multiply" opacity="0.25" d="M48.0059 13.3779C48.8739 11.8999 49.9628 10.9866 51.5797 10.2707C52.6768 9.78233 53.9122 9.40769 55.1215 9.33419C55.1215 9.33419 57.0591 9.52708 55.515 7.12822C55.236 7.44293 54.683 7.38617 54.683 7.38617C53.4791 7.45914 52.2383 7.83431 51.1412 8.32266C49.5244 9.03857 48.4355 9.95191 47.5674 11.4299C47.1928 12.0691 46.6306 12.5994 45.9819 12.9225C46.2142 13.7182 46.2108 14.4208 46.1227 14.9934C46.8951 14.6915 47.5741 14.1112 48.0004 13.3784L48.0059 13.3779Z" fill="url(#paint2_radial_289_20317)"/>
<path style="mix-blend-mode:multiply" opacity="0.25" d="M45.6457 2.25525C44.5606 5.25291 34.4853 8.99865 27.8034 9.88693C24.5663 10.3182 23.3782 9.58782 23.1323 8.539C21.9386 9.96575 21.3177 11.3699 21.038 12.586C20.5444 14.7298 22.5622 15.4624 24.3231 15.3739C24.8127 15.3483 25.2855 15.2636 25.6813 15.1255C28.3661 14.1895 31.2131 13.8405 34.0548 13.8348C36.3658 13.831 38.6801 14.0315 40.9567 14.4126C42.0532 14.5989 43.1622 14.8006 44.2314 15.1057C45.7051 15.5317 47.2418 14.6744 48.0054 13.3724C48.8734 11.8945 49.9623 10.9811 51.5792 10.2652C52.6763 9.77685 53.9116 9.40222 55.121 9.32872C55.121 9.32872 57.4774 9.56379 54.9192 6.29043C53.6491 4.66117 49.9836 3.07714 45.6446 2.24432L45.6457 2.25525Z" fill="url(#paint3_radial_289_20317)"/>
<path style="mix-blend-mode:multiply" opacity="0.25" d="M63.2375 14.2587C68.835 20.5006 72.1949 30.7138 72.1037 39.6207C71.9143 58.9984 56.3283 70.4933 36.2951 70.3039C26.2154 70.2057 15.4704 67.697 8.75757 62.2336C15.4914 69.9483 27.9059 73.7825 40.0128 73.8947C60.0459 74.0911 75.632 62.5893 75.8213 43.2115C75.9266 32.4741 71.0305 20.7671 63.2375 14.2587Z" fill="url(#paint4_radial_289_20317)"/>
<path d="M75.8869 36.5059C76.3436 32.4208 74.437 28.8546 71.6282 28.5406C68.8195 28.2265 66.1723 31.2835 65.7155 35.3686C65.2587 39.4537 67.1654 43.0199 69.9741 43.334C72.7829 43.648 75.4301 40.591 75.8869 36.5059Z" fill="#F7FCF8"/>
<path style="mix-blend-mode:multiply" opacity="0.25" d="M75.5638 35.0202C75.1045 39.1098 72.4583 42.1642 69.6518 41.8507C67.8221 41.6466 66.3787 40.0574 65.7153 37.8487C66.0871 40.8083 67.7419 43.09 69.958 43.3378C72.7645 43.6513 75.4179 40.5969 75.8699 36.5073C76.0303 35.0858 75.8991 33.7227 75.5419 32.5417C75.644 33.329 75.6585 34.1601 75.5565 35.0202H75.5638Z" fill="url(#paint5_radial_289_20317)"/>
<path d="M68.5292 35.392C68.2522 37.8851 69.4112 40.0648 71.1316 40.2543C72.8447 40.4438 74.463 38.5777 74.74 36.0846C75.017 33.5915 73.858 31.4119 72.1376 31.2223C70.4172 31.0328 68.8062 32.899 68.5292 35.392Z" fill="#F3A400"/>
<g style="mix-blend-mode:multiply" opacity="0.5">
<path d="M68.5292 35.392C68.3178 37.3092 68.952 39.0296 70.0382 39.8169C71.1316 39.1827 71.9991 37.7393 72.196 35.9825C72.4074 34.0653 71.7732 32.3449 70.687 31.5576C69.5935 32.1918 68.726 33.6352 68.5292 35.392Z" fill="#F3A400"/>
</g>
<path d="M5.60615 40.5354L38.5 51.5L68.372 43.3531C69.3214 43.0942 70.0346 44.2181 69.396 44.9668L59.8771 56.1268C58.1671 58.1316 55.3492 58.7862 52.9307 57.7403L38.5 51.5L27.7195 57.4479C25.4908 58.6775 22.7289 58.3671 20.8288 56.6735L4.62456 42.2306C3.81332 41.5075 4.57521 40.1917 5.60615 40.5354Z" fill="#F0F0F0"/>
<path d="M37.5428 52.1651C37.8293 51.2177 39.1707 51.2177 39.4572 52.1651L42.8732 63.4605C43.0674 64.1026 42.5868 64.75 41.916 64.75H35.084C34.4132 64.75 33.9326 64.1026 34.1268 63.4605L37.5428 52.1651Z" fill="#00063E"/>
<rect x="35" y="49" width="7" height="5" rx="1" fill="#00063E"/>
<defs>
<radialGradient id="paint0_radial_289_20317" cx="0" cy="0" r="1" gradientUnits="userSpaceOnUse" gradientTransform="translate(70.0007 36.0947) rotate(-15.62) scale(6.67011 6.67009)">
<stop stop-color="#52DFEC"/>
<stop offset="0.94" stop-color="#408BED"/>
</radialGradient>
<radialGradient id="paint1_radial_289_20317" cx="0" cy="0" r="1" gradientUnits="userSpaceOnUse" gradientTransform="translate(38.8612 11.7391) rotate(-21.1805) scale(12.8951 12.8951)">
<stop stop-color="#52DFEC"/>
<stop offset="0.94" stop-color="#408BED"/>
</radialGradient>
<radialGradient id="paint2_radial_289_20317" cx="0" cy="0" r="1" gradientUnits="userSpaceOnUse" gradientTransform="translate(50.809 10.7985) rotate(-21.1805) scale(4.42494 4.42494)">
<stop stop-color="#52DFEC"/>
<stop offset="0.94" stop-color="#408BED"/>
</radialGradient>
<radialGradient id="paint3_radial_289_20317" cx="0" cy="0" r="1" gradientUnits="userSpaceOnUse" gradientTransform="translate(27.8887 8.49471) rotate(-21.1804) scale(30.793 30.7929)">
<stop stop-color="#52DFEC"/>
<stop offset="0.94" stop-color="#408BED"/>
</radialGradient>
<radialGradient id="paint4_radial_289_20317" cx="0" cy="0" r="1" gradientUnits="userSpaceOnUse" gradientTransform="translate(42.6622 48.5508) rotate(-15.6177) scale(30.5053 30.5012)">
<stop stop-color="#52DFEC"/>
<stop offset="0.94" stop-color="#408BED"/>
</radialGradient>
<radialGradient id="paint5_radial_289_20317" cx="0" cy="0" r="1" gradientUnits="userSpaceOnUse" gradientTransform="translate(74.7989 42.1315) rotate(-15.62) scale(10.3587 10.3587)">
<stop stop-color="#52DFEC"/>
<stop offset="0.94" stop-color="#408BED"/>
</radialGradient>
</defs>
</svg>
