<svg width="641" height="69" viewBox="0 0 641 69" fill="none" xmlns="http://www.w3.org/2000/svg">
<path d="M31.832 20.5L23.032 49.3C22.7654 49.9667 22.3654 50.5667 21.832 51.1C21.3654 51.5667 20.9654 51.8 20.632 51.8H9.93203C9.13203 51.8 8.33203 52.1667 7.53203 52.9C6.73203 53.5667 5.96537 54.4667 5.23203 55.6C4.4987 56.6667 3.83203 57.8667 3.23203 59.2C2.63203 60.5333 2.13203 61.8 1.73203 63C1.5987 63.4 1.43203 64.1 1.23203 65.1C1.03203 66.0333 0.932032 66.8667 0.932032 67.6C0.932032 68.5333 1.13203 69 1.53203 69H49.232C49.5654 69 49.8987 68.7667 50.232 68.3C50.632 67.7667 50.9987 67.1667 51.332 66.5C51.6654 65.8333 51.932 65.1667 52.132 64.5C52.3987 63.8333 52.5987 63.3333 52.732 63C53.4654 60.9333 53.832 58.7667 53.832 56.5C53.832 55.1667 53.6654 54.0667 53.332 53.2C52.9987 52.2667 52.3654 51.8 51.432 51.8H40.632C40.0987 51.8 39.832 51.2 39.832 50C39.832 49.9333 39.832 49.8333 39.832 49.7C39.832 49.5 39.8654 49.2333 39.932 48.9L48.632 20.5C48.9654 19.7667 49.3654 19.1 49.832 18.5C50.3654 17.9 50.7987 17.6 51.132 17.6H61.832C62.632 17.6 63.432 17.2667 64.232 16.6C65.0987 15.8667 65.8987 14.9667 66.632 13.9C67.3654 12.7667 68.032 11.5333 68.632 10.2C69.232 8.86666 69.732 7.6 70.132 6.4C70.2654 6 70.432 5.33333 70.632 4.4C70.832 3.4 70.932 2.53333 70.932 1.79999C70.932 0.866662 70.6987 0.399995 70.232 0.399995H22.632C22.2987 0.399995 21.932 0.666662 21.532 1.2C21.132 1.66667 20.7654 2.23333 20.432 2.9C20.0987 3.56666 19.7987 4.23333 19.532 4.9C19.2654 5.56666 19.0987 6.06666 19.032 6.4C18.3654 8.33333 18.032 10.5 18.032 12.9C18.032 14.2333 18.1987 15.3667 18.532 16.3C18.8654 17.1667 19.4987 17.6 20.432 17.6H31.132C31.732 17.6 32.032 18.2 32.032 19.4C32.032 19.4667 31.9987 19.6 31.932 19.8C31.932 19.9333 31.8987 20.1667 31.832 20.5ZM64.0141 52.6L76.3141 12.5C76.7807 11.0333 77.3807 9.56666 78.1141 8.1C78.9141 6.63333 79.7807 5.33333 80.7141 4.2C81.6474 3.06667 82.6474 2.16666 83.7141 1.5C84.7807 0.766663 85.8807 0.399995 87.0141 0.399995H133.414C133.881 0.399995 134.114 0.866662 134.114 1.79999C134.114 2.53333 134.014 3.4 133.814 4.4C133.614 5.33333 133.447 6 133.314 6.4C132.914 7.6 132.381 8.86666 131.714 10.2C131.114 11.5333 130.447 12.7667 129.714 13.9C128.981 14.9667 128.214 15.8667 127.414 16.6C126.614 17.2667 125.814 17.6 125.014 17.6H93.5141C93.0474 17.6 92.6141 17.8 92.2141 18.2C91.8141 18.5333 91.4474 18.9667 91.1141 19.5C90.8474 20.0333 90.6141 20.6333 90.4141 21.3C90.2141 21.9 90.0141 22.4667 89.8141 23L82.3141 47.3V47.7C82.3141 49.1 82.7474 50.1333 83.6141 50.8C84.4807 51.4667 85.4474 51.8 86.5141 51.8H117.314C117.714 51.8 117.914 52.3667 117.914 53.5C117.914 54.3667 117.814 55.3333 117.614 56.4C117.481 57.4 117.347 58.1 117.214 58.5C116.747 60.0333 116.047 61.4667 115.114 62.8C114.247 64.0667 113.247 65.1667 112.114 66.1C110.981 67.0333 109.747 67.7667 108.414 68.3C107.147 68.7667 105.881 69 104.614 69H72.2141C70.8807 69 69.6474 68.6333 68.5141 67.9C67.4474 67.1667 66.5141 66.2 65.7141 65C64.9807 63.8 64.4141 62.4667 64.0141 61C63.6141 59.5333 63.4141 58.0333 63.4141 56.5C63.4141 54.8333 63.6141 53.5333 64.0141 52.6ZM143.998 60.5C143.664 61.7 143.364 62.7667 143.098 63.7C142.898 64.6333 142.798 65.4667 142.798 66.2C142.798 68.0667 143.631 69 145.298 69H154.098C155.698 69 156.964 68.3 157.898 66.9C158.898 65.5 159.864 63.3667 160.798 60.5L172.998 20.5C173.331 19.7667 173.731 19.1 174.198 18.5C174.731 17.9 175.164 17.6 175.498 17.6H188.298C189.098 17.6 189.898 17.2667 190.698 16.6C191.498 15.8667 192.264 14.9667 192.998 13.9C193.731 12.7667 194.398 11.5333 194.998 10.2C195.598 8.86666 196.098 7.6 196.498 6.4C196.631 6 196.798 5.33333 196.998 4.4C197.198 3.4 197.298 2.53333 197.298 1.79999C197.298 0.866662 197.098 0.399995 196.698 0.399995H144.898C144.564 0.399995 144.198 0.666662 143.798 1.2C143.398 1.66667 143.031 2.23333 142.698 2.9C142.364 3.5 142.064 4.13333 141.798 4.8C141.531 5.46666 141.364 5.96666 141.298 6.3C140.898 7.43333 140.631 8.56666 140.498 9.69999C140.364 10.7667 140.298 11.8333 140.298 12.9C140.298 14.2333 140.464 15.3667 140.798 16.3C141.131 17.1667 141.764 17.6 142.698 17.6H155.498C156.098 17.6 156.398 18.2 156.398 19.4C156.398 19.4667 156.364 19.6 156.298 19.8C156.298 19.9333 156.264 20.1667 156.198 20.5L143.998 60.5ZM245.342 0.399995C243.742 0.533331 242.476 1.26666 241.542 2.6C240.609 3.93333 239.676 6.03333 238.742 8.9L222.942 60.5C222.076 62.8333 221.642 64.8 221.642 66.4C221.642 68.1333 222.509 69 224.242 69H233.042C234.642 69 235.909 68.3667 236.842 67.1C237.842 65.7667 238.809 63.5667 239.742 60.5L247.542 34.7C248.542 37.3 249.442 39.6667 250.242 41.8C251.042 43.9333 251.842 46.0333 252.642 48.1C253.442 50.1667 254.309 52.3333 255.242 54.6C256.242 56.8667 257.376 59.4333 258.642 62.3H259.142C261.942 59.7667 264.709 57.1667 267.442 54.5C270.242 51.8333 272.876 49.2667 275.342 46.8C277.876 44.3333 280.209 42.0667 282.342 40C284.476 37.8667 286.309 36.1 287.842 34.7L279.842 60.5C278.976 62.8333 278.542 64.8 278.542 66.4C278.542 68.1333 279.409 69 281.142 69H289.842C291.442 69 292.709 68.3667 293.642 67.1C294.642 65.7667 295.609 63.5667 296.542 60.5L312.342 8.9C313.076 5.96666 313.442 4.13333 313.442 3.4C313.442 1.6 312.609 0.599996 310.942 0.399995H299.142C298.809 0.399995 298.009 0.93333 296.742 2C295.476 3.06666 293.876 4.46666 291.942 6.2C290.076 7.93333 287.976 9.93333 285.642 12.2C283.376 14.4667 281.009 16.8333 278.542 19.3C276.142 21.7 273.776 24.1 271.442 26.5C269.109 28.9 266.976 31.1333 265.042 33.2L264.742 33.6C263.542 30.3333 262.242 26.7667 260.842 22.9C259.509 19.0333 258.242 15.4333 257.042 12.1C255.909 8.76667 254.876 6 253.942 3.8C253.076 1.53333 252.476 0.399995 252.142 0.399995H245.342ZM376.28 16.8C376.614 16.0667 376.78 14.7667 376.78 12.9C376.78 11.4333 376.58 9.96667 376.18 8.5C375.78 6.96666 375.18 5.6 374.38 4.4C373.647 3.2 372.747 2.23333 371.68 1.5C370.614 0.766663 369.38 0.399995 367.98 0.399995H324.78C324.447 0.399995 324.08 0.666662 323.68 1.2C323.28 1.66667 322.914 2.23333 322.58 2.9C322.247 3.56666 321.947 4.23333 321.68 4.9C321.414 5.56666 321.247 6.06666 321.18 6.4C320.78 7.53333 320.514 8.63333 320.38 9.69999C320.247 10.7667 320.18 11.8333 320.18 12.9C320.18 14.2333 320.347 15.3667 320.68 16.3C321.014 17.1667 321.647 17.6 322.58 17.6H354.18C355.114 17.7333 355.98 18.1333 356.78 18.8C357.58 19.4 357.98 20.3667 357.98 21.7V21.9L357.58 23.1C357.314 23.6333 356.947 24.2667 356.48 25C356.014 25.6667 355.547 26 355.08 26H319.18C317.647 26 316.38 26.6667 315.38 28C314.447 29.2667 313.514 31.4333 312.58 34.5L307.08 52.6C306.68 53.5333 306.48 54.8333 306.48 56.5C306.48 58.0333 306.68 59.5333 307.08 61C307.48 62.4667 308.047 63.8 308.78 65C309.58 66.2 310.514 67.1667 311.58 67.9C312.714 68.6333 313.947 69 315.28 69H356.28C357.414 69 358.514 68.4667 359.58 67.4C360.714 66.2667 361.814 63.9667 362.88 60.5L376.28 16.8ZM328.28 43.4H349.58C350.38 43.6 350.78 44.1 350.78 44.9C350.78 45.3 350.68 45.7 350.48 46.1L349.58 49.1C349.38 49.8333 348.98 50.4667 348.38 51C347.78 51.5333 347.38 51.8 347.18 51.8H329.58C328.58 51.8 327.614 51.4667 326.68 50.8C325.814 50.0667 325.38 49.0333 325.38 47.7L325.88 46.2C326.014 45.6 326.314 45 326.78 44.4C327.314 43.7333 327.814 43.4 328.28 43.4ZM409.289 60.5C408.422 62.6333 407.989 64.5667 407.989 66.3C407.989 67.9 408.722 68.8 410.189 69H419.389C420.922 69 422.156 68.3 423.089 66.9C424.089 65.5 425.056 63.3667 425.989 60.5L441.889 8.9C442.689 6.3 443.089 4.36666 443.089 3.1C443.089 1.3 442.189 0.399995 440.389 0.399995H431.689C430.156 0.399995 428.889 1.06666 427.889 2.4C426.956 3.66667 426.022 5.83333 425.089 8.9L420.389 24.1C420.122 24.5667 419.822 25 419.489 25.4C419.222 25.7333 418.922 25.9333 418.589 26H399.589C399.256 25.9333 399.056 25.7333 398.989 25.4C398.922 25 398.889 24.5667 398.889 24.1L403.589 8.9C404.389 6.3 404.789 4.36666 404.789 3.1C404.789 1.3 403.922 0.399995 402.189 0.399995H393.389C391.856 0.399995 390.589 1.06666 389.589 2.4C388.656 3.66667 387.722 5.83333 386.789 8.9L370.989 60.5C370.656 61.7 370.356 62.7667 370.089 63.7C369.889 64.6333 369.789 65.4667 369.789 66.2C369.789 68.0667 370.622 69 372.289 69H381.589C383.056 68.8667 384.222 68.1333 385.089 66.8C385.956 65.4 386.856 63.3 387.789 60.5L392.189 46C392.522 45.2 392.856 44.6 393.189 44.2C393.589 43.8 394.089 43.5333 394.689 43.4H412.289C413.356 43.4 413.889 43.8333 413.889 44.7C413.889 44.9 413.856 45.1 413.789 45.3C413.789 45.5 413.756 45.7333 413.689 46L409.289 60.5ZM450.875 60.5L466.675 8.9C467.475 6.3 467.875 4.36666 467.875 3.1C467.875 1.3 467.008 0.399995 465.275 0.399995H456.475C454.942 0.399995 453.675 1.06666 452.675 2.4C451.742 3.66667 450.808 5.83333 449.875 8.9L434.075 60.5C433.742 61.7 433.442 62.7667 433.175 63.7C432.975 64.6333 432.875 65.4667 432.875 66.2C432.875 68.0667 433.708 69 435.375 69H444.175C445.775 69 447.042 68.3 447.975 66.9C448.975 65.5 449.942 63.3667 450.875 60.5ZM516.377 52.6L528.677 12.5C529.344 10.5667 529.677 8.66666 529.677 6.8C529.677 5 529.311 3.49999 528.577 2.29999C527.911 1.03333 526.844 0.399995 525.377 0.399995H481.377C479.844 0.399995 478.577 1.06666 477.577 2.4C476.644 3.66667 475.711 5.83333 474.777 8.9L458.977 60.5C458.644 61.7 458.344 62.7667 458.077 63.7C457.877 64.6333 457.777 65.4667 457.777 66.2C457.777 68.0667 458.611 69 460.277 69H498.077C499.744 69 501.544 68.4667 503.477 67.4C505.411 66.2667 507.244 64.9 508.977 63.3C510.711 61.6333 512.244 59.8333 513.577 57.9C514.977 55.9667 515.911 54.2 516.377 52.6ZM508.277 17.6C509.077 17.6 509.477 18.1667 509.477 19.3C509.477 19.8333 509.377 20.4667 509.177 21.2C509.044 21.8667 508.911 22.4667 508.777 23L501.277 47.3C500.411 48.8333 499.311 49.9667 497.977 50.7C496.644 51.4333 495.411 51.8 494.277 51.8H479.977C479.644 51.8 479.411 51.6333 479.277 51.3C479.144 50.9667 479.077 50.5667 479.077 50.1C479.077 50.0333 479.077 49.9 479.077 49.7C479.144 49.5 479.211 49.2333 479.277 48.9L487.977 20.5C488.177 19.8333 488.511 19.2 488.977 18.6C489.511 17.9333 490.011 17.6 490.477 17.6H508.277ZM593.663 16.8C593.997 16.0667 594.163 14.7667 594.163 12.9C594.163 11.4333 593.963 9.96667 593.563 8.5C593.163 6.96666 592.563 5.6 591.763 4.4C591.03 3.2 590.13 2.23333 589.063 1.5C587.997 0.766663 586.763 0.399995 585.363 0.399995H553.763C552.097 0.399995 550.297 0.966662 548.363 2.1C546.43 3.16666 544.563 4.53333 542.763 6.2C541.03 7.8 539.463 9.56666 538.063 11.5C536.73 13.4333 535.83 15.2 535.363 16.8L524.463 52.6C524.063 53.5333 523.863 54.8333 523.863 56.5C523.863 58.0333 524.063 59.5333 524.463 61C524.863 62.4667 525.43 63.8 526.163 65C526.963 66.2 527.897 67.1667 528.963 67.9C530.097 68.6333 531.33 69 532.663 69H564.363C566.03 69 567.83 68.4667 569.763 67.4C571.697 66.2667 573.53 64.9 575.263 63.3C576.997 61.6333 578.53 59.8333 579.863 57.9C581.263 55.9667 582.197 54.2 582.663 52.6L593.663 16.8ZM570.963 17.6C572.097 17.6 573.097 17.9333 573.963 18.6C574.83 19.2667 575.263 20.3 575.263 21.7V22.1L567.463 47.3C566.663 48.7667 565.63 49.9 564.363 50.7C563.097 51.4333 561.93 51.8 560.863 51.8H546.963C545.897 51.8 544.93 51.4667 544.063 50.8C543.197 50.1333 542.763 49.1 542.763 47.7V47.3L550.563 22.1C551.363 20.5667 552.43 19.4333 553.763 18.7C555.163 17.9667 556.397 17.6 557.463 17.6H570.963ZM620.872 8.9C621.672 6.3 622.072 4.33333 622.072 3C622.072 1.26666 621.239 0.399995 619.572 0.399995H610.772C609.239 0.399995 607.972 1.06666 606.972 2.4C606.039 3.66667 605.105 5.83333 604.172 8.9L590.772 52.6C590.372 53.5333 590.172 54.8333 590.172 56.5C590.172 58.0333 590.372 59.5333 590.772 61C591.172 62.4667 591.739 63.8 592.472 65C593.272 66.2 594.205 67.1667 595.272 67.9C596.405 68.6333 597.639 69 598.972 69H626.772C628.039 69 629.305 68.7667 630.572 68.3C631.905 67.7667 633.105 67.0333 634.172 66.1C635.305 65.1667 636.305 64.0667 637.172 62.8C638.105 61.4667 638.805 60.0333 639.272 58.5C639.405 58.1 639.572 57.4 639.772 56.4C639.972 55.3333 640.072 54.3667 640.072 53.5C640.072 52.3667 639.839 51.8 639.372 51.8H613.272C612.205 51.8 611.239 51.4667 610.372 50.8C609.505 50.1333 609.072 49.1 609.072 47.7V47.3L620.872 8.9Z" fill="white"/>
</svg>
