<svg width="734" height="55" viewBox="0 0 734 55" fill="none" xmlns="http://www.w3.org/2000/svg">
<path d="M56.7338 13.24C57.0004 12.6533 57.1338 11.6133 57.1338 10.12C57.1338 8.94667 56.9738 7.77333 56.6538 6.6C56.3338 5.37333 55.8538 4.28 55.2138 3.32C54.6271 2.36 53.9071 1.58666 53.0538 0.999999C52.2004 0.41333 51.2138 0.119996 50.0938 0.119996H24.8138C23.4804 0.119996 22.0404 0.57333 20.4938 1.48C18.9471 2.33333 17.4538 3.42666 16.0138 4.76C14.6271 6.04 13.3738 7.45333 12.2538 9C11.1871 10.5467 10.4671 11.96 10.0938 13.24L1.37375 41.88C1.05375 42.6267 0.89375 43.6667 0.89375 45C0.89375 46.2267 1.05375 47.4267 1.37375 48.6C1.69375 49.7733 2.14708 50.84 2.73375 51.8C3.37375 52.76 4.12042 53.5333 4.97375 54.12C5.88042 54.7067 6.86708 55 7.93375 55H33.2938C34.6271 55 36.0671 54.5733 37.6138 53.72C39.1604 52.8133 40.6271 51.72 42.0138 50.44C43.4004 49.1067 44.6271 47.6667 45.6938 46.12C46.8138 44.5733 47.5604 43.16 47.9338 41.88L56.7338 13.24ZM38.5738 13.88C39.4804 13.88 40.2804 14.1467 40.9738 14.68C41.6671 15.2133 42.0138 16.04 42.0138 17.16V17.48L35.7738 37.64C35.1338 38.8133 34.3071 39.72 33.2938 40.36C32.2804 40.9467 31.3471 41.24 30.4938 41.24H19.3738C18.5204 41.24 17.7471 40.9733 17.0538 40.44C16.3604 39.9067 16.0138 39.08 16.0138 37.96V37.64L22.2538 17.48C22.8938 16.2533 23.7471 15.3467 24.8138 14.76C25.9338 14.1733 26.9204 13.88 27.7738 13.88H38.5738ZM65.9406 48.2L67.3006 43.56C68.154 40.7867 69.194 39.3467 70.4206 39.24H91.2206C92.5006 39.24 93.914 38.8133 95.4606 37.96C97.0073 37.0533 98.474 35.96 99.8606 34.68C101.301 33.3467 102.554 31.9067 103.621 30.36C104.741 28.8133 105.487 27.4 105.861 26.12L110.821 9.8C111.354 8.25333 111.621 6.73333 111.621 5.24C111.621 3.8 111.327 2.6 110.741 1.64C110.207 0.626663 109.354 0.119996 108.181 0.119996H68.5806C67.9406 0.119996 67.3806 0.57333 66.9006 1.48C66.474 2.33333 66.1006 3.32 65.7806 4.44C65.514 5.56 65.3006 6.68 65.1406 7.8C64.9806 8.86666 64.9006 9.64 64.9006 10.12C64.9006 11.1867 65.034 12.0933 65.3006 12.84C65.5673 13.5333 66.074 13.88 66.8206 13.88H94.5006C95.1406 13.88 95.4606 14.3333 95.4606 15.24C95.4606 15.6667 95.3806 16.1733 95.2206 16.76C95.114 17.2933 95.0073 17.7733 94.9006 18.2L93.7806 21.88C93.0873 23.1067 92.2606 24.04 91.3006 24.68C90.394 25.2667 89.4873 25.56 88.5806 25.56H62.5806C61.5673 25.56 60.6873 25.9333 59.9406 26.68C59.2473 27.4267 58.5806 28.6533 57.9406 30.36L52.5006 48.2C52.234 49.16 51.994 50.0133 51.7806 50.76C51.6206 51.5067 51.5406 52.1733 51.5406 52.76C51.5406 54.2533 52.2073 55 53.5406 55H60.5806C61.8606 55 62.874 54.44 63.6206 53.32C64.4206 52.2 65.194 50.4933 65.9406 48.2ZM107.468 41.88C107.148 42.6267 106.988 43.6667 106.988 45C106.988 46.2267 107.148 47.4267 107.468 48.6C107.788 49.7733 108.241 50.84 108.828 51.8C109.468 52.76 110.214 53.5333 111.068 54.12C111.974 54.7067 112.961 55 114.028 55H139.948C140.961 55 141.974 54.8133 142.988 54.44C144.054 54.0133 145.041 53.4267 145.948 52.68C146.854 51.9333 147.654 51.0533 148.348 50.04C149.094 48.9733 149.654 47.8267 150.028 46.6C150.134 46.28 150.241 45.72 150.348 44.92C150.508 44.0667 150.588 43.2933 150.588 42.6C150.588 41.6933 150.428 41.24 150.108 41.24H125.228C124.481 41.24 123.734 41.0267 122.988 40.6C122.294 40.1733 121.948 39.48 121.948 38.52C121.948 38.4667 121.948 38.3867 121.948 38.28C122.001 38.12 122.054 37.9067 122.108 37.64C122.534 36.5733 122.934 35.8 123.308 35.32C123.681 34.7867 124.188 34.52 124.828 34.52H144.988C145.574 34.52 146.161 34.2267 146.748 33.64C147.388 33.0533 148.001 32.3067 148.588 31.4C149.174 30.4933 149.708 29.5067 150.188 28.44C150.668 27.3733 151.068 26.36 151.388 25.4C151.494 25.08 151.628 24.5467 151.788 23.8C151.948 23 152.028 22.3067 152.028 21.72C152.028 20.9733 151.868 20.6 151.548 20.6H128.588C128.321 20.6 128.134 20.4667 128.028 20.2C127.921 19.9333 127.868 19.64 127.868 19.32C127.868 19.2133 127.868 19.08 127.868 18.92C127.921 18.76 127.974 18.5467 128.028 18.28C128.134 17.8533 128.268 17.4 128.428 16.92C128.641 16.3867 128.881 15.9067 129.148 15.48C129.414 15 129.708 14.6267 130.028 14.36C130.348 14.04 130.694 13.88 131.068 13.88H156.268C156.908 13.88 157.548 13.6133 158.188 13.08C158.828 12.4933 159.441 11.7733 160.028 10.92C160.614 10.0133 161.148 9.02667 161.628 7.96C162.161 6.89333 162.588 5.88 162.908 4.92C163.014 4.6 163.148 4.06666 163.308 3.32C163.468 2.52 163.548 1.82666 163.548 1.24C163.548 0.493329 163.361 0.119996 162.988 0.119996H125.868C124.961 0.119996 124.081 0.41333 123.228 0.999999C122.374 1.53333 121.574 2.25333 120.828 3.16C120.081 4.06666 119.388 5.10666 118.748 6.28C118.161 7.45333 117.681 8.62667 117.308 9.8L107.468 41.88ZM174.014 0.119996C172.788 0.119996 171.774 0.65333 170.974 1.72C170.228 2.73333 169.481 4.46667 168.734 6.92L156.094 48.2C155.401 50.0667 155.054 51.64 155.054 52.92C155.054 54.3067 155.748 55 157.134 55H164.174C165.454 55 166.468 54.4933 167.214 53.48C168.014 52.4133 168.788 50.6533 169.534 48.2L176.334 26.36L189.694 52.44C189.854 52.76 190.174 53.2667 190.654 53.96C191.134 54.6533 191.668 55 192.254 55H197.374C198.601 55 199.588 54.4933 200.334 53.48C201.134 52.4133 201.908 50.6533 202.654 48.2L215.374 6.92C215.961 4.57333 216.254 3.05333 216.254 2.36C216.254 0.866663 215.561 0.119996 214.174 0.119996H206.734C205.614 0.226665 204.681 0.839998 203.934 1.96C203.241 3.02667 202.574 4.68 201.934 6.92L194.254 31.8C191.481 25.56 189.134 20.4133 187.214 16.36C185.294 12.2533 183.694 9 182.414 6.6C181.134 4.2 180.121 2.52 179.374 1.56C178.681 0.599996 178.174 0.119996 177.854 0.119996H174.014ZM267.672 48.2C266.979 49.9067 266.632 51.4533 266.632 52.84C266.632 54.12 267.219 54.84 268.392 55H275.752C276.979 55 277.965 54.44 278.712 53.32C279.512 52.2 280.285 50.4933 281.032 48.2L293.752 6.92C294.392 4.84 294.712 3.29333 294.712 2.28C294.712 0.839996 293.992 0.119996 292.552 0.119996H285.592C284.365 0.119996 283.352 0.65333 282.552 1.72C281.805 2.73333 281.059 4.46667 280.312 6.92L276.552 19.08C276.339 19.4533 276.099 19.8 275.832 20.12C275.619 20.3867 275.379 20.5467 275.112 20.6H259.912C259.645 20.5467 259.485 20.3867 259.432 20.12C259.379 19.8 259.352 19.4533 259.352 19.08L263.112 6.92C263.752 4.84 264.072 3.29333 264.072 2.28C264.072 0.839996 263.379 0.119996 261.992 0.119996H254.952C253.725 0.119996 252.712 0.65333 251.912 1.72C251.165 2.73333 250.419 4.46667 249.672 6.92L237.032 48.2C236.765 49.16 236.525 50.0133 236.312 50.76C236.152 51.5067 236.072 52.1733 236.072 52.76C236.072 54.2533 236.739 55 238.072 55H245.512C246.685 54.8933 247.619 54.3067 248.312 53.24C249.005 52.12 249.725 50.44 250.472 48.2L253.992 36.6C254.259 35.96 254.525 35.48 254.792 35.16C255.112 34.84 255.512 34.6267 255.992 34.52H270.072C270.925 34.52 271.352 34.8667 271.352 35.56C271.352 35.72 271.325 35.88 271.272 36.04C271.272 36.2 271.245 36.3867 271.192 36.6L267.672 48.2ZM344.781 13.24C345.047 12.6533 345.181 11.6133 345.181 10.12C345.181 8.94667 345.021 7.77333 344.701 6.6C344.381 5.37333 343.901 4.28 343.261 3.32C342.674 2.36 341.954 1.58666 341.101 0.999999C340.247 0.41333 339.261 0.119996 338.141 0.119996H312.861C311.527 0.119996 310.087 0.57333 308.541 1.48C306.994 2.33333 305.501 3.42666 304.061 4.76C302.674 6.04 301.421 7.45333 300.301 9C299.234 10.5467 298.514 11.96 298.141 13.24L289.421 41.88C289.101 42.6267 288.941 43.6667 288.941 45C288.941 46.2267 289.101 47.4267 289.421 48.6C289.741 49.7733 290.194 50.84 290.781 51.8C291.421 52.76 292.167 53.5333 293.021 54.12C293.927 54.7067 294.914 55 295.981 55H321.341C322.674 55 324.114 54.5733 325.661 53.72C327.207 52.8133 328.674 51.72 330.061 50.44C331.447 49.1067 332.674 47.6667 333.741 46.12C334.861 44.5733 335.607 43.16 335.981 41.88L344.781 13.24ZM326.621 13.88C327.527 13.88 328.327 14.1467 329.021 14.68C329.714 15.2133 330.061 16.04 330.061 17.16V17.48L323.821 37.64C323.181 38.8133 322.354 39.72 321.341 40.36C320.327 40.9467 319.394 41.24 318.541 41.24H307.421C306.567 41.24 305.794 40.9733 305.101 40.44C304.407 39.9067 304.061 39.08 304.061 37.96V37.64L310.301 17.48C310.941 16.2533 311.794 15.3467 312.861 14.76C313.981 14.1733 314.967 13.88 315.821 13.88H326.621ZM366.548 6.92C367.188 4.84 367.508 3.26666 367.508 2.2C367.508 0.81333 366.841 0.119996 365.508 0.119996H358.468C357.241 0.119996 356.228 0.65333 355.428 1.72C354.681 2.73333 353.934 4.46667 353.188 6.92L342.468 41.88C342.148 42.6267 341.988 43.6667 341.988 45C341.988 46.2267 342.148 47.4267 342.468 48.6C342.788 49.7733 343.241 50.84 343.828 51.8C344.468 52.76 345.214 53.5333 346.068 54.12C346.974 54.7067 347.961 55 349.028 55H374.388C375.721 55 377.161 54.5733 378.708 53.72C380.254 52.8133 381.721 51.72 383.108 50.44C384.494 49.1067 385.721 47.6667 386.788 46.12C387.908 44.5733 388.654 43.16 389.028 41.88L399.828 6.92C400.468 4.84 400.788 3.29333 400.788 2.28C400.788 0.839996 400.068 0.119996 398.628 0.119996H391.588C390.361 0.119996 389.374 0.65333 388.628 1.72C387.881 2.73333 387.134 4.46667 386.388 6.92L376.868 37.64C376.228 38.8133 375.401 39.72 374.388 40.36C373.374 40.9467 372.441 41.24 371.588 41.24H360.468C359.614 41.24 358.841 40.9733 358.148 40.44C357.454 39.9067 357.108 39.08 357.108 37.96V37.64L366.548 6.92ZM438.474 45.32C438.101 46.5467 437.594 47.7467 436.954 48.92C436.368 50.04 435.701 51.0533 434.954 51.96C434.208 52.8667 433.408 53.6133 432.554 54.2C431.701 54.7333 430.821 55 429.914 55H394.954C394.634 55 394.474 54.6267 394.474 53.88C394.474 53.2933 394.554 52.6267 394.714 51.88C394.874 51.08 395.008 50.52 395.114 50.2C395.434 49.24 395.834 48.2267 396.314 47.16C396.794 46.0933 397.328 45.1333 397.914 44.28C398.501 43.3733 399.114 42.6533 399.754 42.12C400.394 41.5333 401.034 41.24 401.674 41.24H424.714C425.514 41.24 426.128 40.7867 426.554 39.88C427.034 38.92 427.408 38.0133 427.674 37.16C427.728 37.1067 427.754 36.92 427.754 36.6C427.754 36.0133 427.434 35.5333 426.794 35.16C426.154 34.7333 425.221 34.52 423.994 34.52H408.394C407.328 34.52 406.341 34.2267 405.434 33.64C404.581 33 403.834 32.2 403.194 31.24C402.608 30.28 402.154 29.2133 401.834 28.04C401.514 26.8133 401.354 25.5867 401.354 24.36C401.354 23.0267 401.514 21.9867 401.834 21.24L405.354 9.8C405.728 8.62667 406.208 7.45333 406.794 6.28C407.434 5.10666 408.128 4.06666 408.874 3.16C409.621 2.25333 410.421 1.53333 411.274 0.999999C412.128 0.41333 413.008 0.119996 413.914 0.119996H447.434C447.754 0.119996 447.914 0.493329 447.914 1.24C447.914 1.82666 447.834 2.52 447.674 3.32C447.514 4.06666 447.381 4.6 447.274 4.92C446.954 5.88 446.554 6.89333 446.074 7.96C445.594 9.02667 445.061 10.0133 444.474 10.92C443.888 11.7733 443.274 12.4933 442.634 13.08C441.994 13.6133 441.354 13.88 440.714 13.88H419.114C418.368 13.88 417.754 14.36 417.274 15.32C416.848 16.2267 416.501 17.1067 416.234 17.96C416.181 18.0133 416.154 18.1733 416.154 18.44C416.154 19.0267 416.448 19.5333 417.034 19.96C417.674 20.3867 418.634 20.6 419.914 20.6H435.514C436.581 20.6 437.541 20.92 438.394 21.56C439.248 22.1467 439.968 22.92 440.554 23.88C441.194 24.84 441.674 25.9333 441.994 27.16C442.314 28.3867 442.474 29.5867 442.474 30.76C442.474 32.1467 442.314 33.1867 441.994 33.88L438.474 45.32ZM446.061 41.88C445.741 42.6267 445.581 43.6667 445.581 45C445.581 46.2267 445.741 47.4267 446.061 48.6C446.381 49.7733 446.835 50.84 447.421 51.8C448.061 52.76 448.808 53.5333 449.661 54.12C450.568 54.7067 451.555 55 452.621 55H478.541C479.555 55 480.568 54.8133 481.581 54.44C482.648 54.0133 483.635 53.4267 484.541 52.68C485.448 51.9333 486.248 51.0533 486.941 50.04C487.688 48.9733 488.248 47.8267 488.621 46.6C488.728 46.28 488.835 45.72 488.941 44.92C489.101 44.0667 489.181 43.2933 489.181 42.6C489.181 41.6933 489.021 41.24 488.701 41.24H463.821C463.075 41.24 462.328 41.0267 461.581 40.6C460.888 40.1733 460.541 39.48 460.541 38.52C460.541 38.4667 460.541 38.3867 460.541 38.28C460.595 38.12 460.648 37.9067 460.701 37.64C461.128 36.5733 461.528 35.8 461.901 35.32C462.275 34.7867 462.781 34.52 463.421 34.52H483.581C484.168 34.52 484.755 34.2267 485.341 33.64C485.981 33.0533 486.595 32.3067 487.181 31.4C487.768 30.4933 488.301 29.5067 488.781 28.44C489.261 27.3733 489.661 26.36 489.981 25.4C490.088 25.08 490.221 24.5467 490.381 23.8C490.541 23 490.621 22.3067 490.621 21.72C490.621 20.9733 490.461 20.6 490.141 20.6H467.181C466.915 20.6 466.728 20.4667 466.621 20.2C466.515 19.9333 466.461 19.64 466.461 19.32C466.461 19.2133 466.461 19.08 466.461 18.92C466.515 18.76 466.568 18.5467 466.621 18.28C466.728 17.8533 466.861 17.4 467.021 16.92C467.235 16.3867 467.475 15.9067 467.741 15.48C468.008 15 468.301 14.6267 468.621 14.36C468.941 14.04 469.288 13.88 469.661 13.88H494.861C495.501 13.88 496.141 13.6133 496.781 13.08C497.421 12.4933 498.035 11.7733 498.621 10.92C499.208 10.0133 499.741 9.02667 500.221 7.96C500.755 6.89333 501.181 5.88 501.501 4.92C501.608 4.6 501.741 4.06666 501.901 3.32C502.061 2.52 502.141 1.82666 502.141 1.24C502.141 0.493329 501.955 0.119996 501.581 0.119996H464.461C463.555 0.119996 462.675 0.41333 461.821 0.999999C460.968 1.53333 460.168 2.25333 459.421 3.16C458.675 4.06666 457.981 5.10666 457.341 6.28C456.755 7.45333 456.275 8.62667 455.901 9.8L446.061 41.88ZM523.379 45.32C522.899 46.92 522.659 48.44 522.659 49.88C522.659 51.32 522.925 52.5467 523.459 53.56C523.992 54.52 524.872 55 526.099 55H561.059C561.325 55 561.592 54.8133 561.859 54.44C562.179 54.0133 562.472 53.5333 562.739 53C563.005 52.4667 563.219 51.9333 563.379 51.4C563.592 50.8667 563.752 50.4667 563.859 50.2C564.392 48.6533 564.659 46.92 564.659 45C564.659 43.9333 564.525 43.0533 564.259 42.36C563.992 41.6133 563.485 41.24 562.739 41.24H539.699C539.059 41.24 538.739 40.8133 538.739 39.96C538.739 39.5333 538.792 39.08 538.899 38.6C539.059 38.0667 539.192 37.5867 539.299 37.16C539.565 36.4133 540.152 35.8 541.059 35.32C542.019 34.7867 543.192 34.52 544.579 34.52H560.099C561.432 34.52 562.872 34.0667 564.419 33.16C566.019 32.2533 567.512 31.1333 568.899 29.8C570.339 28.4667 571.592 27.0267 572.659 25.48C573.779 23.9333 574.525 22.52 574.899 21.24L578.419 9.8C578.952 8.25333 579.219 6.73333 579.219 5.24C579.219 3.8 578.925 2.6 578.339 1.64C577.805 0.626663 576.952 0.119996 575.779 0.119996H542.259C541.992 0.119996 541.699 0.33333 541.379 0.759997C541.112 1.13333 540.845 1.58667 540.579 2.12C540.312 2.65333 540.072 3.18666 539.859 3.72C539.645 4.25333 539.512 4.65333 539.459 4.92C538.925 6.46667 538.659 8.2 538.659 10.12C538.659 11.1867 538.792 12.0933 539.059 12.84C539.325 13.5333 539.832 13.88 540.579 13.88H562.099C562.792 13.88 563.139 14.3333 563.139 15.24C563.139 15.6133 563.085 16.04 562.979 16.52C562.872 16.9467 562.765 17.3733 562.659 17.8L562.579 17.96C562.312 18.6533 561.699 19.2667 560.739 19.8C559.779 20.3333 558.605 20.6 557.219 20.6H541.619C540.285 20.6 538.845 21.0533 537.299 21.96C535.752 22.8667 534.259 23.9867 532.819 25.32C531.432 26.6533 530.179 28.0933 529.059 29.64C527.992 31.1867 527.272 32.6 526.899 33.88L523.379 45.32ZM630.406 13.24C630.672 12.6533 630.806 11.6133 630.806 10.12C630.806 8.94667 630.646 7.77333 630.326 6.6C630.006 5.37333 629.526 4.28 628.886 3.32C628.299 2.36 627.579 1.58666 626.726 0.999999C625.872 0.41333 624.886 0.119996 623.766 0.119996H598.486C597.152 0.119996 595.712 0.57333 594.166 1.48C592.619 2.33333 591.126 3.42666 589.686 4.76C588.299 6.04 587.046 7.45333 585.926 9C584.859 10.5467 584.139 11.96 583.766 13.24L575.046 41.88C574.726 42.6267 574.566 43.6667 574.566 45C574.566 46.2267 574.726 47.4267 575.046 48.6C575.366 49.7733 575.819 50.84 576.406 51.8C577.046 52.76 577.792 53.5333 578.646 54.12C579.552 54.7067 580.539 55 581.606 55H606.966C608.299 55 609.739 54.5733 611.286 53.72C612.832 52.8133 614.299 51.72 615.686 50.44C617.072 49.1067 618.299 47.6667 619.366 46.12C620.486 44.5733 621.232 43.16 621.606 41.88L630.406 13.24ZM612.246 13.88C613.152 13.88 613.952 14.1467 614.646 14.68C615.339 15.2133 615.686 16.04 615.686 17.16V17.48L609.446 37.64C608.806 38.8133 607.979 39.72 606.966 40.36C605.952 40.9467 605.019 41.24 604.166 41.24H593.046C592.192 41.24 591.419 40.9733 590.726 40.44C590.032 39.9067 589.686 39.08 589.686 37.96V37.64L595.926 17.48C596.566 16.2533 597.419 15.3467 598.486 14.76C599.606 14.1733 600.592 13.88 601.446 13.88H612.246ZM626.973 45.32C626.493 46.92 626.253 48.44 626.253 49.88C626.253 51.32 626.519 52.5467 627.053 53.56C627.586 54.52 628.466 55 629.693 55H664.653C664.919 55 665.186 54.8133 665.453 54.44C665.773 54.0133 666.066 53.5333 666.333 53C666.599 52.4667 666.813 51.9333 666.973 51.4C667.186 50.8667 667.346 50.4667 667.453 50.2C667.986 48.6533 668.253 46.92 668.253 45C668.253 43.9333 668.119 43.0533 667.852 42.36C667.586 41.6133 667.079 41.24 666.333 41.24H643.293C642.653 41.24 642.333 40.8133 642.333 39.96C642.333 39.5333 642.386 39.08 642.493 38.6C642.653 38.0667 642.786 37.5867 642.893 37.16C643.159 36.4133 643.746 35.8 644.653 35.32C645.613 34.7867 646.786 34.52 648.173 34.52H663.693C665.026 34.52 666.466 34.0667 668.013 33.16C669.613 32.2533 671.106 31.1333 672.493 29.8C673.933 28.4667 675.186 27.0267 676.253 25.48C677.373 23.9333 678.119 22.52 678.493 21.24L682.013 9.8C682.546 8.25333 682.813 6.73333 682.813 5.24C682.813 3.8 682.519 2.6 681.933 1.64C681.399 0.626663 680.546 0.119996 679.373 0.119996H645.853C645.586 0.119996 645.293 0.33333 644.973 0.759997C644.706 1.13333 644.439 1.58667 644.173 2.12C643.906 2.65333 643.666 3.18666 643.453 3.72C643.239 4.25333 643.106 4.65333 643.053 4.92C642.519 6.46667 642.253 8.2 642.253 10.12C642.253 11.1867 642.386 12.0933 642.653 12.84C642.919 13.5333 643.426 13.88 644.173 13.88H665.693C666.386 13.88 666.733 14.3333 666.733 15.24C666.733 15.6133 666.679 16.04 666.573 16.52C666.466 16.9467 666.359 17.3733 666.253 17.8L666.173 17.96C665.906 18.6533 665.293 19.2667 664.333 19.8C663.373 20.3333 662.199 20.6 660.812 20.6H645.213C643.879 20.6 642.439 21.0533 640.893 21.96C639.346 22.8667 637.853 23.9867 636.413 25.32C635.026 26.6533 633.773 28.0933 632.653 29.64C631.586 31.1867 630.866 32.6 630.493 33.88L626.973 45.32ZM677.519 45.32C677.039 46.92 676.799 48.44 676.799 49.88C676.799 51.32 677.066 52.5467 677.599 53.56C678.133 54.52 679.013 55 680.239 55H715.199C715.466 55 715.733 54.8133 715.999 54.44C716.319 54.0133 716.613 53.5333 716.879 53C717.146 52.4667 717.359 51.9333 717.519 51.4C717.733 50.8667 717.893 50.4667 717.999 50.2C718.533 48.6533 718.799 46.92 718.799 45C718.799 43.9333 718.666 43.0533 718.399 42.36C718.133 41.6133 717.626 41.24 716.879 41.24H693.839C693.199 41.24 692.879 40.8133 692.879 39.96C692.879 39.5333 692.933 39.08 693.039 38.6C693.199 38.0667 693.333 37.5867 693.439 37.16C693.706 36.4133 694.293 35.8 695.199 35.32C696.159 34.7867 697.333 34.52 698.719 34.52H714.239C715.573 34.52 717.013 34.0667 718.559 33.16C720.159 32.2533 721.653 31.1333 723.039 29.8C724.479 28.4667 725.733 27.0267 726.799 25.48C727.919 23.9333 728.666 22.52 729.039 21.24L732.559 9.8C733.093 8.25333 733.359 6.73333 733.359 5.24C733.359 3.8 733.066 2.6 732.479 1.64C731.946 0.626663 731.093 0.119996 729.919 0.119996H696.399C696.133 0.119996 695.839 0.33333 695.519 0.759997C695.253 1.13333 694.986 1.58667 694.719 2.12C694.453 2.65333 694.213 3.18666 693.999 3.72C693.786 4.25333 693.653 4.65333 693.599 4.92C693.066 6.46667 692.799 8.2 692.799 10.12C692.799 11.1867 692.933 12.0933 693.199 12.84C693.466 13.5333 693.973 13.88 694.719 13.88H716.239C716.933 13.88 717.279 14.3333 717.279 15.24C717.279 15.6133 717.226 16.04 717.119 16.52C717.013 16.9467 716.906 17.3733 716.799 17.8L716.719 17.96C716.453 18.6533 715.839 19.2667 714.879 19.8C713.919 20.3333 712.746 20.6 711.359 20.6H695.759C694.426 20.6 692.986 21.0533 691.439 21.96C689.893 22.8667 688.399 23.9867 686.959 25.32C685.573 26.6533 684.319 28.0933 683.199 29.64C682.133 31.1867 681.413 32.6 681.039 33.88L677.519 45.32Z" fill="white"/>
</svg>
