<svg width="740" height="198" fill="none" xmlns="http://www.w3.org/2000/svg"><path d="M77.832 43.5l-8.8 28.8a5.325 5.325 0 01-1.2 1.8c-.467.467-.867.7-1.2.7h-10.7c-.8 0-1.6.367-2.4 1.1-.8.667-1.567 1.567-2.3 2.7a23.006 23.006 0 00-2 3.6c-.6 1.333-1.1 2.6-1.5 3.8-.133.4-.3 1.1-.5 2.1-.2.933-.3 1.767-.3 2.5 0 .933.2 1.4.6 1.4h47.7c.333 0 .667-.233 1-.7.4-.533.767-1.133 1.1-1.8.333-.667.6-1.333.8-2l.6-1.5a19.29 19.29 0 001.1-6.5c0-1.333-.167-2.433-.5-3.3-.333-.933-.967-1.4-1.9-1.4h-10.8c-.533 0-.8-.6-.8-1.8v-.3c0-.2.033-.467.1-.8l8.7-28.4c.333-.733.733-1.4 1.2-2 .533-.6.967-.9 1.3-.9h10.7c.8 0 1.6-.333 2.4-1 .867-.733 1.667-1.633 2.4-2.7a27.83 27.83 0 002-3.7c.6-1.333 1.1-2.6 1.5-3.8.133-.4.3-1.067.5-2 .2-1 .3-1.867.3-2.6 0-.933-.233-1.4-.7-1.4h-47.6c-.333 0-.7.267-1.1.8a8.316 8.316 0 00-1.1 1.7 26.408 26.408 0 00-.9 2c-.267.667-.433 1.167-.5 1.5-.667 1.933-1 4.1-1 6.5 0 1.333.167 2.467.5 3.4.333.867.967 1.3 1.9 1.3h10.7c.6 0 .9.6.9 1.8 0 .067-.033.2-.1.4 0 .133-.033.367-.1.7zm32.182 32.1l12.3-40.1a30.637 30.637 0 011.8-4.4c.8-1.467 1.667-2.767 2.6-3.9s1.933-2.033 3-2.7c1.067-.733 2.167-1.1 3.3-1.1h46.4c.467 0 .7.467.7 1.4 0 .733-.1 1.6-.3 2.6-.2.933-.367 1.6-.5 2-.4 1.2-.933 2.467-1.6 3.8a27.83 27.83 0 01-2 3.7c-.733 1.067-1.5 1.967-2.3 2.7-.8.667-1.6 1-2.4 1h-31.5c-.467 0-.9.2-1.3.6-.4.333-.767.767-1.1 1.3-.267.533-.5 1.133-.7 1.8-.2.6-.4 1.167-.6 1.7l-7.5 24.3v.4c0 1.4.433 2.433 1.3 3.1.867.667 1.833 1 2.9 1h30.8c.4 0 .6.567.6 1.7 0 .867-.1 1.833-.3 2.9-.133 1-.267 1.7-.4 2.1a15.166 15.166 0 01-2.1 4.3 15.822 15.822 0 01-3 3.3 13.931 13.931 0 01-3.7 2.2c-1.267.467-2.533.7-3.8.7h-32.4a6.678 6.678 0 01-3.7-1.1c-1.067-.733-2-1.7-2.8-2.9a15.4 15.4 0 01-1.7-4c-.4-1.467-.6-2.967-.6-4.5 0-1.667.2-2.967.6-3.9zm79.984 7.9c-.334 1.2-.634 2.267-.9 3.2-.2.933-.3 1.767-.3 2.5 0 1.867.833 2.8 2.5 2.8h8.8c1.6 0 2.866-.7 3.8-2.1 1-1.4 1.966-3.533 2.9-6.4l12.2-40c.333-.733.733-1.4 1.2-2 .533-.6.966-.9 1.3-.9h12.8c.8 0 1.6-.333 2.4-1 .8-.733 1.566-1.633 2.3-2.7a27.83 27.83 0 002-3.7c.6-1.333 1.1-2.6 1.5-3.8.133-.4.3-1.067.5-2 .2-1 .3-1.867.3-2.6 0-.933-.2-1.4-.6-1.4h-51.8c-.334 0-.7.267-1.1.8a8.3 8.3 0 00-1.1 1.7c-.334.6-.634 1.233-.9 1.9-.267.667-.434 1.167-.5 1.5a15.693 15.693 0 00-.8 3.4 25.647 25.647 0 00-.2 3.2c0 1.333.166 2.467.5 3.4.333.867.966 1.3 1.9 1.3h12.8c.6 0 .9.6.9 1.8 0 .067-.034.2-.1.4 0 .133-.034.367-.1.7l-12.2 40zm101.344-60.1c-1.6.133-2.866.867-3.8 2.2-.933 1.333-1.866 3.433-2.8 6.3l-15.8 51.6c-.866 2.333-1.3 4.3-1.3 5.9 0 1.733.867 2.6 2.6 2.6h8.8c1.6 0 2.867-.633 3.8-1.9 1-1.333 1.967-3.533 2.9-6.6l7.8-25.8c1 2.6 1.9 4.967 2.7 7.1.8 2.133 1.6 4.233 2.4 6.3.8 2.067 1.667 4.233 2.6 6.5l3.4 7.7h.5c2.8-2.533 5.567-5.133 8.3-7.8a450.94 450.94 0 007.9-7.7c2.534-2.467 4.867-4.733 7-6.8 2.134-2.133 3.967-3.9 5.5-5.3l-8 25.8c-.866 2.333-1.3 4.3-1.3 5.9 0 1.733.867 2.6 2.6 2.6h8.7c1.6 0 2.867-.633 3.8-1.9 1-1.333 1.967-3.533 2.9-6.6l15.8-51.6c.734-2.933 1.1-4.767 1.1-5.5 0-1.8-.833-2.8-2.5-3h-11.8c-.333 0-1.133.533-2.4 1.6a216.786 216.786 0 00-4.8 4.2 395.881 395.881 0 00-6.3 6l-7.1 7.1c-2.4 2.4-4.766 4.8-7.1 7.2a490.005 490.005 0 00-6.4 6.7l-.3.4c-1.2-3.267-2.5-6.833-3.9-10.7a846.048 846.048 0 00-3.8-10.8c-1.133-3.333-2.166-6.1-3.1-8.3-.866-2.267-1.466-3.4-1.8-3.4h-6.8zM422.28 39.8c.334-.733.5-2.033.5-3.9 0-1.467-.2-2.933-.6-4.4-.4-1.533-1-2.9-1.8-4.1-.733-1.2-1.633-2.167-2.7-2.9-1.066-.733-2.3-1.1-3.7-1.1h-43.2c-.333 0-.7.267-1.1.8a8.341 8.341 0 00-1.1 1.7 26.648 26.648 0 00-.9 2c-.266.667-.433 1.167-.5 1.5a15.86 15.86 0 00-.8 3.3 25.84 25.84 0 00-.2 3.2c0 1.333.167 2.467.5 3.4.334.867.967 1.3 1.9 1.3h31.6c.934.133 1.8.533 2.6 1.2.8.6 1.2 1.567 1.2 2.9v.2l-.4 1.2a21.61 21.61 0 01-1.1 1.9c-.466.667-.933 1-1.4 1h-35.9c-1.533 0-2.8.667-3.8 2-.933 1.267-1.866 3.433-2.8 6.5l-5.5 18.1c-.4.933-.6 2.233-.6 3.9 0 1.533.2 3.033.6 4.5a15.4 15.4 0 001.7 4c.8 1.2 1.734 2.167 2.8 2.9a6.68 6.68 0 003.7 1.1h41c1.134 0 2.234-.533 3.3-1.6 1.134-1.133 2.234-3.433 3.3-6.9l13.4-43.7zm-48 26.6h21.3c.8.2 1.2.7 1.2 1.5 0 .4-.1.8-.3 1.2l-.9 3c-.2.733-.6 1.367-1.2 1.9-.6.533-1 .8-1.2.8h-17.6c-1 0-1.966-.333-2.9-1-.866-.733-1.3-1.767-1.3-3.1l.5-1.5c.134-.6.434-1.2.9-1.8.534-.667 1.034-1 1.5-1zm81.009 17.1c-.867 2.133-1.3 4.067-1.3 5.8 0 1.6.733 2.5 2.2 2.7h9.2c1.533 0 2.767-.7 3.7-2.1 1-1.4 1.967-3.533 2.9-6.4l15.9-51.6c.8-2.6 1.2-4.533 1.2-5.8 0-1.8-.9-2.7-2.7-2.7h-8.7c-1.533 0-2.8.667-3.8 2-.933 1.267-1.867 3.433-2.8 6.5l-4.7 15.2c-.267.467-.567.9-.9 1.3-.267.333-.567.533-.9.6h-19c-.333-.067-.533-.267-.6-.6-.067-.4-.1-.833-.1-1.3l4.7-15.2c.8-2.6 1.2-4.533 1.2-5.8 0-1.8-.867-2.7-2.6-2.7h-8.8c-1.533 0-2.8.667-3.8 2-.933 1.267-1.867 3.433-2.8 6.5l-15.8 51.6c-.333 1.2-.633 2.267-.9 3.2-.2.933-.3 1.767-.3 2.5 0 1.867.833 2.8 2.5 2.8h9.3c1.467-.133 2.633-.867 3.5-2.2.867-1.4 1.767-3.5 2.7-6.3l4.4-14.5c.333-.8.667-1.4 1-1.8.4-.4.9-.667 1.5-.8h17.6c1.067 0 1.6.433 1.6 1.3 0 .2-.033.4-.1.6 0 .2-.033.433-.1.7l-4.4 14.5zm41.586 0l15.8-51.6c.8-2.6 1.2-4.533 1.2-5.8 0-1.8-.867-2.7-2.6-2.7h-8.8c-1.533 0-2.8.667-3.8 2-.933 1.267-1.867 3.433-2.8 6.5l-15.8 51.6c-.333 1.2-.633 2.267-.9 3.2-.2.933-.3 1.767-.3 2.5 0 1.867.833 2.8 2.5 2.8h8.8c1.6 0 2.867-.7 3.8-2.1 1-1.4 1.967-3.533 2.9-6.4zm65.502-7.9l12.3-40.1c.667-1.933 1-3.833 1-5.7 0-1.8-.366-3.3-1.1-4.5-.666-1.267-1.733-1.9-3.2-1.9h-44c-1.533 0-2.8.667-3.8 2-.933 1.267-1.866 3.433-2.8 6.5l-15.8 51.6c-.333 1.2-.633 2.267-.9 3.2-.2.933-.3 1.767-.3 2.5 0 1.867.834 2.8 2.5 2.8h37.8c1.667 0 3.467-.533 5.4-1.6a31.822 31.822 0 005.5-4.1 35.169 35.169 0 004.6-5.4c1.4-1.933 2.334-3.7 2.8-5.3zm-8.1-35c.8 0 1.2.567 1.2 1.7 0 .533-.1 1.167-.3 1.9a37.785 37.785 0 01-.4 1.8l-7.5 24.3c-.866 1.533-1.966 2.667-3.3 3.4-1.333.733-2.566 1.1-3.7 1.1h-14.3c-.333 0-.566-.167-.7-.5-.133-.333-.2-.733-.2-1.2v-.4c.067-.2.134-.467.2-.8l8.7-28.4c.2-.667.534-1.3 1-1.9.534-.667 1.034-1 1.5-1h17.8zm85.386-.8c.334-.733.5-2.033.5-3.9 0-1.467-.2-2.933-.6-4.4-.4-1.533-1-2.9-1.8-4.1-.733-1.2-1.633-2.167-2.7-2.9-1.066-.733-2.3-1.1-3.7-1.1h-31.6c-1.666 0-3.466.567-5.4 1.7-1.933 1.067-3.8 2.433-5.6 4.1a35.655 35.655 0 00-4.7 5.3c-1.333 1.933-2.233 3.7-2.7 5.3l-10.9 35.8c-.4.933-.6 2.233-.6 3.9 0 1.533.2 3.033.6 4.5a15.4 15.4 0 001.7 4c.8 1.2 1.734 2.167 2.8 2.9a6.68 6.68 0 003.7 1.1h31.7c1.667 0 3.467-.533 5.4-1.6a31.822 31.822 0 005.5-4.1 35.169 35.169 0 004.6-5.4c1.4-1.933 2.334-3.7 2.8-5.3l11-35.8zm-22.7.8c1.134 0 2.134.333 3 1 .867.667 1.3 1.7 1.3 3.1v.4l-7.8 25.2c-.8 1.467-1.833 2.6-3.1 3.4-1.266.733-2.433 1.1-3.5 1.1h-13.9c-1.066 0-2.033-.333-2.9-1-.866-.667-1.3-1.7-1.3-3.1v-.4l7.8-25.2c.8-1.533 1.867-2.667 3.2-3.4 1.4-.733 2.634-1.1 3.7-1.1h13.5zm49.909-8.7c.8-2.6 1.2-4.567 1.2-5.9 0-1.733-.833-2.6-2.5-2.6h-8.8c-1.533 0-2.8.667-3.8 2-.933 1.267-1.867 3.433-2.8 6.5l-13.4 43.7c-.4.933-.6 2.233-.6 3.9 0 1.533.2 3.033.6 4.5a15.4 15.4 0 001.7 4c.8 1.2 1.733 2.167 2.8 2.9a6.678 6.678 0 003.7 1.1h27.8c1.267 0 2.533-.233 3.8-.7a12.45 12.45 0 003.6-2.2 15.822 15.822 0 003-3.3 15.166 15.166 0 002.1-4.3c.133-.4.3-1.1.5-2.1.2-1.067.3-2.033.3-2.9 0-1.133-.233-1.7-.7-1.7h-26.1c-1.067 0-2.033-.333-2.9-1s-1.3-1.7-1.3-3.1v-.4l11.8-38.4zM62.734 141.24c.266-.587.4-1.627.4-3.12 0-1.173-.16-2.347-.48-3.52-.32-1.227-.8-2.32-1.44-3.28-.587-.96-1.307-1.733-2.16-2.32-.854-.587-1.84-.88-2.96-.88h-25.28c-1.334 0-2.774.453-4.32 1.36-1.547.853-3.04 1.947-4.48 3.28a28.489 28.489 0 00-3.76 4.24c-1.067 1.547-1.787 2.96-2.16 4.24l-8.72 28.64c-.32.747-.48 1.787-.48 3.12 0 1.227.16 2.427.48 3.6.32 1.173.773 2.24 1.36 3.2.64.96 1.386 1.733 2.24 2.32a5.34 5.34 0 002.96.88h25.36c1.333 0 2.773-.427 4.32-1.28a25.51 25.51 0 004.4-3.28 28.151 28.151 0 003.68-4.32c1.12-1.547 1.866-2.96 2.24-4.24l8.8-28.64zm-18.16.64c.906 0 1.706.267 2.4.8.693.533 1.04 1.36 1.04 2.48v.32l-6.24 20.16c-.64 1.173-1.467 2.08-2.48 2.72-1.014.587-1.947.88-2.8.88h-11.12a3.714 3.714 0 01-2.32-.8c-.694-.533-1.04-1.36-1.04-2.48v-.32l6.24-20.16c.64-1.227 1.493-2.133 2.56-2.72 1.12-.587 2.106-.88 2.96-.88h10.8zM71.94 176.2l1.36-4.64c.853-2.773 1.893-4.213 3.12-4.32h20.8c1.28 0 2.693-.427 4.24-1.28 1.546-.907 3.013-2 4.4-3.28a25.993 25.993 0 003.76-4.32c1.12-1.547 1.866-2.96 2.24-4.24l4.96-16.32c.533-1.547.8-3.067.8-4.56 0-1.44-.294-2.64-.88-3.6-.534-1.013-1.387-1.52-2.56-1.52h-39.6c-.64 0-1.2.453-1.68 1.36-.427.853-.8 1.84-1.12 2.96a37.26 37.26 0 00-.64 3.36c-.16 1.067-.24 1.84-.24 2.32 0 1.067.133 1.973.4 2.72.266.693.773 1.04 1.52 1.04h27.68c.64 0 .96.453.96 1.36 0 .427-.08.933-.24 1.52a32.855 32.855 0 01-.32 1.44l-1.12 3.68c-.694 1.227-1.52 2.16-2.48 2.8-.907.587-1.814.88-2.72.88h-26c-1.014 0-1.894.373-2.64 1.12-.694.747-1.36 1.973-2 3.68L58.5 176.2c-.267.96-.507 1.813-.72 2.56-.16.747-.24 1.413-.24 2 0 1.493.666 2.24 2 2.24h7.04c1.28 0 2.293-.56 3.04-1.68.8-1.12 1.573-2.827 2.32-5.12zm41.527-6.32c-.32.747-.48 1.787-.48 3.12 0 1.227.16 2.427.48 3.6.32 1.173.773 2.24 1.36 3.2.64.96 1.386 1.733 2.24 2.32.906.587 1.893.88 2.96.88h25.92a8.753 8.753 0 003.04-.56 11.16 11.16 0 002.96-1.76 12.697 12.697 0 002.4-2.64 12.154 12.154 0 001.68-3.44c.106-.32.213-.88.32-1.68.16-.853.24-1.627.24-2.32 0-.907-.16-1.36-.48-1.36h-24.88c-.747 0-1.494-.213-2.24-.64-.694-.427-1.04-1.12-1.04-2.08v-.24a5.73 5.73 0 00.16-.64c.426-1.067.826-1.84 1.2-2.32.373-.533.88-.8 1.52-.8h20.16c.586 0 1.173-.293 1.76-.88.64-.587 1.253-1.333 1.84-2.24a22.31 22.31 0 001.6-2.96c.48-1.067.88-2.08 1.2-3.04.106-.32.24-.853.4-1.6.16-.8.24-1.493.24-2.08 0-.747-.16-1.12-.48-1.12h-22.96c-.267 0-.454-.133-.56-.4a2.344 2.344 0 01-.16-.88v-.4a5.73 5.73 0 00.16-.64c.106-.427.24-.88.4-1.36a9.036 9.036 0 01.72-1.44c.266-.48.56-.853.88-1.12.32-.32.666-.48 1.04-.48h25.2c.64 0 1.28-.267 1.92-.8.64-.587 1.253-1.307 1.84-2.16a22.31 22.31 0 001.6-2.96 23.42 23.42 0 001.28-3.04c.106-.32.24-.853.4-1.6.16-.8.24-1.493.24-2.08 0-.747-.187-1.12-.56-1.12h-37.12c-.907 0-1.787.293-2.64.88-.854.533-1.654 1.253-2.4 2.16a19.835 19.835 0 00-2.08 3.12 24.373 24.373 0 00-1.44 3.52l-9.84 32.08zm66.546-41.76c-1.226 0-2.24.533-3.04 1.6-.746 1.013-1.493 2.747-2.24 5.2l-12.64 41.28c-.693 1.867-1.04 3.44-1.04 4.72 0 1.387.694 2.08 2.08 2.08h7.04c1.28 0 2.294-.507 3.04-1.52.8-1.067 1.574-2.827 2.32-5.28l6.8-21.84 13.36 26.08c.16.32.48.827.96 1.52.48.693 1.014 1.04 1.6 1.04h5.12c1.227 0 2.214-.507 2.96-1.52.8-1.067 1.574-2.827 2.32-5.28l12.72-41.28c.587-2.347.88-3.867.88-4.56 0-1.493-.693-2.24-2.08-2.24h-7.44c-1.12.107-2.053.72-2.8 1.84-.693 1.067-1.36 2.72-2 4.96l-7.68 24.88c-2.773-6.24-5.12-11.387-7.04-15.44-1.92-4.107-3.52-7.36-4.8-9.76-1.28-2.4-2.293-4.08-3.04-5.04-.693-.96-1.2-1.44-1.52-1.44h-3.84zm93.658 48.08c-.693 1.707-1.04 3.253-1.04 4.64 0 1.28.587 2 1.76 2.16h7.36c1.227 0 2.213-.56 2.96-1.68.8-1.12 1.573-2.827 2.32-5.12l12.72-41.28c.64-2.08.96-3.627.96-4.64 0-1.44-.72-2.16-2.16-2.16h-6.96c-1.227 0-2.24.533-3.04 1.6-.747 1.013-1.493 2.747-2.24 5.2l-3.76 12.16c-.213.373-.453.72-.72 1.04-.213.267-.453.427-.72.48h-15.2a.564.564 0 01-.48-.48 6.376 6.376 0 01-.08-1.04l3.76-12.16c.64-2.08.96-3.627.96-4.64 0-1.44-.693-2.16-2.08-2.16h-7.04c-1.227 0-2.24.533-3.04 1.6-.747 1.013-1.493 2.747-2.24 5.2l-12.64 41.28c-.267.96-.507 1.813-.72 2.56-.16.747-.24 1.413-.24 2 0 1.493.667 2.24 2 2.24h7.44c1.173-.107 2.107-.693 2.8-1.76.693-1.12 1.413-2.8 2.16-5.04l3.52-11.6c.267-.64.533-1.12.8-1.44.32-.32.72-.533 1.2-.64h14.08c.853 0 1.28.347 1.28 1.04 0 .16-.027.32-.08.48 0 .16-.027.347-.08.56l-3.52 11.6zm77.109-34.96c.266-.587.4-1.627.4-3.12 0-1.173-.16-2.347-.48-3.52-.32-1.227-.8-2.32-1.44-3.28-.587-.96-1.307-1.733-2.16-2.32-.854-.587-1.84-.88-2.96-.88h-25.28c-1.334 0-2.774.453-4.32 1.36-1.547.853-3.04 1.947-4.48 3.28a28.472 28.472 0 00-3.76 4.24c-1.067 1.547-1.787 2.96-2.16 4.24l-8.72 28.64c-.32.747-.48 1.787-.48 3.12 0 1.227.16 2.427.48 3.6.32 1.173.773 2.24 1.36 3.2.64.96 1.386 1.733 2.24 2.32.906.587 1.893.88 2.96.88h25.36c1.333 0 2.773-.427 4.32-1.28 1.546-.907 3.013-2 4.4-3.28a28.201 28.201 0 003.68-4.32c1.12-1.547 1.866-2.96 2.24-4.24l8.8-28.64zm-18.16.64c.906 0 1.706.267 2.4.8.693.533 1.04 1.36 1.04 2.48v.32l-6.24 20.16c-.64 1.173-1.467 2.08-2.48 2.72-1.014.587-1.947.88-2.8.88h-11.12a3.712 3.712 0 01-2.32-.8c-.694-.533-1.04-1.36-1.04-2.48v-.32l6.24-20.16c.64-1.227 1.493-2.133 2.56-2.72 1.12-.587 2.106-.88 2.96-.88h10.8zm39.927-6.96c.64-2.08.96-3.653.96-4.72 0-1.387-.667-2.08-2-2.08h-7.04c-1.227 0-2.24.533-3.04 1.6-.747 1.013-1.494 2.747-2.24 5.2l-10.72 34.96c-.32.747-.48 1.787-.48 3.12 0 1.227.16 2.427.48 3.6.32 1.173.773 2.24 1.36 3.2.64.96 1.386 1.733 2.24 2.32.906.587 1.893.88 2.96.88h25.36c1.333 0 2.773-.427 4.32-1.28 1.546-.907 3.013-2 4.4-3.28a28.201 28.201 0 003.68-4.32c1.12-1.547 1.866-2.96 2.24-4.24l10.8-34.96c.64-2.08.96-3.627.96-4.64 0-1.44-.72-2.16-2.16-2.16h-7.04c-1.227 0-2.214.533-2.96 1.6-.747 1.013-1.494 2.747-2.24 5.2l-9.52 30.72c-.64 1.173-1.467 2.08-2.48 2.72-1.014.587-1.947.88-2.8.88h-11.12a3.712 3.712 0 01-2.32-.8c-.694-.533-1.04-1.36-1.04-2.48v-.32l9.44-30.72zm71.926 38.4a19.114 19.114 0 01-1.52 3.6 17.586 17.586 0 01-2 3.04c-.746.907-1.546 1.653-2.4 2.24-.853.533-1.733.8-2.64.8h-34.96c-.32 0-.48-.373-.48-1.12 0-.587.08-1.253.24-2 .16-.8.294-1.36.4-1.68.32-.96.72-1.973 1.2-3.04a18.424 18.424 0 011.6-2.88c.587-.907 1.2-1.627 1.84-2.16.64-.587 1.28-.88 1.92-.88h23.04c.8 0 1.414-.453 1.84-1.36.48-.96.854-1.867 1.12-2.72.054-.053.08-.24.08-.56 0-.587-.32-1.067-.96-1.44-.64-.427-1.573-.64-2.8-.64h-15.6a5.342 5.342 0 01-2.96-.88 9.67 9.67 0 01-2.24-2.4 12.338 12.338 0 01-1.36-3.2 14.527 14.527 0 01-.48-3.68c0-1.333.16-2.373.48-3.12l3.52-11.44a24.602 24.602 0 011.44-3.52 19.904 19.904 0 012.08-3.12c.747-.907 1.547-1.627 2.4-2.16.854-.587 1.734-.88 2.64-.88h33.52c.32 0 .48.373.48 1.12 0 .587-.08 1.28-.24 2.08-.16.747-.293 1.28-.4 1.6-.32.96-.72 1.973-1.2 3.04a22.195 22.195 0 01-1.6 2.96c-.586.853-1.2 1.573-1.84 2.16-.64.533-1.28.8-1.92.8h-21.6c-.746 0-1.36.48-1.84 1.44a20.95 20.95 0 00-1.04 2.64c-.053.053-.08.213-.08.48 0 .587.294 1.093.88 1.52.64.427 1.6.64 2.88.64h15.6c1.067 0 2.027.32 2.88.96.854.587 1.574 1.36 2.16 2.32.64.96 1.12 2.053 1.44 3.28.32 1.227.48 2.427.48 3.6 0 1.387-.16 2.427-.48 3.12l-3.52 11.44zm7.587-3.44c-.32.747-.48 1.787-.48 3.12 0 1.227.16 2.427.48 3.6.32 1.173.774 2.24 1.36 3.2.64.96 1.387 1.733 2.24 2.32.907.587 1.894.88 2.96.88h25.92a8.745 8.745 0 003.04-.56 11.13 11.13 0 002.96-1.76 12.642 12.642 0 002.4-2.64 12.1 12.1 0 001.68-3.44c.107-.32.214-.88.32-1.68.16-.853.24-1.627.24-2.32 0-.907-.16-1.36-.48-1.36h-24.88c-.746 0-1.493-.213-2.24-.64-.693-.427-1.04-1.12-1.04-2.08v-.24c.054-.16.107-.373.16-.64.427-1.067.827-1.84 1.2-2.32.374-.533.88-.8 1.52-.8h20.16c.587 0 1.174-.293 1.76-.88.64-.587 1.254-1.333 1.84-2.24a22.195 22.195 0 001.6-2.96c.48-1.067.88-2.08 1.2-3.04.107-.32.24-.853.4-1.6.16-.8.24-1.493.24-2.08 0-.747-.16-1.12-.48-1.12h-22.96c-.266 0-.453-.133-.56-.4a2.363 2.363 0 01-.16-.88v-.4c.054-.16.107-.373.16-.64.107-.427.24-.88.4-1.36a9.207 9.207 0 01.72-1.44c.267-.48.56-.853.88-1.12.32-.32.667-.48 1.04-.48h25.2c.64 0 1.28-.267 1.92-.8.64-.587 1.254-1.307 1.84-2.16a22.195 22.195 0 001.6-2.96c.534-1.067.96-2.08 1.28-3.04.107-.32.24-.853.4-1.6.16-.8.24-1.493.24-2.08 0-.747-.186-1.12-.56-1.12h-37.12c-.906 0-1.786.293-2.64.88-.853.533-1.653 1.253-2.4 2.16a19.904 19.904 0 00-2.08 3.12 24.602 24.602 0 00-1.44 3.52l-9.84 32.08zm77.318 3.44c-.48 1.6-.72 3.12-.72 4.56 0 1.44.266 2.667.8 3.68.533.96 1.413 1.44 2.64 1.44h34.96c.266 0 .533-.187.8-.56.32-.427.613-.907.88-1.44.266-.533.48-1.067.64-1.6l.48-1.2c.533-1.547.8-3.28.8-5.2 0-1.067-.134-1.947-.4-2.64-.267-.747-.774-1.12-1.52-1.12h-23.04c-.64 0-.96-.427-.96-1.28 0-.427.053-.88.16-1.36.16-.533.293-1.013.4-1.44.266-.747.853-1.36 1.76-1.84.96-.533 2.133-.8 3.52-.8h15.52c1.333 0 2.773-.453 4.32-1.36a22.393 22.393 0 004.48-3.36 25.993 25.993 0 003.76-4.32c1.12-1.547 1.866-2.96 2.24-4.24l3.52-11.44c.533-1.547.8-3.067.8-4.56 0-1.44-.294-2.64-.88-3.6-.534-1.013-1.387-1.52-2.56-1.52h-33.52c-.267 0-.56.213-.88.64-.267.373-.534.827-.8 1.36a20.845 20.845 0 00-.72 1.6c-.214.533-.347.933-.4 1.2-.534 1.547-.8 3.28-.8 5.2 0 1.067.133 1.973.4 2.72.266.693.773 1.04 1.52 1.04h21.52c.693 0 1.04.453 1.04 1.36 0 .373-.054.8-.16 1.28l-.32 1.28-.08.16c-.267.693-.88 1.307-1.84 1.84-.96.533-2.134.8-3.52.8h-15.6c-1.334 0-2.774.453-4.32 1.36-1.547.907-3.04 2.027-4.48 3.36a32.043 32.043 0 00-3.76 4.32c-1.067 1.547-1.787 2.96-2.16 4.24l-3.52 11.44zm107.027-32.08c.266-.587.4-1.627.4-3.12 0-1.173-.16-2.347-.48-3.52-.32-1.227-.8-2.32-1.44-3.28-.587-.96-1.307-1.733-2.16-2.32-.854-.587-1.84-.88-2.96-.88h-25.28c-1.334 0-2.774.453-4.32 1.36-1.547.853-3.04 1.947-4.48 3.28a28.472 28.472 0 00-3.76 4.24c-1.067 1.547-1.787 2.96-2.16 4.24l-8.72 28.64c-.32.747-.48 1.787-.48 3.12 0 1.227.16 2.427.48 3.6.32 1.173.773 2.24 1.36 3.2.64.96 1.386 1.733 2.24 2.32.906.587 1.893.88 2.96.88h25.36c1.333 0 2.773-.427 4.32-1.28 1.546-.907 3.013-2 4.4-3.28a28.201 28.201 0 003.68-4.32c1.12-1.547 1.866-2.96 2.24-4.24l8.8-28.64zm-18.16.64c.906 0 1.706.267 2.4.8.693.533 1.04 1.36 1.04 2.48v.32l-6.24 20.16c-.64 1.173-1.467 2.08-2.48 2.72-1.014.587-1.947.88-2.8.88h-11.12a3.712 3.712 0 01-2.32-.8c-.694-.533-1.04-1.36-1.04-2.48v-.32l6.24-20.16c.64-1.227 1.493-2.133 2.56-2.72 1.12-.587 2.106-.88 2.96-.88h10.8zm14.727 31.44c-.48 1.6-.72 3.12-.72 4.56 0 1.44.266 2.667.8 3.68.533.96 1.413 1.44 2.64 1.44h34.96c.266 0 .533-.187.8-.56.32-.427.613-.907.88-1.44.266-.533.48-1.067.64-1.6l.48-1.2c.533-1.547.8-3.28.8-5.2 0-1.067-.134-1.947-.401-2.64-.266-.747-.773-1.12-1.519-1.12h-23.04c-.64 0-.96-.427-.96-1.28 0-.427.053-.88.16-1.36.16-.533.293-1.013.4-1.44.266-.747.853-1.36 1.76-1.84.96-.533 2.133-.8 3.52-.8h15.52c1.333 0 2.773-.453 4.32-1.36a22.393 22.393 0 004.48-3.36 25.993 25.993 0 003.76-4.32c1.12-1.547 1.866-2.96 2.24-4.24l3.52-11.44c.533-1.547.8-3.067.8-4.56 0-1.44-.294-2.64-.88-3.6-.534-1.013-1.387-1.52-2.56-1.52h-33.52c-.267 0-.56.213-.88.64-.267.373-.534.827-.8 1.36a20.845 20.845 0 00-.72 1.6c-.214.533-.347.933-.4 1.2-.534 1.547-.8 3.28-.8 5.2 0 1.067.133 1.973.4 2.72.266.693.773 1.04 1.52 1.04h21.52c.693 0 1.04.453 1.04 1.36 0 .373-.054.8-.16 1.28l-.32 1.28-.08.16c-.267.693-.88 1.307-1.84 1.84-.96.533-2.134.8-3.521.8h-15.599c-1.334 0-2.774.453-4.32 1.36-1.547.907-3.04 2.027-4.48 3.36a32.043 32.043 0 00-3.76 4.32c-1.067 1.547-1.787 2.96-2.16 4.24l-3.52 11.44zm50.546 0c-.48 1.6-.72 3.12-.72 4.56 0 1.44.267 2.667.8 3.68.534.96 1.414 1.44 2.64 1.44h34.96c.267 0 .534-.187.8-.56.32-.427.614-.907.88-1.44a9.98 9.98 0 00.64-1.6l.48-1.2c.534-1.547.8-3.28.8-5.2 0-1.067-.133-1.947-.4-2.64-.266-.747-.773-1.12-1.52-1.12h-23.04c-.64 0-.96-.427-.96-1.28 0-.427.054-.88.16-1.36.16-.533.294-1.013.4-1.44.267-.747.854-1.36 1.76-1.84.96-.533 2.134-.8 3.52-.8h15.52c1.334 0 2.774-.453 4.32-1.36a22.364 22.364 0 004.48-3.36 25.947 25.947 0 003.76-4.32c1.12-1.547 1.867-2.96 2.24-4.24l3.52-11.44c.534-1.547.8-3.067.8-4.56 0-1.44-.293-2.64-.88-3.6-.533-1.013-1.386-1.52-2.56-1.52h-33.52c-.266 0-.56.213-.88.64a10.31 10.31 0 00-.8 1.36 21.646 21.646 0 00-.72 1.6c-.213.533-.346.933-.4 1.2-.533 1.547-.8 3.28-.8 5.2 0 1.067.134 1.973.4 2.72.267.693.774 1.04 1.52 1.04h21.52c.694 0 1.04.453 1.04 1.36 0 .373-.053.8-.16 1.28l-.32 1.28-.08.16c-.266.693-.88 1.307-1.84 1.84-.96.533-2.133.8-3.52.8h-15.6c-1.333 0-2.773.453-4.32 1.36-1.546.907-3.04 2.027-4.48 3.36a32.113 32.113 0 00-3.76 4.32c-1.066 1.547-1.786 2.96-2.16 4.24l-3.52 11.44z" fill="#fff"/></svg>