<svg width="1920" height="1080" viewBox="0 0 1920 1080" fill="none" xmlns="http://www.w3.org/2000/svg">
<g clip-path="url(#clip0_4_4264)">
<rect width="1920" height="1080" fill="#00063E"/>
<path style="mix-blend-mode:screen" opacity="0.5" d="M111.129 646.78C370.575 459.06 650.938 296.118 954.997 195.62C1011.52 176.937 1069.14 160.369 1128.35 154.228C1170.97 149.808 1222.58 155.657 1242.6 193.537C1249.8 207.153 1251.55 223.113 1250.36 238.465C1245.4 302.599 1194.31 352.145 1146.96 395.685C1083.42 454.119 1020.56 513.477 952.653 566.781C883.381 621.158 808.947 669.173 744.016 728.673C679.086 788.173 622.972 861.589 603.073 947.373C598.961 965.118 597.524 986.556 611.061 998.735C625.261 1011.51 647.402 1006.76 665.612 1001C866.316 937.444 1058.43 840.79 1266.95 811.758C1280.94 809.809 1295.97 808.34 1308.48 814.892C1334.01 828.271 1333.7 865.275 1324.02 892.436C1307.75 938.075 1276.12 976.531 1242.56 1011.49C1160.34 1097.13 1063.7 1167.34 967.619 1237.07C961.636 1206.95 921.364 1201.27 890.73 1203.54C809.578 1209.58 728.964 1222.79 650.133 1242.96C638.775 1219.99 661.989 1195.66 682.654 1180.49C757.419 1125.58 832.177 1070.68 906.943 1015.77C772.646 1017.58 648.752 1086.37 516.673 1110.73C488.265 1115.97 458.83 1119.11 430.62 1112.9C402.409 1106.68 375.335 1089.8 362.855 1063.75C350.494 1037.96 354.039 1006.81 365.579 980.636C377.119 954.462 395.857 932.234 414.344 910.409C492.511 818.112 581.769 728.776 651.633 630.401C662.818 614.646 671.721 596.231 671.169 576.916C670.956 569.472 669.172 561.768 664.341 556.101C653.835 543.772 634.181 545.927 619.073 551.76C567.885 571.501 515.015 606.318 472.952 640.97C416.214 687.714 352.002 727.781 289.305 765.929C261.908 782.6 233.405 798.963 201.839 804.654C170.274 810.345 134.636 803.478 113.221 779.593C85.4522 748.627 89.6514 700.541 102.936 661.13C118.462 615.048 144.115 572.409 177.559 537.102" fill="url(#paint0_radial_4_4264)"/>
<path style="mix-blend-mode:screen" opacity="0.5" d="M1904.32 400.231C1778.38 483.151 1663.83 582.702 1535.68 662.156C1407.53 741.61 1260.45 801.339 1109.95 792.08C1106.9 791.891 1103.78 791.654 1101.02 790.351C1086.44 783.421 1097.44 761.422 1109.39 750.553C1194.13 673.428 1271.76 588.511 1341 497.217C1374.73 452.73 1406.53 406.546 1433.03 357.347C1444.71 335.68 1501.78 227.115 1444.25 220.129C1417.14 216.846 1379.69 232.222 1357.69 247.03C1320.02 272.383 1291.09 308.4 1261.5 342.839C1198.89 415.663 1130.75 483.727 1057.84 546.234C1033.26 567.31 1007.81 587.966 978.495 601.709C972.189 604.669 965.179 607.345 958.407 605.719C937.718 600.769 944.428 569.362 956.868 552.115C991.275 504.4 1033.95 463.283 1070.63 417.281C1107.29 371.279 1020.58 413.405 1026.32 354.861C1029.43 323.161 1140.63 191.808 1114.43 173.693C1083.77 152.483 1041.77 165.002 1008.13 181.105C912.689 226.823 830.448 295.361 744.348 356.881C658.239 418.402 564.151 474.618 459.414 489.75C451.568 490.886 443.201 491.707 436.034 488.337C415.93 478.881 421.889 448.775 432.45 429.232C468.515 362.478 521.211 306.467 573.299 251.292C654.356 165.429 735.404 79.5648 816.461 -6.29883C854.578 -46.6732 893.145 -87.4423 939.542 -117.95C985.939 -148.458 1041.59 -168.207 1096.74 -161.79C1026.32 -82.4063 955.897 -3.0231 885.48 76.3601C868.312 95.7067 849.913 120.547 858.343 145.001C911.56 148.237 959.67 116.6 1005.75 89.8025C1071.01 51.8513 1140.58 21.3042 1212.7 -1.04187C1230.56 -6.57509 1254.08 -9.75611 1264.28 5.92004C1271.45 16.9312 1267.6 31.5892 1262.4 43.6581C1220.96 139.783 1111.41 197.42 1082.69 298.076C1080.27 306.553 1078.57 316.025 1082.54 323.895C1091.91 342.46 1119.88 335.467 1137.97 325.205C1238.26 268.35 1326.07 192.25 1420.33 125.883C1514.59 59.5158 1619.23 1.52346 1733.81 -11.169C1779.32 -16.205 1833.71 -9.36933 1856.57 30.3104C1881.11 72.9029 1854.84 126.135 1826.48 166.273C1773.25 241.575 1710.69 310.271 1640.68 370.3C1592.43 411.677 1539.74 449.928 1504.69 502.955C1491.83 522.404 1481.36 544.482 1481.23 567.799C1481.1 591.116 1493.5 615.633 1515.22 624.126C1526.96 628.72 1540.03 628.309 1552.56 627.015C1659.13 615.988 1753.24 546.487 1859.98 537.212C1877.81 535.665 1897.97 536.707 1910.29 549.684C1923.22 563.3 1922.29 585.827 1913.07 602.174C1903.84 618.522 1888.13 630.038 1872.65 640.654C1778.66 705.151 1675.45 756.181 1567.12 791.693" fill="url(#paint1_radial_4_4264)"/>
<path style="mix-blend-mode:screen" opacity="0.5" d="M1537.64 195.463C1379.71 336.927 1201.13 454.774 1050.31 603.777C994.724 658.699 939.858 726.187 942.881 804.267C943.078 809.382 943.615 814.742 946.456 818.996C952.589 828.184 965.961 828.121 976.861 826.305C1113.49 803.541 1211.47 670.767 1347.82 646.424C1349.17 666.102 1333.79 682.457 1319.68 696.239C1256.66 757.862 1194.42 827.371 1176.14 913.606C1175.21 918.002 1174.55 923.086 1177.42 926.551C1180.65 930.458 1186.6 930.269 1191.63 929.582C1264.75 919.589 1329.97 877.762 1384.83 828.374C1439.68 778.993 1486.57 721.403 1540.29 670.775C1601.11 613.454 1671.44 564.176 1717.42 494.391C1704.63 486 1687.23 487.784 1673.65 494.825C1660.06 501.866 1649.4 513.351 1638.93 524.504C1583.16 583.83 1523.98 639.936 1461.76 692.443C1437.81 712.649 1412.17 732.943 1381.54 739.51C1440.41 657.278 1530.87 597.249 1571.37 504.589C1574.52 497.39 1577.35 489.15 1574.39 481.872C1571.69 475.25 1564.87 471.271 1558.11 468.927C1531.94 459.85 1503.04 468.39 1477.78 479.749C1399.81 514.827 1332.46 577.358 1247.95 590.366C1235.72 592.245 1219.54 590.587 1216.26 578.652C1214.58 572.566 1217.27 566.197 1220.17 560.592C1248.5 505.986 1301.29 469.251 1350.53 432.381C1420.01 380.364 1488.16 321.322 1525.01 242.736C1530.19 231.669 1534.74 218.764 1529.92 207.532C1525.09 196.299 1506.37 192.092 1501.13 203.143" fill="url(#paint2_radial_4_4264)"/>
<path style="mix-blend-mode:screen" opacity="0.5" d="M703.429 21.5883C623.414 112.922 581.114 256.589 483.347 328.599C469.912 338.49 455.76 348.183 439.531 352.051C423.302 355.918 404.406 352.793 393.402 340.258C382.439 327.763 381.704 309.269 384.554 292.898C397.609 218.03 469.328 166.186 491.816 93.5992C496.466 78.5861 497.918 59.8394 486.102 49.4755C476.859 41.369 462.935 41.74 450.968 44.5658C411.928 53.801 381.254 82.8958 351.212 109.488C318.013 138.875 283.243 166.502 247.115 192.203C232.489 202.606 213.529 213.033 197.679 204.627C210.017 172.627 233.491 146.398 256.429 120.902C298.99 73.6133 341.733 25.7402 373.424 -29.4263C382.17 -44.6525 390.166 -63.2334 382.754 -79.1543C358.703 -79.841 337.115 -65.3094 318.1 -50.5725C218.857 26.3322 138.574 124.533 59.2145 221.818C39.0312 246.564 18.548 271.807 6.59753 301.423C2.00361 312.813 -1.2958 325.158 0.495989 337.306C2.29567 349.454 10.1495 361.302 21.8948 364.885C29.0383 367.064 36.7658 366.045 44.004 364.198C81.821 354.521 110.071 324.132 138.211 297.073C166.493 269.881 196.779 244.78 228.755 222.047C249.973 206.963 275.555 192.274 300.64 199.228C290.126 218.716 270.89 231.59 254.488 246.477C238.085 261.356 223.167 281.697 226.158 303.641C226.75 308.014 228.226 312.537 231.613 315.354C238.267 320.903 248.339 317.383 255.885 313.121C305.313 285.21 338.449 236.279 377.616 195.194C387.04 185.312 398.801 175.098 412.386 176.448C395.32 228.212 358.798 271.104 320.634 310.019C241.432 390.783 151.077 461.271 82.2788 551.057C61.4562 578.226 42.1649 608.592 39.1023 642.691C37.7762 657.459 39.9153 673.278 49.0242 684.983C68.5444 710.045 107.632 704.614 137.422 693.595C226.593 660.609 303.039 600.351 372.24 535.16C514.928 400.729 633.723 241.015 721.426 65.6962C729.721 49.1124 738.365 31.6444 753.607 21.0752L703.405 21.6041L703.429 21.5883Z" fill="url(#paint3_radial_4_4264)"/>
<g clip-path="url(#clip1_4_4264)">
<path style="mix-blend-mode:screen" d="M1920 1149.02C1737.94 901.493 1384.9 733.645 979.183 733.645C542.735 733.645 167.24 927.888 0 1206.59V1377.11H1920V1149.02V1149.02Z" fill="url(#paint4_radial_4_4264)"/>
<path style="mix-blend-mode:screen" d="M1795.95 1136.93C1637.43 921.392 1329.99 775.229 976.711 775.229C596.663 775.229 269.7 944.373 124.066 1187.07V1335.55H1795.95V1136.93V1136.93Z" fill="url(#paint5_radial_4_4264)"/>
<path style="mix-blend-mode:screen" d="M1703.25 1140.93C1562.31 961.348 1288.98 839.558 974.847 839.558C636.933 839.558 346.235 980.482 216.753 1182.71V1306.42H1703.25V1140.93V1140.93Z" fill="url(#paint6_radial_4_4264)"/>
<path style="mix-blend-mode:screen" d="M455.838 989.371C448.851 1064.44 666.722 1073.82 915.306 1050.87C1163.89 1027.93 1338.47 1113.42 1452.98 1049.83C1498.33 1024.66 1496.13 989.332 1472.29 955.087C1333.68 882.536 1161.46 839.558 974.846 839.558C788.237 839.558 603.63 885.715 462.549 963.075C459.036 971.592 456.681 980.383 455.838 989.371Z" fill="url(#paint7_radial_4_4264)"/>
<path opacity="0.5" d="M1310.25 951.006C1307.97 967.529 1274.26 975.831 1234.93 969.531C1195.62 963.232 1165.6 944.706 1167.87 928.182C1170.15 911.659 1203.86 903.357 1243.19 909.657C1282.5 915.956 1312.52 934.482 1310.25 951.006V951.006ZM584.456 928.673C547.346 944 521.736 969.099 527.29 984.701C532.824 1000.3 567.422 1000.54 604.532 985.191C641.642 969.865 667.252 944.765 661.698 929.164C656.164 913.562 621.566 913.327 584.456 928.673ZM710.033 955.676C683.285 965.979 664.641 983.465 668.37 994.709C672.099 1005.95 696.786 1006.72 723.535 996.397C750.283 986.094 768.926 968.609 765.197 957.364C761.469 946.119 736.781 945.354 710.033 955.676V955.676ZM770.103 873.724C749.89 880.593 735.506 893.035 737.998 901.532C740.47 910.03 758.878 911.364 779.091 904.496C799.305 897.627 813.689 885.185 811.197 876.688C808.724 868.19 790.317 866.856 770.103 873.724ZM1418.93 970.964C1399.56 961.701 1381.13 960.798 1377.8 968.962C1374.46 977.106 1387.45 991.216 1406.82 1000.48C1426.19 1009.74 1444.62 1010.64 1447.95 1002.48C1451.29 994.337 1438.3 980.227 1418.93 970.964V970.964ZM1326.85 1005.95C1302.93 1002.97 1282.68 1008.7 1281.6 1018.77C1280.52 1028.82 1299.04 1039.39 1322.94 1042.38C1346.87 1045.36 1367.12 1039.63 1368.2 1029.56C1369.28 1019.51 1350.75 1008.94 1326.85 1005.95Z" fill="url(#paint8_radial_4_4264)"/>
<path style="mix-blend-mode:screen" d="M615.934 984.093C598.939 991.118 582.494 994.866 569.11 995.377C579.982 993.728 592.11 990.353 604.532 985.211C641.642 969.884 667.252 944.785 661.698 929.183C658.696 920.725 647.137 916.781 631.28 917.409C652.867 914.131 669.411 917.683 673.1 928.065C678.634 943.666 653.044 968.766 615.934 984.093V984.093ZM743.395 948.454C754.856 948.239 763.157 951.241 765.198 957.384C768.926 968.628 750.263 986.094 723.535 996.417C715.901 999.36 708.444 1001.38 701.575 1002.52C711.093 1002.34 722.789 999.969 734.937 995.298C761.685 984.995 780.328 967.51 776.599 956.265C773.931 948.239 760.566 945.589 743.395 948.454ZM1243.19 909.657C1282.5 915.956 1312.52 934.482 1310.25 951.006C1308.91 960.739 1296.65 967.628 1278.75 970.336C1302.69 969.139 1320.04 961.583 1321.65 949.887C1323.93 933.363 1293.9 914.838 1254.59 908.538C1238.44 905.948 1223.25 905.83 1210.77 907.714C1220.66 907.223 1231.69 907.812 1243.19 909.657V909.657ZM1430.33 969.845C1415.55 962.78 1401.36 960.602 1393.97 963.565C1401.15 964.193 1409.92 966.666 1418.93 970.964C1438.3 980.226 1451.31 994.336 1447.95 1002.48C1447.15 1004.42 1445.48 1005.84 1443.18 1006.76C1451.45 1007.47 1457.57 1005.74 1459.35 1001.36C1462.69 993.218 1449.7 979.108 1430.33 969.845V969.845ZM1338.25 1004.84C1328.6 1003.64 1319.57 1003.87 1312.13 1005.21C1316.78 1005.09 1321.73 1005.31 1326.85 1005.93C1350.77 1008.92 1369.28 1019.48 1368.2 1029.54C1367.55 1035.55 1360.05 1039.98 1349.07 1041.97C1366.06 1041.53 1378.76 1036.31 1379.6 1028.42C1380.68 1018.38 1362.15 1007.8 1338.25 1004.82V1004.84ZM794.046 869.348C803.191 869.348 809.784 871.86 811.197 876.688C813.67 885.185 799.305 897.647 779.092 904.496C774.774 905.967 770.555 907.027 766.552 907.753C773.46 907.753 781.8 906.321 790.494 903.377C810.707 896.508 825.092 884.067 822.599 875.569C820.656 868.877 808.842 866.66 794.046 869.348V869.348Z" fill="url(#paint9_radial_4_4264)"/>
<path opacity="0.5" d="M1359.64 1038.84C1352.24 1034.88 1342.16 1031.76 1330.83 1030.35C1315.92 1028.48 1302.44 1030.01 1294.14 1033.88C1301.53 1037.84 1311.62 1040.96 1322.94 1042.38C1337.86 1044.24 1351.34 1042.71 1359.64 1038.84Z" fill="url(#paint10_radial_4_4264)"/>
<path opacity="0.5" d="M1306.5 958.659C1295.33 947.846 1273.31 938.25 1247.17 934.05C1214.5 928.81 1185.73 933.658 1175.6 944.922C1186.77 955.735 1208.79 965.332 1234.93 969.531C1267.6 974.771 1296.37 969.924 1306.5 958.659V958.659Z" fill="url(#paint11_radial_4_4264)"/>
<path opacity="0.5" d="M1388.2 988.547C1393.14 992.825 1399.52 996.986 1406.82 1000.48C1420.56 1007.05 1433.8 1009.39 1441.54 1007.29C1436.59 1003.01 1430.21 998.85 1422.91 995.357C1409.17 988.783 1395.93 986.447 1388.2 988.547Z" fill="url(#paint12_radial_4_4264)"/>
<path opacity="0.5" d="M534.453 992.531C547.581 999.694 575.252 997.3 604.532 985.191C630.22 974.575 650.374 959.307 658.519 945.727C645.39 938.564 617.719 940.958 588.44 953.066C562.751 963.683 542.597 978.951 534.453 992.531V992.531Z" fill="url(#paint13_radial_4_4264)"/>
<path opacity="0.5" d="M774.087 898.118C765.727 900.944 758.407 904.751 752.833 908.813C760.134 909.186 769.397 907.793 779.091 904.496C787.451 901.67 794.771 897.863 800.344 893.8C793.044 893.427 783.781 894.821 774.087 898.118Z" fill="url(#paint14_radial_4_4264)"/>
<path opacity="0.5" d="M678.634 1002.46C689.055 1005.17 705.814 1003.23 723.535 996.397C738.94 990.451 751.618 982.15 758.938 974.006C748.517 971.297 731.758 973.24 714.037 980.07C698.632 986.016 685.954 994.317 678.634 1002.46Z" fill="url(#paint15_radial_4_4264)"/>
<path opacity="0.25" d="M639.856 1002.44C641.662 1008.66 630.986 1017.81 616.012 1022.89C601.039 1027.97 587.42 1027.05 585.614 1020.83C583.809 1014.61 594.484 1005.46 609.458 1000.38C624.431 995.298 638.051 996.22 639.856 1002.44Z" fill="url(#paint16_radial_4_4264)"/>
<path opacity="0.25" d="M1200.08 887.285C1199.25 893.741 1185.97 897.097 1170.42 894.782C1154.86 892.466 1142.93 885.362 1143.75 878.905C1144.58 872.449 1157.86 869.093 1173.41 871.409C1188.97 873.724 1200.9 880.829 1200.08 887.285Z" fill="url(#paint17_radial_4_4264)"/>
<path opacity="0.25" d="M1525.88 1018.26C1522.74 1023.81 1509.32 1021.18 1495.91 1012.37C1482.51 1003.56 1474.19 991.903 1477.33 986.33C1480.47 980.776 1493.89 983.406 1507.3 992.217C1520.7 1001.03 1529.02 1012.69 1525.88 1018.26Z" fill="url(#paint18_radial_4_4264)"/>
<path opacity="0.25" d="M1237.13 894.075C1236.77 896.822 1231.14 898.235 1224.53 897.254C1217.93 896.273 1212.85 893.251 1213.2 890.523C1213.56 887.776 1219.19 886.363 1225.8 887.344C1232.4 888.325 1237.48 891.347 1237.13 894.075Z" fill="url(#paint19_radial_4_4264)"/>
<path opacity="0.25" d="M1301.4 987.174C1301.04 989.921 1295.41 991.334 1288.8 990.353C1282.2 989.371 1277.12 986.349 1277.47 983.621C1277.83 980.874 1283.46 979.461 1290.07 980.442C1296.69 981.424 1301.75 984.446 1301.4 987.174Z" fill="url(#paint20_radial_4_4264)"/>
<path opacity="0.25" d="M1363.88 925.415C1363.53 928.163 1357.9 929.576 1351.28 928.595C1344.67 927.613 1339.61 924.591 1339.96 921.863C1340.31 919.116 1345.94 917.703 1352.56 918.684C1359.15 919.665 1364.23 922.688 1363.88 925.415Z" fill="url(#paint21_radial_4_4264)"/>
<path opacity="0.25" d="M1416.48 1021.71C1415.53 1024.28 1409.74 1024.2 1403.54 1021.54C1397.34 1018.87 1393.1 1014.63 1394.04 1012.06C1394.99 1009.49 1400.78 1009.57 1406.98 1012.23C1413.16 1014.9 1417.42 1019.14 1416.48 1021.71Z" fill="url(#paint22_radial_4_4264)"/>
<path opacity="0.25" d="M1402.7 947.827C1401.62 952.105 1392.38 953.145 1382.05 950.123C1371.73 947.1 1364.23 941.194 1365.31 936.915C1366.39 932.637 1375.64 931.597 1385.96 934.619C1396.28 937.641 1403.78 943.548 1402.7 947.827Z" fill="url(#paint23_radial_4_4264)"/>
<path opacity="0.25" d="M1209.66 976.815C1210.44 972.451 1202.51 967.388 1191.96 965.506C1181.41 963.625 1172.22 965.637 1171.44 970.001C1170.67 974.365 1178.59 979.428 1189.14 981.31C1199.7 983.192 1208.88 981.179 1209.66 976.815Z" fill="url(#paint24_radial_4_4264)"/>
<path opacity="0.25" d="M784.037 922.295C784.959 926.161 778.13 931.401 768.808 933.972C759.467 936.562 751.166 935.502 750.244 931.636C749.321 927.77 756.151 922.531 765.472 919.96C774.813 917.369 783.115 918.429 784.037 922.295Z" fill="url(#paint25_radial_4_4264)"/>
<path opacity="0.25" d="M774.421 995.828C775.343 999.694 768.514 1004.93 759.192 1007.5C749.851 1010.09 741.55 1009.04 740.628 1005.17C739.705 1001.3 746.535 996.063 755.856 993.493C765.198 990.902 773.499 991.962 774.421 995.828Z" fill="url(#paint26_radial_4_4264)"/>
<path opacity="0.25" d="M793.613 977.872C794.182 980.285 789.943 983.543 784.115 985.152C778.306 986.761 773.125 986.114 772.556 983.7C771.987 981.286 776.226 978.029 782.054 976.419C787.883 974.81 793.044 975.458 793.613 977.872Z" fill="url(#paint27_radial_4_4264)"/>
<path opacity="0.25" d="M736.271 880.946C736.84 883.36 732.601 886.618 726.773 888.227C720.964 889.836 715.783 889.189 715.214 886.775C714.645 884.361 718.884 881.103 724.712 879.494C730.521 877.885 735.702 878.532 736.271 880.946Z" fill="url(#paint28_radial_4_4264)"/>
<path opacity="0.25" d="M662.679 977.872C663.248 980.285 659.01 983.543 653.181 985.152C647.353 986.761 642.191 986.114 641.622 983.7C641.053 981.286 645.292 978.029 651.12 976.419C656.929 974.81 662.11 975.458 662.679 977.872Z" fill="url(#paint29_radial_4_4264)"/>
<path opacity="0.25" d="M864.948 912.169C866.754 918.39 856.078 927.535 841.105 932.617C826.131 937.7 812.512 936.778 810.706 930.557C808.901 924.336 819.577 915.191 834.55 910.108C849.524 905.025 863.143 905.948 864.948 912.169Z" fill="url(#paint30_radial_4_4264)"/>
<path opacity="0.25" d="M887.771 887.599C888.34 890.013 884.102 893.27 878.273 894.88C872.464 896.489 867.283 895.841 866.714 893.427C866.145 891.014 870.384 887.756 876.213 886.147C882.041 884.538 887.202 885.185 887.771 887.599Z" fill="url(#paint31_radial_4_4264)"/>
<path opacity="0.25" d="M666.741 899.805C667.31 902.219 663.071 905.477 657.243 907.086C651.434 908.695 646.253 908.048 645.684 905.634C645.115 903.22 649.354 899.962 655.182 898.353C660.991 896.744 666.172 897.392 666.741 899.805Z" fill="url(#paint32_radial_4_4264)"/>
</g>
</g>
<defs>
<radialGradient id="paint0_radial_4_4264" cx="0" cy="0" r="1" gradientUnits="userSpaceOnUse" gradientTransform="translate(711.338 697.96) scale(583.041 583.041)">
<stop offset="0.06" stop-color="#000A57"/>
<stop offset="0.24" stop-color="#000954" stop-opacity="0.94"/>
<stop offset="0.44" stop-color="#00084C" stop-opacity="0.78"/>
<stop offset="0.66" stop-color="#000640" stop-opacity="0.52"/>
<stop offset="0.89" stop-color="#00032E" stop-opacity="0.14"/>
<stop offset="0.96" stop-color="#000228" stop-opacity="0"/>
</radialGradient>
<radialGradient id="paint1_radial_4_4264" cx="0" cy="0" r="1" gradientUnits="userSpaceOnUse" gradientTransform="translate(1171.35 315.015) scale(628.072 628.072)">
<stop offset="0.06" stop-color="#000A57"/>
<stop offset="0.24" stop-color="#000954" stop-opacity="0.94"/>
<stop offset="0.44" stop-color="#00084C" stop-opacity="0.78"/>
<stop offset="0.66" stop-color="#000640" stop-opacity="0.52"/>
<stop offset="0.89" stop-color="#00032E" stop-opacity="0.14"/>
<stop offset="0.96" stop-color="#000228" stop-opacity="0"/>
</radialGradient>
<radialGradient id="paint2_radial_4_4264" cx="0" cy="0" r="1" gradientUnits="userSpaceOnUse" gradientTransform="translate(1330.09 562.716) scale(377.428 377.428)">
<stop offset="0.06" stop-color="#4D0057"/>
<stop offset="0.24" stop-color="#4A0054" stop-opacity="0.94"/>
<stop offset="0.44" stop-color="#43004C" stop-opacity="0.78"/>
<stop offset="0.66" stop-color="#370040" stop-opacity="0.52"/>
<stop offset="0.89" stop-color="#27002E" stop-opacity="0.14"/>
<stop offset="0.96" stop-color="#210028" stop-opacity="0"/>
</radialGradient>
<radialGradient id="paint3_radial_4_4264" cx="0" cy="0" r="1" gradientUnits="userSpaceOnUse" gradientTransform="translate(376.818 311.818) scale(383.979 383.979)">
<stop offset="0.06" stop-color="#4D0057"/>
<stop offset="0.24" stop-color="#4A0054" stop-opacity="0.94"/>
<stop offset="0.44" stop-color="#43004C" stop-opacity="0.78"/>
<stop offset="0.66" stop-color="#370040" stop-opacity="0.52"/>
<stop offset="0.89" stop-color="#27002E" stop-opacity="0.14"/>
<stop offset="0.96" stop-color="#210028" stop-opacity="0"/>
</radialGradient>
<radialGradient id="paint4_radial_4_4264" cx="0" cy="0" r="1" gradientUnits="userSpaceOnUse" gradientTransform="translate(943.266 728.901) scale(988.392 1111.94)">
<stop stop-color="#4A289C" stop-opacity="0"/>
<stop offset="0.96" stop-color="#00092B"/>
</radialGradient>
<radialGradient id="paint5_radial_4_4264" cx="0" cy="0" r="1" gradientUnits="userSpaceOnUse" gradientTransform="translate(944.849 771.233) scale(860.67 968.254)">
<stop stop-color="#4A289C" stop-opacity="0"/>
<stop offset="0.96" stop-color="#00092B"/>
</radialGradient>
<radialGradient id="paint6_radial_4_4264" cx="0" cy="0" r="1" gradientUnits="userSpaceOnUse" gradientTransform="translate(922.892 736.275) scale(765.213 806.207)">
<stop stop-color="#4A289C"/>
<stop offset="0.96" stop-color="#00092B"/>
</radialGradient>
<radialGradient id="paint7_radial_4_4264" cx="0" cy="0" r="1" gradientUnits="userSpaceOnUse" gradientTransform="translate(949.609 787.632) scale(494.89 494.89)">
<stop stop-color="#4A289C"/>
<stop offset="0.96" stop-color="#00092B"/>
</radialGradient>
<radialGradient id="paint8_radial_4_4264" cx="0" cy="0" r="1" gradientUnits="userSpaceOnUse" gradientTransform="translate(988.268 824.602) rotate(9.11) scale(428.922 459.288)">
<stop stop-color="#4A289C"/>
<stop offset="0.96" stop-color="#00092B"/>
</radialGradient>
<radialGradient id="paint9_radial_4_4264" cx="0" cy="0" r="1" gradientUnits="userSpaceOnUse" gradientTransform="translate(1009.73 954.279) scale(318.789 344.406)">
<stop stop-color="#4A289C"/>
<stop offset="0.96" stop-color="#00092B"/>
</radialGradient>
<radialGradient id="paint10_radial_4_4264" cx="0" cy="0" r="1" gradientUnits="userSpaceOnUse" gradientTransform="translate(1118.09 733.611) scale(393.827 425.474)">
<stop stop-color="#4A289C"/>
<stop offset="0.96" stop-color="#00092B"/>
</radialGradient>
<radialGradient id="paint11_radial_4_4264" cx="0" cy="0" r="1" gradientUnits="userSpaceOnUse" gradientTransform="translate(1118.09 733.611) scale(393.827 425.474)">
<stop stop-color="#4A289C"/>
<stop offset="0.96" stop-color="#00092B"/>
</radialGradient>
<radialGradient id="paint12_radial_4_4264" cx="0" cy="0" r="1" gradientUnits="userSpaceOnUse" gradientTransform="translate(1118.09 733.611) scale(393.827 425.474)">
<stop stop-color="#4A289C"/>
<stop offset="0.96" stop-color="#00092B"/>
</radialGradient>
<radialGradient id="paint13_radial_4_4264" cx="0" cy="0" r="1" gradientUnits="userSpaceOnUse" gradientTransform="translate(1118.09 733.611) scale(393.827 425.474)">
<stop stop-color="#4A289C"/>
<stop offset="0.96" stop-color="#00092B"/>
</radialGradient>
<radialGradient id="paint14_radial_4_4264" cx="0" cy="0" r="1" gradientUnits="userSpaceOnUse" gradientTransform="translate(1118.09 733.611) scale(393.827 425.474)">
<stop stop-color="#4A289C"/>
<stop offset="0.96" stop-color="#00092B"/>
</radialGradient>
<radialGradient id="paint15_radial_4_4264" cx="0" cy="0" r="1" gradientUnits="userSpaceOnUse" gradientTransform="translate(1118.09 733.611) scale(393.827 425.474)">
<stop stop-color="#4A289C"/>
<stop offset="0.96" stop-color="#00092B"/>
</radialGradient>
<radialGradient id="paint16_radial_4_4264" cx="0" cy="0" r="1" gradientUnits="userSpaceOnUse" gradientTransform="translate(599.464 939.414) scale(120.161 129.817)">
<stop stop-color="#4A289C"/>
<stop offset="0.96" stop-color="#00092B"/>
</radialGradient>
<radialGradient id="paint17_radial_4_4264" cx="0" cy="0" r="1" gradientUnits="userSpaceOnUse" gradientTransform="translate(1181.44 809.715) rotate(27.02) scale(122.307 128.744)">
<stop stop-color="#4A289C"/>
<stop offset="0.96" stop-color="#00092B"/>
</radialGradient>
<radialGradient id="paint18_radial_4_4264" cx="0" cy="0" r="1" gradientUnits="userSpaceOnUse" gradientTransform="translate(1546.08 948.8) rotate(50.96) scale(126.599 124.453)">
<stop stop-color="#4A289C"/>
<stop offset="0.96" stop-color="#00092B"/>
</radialGradient>
<radialGradient id="paint19_radial_4_4264" cx="0" cy="0" r="1" gradientUnits="userSpaceOnUse" gradientTransform="translate(1222.31 858.154) rotate(27.02) scale(51.9252 54.6581)">
<stop stop-color="#4A289C"/>
<stop offset="0.96" stop-color="#00092B"/>
</radialGradient>
<radialGradient id="paint20_radial_4_4264" cx="0" cy="0" r="1" gradientUnits="userSpaceOnUse" gradientTransform="translate(1283.6 949.971) rotate(27.02) scale(51.9252 54.6581)">
<stop stop-color="#4A289C"/>
<stop offset="0.96" stop-color="#00092B"/>
</radialGradient>
<radialGradient id="paint21_radial_4_4264" cx="0" cy="0" r="1" gradientUnits="userSpaceOnUse" gradientTransform="translate(1350.55 890.138) rotate(27.02) scale(51.9252 54.6581)">
<stop stop-color="#4A289C"/>
<stop offset="0.96" stop-color="#00092B"/>
</radialGradient>
<radialGradient id="paint22_radial_4_4264" cx="0" cy="0" r="1" gradientUnits="userSpaceOnUse" gradientTransform="translate(1408.8 981.989) rotate(41.33) scale(52.8361 53.7471)">
<stop stop-color="#4A289C"/>
<stop offset="0.96" stop-color="#00092B"/>
</radialGradient>
<radialGradient id="paint23_radial_4_4264" cx="0" cy="0" r="1" gradientUnits="userSpaceOnUse" gradientTransform="translate(1394.59 892.652) rotate(34.5999) scale(84.0439 86.9671)">
<stop stop-color="#4A289C"/>
<stop offset="0.96" stop-color="#00092B"/>
</radialGradient>
<radialGradient id="paint24_radial_4_4264" cx="0" cy="0" r="1" gradientUnits="userSpaceOnUse" gradientTransform="translate(1188.02 916.767) rotate(28.35) scale(83.313 86.967)">
<stop stop-color="#4A289C"/>
<stop offset="0.96" stop-color="#00092B"/>
</radialGradient>
<radialGradient id="paint25_radial_4_4264" cx="0" cy="0" r="1" gradientUnits="userSpaceOnUse" gradientTransform="translate(756.876 881.832) rotate(3.31) scale(73.7409 79.6666)">
<stop stop-color="#4A289C"/>
<stop offset="0.96" stop-color="#00092B"/>
</radialGradient>
<radialGradient id="paint26_radial_4_4264" cx="0" cy="0" r="1" gradientUnits="userSpaceOnUse" gradientTransform="translate(746.69 955.168) rotate(3.31) scale(73.7409 79.6665)">
<stop stop-color="#4A289C"/>
<stop offset="0.96" stop-color="#00092B"/>
</radialGradient>
<radialGradient id="paint27_radial_4_4264" cx="0" cy="0" r="1" gradientUnits="userSpaceOnUse" gradientTransform="translate(773.705 952.092) rotate(3.31001) scale(45.9369 49.6284)">
<stop stop-color="#4A289C"/>
<stop offset="0.96" stop-color="#00092B"/>
</radialGradient>
<radialGradient id="paint28_radial_4_4264" cx="0" cy="0" r="1" gradientUnits="userSpaceOnUse" gradientTransform="translate(717.365 855.429) rotate(3.31001) scale(45.9369 49.6283)">
<stop stop-color="#4A289C"/>
<stop offset="0.96" stop-color="#00092B"/>
</radialGradient>
<radialGradient id="paint29_radial_4_4264" cx="0" cy="0" r="1" gradientUnits="userSpaceOnUse" gradientTransform="translate(643.259 952.112) rotate(3.31001) scale(45.9369 49.6284)">
<stop stop-color="#4A289C"/>
<stop offset="0.96" stop-color="#00092B"/>
</radialGradient>
<radialGradient id="paint30_radial_4_4264" cx="0" cy="0" r="1" gradientUnits="userSpaceOnUse" gradientTransform="translate(823.654 849.371) scale(120.162 129.817)">
<stop stop-color="#4A289C"/>
<stop offset="0.96" stop-color="#00092B"/>
</radialGradient>
<radialGradient id="paint31_radial_4_4264" cx="0" cy="0" r="1" gradientUnits="userSpaceOnUse" gradientTransform="translate(868.255 862.039) rotate(3.31) scale(45.937 49.6284)">
<stop stop-color="#4A289C"/>
<stop offset="0.96" stop-color="#00092B"/>
</radialGradient>
<radialGradient id="paint32_radial_4_4264" cx="0" cy="0" r="1" gradientUnits="userSpaceOnUse" gradientTransform="translate(647.938 874.248) rotate(3.31) scale(45.937 49.6283)">
<stop stop-color="#4A289C"/>
<stop offset="0.96" stop-color="#00092B"/>
</radialGradient>
<clipPath id="clip0_4_4264">
<rect width="1920" height="1080" fill="white"/>
</clipPath>
<clipPath id="clip1_4_4264">
<rect width="1920" height="643.467" fill="white" transform="translate(0 733.645)"/>
</clipPath>
</defs>
</svg>
