<svg width="375" height="639" viewBox="0 0 375 639" fill="none" xmlns="http://www.w3.org/2000/svg">
<g clip-path="url(#clip0_7_6151)">
<rect width="375" height="639" fill="#00063E"/>
<path style="mix-blend-mode:screen" opacity="0.5" d="M-198.493 368.039C-80.5763 282.722 46.8468 208.666 185.039 162.99C210.729 154.499 236.918 146.969 263.827 144.178C283.196 142.169 306.654 144.827 315.752 162.043C319.024 168.232 319.82 175.486 319.279 182.463C317.026 211.611 293.804 234.13 272.286 253.918C243.407 280.476 214.837 307.454 183.974 331.68C152.49 356.394 118.661 378.217 89.1502 405.259C59.6397 432.301 34.1364 465.668 25.0924 504.657C23.2234 512.721 22.5704 522.465 28.7229 528C35.1768 533.805 45.2396 531.649 53.5159 529.03C144.734 500.144 232.05 456.215 326.82 443.021C333.177 442.134 340.007 441.467 345.693 444.445C357.299 450.526 357.155 467.344 352.757 479.688C345.363 500.431 330.988 517.909 315.734 533.798C278.367 572.718 234.442 604.632 190.776 636.324C188.056 622.63 169.753 620.051 155.83 621.084C118.948 623.829 82.3089 629.83 46.4809 639C41.3185 628.557 51.8693 617.5 61.2612 610.605C95.2417 585.651 129.219 560.697 163.199 535.742C102.162 536.564 45.8531 567.832 -14.1759 578.899C-27.0872 581.281 -40.4649 582.709 -53.2865 579.886C-66.1081 577.063 -78.4131 569.389 -84.0848 557.55C-89.7028 545.826 -88.092 531.67 -82.8472 519.774C-77.6023 507.878 -69.0857 497.776 -60.6838 487.857C-25.1572 445.908 15.4099 405.306 47.1625 360.595C52.2459 353.434 56.2926 345.065 56.0415 336.286C55.9446 332.903 55.1338 329.402 52.9383 326.826C48.1634 321.223 39.2306 322.202 32.3642 324.853C9.09951 333.825 -14.9293 349.65 -34.0469 365.399C-59.8336 386.644 -89.0176 404.854 -117.513 422.192C-129.965 429.768 -142.919 437.205 -157.265 439.792C-171.612 442.378 -187.809 439.257 -197.542 428.402C-210.163 414.328 -208.254 392.473 -202.216 374.561C-195.16 353.617 -183.501 334.238 -168.301 318.191" fill="url(#paint0_radial_7_6151)"/>
<path style="mix-blend-mode:screen" opacity="0.5" d="M616.5 255.985C559.262 293.671 507.197 338.916 448.955 375.027C390.712 411.139 323.867 438.285 255.465 434.077C254.08 433.991 252.66 433.883 251.408 433.291C244.778 430.142 249.779 420.143 255.21 415.203C293.722 380.15 329.008 341.556 360.474 300.064C375.806 279.845 390.257 258.855 402.303 236.494C407.609 226.646 433.547 177.304 407.401 174.13C395.082 172.637 378.059 179.626 368.061 186.356C350.942 197.879 337.79 214.248 324.341 229.9C295.889 262.998 264.918 293.933 231.781 322.342C220.609 331.92 209.043 341.309 195.719 347.555C192.853 348.9 189.667 350.116 186.589 349.377C177.187 347.128 180.236 332.853 185.89 325.015C201.527 303.328 220.925 284.641 237.592 263.734C254.256 242.826 214.848 261.972 217.456 235.364C218.869 220.957 269.409 161.258 257.503 153.024C243.565 143.385 224.476 149.075 209.19 156.393C165.811 177.172 128.433 208.322 89.3009 236.282C50.1652 264.243 7.4027 289.793 -40.1993 296.67C-43.7653 297.187 -47.568 297.56 -50.8254 296.028C-59.9627 291.73 -57.2542 278.048 -52.4541 269.165C-36.063 238.826 -12.1131 213.369 11.5606 188.293C48.4002 149.268 85.2363 110.244 122.076 71.2196C139.4 52.8697 156.928 34.3404 178.015 20.4749C199.102 6.60936 224.394 -2.36647 249.46 0.550138C217.456 36.6292 185.448 72.7084 153.445 108.787C145.642 117.58 137.28 128.87 141.111 139.984C165.298 141.455 187.163 127.076 208.107 114.897C237.768 97.6484 269.388 83.7649 302.163 73.6088C310.281 71.094 320.972 69.6483 325.607 76.773C328.864 81.7775 327.117 88.4394 324.753 93.9246C305.919 137.613 256.129 163.808 243.074 209.556C241.976 213.409 241.201 217.714 243.006 221.29C247.264 229.728 259.978 226.55 268.2 221.886C313.779 196.045 353.69 161.459 396.531 131.295C439.373 101.132 486.928 74.7747 539.004 69.0061C559.689 66.7173 584.41 69.824 594.8 87.8582C605.949 107.216 594.014 131.41 581.12 149.652C556.93 183.877 528.496 215.098 496.679 242.381C474.749 261.186 450.802 278.571 434.87 302.672C429.026 311.511 424.266 321.546 424.208 332.143C424.151 342.74 429.787 353.883 439.656 357.743C444.994 359.831 450.931 359.644 456.628 359.056C505.063 354.044 547.836 322.457 596.349 318.241C604.453 317.538 613.612 318.012 619.212 323.91C625.088 330.098 624.669 340.337 620.475 347.766C616.281 355.196 609.142 360.43 602.107 365.255C559.388 394.568 512.478 417.761 463.247 433.901" fill="url(#paint1_radial_7_6151)"/>
<path style="mix-blend-mode:screen" opacity="0.5" d="M449.845 162.919C378.07 227.213 296.907 280.774 228.358 348.495C203.095 373.456 178.159 404.129 179.533 439.616C179.622 441.941 179.866 444.377 181.158 446.31C183.945 450.486 190.023 450.457 194.977 449.632C257.072 439.286 301.603 378.941 363.577 367.878C364.19 376.821 357.198 384.254 350.788 390.518C322.142 418.525 293.854 450.117 285.546 489.31C285.123 491.308 284.825 493.618 286.127 495.193C287.598 496.969 290.303 496.883 292.588 496.571C325.822 492.029 355.462 473.019 380.395 450.572C405.324 428.129 426.637 401.955 451.05 378.945C478.695 352.893 510.656 330.496 531.556 298.779C525.741 294.966 517.834 295.777 511.66 298.977C505.486 302.177 500.643 307.397 495.882 312.466C470.537 339.429 443.638 364.929 415.358 388.793C404.474 397.976 392.822 407.2 378.899 410.185C405.654 372.81 446.77 345.528 465.177 303.415C466.609 300.143 467.893 296.397 466.548 293.09C465.324 290.08 462.221 288.272 459.15 287.206C447.258 283.081 434.121 286.962 422.641 292.125C387.204 308.067 356.592 336.487 318.185 342.399C312.628 343.253 305.273 342.5 303.781 337.076C303.02 334.31 304.24 331.415 305.56 328.868C318.436 304.049 342.429 287.353 364.807 270.596C396.384 246.955 427.358 220.121 444.105 184.404C446.462 179.374 448.528 173.509 446.336 168.404C444.144 163.299 435.635 161.387 433.252 166.409" fill="url(#paint2_radial_7_6151)"/>
<path style="mix-blend-mode:screen" opacity="0.5" d="M70.7033 83.8941C34.3372 125.405 15.112 190.7 -29.3223 223.428C-35.4282 227.924 -41.8605 232.329 -49.2363 234.087C-56.6121 235.845 -65.2005 234.424 -70.2014 228.727C-75.1844 223.048 -75.5181 214.643 -74.223 207.202C-68.2893 173.175 -35.6936 149.613 -25.473 116.623C-23.3599 109.799 -22.6999 101.279 -28.0703 96.5686C-32.2712 92.8843 -38.5995 93.0529 -44.0381 94.3372C-61.7817 98.5345 -75.7226 111.758 -89.3764 123.844C-104.465 137.2 -120.268 149.756 -136.688 161.437C-143.335 166.165 -151.953 170.904 -159.156 167.084C-153.549 152.54 -142.88 140.619 -132.455 129.032C-113.111 107.539 -93.685 85.7811 -79.2813 60.7083C-75.3064 53.7881 -71.6723 45.3432 -75.0409 38.1073C-85.9719 37.7952 -95.7837 44.3997 -104.426 51.0975C-149.531 86.0502 -186.019 130.682 -222.087 174.897C-231.261 186.144 -240.57 197.617 -246.001 211.077C-248.089 216.254 -249.589 221.864 -248.775 227.385C-247.957 232.907 -244.387 238.291 -239.049 239.92C-235.802 240.91 -232.29 240.447 -229 239.608C-211.813 235.21 -198.973 221.398 -186.184 209.1C-173.33 196.741 -159.565 185.333 -145.032 175.001C-135.389 168.146 -123.762 161.469 -112.361 164.63C-117.14 173.487 -125.882 179.339 -133.337 186.105C-140.792 192.867 -147.572 202.112 -146.213 212.085C-145.944 214.072 -145.273 216.128 -143.734 217.409C-140.709 219.931 -136.132 218.331 -132.702 216.393C-110.238 203.708 -95.1774 181.469 -77.3764 162.797C-73.0929 158.305 -67.7476 153.663 -61.5736 154.277C-69.3297 177.803 -85.9289 197.297 -103.274 214.984C-139.271 251.69 -180.337 283.727 -211.605 324.534C-221.069 336.882 -229.836 350.683 -231.228 366.181C-231.831 372.893 -230.859 380.082 -226.719 385.402C-217.847 396.793 -200.082 394.324 -186.543 389.316C-146.015 374.324 -111.271 346.938 -79.8194 317.309C-14.9689 256.211 39.0224 183.622 78.8827 103.941C82.6532 96.4036 86.5814 88.4645 93.5088 83.6609L70.6926 83.9013L70.7033 83.8941Z" fill="url(#paint3_radial_7_6151)"/>
<g clip-path="url(#clip1_7_6151)">
<path style="mix-blend-mode:screen" d="M375 634.971C339.442 586.72 270.488 554 191.247 554C106.003 554 32.664 591.865 0 646.196V679.436H375V634.971V634.971Z" fill="url(#paint4_radial_7_6151)"/>
<path style="mix-blend-mode:screen" d="M350.772 632.615C319.81 590.599 259.764 562.106 190.764 562.106C116.535 562.106 52.6754 595.079 24.2314 642.389V671.333H350.772V632.615V632.615Z" fill="url(#paint5_radial_7_6151)"/>
<path style="mix-blend-mode:screen" d="M332.666 633.395C305.138 598.388 251.753 574.646 190.4 574.646C124.401 574.646 67.624 602.118 42.3345 641.54V665.656H332.666V633.395V633.395Z" fill="url(#paint6_radial_7_6151)"/>
<path style="mix-blend-mode:screen" d="M89.0305 603.851C87.666 618.483 130.219 620.312 178.77 615.84C227.322 611.368 261.419 628.032 283.784 615.637C292.642 610.729 292.213 603.843 287.556 597.167C260.484 583.024 226.846 574.646 190.399 574.646C153.952 574.646 117.896 583.644 90.3413 598.724C89.6552 600.385 89.1953 602.099 89.0305 603.851Z" fill="url(#paint7_radial_7_6151)"/>
<path opacity="0.5" d="M255.908 596.372C255.463 599.593 248.878 601.211 241.197 599.983C233.52 598.755 227.655 595.144 228.1 591.923C228.545 588.701 235.129 587.083 242.811 588.311C250.488 589.539 256.352 593.151 255.908 596.372V596.372ZM114.151 592.018C106.903 595.006 101.901 599.899 102.986 602.94C104.067 605.981 110.824 606.027 118.073 603.036C125.321 600.048 130.322 595.155 129.238 592.114C128.157 589.073 121.399 589.027 114.151 592.018ZM138.678 597.282C133.454 599.291 129.813 602.699 130.541 604.891C131.269 607.083 136.091 607.232 141.315 605.22C146.54 603.212 150.181 599.803 149.453 597.611C148.724 595.419 143.902 595.27 138.678 597.282V597.282ZM150.411 581.307C146.463 582.646 143.653 585.071 144.14 586.727C144.623 588.384 148.218 588.644 152.166 587.305C156.114 585.966 158.924 583.541 158.437 581.884C157.954 580.228 154.359 579.968 150.411 581.307ZM277.134 600.262C273.351 598.457 269.752 598.281 269.1 599.872C268.449 601.46 270.986 604.21 274.769 606.016C278.552 607.821 282.152 607.997 282.803 606.406C283.455 604.818 280.917 602.068 277.134 600.262V600.262ZM259.15 607.083C254.478 606.502 250.522 607.619 250.312 609.581C250.101 611.54 253.719 613.602 258.388 614.183C263.06 614.765 267.015 613.648 267.226 611.685C267.437 609.727 263.819 607.665 259.15 607.083Z" fill="url(#paint8_radial_7_6151)"/>
<path style="mix-blend-mode:screen" d="M120.3 602.822C116.98 604.191 113.768 604.922 111.154 605.021C113.278 604.7 115.646 604.042 118.073 603.04C125.321 600.052 130.323 595.159 129.238 592.118C128.652 590.469 126.394 589.7 123.297 589.822C127.513 589.184 130.744 589.876 131.465 591.9C132.546 594.941 127.548 599.834 120.3 602.822V602.822ZM145.194 595.874C147.433 595.832 149.054 596.418 149.453 597.615C150.181 599.807 146.536 603.212 141.315 605.224C139.824 605.798 138.368 606.192 137.026 606.414C138.885 606.379 141.17 605.916 143.542 605.006C148.767 602.998 152.408 599.589 151.68 597.397C151.158 595.832 148.548 595.316 145.194 595.874ZM242.811 588.311C250.488 589.539 256.352 593.151 255.908 596.372C255.647 598.269 253.252 599.612 249.756 600.14C254.432 599.906 257.82 598.434 258.135 596.154C258.579 592.933 252.715 589.321 245.038 588.093C241.883 587.588 238.917 587.565 236.479 587.933C238.411 587.837 240.565 587.952 242.811 588.311V588.311ZM279.361 600.044C276.475 598.667 273.704 598.242 272.259 598.82C273.662 598.942 275.375 599.424 277.134 600.262C280.918 602.068 283.459 604.818 282.803 606.406C282.646 606.785 282.32 607.06 281.872 607.24C283.486 607.378 284.681 607.041 285.03 606.188C285.682 604.6 283.144 601.85 279.361 600.044V600.044ZM261.377 606.865C259.492 606.632 257.728 606.678 256.276 606.938C257.184 606.915 258.15 606.957 259.15 607.079C263.823 607.661 267.437 609.719 267.226 611.682C267.1 612.852 265.636 613.717 263.489 614.103C266.809 614.019 269.288 613.001 269.453 611.463C269.664 609.505 266.046 607.443 261.377 606.861V606.865ZM155.087 580.454C156.873 580.454 158.161 580.943 158.437 581.884C158.92 583.541 156.114 585.97 152.166 587.305C151.323 587.592 150.499 587.799 149.717 587.94C151.066 587.94 152.695 587.661 154.393 587.087C158.341 585.748 161.151 583.323 160.664 581.666C160.284 580.362 157.977 579.93 155.087 580.454V580.454Z" fill="url(#paint9_radial_7_6151)"/>
<path opacity="0.5" d="M265.555 613.495C264.11 612.722 262.14 612.114 259.929 611.838C257.016 611.475 254.383 611.773 252.761 612.527C254.206 613.3 256.176 613.908 258.388 614.183C261.301 614.547 263.934 614.248 265.555 613.495Z" fill="url(#paint10_radial_7_6151)"/>
<path opacity="0.5" d="M255.176 597.864C252.995 595.756 248.694 593.885 243.589 593.066C237.207 592.045 231.588 592.99 229.61 595.186C231.791 597.294 236.092 599.164 241.197 599.983C247.579 601.004 253.198 600.059 255.176 597.864V597.864Z" fill="url(#paint11_radial_7_6151)"/>
<path opacity="0.5" d="M271.132 603.69C272.098 604.524 273.343 605.335 274.769 606.016C277.452 607.297 280.04 607.753 281.55 607.343C280.584 606.509 279.338 605.698 277.912 605.017C275.229 603.736 272.642 603.281 271.132 603.69Z" fill="url(#paint12_radial_7_6151)"/>
<path opacity="0.5" d="M104.385 604.467C106.949 605.863 112.354 605.396 118.073 603.036C123.09 600.966 127.026 597.99 128.617 595.343C126.053 593.946 120.648 594.413 114.93 596.773C109.912 598.843 105.976 601.819 104.385 604.467V604.467Z" fill="url(#paint13_radial_7_6151)"/>
<path opacity="0.5" d="M151.189 586.062C149.556 586.613 148.127 587.355 147.038 588.147C148.464 588.219 150.273 587.948 152.167 587.305C153.799 586.754 155.229 586.012 156.318 585.22C154.892 585.148 153.083 585.419 151.189 586.062Z" fill="url(#paint14_radial_7_6151)"/>
<path opacity="0.5" d="M132.546 606.402C134.581 606.93 137.854 606.551 141.316 605.22C144.324 604.061 146.8 602.443 148.23 600.855C146.195 600.327 142.922 600.706 139.46 602.037C136.452 603.196 133.976 604.815 132.546 606.402Z" fill="url(#paint15_radial_7_6151)"/>
<path opacity="0.25" d="M124.972 606.398C125.325 607.611 123.239 609.394 120.315 610.385C117.39 611.375 114.73 611.196 114.378 609.983C114.025 608.77 116.11 606.988 119.035 605.997C121.959 605.006 124.619 605.186 124.972 606.398Z" fill="url(#paint16_radial_7_6151)"/>
<path opacity="0.25" d="M234.39 583.95C234.229 585.209 231.634 585.863 228.598 585.412C225.559 584.96 223.228 583.575 223.389 582.317C223.55 581.058 226.145 580.404 229.181 580.855C232.22 581.307 234.551 582.692 234.39 583.95Z" fill="url(#paint17_radial_7_6151)"/>
<path opacity="0.25" d="M298.024 609.482C297.41 610.564 294.789 610.052 292.171 608.334C289.553 606.616 287.928 604.344 288.541 603.258C289.154 602.175 291.776 602.688 294.394 604.405C297.012 606.123 298.637 608.395 298.024 609.482Z" fill="url(#paint18_radial_7_6151)"/>
<path opacity="0.25" d="M241.626 585.274C241.557 585.809 240.457 586.085 239.166 585.893C237.878 585.702 236.885 585.113 236.954 584.581C237.023 584.046 238.123 583.77 239.415 583.962C240.703 584.153 241.695 584.742 241.626 585.274Z" fill="url(#paint19_radial_7_6151)"/>
<path opacity="0.25" d="M254.179 603.422C254.11 603.958 253.01 604.233 251.718 604.042C250.431 603.851 249.438 603.262 249.507 602.73C249.576 602.194 250.676 601.919 251.968 602.11C253.259 602.301 254.248 602.89 254.179 603.422Z" fill="url(#paint20_radial_7_6151)"/>
<path opacity="0.25" d="M266.383 591.383C266.314 591.919 265.214 592.194 263.923 592.003C262.631 591.812 261.642 591.223 261.711 590.691C261.78 590.155 262.88 589.88 264.172 590.071C265.46 590.262 266.452 590.851 266.383 591.383Z" fill="url(#paint21_radial_7_6151)"/>
<path opacity="0.25" d="M276.655 610.155C276.471 610.656 275.34 610.641 274.129 610.121C272.918 609.6 272.09 608.774 272.274 608.273C272.458 607.772 273.589 607.787 274.8 608.307C276.007 608.828 276.839 609.654 276.655 610.155Z" fill="url(#paint22_radial_7_6151)"/>
<path opacity="0.25" d="M273.964 595.752C273.754 596.586 271.948 596.789 269.932 596.2C267.916 595.61 266.452 594.459 266.663 593.625C266.874 592.791 268.679 592.588 270.695 593.177C272.711 593.766 274.175 594.918 273.964 595.752Z" fill="url(#paint23_radial_7_6151)"/>
<path opacity="0.25" d="M236.261 601.403C236.413 600.552 234.866 599.565 232.805 599.198C230.744 598.832 228.95 599.224 228.798 600.075C228.646 600.925 230.193 601.912 232.254 602.279C234.315 602.646 236.109 602.254 236.261 601.403Z" fill="url(#paint24_radial_7_6151)"/>
<path opacity="0.25" d="M153.132 590.775C153.312 591.528 151.978 592.55 150.158 593.051C148.333 593.556 146.712 593.349 146.532 592.596C146.352 591.842 147.686 590.821 149.506 590.32C151.331 589.815 152.952 590.021 153.132 590.775Z" fill="url(#paint25_radial_7_6151)"/>
<path opacity="0.25" d="M151.254 605.109C151.434 605.863 150.101 606.884 148.28 607.385C146.455 607.89 144.834 607.684 144.654 606.93C144.474 606.177 145.808 605.155 147.628 604.654C149.453 604.149 151.074 604.356 151.254 605.109Z" fill="url(#paint26_radial_7_6151)"/>
<path opacity="0.25" d="M155.003 601.609C155.114 602.079 154.286 602.714 153.147 603.028C152.013 603.342 151.001 603.216 150.89 602.745C150.779 602.274 151.607 601.639 152.745 601.326C153.883 601.012 154.891 601.138 155.003 601.609Z" fill="url(#paint27_radial_7_6151)"/>
<path opacity="0.25" d="M143.803 582.714C143.914 583.185 143.086 583.82 141.948 584.134C140.813 584.447 139.801 584.321 139.69 583.851C139.579 583.38 140.407 582.745 141.545 582.431C142.68 582.118 143.692 582.244 143.803 582.714Z" fill="url(#paint28_radial_7_6151)"/>
<path opacity="0.25" d="M129.429 601.609C129.54 602.079 128.713 602.714 127.574 603.028C126.436 603.342 125.428 603.216 125.317 602.745C125.205 602.274 126.033 601.639 127.172 601.326C128.306 601.012 129.318 601.138 129.429 601.609Z" fill="url(#paint29_radial_7_6151)"/>
<path opacity="0.25" d="M168.935 588.801C169.288 590.014 167.203 591.796 164.278 592.787C161.354 593.778 158.694 593.598 158.341 592.386C157.989 591.173 160.074 589.39 162.998 588.399C165.923 587.409 168.583 587.588 168.935 588.801Z" fill="url(#paint30_radial_7_6151)"/>
<path opacity="0.25" d="M173.393 584.011C173.504 584.482 172.676 585.117 171.538 585.431C170.404 585.744 169.392 585.618 169.281 585.148C169.169 584.677 169.997 584.042 171.136 583.728C172.274 583.415 173.282 583.541 173.393 584.011Z" fill="url(#paint31_radial_7_6151)"/>
<path opacity="0.25" d="M130.223 586.391C130.334 586.861 129.506 587.496 128.368 587.81C127.233 588.124 126.221 587.998 126.11 587.527C125.999 587.057 126.827 586.421 127.965 586.108C129.1 585.794 130.112 585.92 130.223 586.391Z" fill="url(#paint32_radial_7_6151)"/>
</g>
</g>
<defs>
<radialGradient id="paint0_radial_7_6151" cx="0" cy="0" r="1" gradientUnits="userSpaceOnUse" gradientTransform="translate(74.2981 391.3) scale(264.988 264.988)">
<stop offset="0.06" stop-color="#000A57"/>
<stop offset="0.24" stop-color="#000954" stop-opacity="0.94"/>
<stop offset="0.44" stop-color="#00084C" stop-opacity="0.78"/>
<stop offset="0.66" stop-color="#000640" stop-opacity="0.52"/>
<stop offset="0.89" stop-color="#00032E" stop-opacity="0.14"/>
<stop offset="0.96" stop-color="#000228" stop-opacity="0"/>
</radialGradient>
<radialGradient id="paint1_radial_7_6151" cx="0" cy="0" r="1" gradientUnits="userSpaceOnUse" gradientTransform="translate(283.368 217.254) scale(285.454 285.454)">
<stop offset="0.06" stop-color="#000A57"/>
<stop offset="0.24" stop-color="#000954" stop-opacity="0.94"/>
<stop offset="0.44" stop-color="#00084C" stop-opacity="0.78"/>
<stop offset="0.66" stop-color="#000640" stop-opacity="0.52"/>
<stop offset="0.89" stop-color="#00032E" stop-opacity="0.14"/>
<stop offset="0.96" stop-color="#000228" stop-opacity="0"/>
</radialGradient>
<radialGradient id="paint2_radial_7_6151" cx="0" cy="0" r="1" gradientUnits="userSpaceOnUse" gradientTransform="translate(355.516 329.833) scale(171.538 171.538)">
<stop offset="0.06" stop-color="#4D0057"/>
<stop offset="0.24" stop-color="#4A0054" stop-opacity="0.94"/>
<stop offset="0.44" stop-color="#43004C" stop-opacity="0.78"/>
<stop offset="0.66" stop-color="#370040" stop-opacity="0.52"/>
<stop offset="0.89" stop-color="#27002E" stop-opacity="0.14"/>
<stop offset="0.96" stop-color="#210028" stop-opacity="0"/>
</radialGradient>
<radialGradient id="paint3_radial_7_6151" cx="0" cy="0" r="1" gradientUnits="userSpaceOnUse" gradientTransform="translate(-77.7387 215.802) scale(174.516 174.516)">
<stop offset="0.06" stop-color="#4D0057"/>
<stop offset="0.24" stop-color="#4A0054" stop-opacity="0.94"/>
<stop offset="0.44" stop-color="#43004C" stop-opacity="0.78"/>
<stop offset="0.66" stop-color="#370040" stop-opacity="0.52"/>
<stop offset="0.89" stop-color="#27002E" stop-opacity="0.14"/>
<stop offset="0.96" stop-color="#210028" stop-opacity="0"/>
</radialGradient>
<radialGradient id="paint4_radial_7_6151" cx="0" cy="0" r="1" gradientUnits="userSpaceOnUse" gradientTransform="translate(184.232 553.075) scale(193.045 216.759)">
<stop stop-color="#4A289C" stop-opacity="0"/>
<stop offset="0.96" stop-color="#00092B"/>
</radialGradient>
<radialGradient id="paint5_radial_7_6151" cx="0" cy="0" r="1" gradientUnits="userSpaceOnUse" gradientTransform="translate(184.541 561.327) scale(168.1 188.749)">
<stop stop-color="#4A289C" stop-opacity="0"/>
<stop offset="0.96" stop-color="#00092B"/>
</radialGradient>
<radialGradient id="paint6_radial_7_6151" cx="0" cy="0" r="1" gradientUnits="userSpaceOnUse" gradientTransform="translate(180.252 554.513) scale(149.456 157.16)">
<stop stop-color="#4A289C"/>
<stop offset="0.96" stop-color="#00092B"/>
</radialGradient>
<radialGradient id="paint7_radial_7_6151" cx="0" cy="0" r="1" gradientUnits="userSpaceOnUse" gradientTransform="translate(185.47 564.524) scale(96.6582 96.4725)">
<stop stop-color="#4A289C"/>
<stop offset="0.96" stop-color="#00092B"/>
</radialGradient>
<radialGradient id="paint8_radial_7_6151" cx="0" cy="0" r="1" gradientUnits="userSpaceOnUse" gradientTransform="translate(193.021 571.731) rotate(9.09279) scale(83.7697 89.5366)">
<stop stop-color="#4A289C"/>
<stop offset="0.96" stop-color="#00092B"/>
</radialGradient>
<radialGradient id="paint9_radial_7_6151" cx="0" cy="0" r="1" gradientUnits="userSpaceOnUse" gradientTransform="translate(197.213 597.01) scale(62.2636 67.1376)">
<stop stop-color="#4A289C"/>
<stop offset="0.96" stop-color="#00092B"/>
</radialGradient>
<radialGradient id="paint10_radial_7_6151" cx="0" cy="0" r="1" gradientUnits="userSpaceOnUse" gradientTransform="translate(218.377 553.993) scale(76.9194 82.9408)">
<stop stop-color="#4A289C"/>
<stop offset="0.96" stop-color="#00092B"/>
</radialGradient>
<radialGradient id="paint11_radial_7_6151" cx="0" cy="0" r="1" gradientUnits="userSpaceOnUse" gradientTransform="translate(218.377 553.993) scale(76.9194 82.9407)">
<stop stop-color="#4A289C"/>
<stop offset="0.96" stop-color="#00092B"/>
</radialGradient>
<radialGradient id="paint12_radial_7_6151" cx="0" cy="0" r="1" gradientUnits="userSpaceOnUse" gradientTransform="translate(218.377 553.993) scale(76.9193 82.9407)">
<stop stop-color="#4A289C"/>
<stop offset="0.96" stop-color="#00092B"/>
</radialGradient>
<radialGradient id="paint13_radial_7_6151" cx="0" cy="0" r="1" gradientUnits="userSpaceOnUse" gradientTransform="translate(218.377 553.993) scale(76.9194 82.9407)">
<stop stop-color="#4A289C"/>
<stop offset="0.96" stop-color="#00092B"/>
</radialGradient>
<radialGradient id="paint14_radial_7_6151" cx="0" cy="0" r="1" gradientUnits="userSpaceOnUse" gradientTransform="translate(218.377 553.993) scale(76.9193 82.9408)">
<stop stop-color="#4A289C"/>
<stop offset="0.96" stop-color="#00092B"/>
</radialGradient>
<radialGradient id="paint15_radial_7_6151" cx="0" cy="0" r="1" gradientUnits="userSpaceOnUse" gradientTransform="translate(218.377 553.993) scale(76.9194 82.9407)">
<stop stop-color="#4A289C"/>
<stop offset="0.96" stop-color="#00092B"/>
</radialGradient>
<radialGradient id="paint16_radial_7_6151" cx="0" cy="0" r="1" gradientUnits="userSpaceOnUse" gradientTransform="translate(117.083 594.112) scale(23.469 25.3062)">
<stop stop-color="#4A289C"/>
<stop offset="0.96" stop-color="#00092B"/>
</radialGradient>
<radialGradient id="paint17_radial_7_6151" cx="0" cy="0" r="1" gradientUnits="userSpaceOnUse" gradientTransform="translate(230.75 568.829) rotate(26.9755) scale(23.8786 25.107)">
<stop stop-color="#4A289C"/>
<stop offset="0.96" stop-color="#00092B"/>
</radialGradient>
<radialGradient id="paint18_radial_7_6151" cx="0" cy="0" r="1" gradientUnits="userSpaceOnUse" gradientTransform="translate(301.969 595.942) rotate(50.9061) scale(24.6976 24.2886)">
<stop stop-color="#4A289C"/>
<stop offset="0.96" stop-color="#00092B"/>
</radialGradient>
<radialGradient id="paint19_radial_7_6151" cx="0" cy="0" r="1" gradientUnits="userSpaceOnUse" gradientTransform="translate(238.732 578.271) rotate(26.9754) scale(10.1376 10.6591)">
<stop stop-color="#4A289C"/>
<stop offset="0.96" stop-color="#00092B"/>
</radialGradient>
<radialGradient id="paint20_radial_7_6151" cx="0" cy="0" r="1" gradientUnits="userSpaceOnUse" gradientTransform="translate(250.703 596.17) rotate(26.9755) scale(10.1376 10.6591)">
<stop stop-color="#4A289C"/>
<stop offset="0.96" stop-color="#00092B"/>
</radialGradient>
<radialGradient id="paint21_radial_7_6151" cx="0" cy="0" r="1" gradientUnits="userSpaceOnUse" gradientTransform="translate(263.779 584.506) rotate(26.9753) scale(10.1376 10.6591)">
<stop stop-color="#4A289C"/>
<stop offset="0.96" stop-color="#00092B"/>
</radialGradient>
<radialGradient id="paint22_radial_7_6151" cx="0" cy="0" r="1" gradientUnits="userSpaceOnUse" gradientTransform="translate(275.156 602.411) rotate(41.2753) scale(10.3109 10.4861)">
<stop stop-color="#4A289C"/>
<stop offset="0.96" stop-color="#00092B"/>
</radialGradient>
<radialGradient id="paint23_radial_7_6151" cx="0" cy="0" r="1" gradientUnits="userSpaceOnUse" gradientTransform="translate(272.381 584.996) rotate(34.5483) scale(16.4047 16.9636)">
<stop stop-color="#4A289C"/>
<stop offset="0.96" stop-color="#00092B"/>
</radialGradient>
<radialGradient id="paint24_radial_7_6151" cx="0" cy="0" r="1" gradientUnits="userSpaceOnUse" gradientTransform="translate(232.036 589.697) rotate(28.304) scale(16.265 16.9604)">
<stop stop-color="#4A289C"/>
<stop offset="0.96" stop-color="#00092B"/>
</radialGradient>
<radialGradient id="paint25_radial_7_6151" cx="0" cy="0" r="1" gradientUnits="userSpaceOnUse" gradientTransform="translate(147.827 582.887) rotate(3.30365) scale(14.4024 15.5301)">
<stop stop-color="#4A289C"/>
<stop offset="0.96" stop-color="#00092B"/>
</radialGradient>
<radialGradient id="paint26_radial_7_6151" cx="0" cy="0" r="1" gradientUnits="userSpaceOnUse" gradientTransform="translate(145.838 597.183) rotate(3.30366) scale(14.4024 15.5301)">
<stop stop-color="#4A289C"/>
<stop offset="0.96" stop-color="#00092B"/>
</radialGradient>
<radialGradient id="paint27_radial_7_6151" cx="0" cy="0" r="1" gradientUnits="userSpaceOnUse" gradientTransform="translate(151.114 596.583) rotate(3.30366) scale(8.97201 9.67448)">
<stop stop-color="#4A289C"/>
<stop offset="0.96" stop-color="#00092B"/>
</radialGradient>
<radialGradient id="paint28_radial_7_6151" cx="0" cy="0" r="1" gradientUnits="userSpaceOnUse" gradientTransform="translate(140.11 577.74) rotate(3.30366) scale(8.97198 9.67447)">
<stop stop-color="#4A289C"/>
<stop offset="0.96" stop-color="#00092B"/>
</radialGradient>
<radialGradient id="paint29_radial_7_6151" cx="0" cy="0" r="1" gradientUnits="userSpaceOnUse" gradientTransform="translate(125.636 596.587) rotate(3.30367) scale(8.97198 9.67448)">
<stop stop-color="#4A289C"/>
<stop offset="0.96" stop-color="#00092B"/>
</radialGradient>
<radialGradient id="paint30_radial_7_6151" cx="0" cy="0" r="1" gradientUnits="userSpaceOnUse" gradientTransform="translate(160.87 576.559) scale(23.4691 25.3062)">
<stop stop-color="#4A289C"/>
<stop offset="0.96" stop-color="#00092B"/>
</radialGradient>
<radialGradient id="paint31_radial_7_6151" cx="0" cy="0" r="1" gradientUnits="userSpaceOnUse" gradientTransform="translate(169.581 579.029) rotate(3.30366) scale(8.97201 9.67448)">
<stop stop-color="#4A289C"/>
<stop offset="0.96" stop-color="#00092B"/>
</radialGradient>
<radialGradient id="paint32_radial_7_6151" cx="0" cy="0" r="1" gradientUnits="userSpaceOnUse" gradientTransform="translate(126.55 581.409) rotate(3.30365) scale(8.97201 9.67447)">
<stop stop-color="#4A289C"/>
<stop offset="0.96" stop-color="#00092B"/>
</radialGradient>
<clipPath id="clip0_7_6151">
<rect width="375" height="639" fill="white"/>
</clipPath>
<clipPath id="clip1_7_6151">
<rect width="375" height="125.436" fill="white" transform="translate(0 554)"/>
</clipPath>
</defs>
</svg>
